<svg width="20" height="21" viewBox="0 0 20 21" fill="none" xmlns="http://www.w3.org/2000/svg">
<path d="M5.18072 17.638C4.98109 17.8376 4.98112 18.1613 5.18072 18.3609L7.10843 20.2886C7.30805 20.4882 7.63171 20.4882 7.83131 20.2886L19.6386 8.48131C19.8382 8.28171 19.8382 7.95806 19.6386 7.75843L17.7109 5.83073C17.5112 5.6311 17.1876 5.63113 16.988 5.83073C16.3901 6.42862 15.4172 6.42865 14.8193 5.83073C14.2214 5.2328 14.2214 4.25996 14.8193 3.66203C15.0189 3.46243 15.0189 3.13878 14.8193 2.93915L12.8916 1.01145C12.6919 0.811822 12.3683 0.811847 12.1687 1.01145L0.361441 12.8187C0.161816 13.0183 0.16184 13.342 0.36144 13.5416L2.28915 15.4693C2.48877 15.6689 2.81243 15.6689 3.01203 15.4693C3.60993 14.8714 4.5828 14.8714 5.18072 15.4693C5.77864 16.0672 5.77864 17.0401 5.18072 17.638ZM2.68691 14.4213L1.44576 13.1801L9.03614 5.58977L10.1205 6.67411C10.3201 6.87374 10.6438 6.87371 10.8434 6.67411C11.043 6.47451 11.043 6.15083 10.8434 5.95123L9.75902 4.86689L12.5301 2.09577L13.7713 3.33691C13.1153 4.32873 13.2237 5.68088 14.0964 6.55361C14.9691 7.42634 16.3213 7.5347 17.3131 6.87873L18.5542 8.11987L15.7831 10.891L14.6988 9.80662C14.4992 9.607 14.1755 9.60702 13.9759 9.80662C13.7763 10.0062 13.7763 10.3299 13.9759 10.5295L15.0603 11.6138L7.46989 19.2042L6.22875 17.9631C6.8847 16.9713 6.77635 15.6191 5.90363 14.7464C5.0309 13.8737 3.67869 13.7653 2.68691 14.4213Z" fill="#F4E0FF"/>
<path d="M13.2528 9.08373C13.4524 8.8841 13.4524 8.56045 13.2528 8.36085L12.289 7.39699C12.0893 7.19736 11.7657 7.19739 11.5661 7.39699C11.3665 7.59659 11.3665 7.92027 11.5661 8.11987L12.5299 9.08373C12.7295 9.28335 13.0532 9.28335 13.2528 9.08373Z" fill="#F4E0FF"/>
</svg>
