<svg width="43" height="48" viewBox="0 0 43 48" fill="none" xmlns="http://www.w3.org/2000/svg">
<path d="M40.1932 13.5505C40.1932 13.5505 33.4198 34.4142 17.7551 42.0353C17.7551 42.0353 17.5304 42.5141 16.8171 42.349C16.1038 42.1838 12.1435 37.481 12.1435 37.481C12.1435 37.481 11.688 37.3465 12.0427 36.3198C12.4208 35.226 13.0862 34.9335 12.0385 33.4441C10.9909 31.9547 8.21721 34.0354 8.21721 34.0354L4.36455 29.3859C4.36455 29.3859 13.0751 20.4105 15.6713 17.1531C16.7646 15.782 18.8578 12.9385 19.6331 11.3648C20.4248 9.75629 22.0184 4.6078 22.0184 4.6078C22.4522 4.34729 22.9531 4.2246 23.4551 4.25594C24.3083 4.30201 28.4313 6.09113 28.5858 6.39082C28.7403 6.69052 28.344 7.88936 28.648 8.83123C28.952 9.7731 28.7686 11.1704 29.5244 11.1585C30.2802 11.1465 31.9242 11.3367 32.2299 10.8384C32.5356 10.3401 33.5869 9.06977 33.5869 9.06977C33.5869 9.06977 36.2618 10.788 36.5194 10.8104C36.777 10.8328 39.8238 12.7134 39.8238 12.7134L40.1932 13.5505Z" fill="#17F0FF"/>
<path d="M26.5995 10.8953C27.7693 14.2935 31.555 12.1023 34.1433 12.3608C34.4105 12.4233 34.614 12.7542 34.6438 12.8694C35.5516 15.0144 36.2836 17.4531 37.9198 19.1079C39.4608 15.8081 40.1929 13.5504 40.1929 13.5504L39.8284 12.7088C39.8284 12.7088 36.7837 10.8293 36.5239 10.8058C36.2641 10.7824 33.5915 9.06517 33.5915 9.06517C33.5915 9.06517 32.5396 10.3367 32.2344 10.8338C31.9293 11.331 30.2842 11.1403 29.5289 11.1539C28.7737 11.1674 28.9588 9.7723 28.6526 8.82662C28.3463 7.88095 28.7443 6.68703 28.5903 6.38621C28.5056 6.22054 27.2149 5.60368 25.9309 5.07346C26.2547 6.9798 26.0162 9.06281 26.5995 10.8953Z" fill="#B6FAFC"/>
<path d="M7.01752 32.5784L8.22984 34.0342C8.22984 34.0342 11.0124 31.955 12.0478 33.4414C13.0833 34.9278 12.4208 35.2258 12.052 36.3171C11.6973 37.3438 12.1528 37.4783 12.1528 37.4783C12.1528 37.4783 16.1126 42.185 16.8243 42.3508C17.5359 42.5165 17.7623 42.0371 17.7623 42.0371C17.8445 41.9977 17.925 41.9561 18.0065 41.915C15.2476 39.6865 13.9869 36.4386 13.3134 33.0475C13.1193 32.2119 12.5877 31.6395 11.9541 31.1778C11.6349 31.1128 11.3048 31.121 10.9881 31.2019C9.61304 31.4888 8.27869 31.9514 7.01752 32.5784Z" fill="#118C8C"/>
<path fill-rule="evenodd" clip-rule="evenodd" d="M32.9661 22.5761C33.0271 22.5059 33.0581 22.4144 33.0524 22.3217C33.0467 22.2289 33.0047 22.1426 32.9356 22.0815L23.0328 13.3588C22.9635 13.2984 22.873 13.2681 22.7811 13.2747C22.6893 13.2813 22.6034 13.3242 22.5423 13.394L15.269 21.7482C15.269 21.7482 17.8985 22.089 21.4546 25.2213C25.0107 28.3535 25.6927 30.9303 25.6927 30.9303L32.9661 22.5761Z" fill="#17F0FF"/>
<path d="M21.3212 25.3707C20.5494 24.6855 19.7275 24.0596 18.8624 23.498C18.2978 23.1318 17.7096 22.8035 17.1016 22.5154L16.9207 22.4305C15.8437 21.9468 15.1927 21.8424 15.1861 21.842C15.1916 21.8446 15.8448 21.9474 16.9229 22.4316L17.1038 22.5165C17.7122 22.8047 18.3008 23.1331 18.8657 23.4996C19.7309 24.0611 20.5527 24.6871 21.3245 25.3723L21.3212 25.3707Z" fill="#231F20"/>
<path d="M25.606 31.0229C25.606 31.0229 25.4148 30.3858 24.7973 29.3706C24.4056 28.7405 23.9687 28.1403 23.4901 27.5746C22.8225 26.7866 22.0973 26.0501 21.3206 25.3711L21.3232 25.3655C22.1003 26.0449 22.8257 26.782 23.4933 27.5706C23.9725 28.1363 24.4097 28.7367 24.8016 29.3672C25.4213 30.3779 25.6102 31.0139 25.6114 31.02L25.606 31.0229Z" fill="#231F20"/>
<path fill-rule="evenodd" clip-rule="evenodd" d="M25.6944 30.9242C25.6944 30.9242 25.009 28.3459 21.4562 25.2151C17.9035 22.0844 14.9102 21.6098 14.9102 21.6098L9.14845 28.0393L17.6682 37.239L25.6944 30.9242Z" fill="white"/>
<path fill-rule="evenodd" clip-rule="evenodd" d="M23.9609 23.0875L25.5729 27.5226C25.7045 27.8827 25.2743 28.4183 24.9229 28.2698L20.9147 26.5852C20.5975 26.4671 20.3352 26.2359 20.1771 25.9352L17.9886 22.1627C17.7967 21.8304 18.265 21.3345 18.6392 21.4144L23.2234 22.4375C23.394 22.4674 23.5529 22.5438 23.6829 22.6583C23.8129 22.7729 23.909 22.9213 23.9609 23.0875Z" fill="#FDBD10"/>
<path d="M20.7935 26.6121C20.5012 26.4832 20.2619 26.2579 20.1144 25.9731L17.9248 22.2001C17.8802 22.1122 17.863 22.0126 17.8754 21.9142C17.8878 21.8158 17.9292 21.7232 17.9943 21.6484C18.1311 21.4608 18.3946 21.2889 18.655 21.3428L23.2403 22.3664C23.423 22.3994 23.5928 22.4821 23.7315 22.6056C23.8702 22.7291 23.9724 22.8886 24.0272 23.067L25.6392 27.5021C25.7301 27.7527 25.592 28.041 25.4245 28.2018C25.3594 28.2764 25.2737 28.3298 25.1785 28.3552C25.0834 28.3805 24.9831 28.3766 24.8906 28.3439L20.8845 26.6548L20.7935 26.6121ZM23.441 22.5879C23.366 22.5533 23.2873 22.5274 23.2064 22.5106L18.6223 21.4875C18.4374 21.4459 18.2285 21.5764 18.1131 21.7357C18.0661 21.7875 18.0352 21.8521 18.0244 21.9213C18.0136 21.9905 18.0234 22.0612 18.0524 22.1245L20.2404 25.8981C20.3905 26.1846 20.6404 26.4047 20.9426 26.5166L24.9508 28.2012C25.0171 28.2215 25.0881 28.2216 25.1548 28.2016C25.2215 28.1815 25.2811 28.1422 25.326 28.0885C25.4639 27.9562 25.5697 27.7281 25.5039 27.548L23.8914 23.114C23.8564 22.9996 23.7984 22.8939 23.7209 22.8033C23.6435 22.7128 23.5482 22.6395 23.441 22.5879Z" fill="#231F20"/>
<path d="M18.1708 21.5557L18.0732 21.6677L25.3988 28.1212L25.4963 28.0092L18.1708 21.5557Z" fill="#231F20"/>
<path d="M20.9781 20.6201C21.7373 20.9765 22.6449 20.6434 23.0051 19.8761C23.3653 19.1088 23.0418 18.1979 22.2825 17.8414C21.5232 17.485 20.6157 17.8181 20.2555 18.5854C19.8953 19.3527 20.2188 20.2636 20.9781 20.6201Z" fill="white"/>
<path d="M20.9466 20.6875C20.8119 20.624 20.6869 20.5418 20.5751 20.4433C20.2751 20.1781 20.087 19.8074 20.0488 19.406C20.0105 19.0046 20.125 18.6023 20.369 18.2802C20.6131 17.9581 20.9686 17.7401 21.364 17.6702C21.7593 17.6003 22.1651 17.6836 22.4995 17.9034C22.8339 18.1232 23.0721 18.4632 23.166 18.8547C23.26 19.2462 23.2027 19.6603 23.0058 20.0134C22.8088 20.3665 22.4868 20.6323 22.1047 20.7574C21.7226 20.8825 21.3088 20.8575 20.9466 20.6875ZM22.2511 17.9088C21.9358 17.7605 21.577 17.7323 21.2407 17.8294C20.9045 17.9265 20.6134 18.1423 20.4211 18.4372C20.2287 18.732 20.1481 19.086 20.1941 19.434C20.2401 19.782 20.4095 20.1005 20.6712 20.331C20.959 20.5844 21.3358 20.7115 21.719 20.6844C22.1021 20.6573 22.46 20.4781 22.7141 20.1864C22.9681 19.8946 23.0974 19.5141 23.0736 19.1286C23.0498 18.7432 22.8747 18.3842 22.5869 18.1308C22.4866 18.0412 22.3739 17.9666 22.2522 17.9093L22.2511 17.9088Z" fill="#231F20"/>
<path d="M21.8296 19.4913C21.9725 19.3792 21.9989 19.1724 21.8887 19.0295C21.7785 18.8866 21.5734 18.8617 21.4305 18.9738C21.2877 19.0859 21.2612 19.2926 21.3714 19.4355C21.4816 19.5784 21.6868 19.6034 21.8296 19.4913Z" fill="#231F20"/>
<path d="M22.8828 17.6418L22.5635 18.0088L22.7108 18.1385L23.0301 17.7715L22.8828 17.6418Z" fill="#231F20"/>
<path d="M21.8997 17.1314L21.7036 17.1292L21.6942 17.6116L21.8903 17.6139L21.8997 17.1314Z" fill="#231F20"/>
<path d="M23.6153 18.7608L23.1113 18.8413L23.1406 19.0367L23.6446 18.9562L23.6153 18.7608Z" fill="#231F20"/>
<path d="M28.6717 24.9632C29.0683 24.2141 28.7892 23.288 28.0483 22.8948C27.3074 22.5015 26.3852 22.79 25.9886 23.5391C25.592 24.2882 25.8711 25.2143 26.612 25.6075C27.353 26.0008 28.2751 25.7123 28.6717 24.9632Z" fill="white"/>
<path d="M26.6465 25.7087C26.5116 25.6456 26.3865 25.5634 26.275 25.4645C25.9586 25.185 25.7662 24.7896 25.7401 24.3651C25.714 23.9405 25.8562 23.5216 26.1356 23.2C26.4159 22.8779 26.811 22.6801 27.2338 22.6501C27.6566 22.62 28.0726 22.7602 28.3903 23.0398C28.708 23.3194 28.9013 23.7155 28.9277 24.141C28.9541 24.5664 28.8115 24.9864 28.5311 25.3085C28.3012 25.5719 27.9929 25.7535 27.6529 25.8258C27.3128 25.898 26.9595 25.8569 26.6465 25.7087ZM26.3722 25.3528C26.5866 25.5412 26.8521 25.661 27.1353 25.6972C27.4184 25.7333 27.7066 25.6841 27.9633 25.5559C28.2201 25.4276 28.434 25.2259 28.5781 24.9763C28.7221 24.7267 28.7899 24.4404 28.7728 24.1534C28.7551 23.866 28.653 23.5911 28.4796 23.3633C28.3062 23.1356 28.0692 22.9653 27.7985 22.874C27.5279 22.7827 27.2357 22.7744 26.9591 22.8503C26.6824 22.9262 26.4337 23.0828 26.2443 23.3003C25.9905 23.5922 25.8613 23.9725 25.885 24.3579C25.9087 24.7433 26.0833 25.1023 26.3706 25.3561L26.3722 25.3528Z" fill="#231F20"/>
<path fill-rule="evenodd" clip-rule="evenodd" d="M27.1162 24.5003C27.1646 24.5427 27.2244 24.5696 27.2882 24.5776C27.352 24.5856 27.4168 24.5744 27.4746 24.5453C27.5323 24.5163 27.5804 24.4707 27.6126 24.4144C27.6449 24.3581 27.6599 24.2936 27.6558 24.229C27.6518 24.1644 27.6287 24.1026 27.5897 24.0514C27.5506 24.0003 27.4972 23.9621 27.4364 23.9416C27.3755 23.9211 27.3098 23.9193 27.2476 23.9364C27.1854 23.9536 27.1295 23.9888 27.0869 24.0377C27.0301 24.1036 27.0013 24.1892 27.0068 24.2759C27.0122 24.3626 27.0516 24.4433 27.1162 24.5003Z" fill="#231F20"/>
<path d="M28.584 22.6643L28.2646 23.0312L28.412 23.1609L28.7313 22.794L28.584 22.6643Z" fill="#231F20"/>
<path d="M27.5989 22.1073L27.4028 22.105L27.3934 22.5875L27.5895 22.5897L27.5989 22.1073Z" fill="#231F20"/>
<path d="M29.316 23.7833L28.812 23.8638L28.8413 24.0591L29.3453 23.9787L29.316 23.7833Z" fill="#231F20"/>
<path fill-rule="evenodd" clip-rule="evenodd" d="M3.76196 28.8805C4.08951 28.2693 4.65463 27.6684 5.23902 27.1764C6.39616 26.2143 10.0724 22.2775 10.6934 21.5373C12.2347 19.6963 14.669 18.1857 19.0367 10.7597C19.8753 9.28359 20.5205 7.70553 20.9562 6.0652C21.0835 5.5776 21.2651 4.95128 21.4186 4.5033C21.5836 4.03341 21.9288 3.47701 22.4904 3.45466C23.7312 3.40766 28.2809 5.45319 29.4012 6.0407C30.3204 6.52287 29.1161 9.49493 29.8883 10.4404C30.1222 10.7267 30.8132 11.0662 31.3248 10.5879C32.042 9.92562 32.3314 8.57944 33.3992 8.53745C34.6317 8.49069 35.4495 9.40827 36.5744 10.0609C37.6382 10.6794 39.0352 11.2572 39.7979 11.8479C40.086 12.0707 40.8042 12.635 40.9097 12.9035C41.1834 13.6012 40.4976 14.9351 40.2859 15.5418C39.3972 18.0723 35.497 24.9583 34.6406 26.0355C33.9765 26.8733 30.7555 31.5712 29.5523 32.9687C27.6237 35.2107 25.2539 37.7232 22.976 39.7342C22.3673 40.2695 21.5926 40.6995 20.9394 41.266C20.0795 42.0131 18.0334 43.5678 16.7941 43.3117C16.1215 43.1725 14.1578 41.1162 13.9142 40.865C13.425 40.3493 11.7355 38.7994 11.4703 38.5162C11.2771 38.3106 10.7632 37.9544 10.9518 37.4517C11.0356 37.227 11.2693 36.7523 11.4039 36.4598C11.6071 36.0269 11.8189 33.7959 10.9497 33.7929C10.3804 33.8234 9.825 33.9872 9.32764 34.2712C9.02416 34.4764 8.57285 34.9473 8.01316 34.4752C7.86334 34.3501 3.12219 30.0731 3.76196 28.8805ZM12.0555 32.5248C13.3762 33.216 13.0509 35.859 12.7468 36.9164C12.7216 37.0017 12.5099 37.473 12.5236 37.5505C12.551 37.7112 13.3625 38.3221 13.6263 38.5677C14.7887 39.6512 15.9968 40.6891 16.9915 41.6856C17.1284 41.8238 17.1427 41.9837 17.3074 41.9817C17.4041 41.9806 18.2851 41.4828 18.5832 41.2573C19.3914 40.6405 20.096 40.2214 20.8783 39.654C21.7791 38.9985 22.3203 38.4398 22.992 37.8629C24.1399 36.8773 25.3502 35.7787 26.3018 34.7065C28.1481 32.6283 30.2321 30.4332 31.8826 28.2098C33.1438 26.5097 36.421 20.9132 36.9388 19.9602C37.9191 18.1486 38.7637 16.2666 39.4654 14.3301C39.7761 13.4346 39.0641 12.8773 38.4806 12.5801C36.842 11.7438 34.9323 10.8733 33.5625 9.87992C32.8241 10.847 32.381 12.4139 30.6283 12.3341C29.2617 12.2742 28.4324 11.3033 28.1042 9.6343C27.9566 8.89861 28.5904 7.73325 28.3108 7.17504C28.2007 6.95369 26.8809 6.60369 26.5242 6.40884C25.1716 5.66713 24.0211 5.10649 22.3935 4.96781C21.8963 8.7932 20.1324 12.2073 18.2444 15.1444C17.8905 15.6582 17.5083 16.1518 17.0995 16.6227C13.4008 21.0087 9.43444 25.1591 5.22366 29.0494C6.10476 30.7234 7.59614 31.6685 8.57733 32.9994C9.56407 32.8359 11.2973 32.1292 12.056 32.5265L12.0555 32.5248Z" fill="black"/>
<path fill-rule="evenodd" clip-rule="evenodd" d="M36.1452 16.5477C33.899 22.241 29.8437 27.8335 24.9895 31.9057C23.4966 33.159 22.0018 34.3238 20.3925 35.5539C19.7758 36.0253 18.3206 37.6165 17.4736 37.5487C17.1511 37.5232 16.0845 36.3108 15.7682 35.8914C13.9488 33.4787 11.9922 31.8198 10.0972 29.6028C9.57873 28.9968 8.59033 28.3042 9.11961 27.5633C9.9744 26.38 11.5443 25.3174 12.5067 24.2106C15.4128 20.8701 18.0847 17.0188 20.7676 13.2479C21.0958 12.7682 21.3924 12.2674 21.6555 11.7489C21.8472 11.3695 22.1297 10.3609 22.4567 10.227C22.8931 10.0473 23.8533 10.6267 24.2465 10.8277C24.8628 11.1417 25.2571 11.5594 25.7284 11.8765C28.826 13.9519 32.7043 15.0651 36.1452 16.5477ZM16.1744 35.4991C16.4451 35.7877 17.4081 37.1142 17.7862 36.9318C18.8095 36.4338 19.6722 35.5566 20.5779 34.9253C23.1201 33.1561 25.2825 30.9758 27.4768 28.9352C28.5432 27.9442 29.5781 26.6771 30.4762 25.5113C32.5001 22.8816 34.4872 19.9786 35.4618 16.7948C32.1107 15.4816 28.696 14.2029 25.6499 12.3842C24.6692 11.7993 23.8828 10.8869 22.6913 10.6587C19.0601 16.9769 14.6113 22.7856 9.46288 27.9311C11.6322 30.3946 13.8696 33.0214 16.1728 35.5025L16.1744 35.4991Z" fill="black"/>
</svg>
