<svg width="25" height="26" viewBox="0 0 25 26" fill="none" xmlns="http://www.w3.org/2000/svg">
<path d="M15.9216 13.4971C15.9075 13.4775 15.8915 13.4591 15.874 13.4426C15.8564 13.4258 15.8369 13.4108 15.8165 13.3981C15.796 13.3853 15.7737 13.3744 15.7512 13.3659C15.7283 13.3572 15.7048 13.3512 15.6811 13.3472C15.6573 13.3431 15.6329 13.3412 15.6087 13.3418C15.56 13.3436 15.5119 13.3547 15.4674 13.3745C15.4454 13.3845 15.4247 13.3969 15.4047 13.411C15.3851 13.4251 15.3667 13.4407 15.3503 13.4586C15.3334 13.4762 15.3185 13.4957 15.3057 13.5161C15.2926 13.5367 15.282 13.5585 15.2732 13.5815C15.2647 13.604 15.2584 13.6275 15.2544 13.6513C15.2504 13.6754 15.2488 13.6998 15.2495 13.724C15.2501 13.7482 15.2535 13.7725 15.2589 13.796C15.2643 13.8195 15.272 13.8428 15.282 13.8649C15.2921 13.8869 15.3042 13.9081 15.3183 13.9277C15.3324 13.9476 15.3484 13.966 15.3659 13.9825C15.3839 13.9993 15.403 14.0143 15.4238 14.027C15.4442 14.0397 15.4662 14.0507 15.489 14.0591C15.5116 14.0676 15.5351 14.0739 15.5589 14.0779C15.583 14.0819 15.607 14.0839 15.6312 14.0829C15.6557 14.0822 15.6798 14.0793 15.7036 14.0738C15.7271 14.0684 15.75 14.0604 15.7724 14.0503C15.7945 14.0406 15.8156 14.0281 15.8352 14.0141C15.8548 14 15.8732 13.984 15.89 13.9664C15.9065 13.9489 15.9218 13.9294 15.9346 13.9089C15.9473 13.8884 15.9583 13.8665 15.9667 13.8436C15.9752 13.8211 15.9815 13.7976 15.9855 13.7735C15.9895 13.7497 15.9911 13.7253 15.9904 13.7011C15.9898 13.6769 15.9868 13.6525 15.9814 13.629C15.9759 13.6055 15.9679 13.5823 15.9579 13.5602C15.9478 13.5382 15.9357 13.517 15.9216 13.4971Z" fill="#F4E0FF"/>
<path d="M11.9587 11.1346L9.9403 11.3195L8.67995 9.85454C8.57186 9.72894 8.39611 9.67422 8.22659 9.7134C8.05707 9.75258 7.92312 9.87889 7.88116 10.0392L7.45033 11.684L7.39151 11.9086L6.67427 12.181L5.49676 12.6282C5.33427 12.6899 5.22045 12.8326 5.20307 12.9964C5.18569 13.1601 5.2679 13.3164 5.41504 13.3996L6.84296 14.2074L7.13072 14.3702L7.16673 15.1398L7.22003 16.2798C7.22766 16.4436 7.33305 16.5865 7.4919 16.6485C7.6507 16.7105 7.83542 16.6809 7.96832 16.572L9.5184 15.3023L11.4684 15.763C11.541 15.7802 11.6158 15.7796 11.6867 15.7632C11.779 15.7419 11.8647 15.6937 11.9301 15.6227C12.0456 15.4973 12.0776 15.3226 12.0126 15.1721L11.2548 13.4169L12.3706 11.792C12.4663 11.6526 12.4716 11.4761 12.3841 11.3365C12.2967 11.197 12.1318 11.1188 11.9587 11.1346ZM10.3622 13.1533C10.2795 13.2737 10.2636 13.4234 10.3198 13.5536L10.8214 14.7154L9.53059 14.4105C9.38601 14.3763 9.23101 14.4122 9.11605 14.5063L8.08997 15.3468L8.03083 14.0827C8.02781 14.0176 8.00866 13.9559 7.97721 13.9008C7.94016 13.836 7.88586 13.7805 7.81705 13.7416L7.15194 13.3654L6.68131 13.0992L7.11488 12.9344L7.93559 12.6227C7.94853 12.6178 7.96085 12.6119 7.97318 12.6059C8.09463 12.5476 8.18503 12.4419 8.21803 12.3161L8.54219 11.0786L9.37648 12.0484C9.46995 12.157 9.61514 12.2137 9.76479 12.2L11.1009 12.0776L10.3622 13.1533Z" fill="#F4E0FF"/>
<path d="M23.7892 11.2352L23.0538 9.21444C22.9747 8.99723 22.7313 8.88403 22.5069 8.95999C21.6844 9.23854 20.7794 8.81751 20.4898 8.02162C20.2001 7.22573 20.6257 6.32968 21.4385 6.02421C21.6603 5.94081 21.7748 5.69982 21.6958 5.48261L20.9604 3.46182C20.8333 3.11272 20.5742 2.83438 20.2307 2.67807C19.8872 2.5218 19.5006 2.50631 19.1419 2.63433L4.67279 7.80084C4.3177 7.92764 4.03232 8.18028 3.86767 8.51267L1.90727 8.96579C1.1409 9.14301 0.657886 9.89478 0.830524 10.6417L1.31462 12.7361C1.36666 12.9613 1.59429 13.102 1.8261 13.0525C2.6756 12.8709 3.52184 13.3942 3.7125 14.2191C3.90316 15.044 3.37242 15.8856 2.5294 16.0953C2.29935 16.1524 2.15658 16.3788 2.20861 16.6039L2.69271 18.6983C2.86535 19.4453 3.62927 19.9088 4.39565 19.7317L16.322 16.9751L19.3701 16.2705C20.1365 16.0934 20.6195 15.3416 20.4468 14.5947L20.2997 13.958L22.9219 13.0217C23.2806 12.8936 23.5684 12.6373 23.7322 12.2998C23.8959 11.9624 23.9162 11.5843 23.7892 11.2352ZM19.2837 13.4212L19.4758 14.2522L19.6002 14.7904C19.6677 15.0823 19.4789 15.3761 19.1793 15.4454L16.5546 16.052L16.393 15.353L16.3758 15.2785C16.3231 15.0506 16.0909 14.9097 15.8571 14.9637C15.6233 15.0178 15.4765 15.2463 15.5291 15.4742L15.5691 15.6472L15.7079 16.2477L10.5459 17.4408L7.41297 18.165L4.20491 18.9065C3.90541 18.9757 3.60682 18.7945 3.53934 18.5026L3.14094 16.7789C3.59603 16.5803 3.98046 16.2526 4.24768 15.8296C4.59181 15.2847 4.70242 14.6433 4.55914 14.0234C4.41585 13.4035 4.03498 12.8756 3.48667 12.5371C3.06086 12.2742 2.57169 12.1485 2.07557 12.1697L1.67717 10.446C1.6097 10.1541 1.79846 9.86024 2.098 9.79101L3.75404 9.40824L4.60136 9.21239L13.6011 7.13223L14.7623 12.1564C14.815 12.3842 15.0472 12.5252 15.281 12.4711C15.5148 12.4171 15.6616 12.1886 15.609 11.9607L14.4477 6.93658L17.0725 6.3299C17.372 6.26068 17.6706 6.44184 17.7381 6.73378L18.1365 8.45746C17.6814 8.65613 17.2969 8.98377 17.0297 9.40686C16.6855 9.95167 16.575 10.5931 16.7183 11.213C16.8616 11.8329 17.2424 12.3608 17.7907 12.6993C18.2165 12.9622 18.7057 13.0879 19.2018 13.0667L19.2838 13.4211L19.2837 13.4212ZM22.9489 11.9434C22.8848 12.0753 22.7724 12.1755 22.6322 12.2256L20.1076 13.127L19.9627 12.5003C19.9107 12.2752 19.6831 12.1344 19.4513 12.1839C18.6018 12.3656 17.7555 11.8422 17.5648 11.0173C17.3742 10.1923 17.9049 9.35072 18.748 9.14113C18.978 9.08391 19.1208 8.85755 19.0687 8.6324L18.5846 6.53798C18.412 5.79103 17.6481 5.32747 16.8817 5.50461L13.8336 6.20914L7.64175 7.6403L19.4316 3.43054C19.5717 3.38047 19.7229 3.38654 19.8572 3.44761C19.9914 3.50868 20.0927 3.61748 20.1423 3.75392L20.7476 5.41701C20.3192 5.66675 19.9767 6.03616 19.7623 6.48662C19.4862 7.06673 19.454 7.71559 19.6717 8.31371C19.8894 8.91182 20.3321 9.39116 20.9183 9.66335C21.3735 9.87476 21.8752 9.9427 22.3659 9.86427L22.9711 11.5274C23.0208 11.6638 23.0129 11.8116 22.9489 11.9434Z" fill="#F4E0FF"/>
</svg>
