<svg width="20" height="20" viewBox="0 0 20 20" fill="none" xmlns="http://www.w3.org/2000/svg">
<g clip-path="url(#clip0_956_2121)">
<path d="M10 3.05176e-05C8.02219 3.05176e-05 6.08879 0.58652 4.4443 1.68533C2.79981 2.78415 1.51809 4.34593 0.76121 6.1732C0.0043334 8.00046 -0.193701 10.0111 0.192151 11.9509C0.578004 13.8907 1.53041 15.6726 2.92894 17.0711C4.32746 18.4696 6.10929 19.422 8.0491 19.8079C9.98891 20.1937 11.9996 19.9957 13.8268 19.2388C15.6541 18.4819 17.2159 17.2002 18.3147 15.5557C19.4135 13.9112 20 11.9778 20 10C20 7.34786 18.9464 4.80433 17.0711 2.92896C15.1957 1.0536 12.6522 3.05176e-05 10 3.05176e-05V3.05176e-05ZM14.911 6.85103L13.27 14.585C13.148 15.133 12.822 15.267 12.37 15.008L9.87 13.166L8.664 14.327C8.531 14.461 8.419 14.573 8.164 14.573L8.342 12.029L12.967 7.84303C13.167 7.66603 12.922 7.56603 12.656 7.74303L6.93 11.348L4.462 10.578C3.926 10.408 3.915 10.043 4.575 9.78403L14.217 6.06603C14.665 5.90403 15.055 6.17503 14.91 6.85203L14.911 6.85103Z" fill="#ADFAFF"/>
</g>
<defs>
<clipPath id="clip0_956_2121">
<rect width="20" height="20" fill="white"/>
</clipPath>
</defs>
</svg>
