<svg width="20" height="20" viewBox="0 0 20 20" fill="none" xmlns="http://www.w3.org/2000/svg">
<path d="M10 -6.10352e-05C8.02219 -6.10352e-05 6.08879 0.586429 4.4443 1.68524C2.79981 2.78406 1.51809 4.34584 0.761209 6.1731C0.00433283 8.00036 -0.1937 10.011 0.192152 11.9508C0.578004 13.8906 1.53041 15.6725 2.92894 17.071C4.32746 18.4695 6.10929 19.4219 8.0491 19.8078C9.98891 20.1936 11.9996 19.9956 13.8268 19.2387C15.6541 18.4819 17.2159 17.2001 18.3147 15.5556C19.4135 13.9111 20 11.9777 20 9.99994C20 7.34777 18.9464 4.80423 17.0711 2.92887C15.1957 1.05351 12.6522 -6.10352e-05 10 -6.10352e-05ZM15.037 7.96094L15.044 8.26694C15.044 11.3919 12.593 14.9969 8.11 14.9969C6.78972 14.9993 5.49527 14.631 4.374 13.9339C4.56721 13.9561 4.76153 13.9671 4.956 13.9669C6.04877 13.9702 7.11234 13.6143 7.983 12.9539C7.48019 12.9496 6.99112 12.7893 6.58327 12.4952C6.17542 12.2011 5.8689 11.7877 5.706 11.3119C5.85702 11.3402 6.01036 11.3543 6.164 11.3539C6.38068 11.354 6.59647 11.3261 6.806 11.2709C6.26171 11.1712 5.76904 10.8853 5.41237 10.4622C5.05571 10.0392 4.85725 9.50525 4.851 8.95194V8.92194C5.18924 9.10639 5.56595 9.20913 5.951 9.22194C5.62015 9.01008 5.34785 8.71846 5.15913 8.37388C4.97042 8.0293 4.87134 7.64281 4.871 7.24994C4.87035 6.83104 4.98411 6.41992 5.2 6.06094C5.82172 6.79679 6.58886 7.39615 7.45326 7.82138C8.31766 8.24662 9.26065 8.48853 10.223 8.53194C10.1806 8.35542 10.1595 8.17447 10.16 7.99294C10.16 6.68694 11.251 5.62894 12.596 5.62894C12.9274 5.62769 13.2557 5.69309 13.5613 5.82124C13.8669 5.9494 14.1436 6.13769 14.375 6.37494C14.9199 6.27141 15.4435 6.07703 15.924 5.79994C15.739 6.35308 15.3576 6.81917 14.852 7.10994C15.3343 7.0544 15.806 6.92874 16.252 6.73694C15.923 7.21393 15.5116 7.62842 15.037 7.96094Z" fill="#AAFFFF"/>
</svg>
