<svg width="20" height="20" viewBox="0 0 20 20" fill="none" xmlns="http://www.w3.org/2000/svg">
<g clip-path="url(#clip0_972_1452)">
<path d="M10 -3.05176e-05C8.02219 -3.05176e-05 6.08879 0.586459 4.4443 1.68527C2.79981 2.78409 1.51809 4.34587 0.761209 6.17313C0.00433283 8.00039 -0.1937 10.0111 0.192152 11.9509C0.578004 13.8907 1.53041 15.6725 2.92894 17.071C4.32746 18.4696 6.10929 19.422 8.0491 19.8078C9.98891 20.1937 11.9996 19.9956 13.8268 19.2388C15.6541 18.4819 17.2159 17.2002 18.3147 15.5557C19.4135 13.9112 20 11.9778 20 9.99997C20 7.3478 18.9464 4.80426 17.0711 2.9289C15.1957 1.05354 12.6522 -3.05176e-05 10 -3.05176e-05ZM15.037 7.96097L15.044 8.26697C15.044 11.392 12.593 14.997 8.11 14.997C6.78972 14.9994 5.49527 14.631 4.374 13.934C4.56721 13.9561 4.76153 13.9671 4.956 13.967C6.04877 13.9703 7.11234 13.6143 7.983 12.954C7.48019 12.9496 6.99112 12.7893 6.58327 12.4952C6.17542 12.2011 5.8689 11.7877 5.706 11.312C5.85702 11.3402 6.01036 11.3543 6.164 11.354C6.38068 11.3541 6.59647 11.3262 6.806 11.271C6.26171 11.1712 5.76904 10.8853 5.41237 10.4623C5.05571 10.0392 4.85725 9.50528 4.851 8.95197V8.92197C5.18924 9.10642 5.56595 9.20916 5.951 9.22197C5.62015 9.01011 5.34785 8.71849 5.15913 8.37391C4.97042 8.02933 4.87134 7.64284 4.871 7.24997C4.87035 6.83107 4.98411 6.41995 5.2 6.06097C5.82172 6.79682 6.58886 7.39618 7.45326 7.82141C8.31766 8.24665 9.26065 8.48856 10.223 8.53197C10.1806 8.35545 10.1595 8.1745 10.16 7.99297C10.16 6.68697 11.251 5.62897 12.596 5.62897C12.9274 5.62772 13.2557 5.69312 13.5613 5.82127C13.8669 5.94943 14.1436 6.13772 14.375 6.37497C14.9199 6.27144 15.4435 6.07706 15.924 5.79997C15.739 6.35311 15.3576 6.8192 14.852 7.10997C15.3343 7.05443 15.806 6.92878 16.252 6.73697C15.923 7.21396 15.5116 7.62845 15.037 7.96097Z" fill="#ADFAFF"/>
</g>
<defs>
<clipPath id="clip0_972_1452">
<rect width="20" height="20" fill="white"/>
</clipPath>
</defs>
</svg>
