<svg width="21" height="20" viewBox="0 0 21 20" fill="none" xmlns="http://www.w3.org/2000/svg">
<path d="M10.25 0C8.27219 0 6.33879 0.58649 4.6943 1.6853C3.04981 2.78412 1.76809 4.3459 1.01121 6.17316C0.254333 8.00043 0.0562995 10.0111 0.442152 11.9509C0.828004 13.8907 1.78041 15.6725 3.17894 17.0711C4.57746 18.4696 6.35929 19.422 8.2991 19.8078C10.2389 20.1937 12.2496 19.9957 14.0768 19.2388C15.9041 18.4819 17.4659 17.2002 18.5647 15.5557C19.6635 13.9112 20.25 11.9778 20.25 10C20.25 7.34783 19.1964 4.8043 17.3211 2.92893C15.4457 1.05357 12.9022 0 10.25 0ZM15.287 7.961L15.294 8.267C15.294 11.392 12.843 14.997 8.36 14.997C7.03972 14.9994 5.74527 14.6311 4.624 13.934C4.81721 13.9561 5.01153 13.9671 5.206 13.967C6.29877 13.9703 7.36234 13.6144 8.233 12.954C7.73019 12.9496 7.24112 12.7894 6.83327 12.4953C6.42542 12.2011 6.1189 11.7877 5.956 11.312C6.10702 11.3403 6.26036 11.3543 6.414 11.354C6.63068 11.3541 6.84647 11.3262 7.056 11.271C6.51171 11.1713 6.01904 10.8854 5.66237 10.4623C5.30571 10.0392 5.10725 9.50531 5.101 8.952V8.922C5.43924 9.10645 5.81595 9.20919 6.201 9.222C5.87015 9.01014 5.59785 8.71852 5.40913 8.37394C5.22042 8.02936 5.12134 7.64287 5.121 7.25C5.12035 6.8311 5.23411 6.41998 5.45 6.061C6.07172 6.79685 6.83886 7.39621 7.70326 7.82145C8.56766 8.24668 9.51065 8.48859 10.473 8.532C10.4306 8.35548 10.4095 8.17453 10.41 7.993C10.41 6.687 11.501 5.629 12.846 5.629C13.1774 5.62775 13.5057 5.69315 13.8113 5.8213C14.1169 5.94946 14.3936 6.13775 14.625 6.375C15.1699 6.27147 15.6935 6.07709 16.174 5.8C15.989 6.35314 15.6076 6.81923 15.102 7.11C15.5843 7.05446 16.056 6.92881 16.502 6.737C16.173 7.21399 15.7616 7.62848 15.287 7.961Z" fill="#17F0FF"/>
</svg>
