<svg width="16" height="16" viewBox="0 0 16 16" fill="none" xmlns="http://www.w3.org/2000/svg">
<path fill-rule="evenodd" clip-rule="evenodd" d="M6.46347 5.68354C6.16972 5.97643 6.16972 6.4513 6.46347 6.7442L8.18816 8.46387L6.46347 10.1835C6.16972 10.4764 6.16972 10.9513 6.46347 11.2442C6.75722 11.5371 7.23347 11.5371 7.52722 11.2442L9.78379 8.9942C10.0775 8.7013 10.0775 8.22643 9.78379 7.93354L7.52722 5.68354C7.23347 5.39064 6.75722 5.39064 6.46347 5.68354Z" fill="#D47DFF"/>
<path fill-rule="evenodd" clip-rule="evenodd" d="M0 8.46387C0 4.32173 3.36766 0.963867 7.52188 0.963867C11.6761 0.963867 15.0438 4.32173 15.0438 8.46387C15.0438 12.606 11.6761 15.9639 7.52188 15.9639C3.36766 15.9639 0 12.606 0 8.46387ZM7.52188 2.46387C4.1985 2.46387 1.50438 5.15016 1.50438 8.46387C1.50438 11.7776 4.1985 14.4639 7.52188 14.4639C10.8453 14.4639 13.5394 11.7776 13.5394 8.46387C13.5394 5.15016 10.8453 2.46387 7.52188 2.46387Z" fill="#D47DFF"/>
</svg>
