<svg width="19" height="19" viewBox="0 0 19 19" fill="none" xmlns="http://www.w3.org/2000/svg">
<path fill-rule="evenodd" clip-rule="evenodd" d="M17.6883 2.57927C18.2783 1.98923 18.2783 1.03258 17.6883 0.442533C17.0982 -0.147511 16.1416 -0.147511 15.5515 0.442533L9.06541 6.92868L2.57927 0.442535C1.98923 -0.14751 1.03258 -0.14751 0.442533 0.442535C-0.147511 1.03258 -0.147511 1.98923 0.442533 2.57927L6.92867 9.06542L0.442533 15.5516C-0.147511 16.1416 -0.147511 17.0983 0.442533 17.6883C1.03258 18.2783 1.98923 18.2783 2.57927 17.6883L9.0654 11.2022L15.5515 17.6883C16.1416 18.2784 17.0982 18.2784 17.6883 17.6883C18.2783 17.0983 18.2783 16.1416 17.6883 15.5516L11.2021 9.06542L17.6883 2.57927Z" fill="#F4E0FF"/>
</svg>
