<svg width="20" height="21" viewBox="0 0 20 21" fill="none" xmlns="http://www.w3.org/2000/svg">
<g clip-path="url(#clip0)">
<path d="M5.85938 7.94836C2.62852 7.94836 0 10.5769 0 13.8077C0 17.0386 2.62852 19.6671 5.85938 19.6671C9.09023 19.6671 11.7188 17.0386 11.7188 13.8077C11.7188 10.5769 9.09023 7.94836 5.85938 7.94836ZM5.85938 18.1046C3.49008 18.1046 1.5625 16.177 1.5625 13.8077C1.5625 11.4384 3.49008 9.51086 5.85938 9.51086C8.22867 9.51086 10.1562 11.4384 10.1562 13.8077C10.1562 16.177 8.22867 18.1046 5.85938 18.1046ZM5.85938 11.464C4.56703 11.464 3.51562 12.5154 3.51562 13.8077C3.51562 15.1001 4.56703 16.1515 5.85938 16.1515C7.15172 16.1515 8.20312 15.1001 8.20312 13.8077C8.20312 12.5154 7.15172 11.464 5.85938 11.464ZM5.85938 14.589C5.42859 14.589 5.07812 14.2385 5.07812 13.8077C5.07812 13.377 5.42859 13.0265 5.85938 13.0265C6.29016 13.0265 6.64062 13.377 6.64062 13.8077C6.64062 14.2385 6.29016 14.589 5.85938 14.589ZM20 13.8077C20 17.0386 17.3715 19.6671 14.1406 19.6671C13.4764 19.6671 12.8244 19.5566 12.2026 19.3388C11.7954 19.1961 11.581 18.7504 11.7236 18.3432C11.8663 17.936 12.3121 17.7216 12.7193 17.8642C13.1746 18.0237 13.6528 18.1046 14.1406 18.1046C16.5099 18.1046 18.4375 16.177 18.4375 13.8077C18.4375 11.4384 16.5099 9.51086 14.1406 9.51086C13.6287 9.51086 13.1283 9.59973 12.6533 9.77504C12.2485 9.92438 11.7993 9.71735 11.6498 9.31254C11.5005 8.90778 11.7076 8.45852 12.1123 8.30914C12.7612 8.06973 13.4436 7.94836 14.1406 7.94836C17.3715 7.94836 20 10.5769 20 13.8077ZM4.16949 6.11336C4.31238 4.67411 4.98219 3.34309 6.05547 2.36551C7.13625 1.3811 8.53715 0.838989 10 0.838989C11.455 0.838989 12.8502 1.37602 13.9286 2.3511C14.999 3.31895 15.6728 4.63907 15.8258 6.06833C15.8718 6.49735 15.5612 6.88239 15.1321 6.92832C14.7034 6.97422 14.3181 6.66368 14.2721 6.23469C14.0382 4.04942 12.2016 2.40149 10 2.40149C7.78133 2.40149 5.9432 4.0636 5.72438 6.26774C5.68438 6.67083 5.34457 6.97184 4.94789 6.97184C4.92203 6.97184 4.89602 6.97055 4.86977 6.96797C4.44039 6.92536 4.12687 6.54274 4.16949 6.11336ZM12.3322 6.46493C12.3748 6.8943 12.0613 7.27692 11.632 7.31954C11.6057 7.32211 11.5796 7.3234 11.5539 7.3234C11.1571 7.3234 10.8174 7.02239 10.7773 6.6193C10.7376 6.21899 10.4034 5.91711 10 5.91711C9.6066 5.91711 9.27332 6.21055 9.22484 6.59969C9.17148 7.02786 8.78137 7.33196 8.35293 7.27829C7.92477 7.22493 7.62098 6.83454 7.67434 6.40641C7.82016 5.23668 8.82 4.35461 10 4.35461C11.2101 4.35461 12.2128 5.26184 12.3322 6.46493ZM14.693 14.3602C14.9977 14.0556 14.9977 13.5599 14.693 13.2553C14.4709 13.0332 14.139 12.9658 13.8473 13.0836C13.4472 13.2452 12.992 13.0518 12.8304 12.6518C12.6687 12.2517 12.8621 11.7964 13.2621 11.6348C14.1362 11.2817 15.1316 11.4841 15.798 12.1505C16.7118 13.0643 16.7118 14.5512 15.798 15.465C15.3493 15.9137 14.7513 16.152 14.1418 16.152C13.8461 16.152 13.5477 16.096 13.2621 15.9806C12.8621 15.819 12.6687 15.3637 12.8304 14.9636C12.992 14.5636 13.4474 14.3704 13.8473 14.5318C14.139 14.6497 14.4709 14.5823 14.693 14.3602Z" fill="#F4E0FF"/>
</g>
<defs>
<clipPath id="clip0">
<rect width="20" height="20" fill="white" transform="translate(0 0.253052)"/>
</clipPath>
</defs>
</svg>
