<svg width="402" height="149" viewBox="0 0 402 149" fill="none" xmlns="http://www.w3.org/2000/svg">
<g filter="url(#filter0_d)">
<path d="M30.6258 135.214L79.5524 135.403C79.5609 131.507 83.2712 128.372 87.866 128.394C92.4608 128.415 96.1704 131.573 96.1619 135.469L368.715 137.119C383.01 137.203 394.654 127.475 394.77 115.34L395.01 85.5872C384.835 85.4183 376.71 78.2731 376.872 69.6455C377.033 61.1334 385.209 54.3106 395.267 54.3195L395.505 24.7255C395.604 12.5474 384.004 2.57915 369.641 2.47994L96.3055 0.835375C96.297 4.73147 92.5867 7.86559 87.9919 7.84425C83.3971 7.82291 79.6875 4.66544 79.696 0.769342L30.7694 0.581061C16.4403 0.525506 4.81144 10.3409 4.79782 22.4911L4.76281 52.1739C14.9391 52.2563 23.15 59.3158 23.1068 67.9447C23.0472 76.5157 14.8536 83.4393 4.74464 83.4298L4.70979 113.098C4.67899 125.263 16.2967 135.159 30.6258 135.214ZM86.2313 11.6635C86.2403 10.8411 87.0304 10.1715 88.0006 10.1676C88.9705 10.1782 89.763 10.8507 89.754 11.6731L89.7558 13.0729C89.7468 13.8953 88.9736 14.5651 87.9865 14.5687C87.0166 14.5581 86.224 13.8857 86.233 13.0632L86.2313 11.6635ZM86.2241 18.5467C86.2331 17.7242 87.0233 17.0546 87.9933 17.0652C88.9632 17.0758 89.7557 17.7483 89.7467 18.5707L89.7493 21.4568C89.7403 22.2793 88.9501 22.9489 87.9801 22.9383C87.0102 22.9277 86.2177 22.2552 86.2266 21.4328L86.2241 18.5467ZM86.2137 27.2913C86.2227 26.4689 87.0129 25.7993 87.9828 25.8099C88.9527 25.8205 89.7454 26.4785 89.7363 27.3154L89.7388 30.2015C89.7298 31.0239 88.9396 31.6935 87.9695 31.6973C86.9996 31.6867 86.2071 31.0143 86.216 30.1919L86.2137 27.2913ZM86.2031 36.0504C86.2121 35.228 87.0022 34.5584 87.9723 34.5546C88.9423 34.5652 89.7348 35.2376 89.7258 36.0601L89.7283 38.9462C89.7194 39.7686 88.9292 40.4382 87.9592 40.4276C86.9893 40.417 86.1968 39.7445 86.2057 38.9221L86.2031 36.0504ZM86.1926 44.7951C86.2016 43.9727 86.9918 43.3031 87.9619 43.2992C88.9318 43.3098 89.7244 43.9823 89.7154 44.8047L89.7179 47.6908C89.7089 48.5133 88.9187 49.1828 87.9488 49.1722C86.9788 49.1616 86.1863 48.4892 86.1953 47.6668L86.1926 44.7951ZM86.1822 53.5398C86.1912 52.7173 86.9813 52.0477 87.9513 52.0583C88.9212 52.0689 89.7138 52.7414 89.7048 53.5638L89.7073 56.4499C89.6983 57.2723 88.9081 57.9419 87.9382 57.9313C86.9682 57.9207 86.1757 57.2483 86.1847 56.4259L86.1822 53.5398ZM86.1716 62.2989C86.1805 61.4764 86.9707 60.8068 87.9407 60.8174C88.9106 60.828 89.7033 61.4861 89.6942 62.3229L89.6967 65.209C89.6877 66.0314 88.9145 66.7012 87.9446 66.6906C86.9746 66.68 86.1821 66.0076 86.1911 65.1851L86.1716 62.2989ZM86.1611 71.0435C86.1701 70.2211 86.9601 69.5659 87.9302 69.5621C88.9002 69.5727 89.6927 70.2451 89.6837 71.0676L89.6862 73.9537C89.6772 74.7761 88.887 75.4457 87.9171 75.4351C86.9471 75.4245 86.1546 74.752 86.1636 73.9296L86.1611 71.0435ZM86.1506 79.7882C86.1596 78.9658 86.9498 78.2962 87.9198 78.3068C88.8897 78.3174 89.6822 78.9898 89.6732 79.8122L89.6757 82.6983C89.6668 83.5208 88.8936 84.1905 87.9066 84.1798C86.9367 84.1692 86.1442 83.4967 86.1531 82.6743L86.1506 79.7882ZM86.14 88.5473C86.149 87.7248 86.9392 87.0553 87.9091 87.0659C88.8791 87.0765 89.6716 87.7489 89.6626 88.5713L89.6651 91.4574C89.6732 92.28 88.883 92.9496 87.9129 92.9535C87.9129 92.9535 87.9129 92.9535 87.8959 92.9533C86.9259 92.9427 86.1334 92.2702 86.1424 91.4478L86.14 88.5473ZM86.1296 97.2919C86.1386 96.4695 86.9117 95.7997 87.8987 95.8105C88.8686 95.8211 89.6612 96.4936 89.6522 97.316L89.6547 100.202C89.6457 101.025 88.8555 101.694 87.8854 101.698C86.9155 101.687 86.1229 101.015 86.1319 100.192L86.1296 97.2919ZM86.136 106.051C86.145 105.229 86.9181 104.559 87.9053 104.555C88.3647 104.56 88.8224 104.724 89.1597 105.002C89.4971 105.28 89.68 105.671 89.6758 106.061L89.6783 108.947C89.6693 109.77 88.8791 110.439 87.9092 110.429C86.9392 110.418 86.1465 109.76 86.1555 108.938L86.136 106.051ZM86.1255 114.796C86.1345 113.973 86.9247 113.304 87.8946 113.314C88.8646 113.325 89.6571 113.998 89.6481 114.82L89.6506 117.706C89.6416 118.528 88.8515 119.198 87.8815 119.187C86.9116 119.177 86.119 118.504 86.128 117.682L86.1255 114.796ZM89.1215 125.637C88.795 125.922 88.3338 126.076 87.8744 126.071C86.9044 126.06 86.1119 125.388 86.1209 124.565L86.1192 123.165C86.1282 122.343 86.9183 121.673 87.8883 121.684C88.8582 121.695 89.6508 122.367 89.6418 123.189L89.6435 124.589C89.6392 124.979 89.4478 125.366 89.1215 125.637Z" fill="#3FFFFF"/>
</g>
<defs>
<filter id="filter0_d" x="0.709961" y="0.580841" width="400.796" height="147.539" filterUnits="userSpaceOnUse" color-interpolation-filters="sRGB">
<feFlood flood-opacity="0" result="BackgroundImageFix"/>
<feColorMatrix in="SourceAlpha" type="matrix" values="0 0 0 0 0 0 0 0 0 0 0 0 0 0 0 0 0 0 127 0" result="hardAlpha"/>
<feOffset dx="1" dy="6"/>
<feGaussianBlur stdDeviation="2.5"/>
<feComposite in2="hardAlpha" operator="out"/>
<feColorMatrix type="matrix" values="0 0 0 0 0.45175 0 0 0 0 0.3625 0 0 0 0 1 0 0 0 1 0"/>
<feBlend mode="normal" in2="BackgroundImageFix" result="effect1_dropShadow"/>
<feBlend mode="normal" in="SourceGraphic" in2="effect1_dropShadow" result="shape"/>
</filter>
</defs>
</svg>
