<svg width="262" height="106" viewBox="0 0 262 106" fill="none" xmlns="http://www.w3.org/2000/svg">
<g filter="url(#filter0_d_597_82)">
<path d="M21.3008 94.2628L52.5891 94.2531C52.6111 91.5454 54.9972 89.3566 57.9355 89.3583C60.8739 89.3599 63.2328 91.5436 63.2108 94.2514L237.505 94.6159C246.646 94.6333 254.134 87.8387 254.26 79.4051L254.54 58.727C248.033 58.6388 242.867 53.6964 243.008 47.7C243.147 41.7838 248.404 37.0187 254.836 36.996L255.114 16.4282C255.23 7.96441 247.854 1.07004 238.669 1.04232L63.8745 0.684099C63.8525 3.39181 61.4664 5.5806 58.528 5.57896C55.5897 5.57732 53.2308 3.3936 53.2528 0.685891L21.9645 0.695501C12.8011 0.69803 5.32257 7.5529 5.26225 15.997L5.11379 36.6259C11.6213 36.6539 16.8423 41.5366 16.778 47.5335C16.7035 53.4903 11.4342 58.3256 4.96942 58.348L4.82112 78.9669C4.74976 87.421 12.1374 94.2653 21.3008 94.2628ZM57.3859 8.23829C57.3951 7.6667 57.9033 7.19908 58.5237 7.19363C59.144 7.19821 59.6479 7.66327 59.6387 8.23487L59.6339 9.20767C59.6246 9.77926 59.1273 10.247 58.496 10.2523C57.8758 10.2477 57.3718 9.78268 57.3811 9.21108L57.3859 8.23829ZM57.3521 13.022C57.3613 12.4504 57.8695 11.9827 58.4898 11.9873C59.11 11.9919 59.614 12.457 59.6047 13.0286L59.5941 15.0343C59.5848 15.6059 59.0767 16.0735 58.4564 16.069C57.8362 16.0644 57.3322 15.5993 57.3414 15.0277L57.3521 13.022ZM57.3083 19.0993C57.3175 18.5277 57.8257 18.0601 58.4459 18.0647C59.0662 18.0692 59.5703 18.5243 59.5609 19.1059L59.5503 21.1117C59.541 21.6833 59.0328 22.1509 58.4124 22.1563C57.7922 22.1517 57.2882 21.6867 57.2974 21.1151L57.3083 19.0993ZM57.2643 25.1867C57.2735 24.6151 57.7817 24.1475 58.4021 24.142C59.0223 24.1466 59.5263 24.6117 59.5171 25.1833L59.5064 27.189C59.4972 27.7606 58.989 28.2282 58.3688 28.2237C57.7485 28.2191 57.2445 27.754 57.2538 27.1824L57.2643 25.1867ZM57.2205 31.264C57.2297 30.6924 57.7379 30.2248 58.3583 30.2194C58.9785 30.224 59.4825 30.689 59.4733 31.2606L59.4626 33.2664C59.4534 33.838 58.9452 34.3056 58.3249 34.301C57.7047 34.2964 57.2007 33.8314 57.21 33.2598L57.2205 31.264ZM57.1766 37.3414C57.1859 36.7698 57.694 36.3022 58.3143 36.3068C58.9345 36.3113 59.4385 36.7764 59.4293 37.348L59.4186 39.3538C59.4094 39.9254 58.9012 40.393 58.281 40.3884C57.6607 40.3838 57.1567 39.9187 57.166 39.3471L57.1766 37.3414ZM57.1326 43.4288C57.1419 42.8572 57.65 42.3896 58.2703 42.3941C58.8905 42.3987 59.3947 42.8538 59.3853 43.4354L59.3746 45.4411C59.3654 46.0127 58.8681 46.4804 58.2478 46.4758C57.6276 46.4713 57.1236 46.0062 57.1329 45.4346L57.1326 43.4288ZM57.0888 49.5061C57.098 48.9345 57.6061 48.4769 58.2265 48.4715C58.8467 48.4761 59.3507 48.9411 59.3414 49.5127L59.3308 51.5185C59.3215 52.0901 58.8134 52.5577 58.1931 52.5531C57.5729 52.5485 57.0689 52.0835 57.0781 51.5119L57.0888 49.5061ZM57.045 55.5835C57.0542 55.0119 57.5624 54.5443 58.1826 54.5488C58.8029 54.5534 59.3069 55.0185 59.2976 55.5901L59.287 57.5958C59.2777 58.1674 58.7804 58.6351 58.1493 58.6305C57.5291 58.6259 57.0251 58.1608 57.0343 57.5892L57.045 55.5835ZM57.001 61.6709C57.0102 61.0993 57.5184 60.6317 58.1386 60.6362C58.7589 60.6408 59.2629 61.1059 59.2536 61.6775L59.243 63.6832C59.2446 64.2549 58.7364 64.7225 58.116 64.728C58.116 64.728 58.116 64.728 58.1052 64.7279C57.4849 64.7233 56.9809 64.2582 56.9902 63.6866L57.001 61.6709ZM56.9572 67.7482C56.9664 67.1766 57.4637 66.7089 58.0948 66.7136C58.7151 66.7182 59.219 67.1832 59.2098 67.7548L59.1991 69.7606C59.1899 70.3322 58.6817 70.7998 58.0613 70.8052C57.4411 70.8007 56.9371 70.3356 56.9463 69.764L56.9572 67.7482ZM56.9241 73.8357C56.9333 73.2641 57.4306 72.7964 58.0619 72.791C58.3557 72.7932 58.6477 72.9057 58.8622 73.0978C59.0768 73.2899 59.1921 73.5616 59.1877 73.8323L59.1771 75.8381C59.1678 76.4097 58.6597 76.8773 58.0394 76.8727C57.4192 76.8681 56.915 76.4131 56.9243 75.8415L56.9241 73.8357ZM56.8802 79.913C56.8895 79.3414 57.3976 78.8738 58.0179 78.8784C58.6381 78.883 59.1421 79.348 59.1329 79.9196L59.1222 81.9254C59.113 82.497 58.6048 82.9646 57.9846 82.96C57.3643 82.9554 56.8603 82.4904 56.8696 81.9188L56.8802 79.913ZM58.7501 87.4387C58.5401 87.6377 58.2446 87.7459 57.9508 87.7437C57.3305 87.7391 56.8265 87.274 56.8358 86.7024L56.8406 85.7297C56.8499 85.1581 57.358 84.6904 57.9783 84.695C58.5985 84.6996 59.1025 85.1647 59.0933 85.7363L59.0884 86.7091C59.084 86.9798 58.96 87.2497 58.7501 87.4387Z" fill="#3FFFFF"/>
</g>
<defs>
<filter id="filter0_d_597_82" x="0.820312" y="0.68457" width="260.296" height="104.932" filterUnits="userSpaceOnUse" color-interpolation-filters="sRGB">
<feFlood flood-opacity="0" result="BackgroundImageFix"/>
<feColorMatrix in="SourceAlpha" type="matrix" values="0 0 0 0 0 0 0 0 0 0 0 0 0 0 0 0 0 0 127 0" result="hardAlpha"/>
<feOffset dx="1" dy="6"/>
<feGaussianBlur stdDeviation="2.5"/>
<feComposite in2="hardAlpha" operator="out"/>
<feColorMatrix type="matrix" values="0 0 0 0 0.45175 0 0 0 0 0.3625 0 0 0 0 1 0 0 0 1 0"/>
<feBlend mode="normal" in2="BackgroundImageFix" result="effect1_dropShadow_597_82"/>
<feBlend mode="normal" in="SourceGraphic" in2="effect1_dropShadow_597_82" result="shape"/>
</filter>
</defs>
</svg>
