<svg width="44" height="50" viewBox="0 0 44 50" fill="none" xmlns="http://www.w3.org/2000/svg">
<path d="M41.2839 14.6074C41.2839 14.6074 34.2422 36.2975 17.957 44.2205C17.957 44.2205 17.7234 44.7183 16.9818 44.5466C16.2403 44.3749 12.1231 39.4858 12.1231 39.4858C12.1231 39.4858 11.6495 39.346 12.0183 38.2786C12.4114 37.1414 13.1031 36.8374 12.014 35.289C10.9249 33.7406 8.0413 35.9037 8.0413 35.9037L4.03605 31.07C4.03605 31.07 13.0916 21.7391 15.7907 18.3527C16.9272 16.9273 19.1033 13.9711 19.9094 12.3351C20.7324 10.6629 22.3892 5.31047 22.3892 5.31047C22.8401 5.03963 23.3609 4.91209 23.8828 4.94466C24.7697 4.99257 29.056 6.85254 29.2167 7.16411C29.3773 7.47568 28.9654 8.72201 29.2814 9.70118C29.5974 10.6804 29.4067 12.133 30.1925 12.1206C30.9782 12.1082 32.6873 12.3059 33.0051 11.7879C33.3229 11.2699 34.4159 9.94918 34.4159 9.94918C34.4159 9.94918 37.1967 11.7355 37.4645 11.7588C37.7323 11.7821 40.8999 13.7371 40.8999 13.7371L41.2839 14.6074Z" fill="#17F0FF"/>
<path d="M27.1516 11.8466C28.3678 15.3794 32.3035 13.1014 34.9942 13.3701C35.272 13.4351 35.4836 13.7791 35.5146 13.8989C36.4584 16.1288 37.2193 18.6641 38.9203 20.3845C40.5224 16.954 41.2835 14.6069 41.2835 14.6069L40.9045 13.7319C40.9045 13.7319 37.7393 11.7779 37.4692 11.7536C37.1991 11.7292 34.4206 9.94397 34.4206 9.94397C34.4206 9.94397 33.327 11.2658 33.0098 11.7827C32.6925 12.2995 30.9823 12.1013 30.1971 12.1154C29.412 12.1295 29.6044 10.6791 29.286 9.69598C28.9677 8.71285 29.3814 7.47164 29.2213 7.15891C29.1333 6.98668 27.7915 6.34538 26.4566 5.79415C26.7932 7.77601 26.5453 9.94153 27.1516 11.8466Z" fill="#B6FAFC"/>
<path d="M6.79387 34.389L8.05422 35.9025C8.05422 35.9025 10.947 33.7409 12.0234 35.2862C13.0999 36.8315 12.4111 37.1412 12.0278 38.2758C11.659 39.3432 12.1325 39.483 12.1325 39.483C12.1325 39.483 16.2493 44.3761 16.9891 44.5485C17.7289 44.7208 17.9643 44.2224 17.9643 44.2224C18.0497 44.1814 18.1334 44.1381 18.2182 44.0954C15.3499 41.7787 14.0393 38.4021 13.3391 34.8767C13.1373 34.008 12.5847 33.4129 11.926 32.9329C11.5942 32.8653 11.251 32.8739 10.9217 32.958C9.49221 33.2563 8.105 33.7372 6.79387 34.389Z" fill="#118C8C"/>
<path fill-rule="evenodd" clip-rule="evenodd" d="M33.7706 23.9905C33.834 23.9174 33.8663 23.8223 33.8603 23.7259C33.8544 23.6295 33.8107 23.5397 33.7389 23.4763L23.4438 14.408C23.3718 14.3452 23.2777 14.3138 23.1822 14.3206C23.0867 14.3275 22.9974 14.3721 22.9339 14.4447L15.3725 23.1297C15.3725 23.1297 18.1062 23.484 21.8031 26.7404C25.5001 29.9967 26.2091 32.6755 26.2091 32.6755L33.7706 23.9905Z" fill="#17F0FF"/>
<path d="M21.6643 26.8955C20.8619 26.1832 20.0075 25.5324 19.1081 24.9487C18.5212 24.5679 17.9096 24.2266 17.2775 23.9271L17.0895 23.8388C15.9699 23.336 15.293 23.2274 15.2862 23.227C15.2919 23.2297 15.971 23.3365 17.0918 23.8399L17.2798 23.9282C17.9124 24.2278 18.5243 24.5693 19.1116 24.9503C20.011 25.5341 20.8654 26.1848 21.6677 26.8972L21.6643 26.8955Z" fill="#231F20"/>
<path d="M26.1188 32.7716C26.1188 32.7716 25.9202 32.1093 25.2781 31.0539C24.8709 30.3988 24.4167 29.7748 23.9191 29.1868C23.2251 28.3676 22.4713 27.6019 21.6638 26.896L21.6665 26.8901C22.4744 27.5965 23.2285 28.3627 23.9225 29.1826C24.4207 29.7707 24.8753 30.3949 25.2826 31.0503C25.9269 32.1011 26.1232 32.7623 26.1245 32.7686L26.1188 32.7716Z" fill="#231F20"/>
<path fill-rule="evenodd" clip-rule="evenodd" d="M26.2106 32.6691C26.2106 32.6691 25.498 29.9886 21.8045 26.7339C18.111 23.4792 14.9992 22.9858 14.9992 22.9858L9.00922 29.6699L17.8664 39.234L26.2106 32.6691Z" fill="white"/>
<path fill-rule="evenodd" clip-rule="evenodd" d="M24.4084 24.5222L26.0842 29.133C26.221 29.5074 25.7738 30.0642 25.4085 29.9098L21.2415 28.1585C20.9118 28.0356 20.6391 27.7953 20.4747 27.4827L18.1996 23.5608C18 23.2153 18.4869 22.6998 18.8759 22.7828L23.6416 23.8464C23.819 23.8775 23.9842 23.9569 24.1194 24.076C24.2545 24.1951 24.3544 24.3494 24.4084 24.5222Z" fill="#FDBD10"/>
<path d="M21.1157 28.186C20.8119 28.0519 20.563 27.8178 20.4097 27.5217L18.1334 23.5992C18.087 23.5078 18.0691 23.4043 18.082 23.302C18.0949 23.1997 18.1379 23.1035 18.2056 23.0257C18.3478 22.8307 18.6217 22.652 18.8925 22.7079L23.6594 23.7721C23.8493 23.8064 24.0259 23.8924 24.1701 24.0208C24.3142 24.1491 24.4205 24.315 24.4775 24.5004L26.1533 29.1112C26.2478 29.3718 26.1043 29.6715 25.9301 29.8387C25.8624 29.9162 25.7734 29.9717 25.6744 29.9981C25.5755 30.0244 25.4712 30.0203 25.3751 29.9864L21.2103 28.2304L21.1157 28.186ZM23.8681 24.0023C23.7901 23.9664 23.7083 23.9395 23.6242 23.922L18.8585 22.8584C18.6662 22.8151 18.4491 22.9508 18.3291 23.1164C18.2802 23.1703 18.2482 23.2375 18.2369 23.3094C18.2257 23.3813 18.2358 23.4548 18.266 23.5207L20.5407 27.4437C20.6968 27.7415 20.9566 27.9703 21.2707 28.0866L25.4377 29.838C25.5066 29.8591 25.5804 29.8592 25.6497 29.8384C25.7191 29.8176 25.781 29.7767 25.8277 29.7209C25.9711 29.5833 26.0811 29.3462 26.0127 29.159L24.3363 24.5493C24.2999 24.4304 24.2396 24.3204 24.1591 24.2263C24.0785 24.1322 23.9795 24.056 23.8681 24.0023Z" fill="#231F20"/>
<path d="M18.3895 22.9295L18.2881 23.0459L25.9038 29.755L26.0052 29.6385L18.3895 22.9295Z" fill="#231F20"/>
<path d="M21.3075 21.9566C22.0969 22.3272 23.0403 21.9809 23.4148 21.1832C23.7893 20.3855 23.453 19.4385 22.6636 19.0679C21.8743 18.6974 20.9308 19.0436 20.5563 19.8413C20.1819 20.639 20.5182 21.5861 21.3075 21.9566Z" fill="white"/>
<path d="M21.2747 22.0269C21.1347 21.961 21.0047 21.8755 20.8885 21.773C20.5766 21.4973 20.3811 21.112 20.3413 20.6947C20.3016 20.2774 20.4205 19.8592 20.6743 19.5243C20.928 19.1894 21.2976 18.9628 21.7086 18.8901C22.1196 18.8174 22.5414 18.9041 22.8891 19.1326C23.2367 19.3611 23.4843 19.7145 23.582 20.1215C23.6797 20.5286 23.6201 20.959 23.4154 21.3261C23.2107 21.6932 22.8759 21.9696 22.4787 22.0997C22.0815 22.2297 21.6512 22.2037 21.2747 22.0269ZM22.6308 19.1382C22.3031 18.984 21.93 18.9547 21.5805 19.0557C21.2309 19.1566 20.9283 19.381 20.7283 19.6875C20.5284 19.994 20.4446 20.362 20.4924 20.7238C20.5402 21.0856 20.7163 21.4167 20.9884 21.6563C21.2875 21.9198 21.6794 22.0519 22.0776 22.0237C22.4759 21.9955 22.8481 21.8093 23.1122 21.506C23.3763 21.2027 23.5107 20.8071 23.4859 20.4063C23.4612 20.0056 23.2792 19.6324 22.98 19.369C22.8757 19.2758 22.7585 19.1983 22.632 19.1388L22.6308 19.1382Z" fill="#231F20"/>
<path d="M22.1926 20.7835C22.3411 20.667 22.3686 20.4521 22.254 20.3035C22.1395 20.1549 21.9262 20.129 21.7777 20.2455C21.6292 20.3621 21.6017 20.577 21.7162 20.7256C21.8308 20.8741 22.0441 20.9001 22.1926 20.7835Z" fill="#231F20"/>
<path d="M23.288 18.8607L22.9561 19.2422L23.1092 19.377L23.4412 18.9955L23.288 18.8607Z" fill="#231F20"/>
<path d="M22.2654 18.33L22.0615 18.3276L22.0517 18.8292L22.2556 18.8316L22.2654 18.33Z" fill="#231F20"/>
<path d="M24.0494 20.0243L23.5254 20.1079L23.5558 20.311L24.0798 20.2274L24.0494 20.0243Z" fill="#231F20"/>
<path d="M29.3059 26.4722C29.7183 25.6934 29.4281 24.7307 28.6578 24.3219C27.8876 23.9131 26.9289 24.213 26.5166 24.9918C26.1043 25.7705 26.3944 26.7333 27.1647 27.1421C27.935 27.5509 28.8936 27.251 29.3059 26.4722Z" fill="white"/>
<path d="M27.2006 27.2472C27.0604 27.1816 26.9303 27.0961 26.8144 26.9933C26.4854 26.7027 26.2855 26.2916 26.2583 25.8503C26.2311 25.409 26.379 24.9734 26.6695 24.6391C26.9609 24.3042 27.3716 24.0986 27.8112 24.0674C28.2507 24.0361 28.6832 24.1819 29.0135 24.4726C29.3437 24.7633 29.5447 25.175 29.5721 25.6173C29.5996 26.0596 29.4513 26.4962 29.1599 26.8311C28.9209 27.105 28.6003 27.2938 28.2468 27.3688C27.8933 27.4439 27.526 27.4012 27.2006 27.2472ZM26.9154 26.8771C27.1383 27.073 27.4143 27.1976 27.7087 27.2352C28.0031 27.2727 28.3027 27.2216 28.5696 27.0883C28.8365 26.9549 29.0589 26.7452 29.2087 26.4858C29.3584 26.2263 29.4289 25.9286 29.4111 25.6302C29.3927 25.3315 29.2866 25.0456 29.1063 24.8089C28.926 24.5721 28.6796 24.3951 28.3982 24.3002C28.1169 24.2052 27.8132 24.1967 27.5256 24.2755C27.2379 24.3544 26.9793 24.5172 26.7825 24.7433C26.5186 25.0468 26.3843 25.4422 26.4089 25.8429C26.4335 26.2436 26.6151 26.6168 26.9138 26.8806L26.9154 26.8771Z" fill="#231F20"/>
<path fill-rule="evenodd" clip-rule="evenodd" d="M27.6885 25.9908C27.7388 26.0348 27.801 26.0627 27.8673 26.0711C27.9336 26.0794 28.0011 26.0677 28.0611 26.0375C28.1211 26.0074 28.1711 25.96 28.2046 25.9015C28.2381 25.8429 28.2538 25.7758 28.2495 25.7087C28.2453 25.6415 28.2213 25.5773 28.1807 25.5241C28.1401 25.4709 28.0846 25.4312 28.0214 25.4099C27.9581 25.3886 27.8898 25.3867 27.8251 25.4045C27.7605 25.4223 27.7023 25.459 27.6581 25.5098C27.599 25.5783 27.569 25.6673 27.5747 25.7574C27.5804 25.8475 27.6213 25.9314 27.6885 25.9908Z" fill="#231F20"/>
<path d="M29.2148 24.0819L28.8828 24.4634L29.036 24.5982L29.368 24.2167L29.2148 24.0819Z" fill="#231F20"/>
<path d="M28.1907 23.5029L27.9868 23.5005L27.977 24.0021L28.1809 24.0045L28.1907 23.5029Z" fill="#231F20"/>
<path d="M29.9756 25.2454L29.4517 25.3291L29.4821 25.5322L30.006 25.4486L29.9756 25.2454Z" fill="#231F20"/>
<path fill-rule="evenodd" clip-rule="evenodd" d="M3.40953 30.5445C3.75006 29.9091 4.33756 29.2844 4.9451 28.7729C6.14808 27.7727 9.9699 23.68 10.6155 22.9104C12.2179 20.9966 14.7486 19.4261 19.2893 11.7059C20.1611 10.1714 20.8319 8.5308 21.2848 6.82549C21.4172 6.31858 21.606 5.66745 21.7655 5.20172C21.9371 4.71323 22.2959 4.13479 22.8798 4.11155C24.1697 4.06269 28.8996 6.18924 30.0643 6.80002C31.02 7.30129 29.768 10.3911 30.5707 11.374C30.8139 11.6717 31.5323 12.0246 32.0642 11.5274C32.8097 10.8388 33.1106 9.43932 34.2207 9.39567C35.502 9.34705 36.3522 10.301 37.5217 10.9795C38.6276 11.6224 40.08 12.2231 40.8729 12.8372C41.1724 13.0689 41.919 13.6555 42.0287 13.9346C42.3132 14.66 41.6003 16.0467 41.3802 16.6775C40.4563 19.3082 36.4016 26.467 35.5113 27.5869C34.8209 28.4578 31.4723 33.3417 30.2215 34.7946C28.2164 37.1255 25.7528 39.7375 23.3847 41.8282C22.7518 42.3846 21.9464 42.8317 21.2674 43.4206C20.3734 44.1973 18.2463 45.8136 16.9579 45.5473C16.2586 45.4026 14.2172 43.2649 13.9639 43.0037C13.4554 42.4676 11.6989 40.8563 11.4232 40.5619C11.2224 40.3481 10.6881 39.9778 10.8841 39.4552C10.9713 39.2216 11.2142 38.7281 11.3542 38.424C11.5654 37.974 11.7857 35.6546 10.8819 35.6515C10.2901 35.6832 9.71273 35.8535 9.19566 36.1488C8.88017 36.362 8.41099 36.8516 7.82912 36.3608C7.67336 36.2308 2.74442 31.7844 3.40953 30.5445ZM12.0315 34.3332C13.4046 35.0517 13.0664 37.7994 12.7503 38.8987C12.7241 38.9874 12.504 39.4773 12.5182 39.558C12.5468 39.725 13.3903 40.36 13.6646 40.6154C14.873 41.7418 16.129 42.8208 17.1631 43.8568C17.3054 44.0004 17.3202 44.1667 17.4915 44.1647C17.5921 44.1635 18.5079 43.6459 18.8178 43.4116C19.6581 42.7703 20.3905 42.3346 21.2038 41.7447C22.1403 41.0633 22.703 40.4824 23.4013 39.8826C24.5946 38.858 25.8529 37.716 26.8422 36.6012C28.7616 34.4408 30.9282 32.1587 32.644 29.8472C33.9551 28.0798 37.3622 22.2616 37.9005 21.2709C38.9196 19.3875 39.7977 17.431 40.5272 15.4178C40.8502 14.4868 40.11 13.9074 39.5033 13.5984C37.7998 12.729 35.8145 11.8241 34.3904 10.7913C33.6228 11.7967 33.1622 13.4256 31.3401 13.3427C29.9193 13.2804 29.0572 12.271 28.7159 10.536C28.5626 9.77113 29.2214 8.55962 28.9307 7.97929C28.8163 7.74918 27.4442 7.38531 27.0733 7.18275C25.6672 6.41166 24.4711 5.82881 22.7791 5.68464C22.2621 9.66155 20.4284 13.2109 18.4656 16.2643C18.0977 16.7985 17.7004 17.3116 17.2754 17.8011C13.4302 22.3609 9.3067 26.6757 4.92913 30.7201C5.84513 32.4604 7.39559 33.4429 8.41564 34.8266C9.44147 34.6566 11.2434 33.9219 12.0321 34.3349L12.0315 34.3332Z" fill="black"/>
<path fill-rule="evenodd" clip-rule="evenodd" d="M37.0757 17.7231C34.7405 23.6419 30.5245 29.4559 25.4781 33.6894C23.926 34.9923 22.3721 36.2033 20.699 37.4821C20.0579 37.9722 18.5451 39.6264 17.6645 39.5559C17.3292 39.5294 16.2203 38.269 15.8915 37.833C14.0001 35.3247 11.966 33.6001 9.99593 31.2953C9.4569 30.6652 8.42935 29.9453 8.97959 29.175C9.86825 27.9448 11.5003 26.8402 12.5009 25.6895C15.522 22.2167 18.2998 18.2128 21.089 14.2926C21.4302 13.7938 21.7385 13.2732 22.012 12.7342C22.2113 12.3398 22.505 11.2912 22.8449 11.152C23.2986 10.9652 24.2969 11.5676 24.7056 11.7765C25.3464 12.1029 25.7563 12.5372 26.2463 12.8668C29.4665 15.0245 33.4985 16.1818 37.0757 17.7231ZM16.3138 37.4252C16.5953 37.7252 17.5964 39.1042 17.9895 38.9146C19.0533 38.3968 19.9502 37.4849 20.8918 36.8286C23.5347 34.9893 25.7826 32.7227 28.0639 30.6012C29.1726 29.571 30.2485 28.2537 31.1821 27.0417C33.2862 24.3078 35.3519 21.2899 36.3652 17.9799C32.8814 16.6147 29.3314 15.2854 26.1646 13.3947C25.1451 12.7866 24.3276 11.8381 23.0889 11.6008C19.3138 18.1692 14.6888 24.2081 9.33646 29.5574C11.5917 32.1184 13.9178 34.8493 16.3122 37.4287L16.3138 37.4252Z" fill="black"/>
</svg>
