<svg width="1024" height="238" viewBox="0 0 1024 238" fill="none" xmlns="http://www.w3.org/2000/svg">
<path d="M73.7715 32.1321C40.0167 33.3481 6.69995 38.3185 -25.0624 46.8766C-41.2244 51.2531 -59.9512 60.6052 -56.1567 72.927C-52.1162 86.3429 -27.3813 87.8017 -8.90047 86.3429C28.5883 83.7379 66.9905 82.6177 103.32 89.9378C154.898 100.358 202.927 127.294 255.875 121.902C287.496 118.697 316.939 104.005 348.42 107.235C367.252 109.163 384.292 117.447 403.265 118.489C418.514 119.323 433.411 115.389 448.132 112.237C502.662 100.626 560.208 99.1501 615.69 107.939C659.292 114.894 705.459 128.023 746.742 115.493C762.166 110.804 787.112 107.678 795.931 118.307C808.439 133.572 788.552 163.296 816.695 163.296C844.838 163.296 817.328 117.343 846.279 117.343C875.23 117.343 839.252 216.777 880.781 213.234C914.265 210.395 872.138 117.76 908.502 117.76C944.867 117.76 908.221 163.738 934.748 163.738C961.275 163.738 935.064 104.422 972.904 103.588C1054 101.843 1054.7 84.7538 1051.18 78.3194C1049.04 74.3858 1043.56 72.1194 1038.36 70.348C1004.39 58.9119 965.28 55.8379 934.432 40.2338C918.586 32.2363 905.727 21.2691 889.565 13.5843C847.684 -6.34423 792.769 -0.508957 745.091 10.0935C697.413 20.696 649.243 35.5708 599.774 31.4548C571.209 29.1103 544.226 20.4616 515.802 17.2313C430.284 7.4885 347.155 47.1632 260.618 45.1052C221.267 44.1674 183.322 34.6851 144.463 29.9439C105.604 25.2027 15.4479 32.7313 -25.0624 46.8766" fill="white"/>
<g opacity="0.3">
<path opacity="0.3" d="M-54.7866 53.4364C-76.7809 69.9523 -55.2433 89.9069 -31.5625 96.9665C-15.0141 101.89 2.62355 101.135 19.945 99.5716C43.6961 97.2531 65.339 96.0808 88.809 100.535C125.279 107.413 158.552 121.193 194.705 128.748C211.605 132.291 229.84 134.896 247.407 133.75C264.975 132.603 282.085 127.289 298.915 122.626C317.29 117.416 335.139 113.092 354.463 117.859C372.487 122.34 387.981 128.461 407.551 127.55C448.94 125.648 487.448 111.451 529.223 111.451C606.519 111.451 678.054 142.164 755.842 126.794C762.404 125.093 769.205 123.948 776.115 123.382C785.777 123.199 783.563 127.471 783.317 133.333C782.755 144.534 783.844 156.413 793.647 165.609C796.823 168.431 800.856 170.654 805.416 172.095C809.976 173.537 814.931 174.156 819.876 173.901C824.821 173.647 829.614 172.527 833.862 170.632C838.11 168.738 841.691 166.124 844.311 163.004C850.46 155.189 848.035 144.013 848.176 135.417C848.176 133.724 848.633 119.787 840.095 125.387C840.41 127.723 840.891 130.045 841.535 132.343C844.135 150.969 840.798 169.803 844.171 188.455C846.981 204.086 857.03 226.801 884.154 224.483C914.089 221.878 914.545 195.359 912.824 178.452C911.7 167.302 909.732 156.205 908.924 145.029C908.345 140.237 908.345 135.416 908.924 130.624C908.924 130.077 909.978 126.482 909.943 126.429C905.551 121.923 906.429 128.592 905.797 130.467C901.124 147.504 903.654 181.291 936.715 180.119C974.801 178.765 965.526 144.092 968.793 126.247C972.869 104.052 1020.48 113.222 1041.35 105.198C1047.38 103.012 1052.55 99.7026 1056.35 95.5938C1060.15 91.485 1062.45 86.7165 1063.02 81.7531C1064.22 69.4053 1052.06 61.3818 1039.2 55.1818C1020.44 46.0902 999.115 42.2868 978.947 35.5138C958.137 28.3175 939.884 17.6123 925.648 4.25334C914.37 -6.03654 894.589 8.65585 905.973 18.8415C928.599 39.0566 956.707 51.1179 989.663 59.7927C998.728 62.1633 1035.87 70.4994 1036.81 80.138C1037.73 89.3077 1016.58 90.2195 1008.92 90.7926C988.118 92.3817 963.242 92.7203 950.242 106.996C943.215 114.655 942.232 124.163 942.126 133.203C942.126 137.735 942.688 142.294 942.513 146.827C942.337 150.656 938.753 166.313 931.972 156.127C926.808 148.468 933.659 135.287 931.41 126.768C929.302 118.693 922.943 109.106 910.927 106.944C888.37 102.906 882.819 124.267 882.643 135.86C882.327 154.746 889.67 173.815 887.703 192.649C887.281 196.948 886.262 207.759 876.6 202.496C873.93 201.064 873.086 196.791 872.173 194.681C869.291 185.682 867.991 176.445 868.308 167.198C867.886 152.558 870.697 136.407 865.778 122.079C861.281 109.054 842.203 102.177 828.641 114.134C821.614 120.203 822.422 127.94 822.387 135.365C822.387 139.871 826.182 154.668 817.82 154.746C806.787 154.746 809.282 136.98 809.422 131.561C809.633 122.965 808.825 114.003 798.882 108.116C779.523 96.7581 748.077 109.783 726.821 111.737C689.086 115.019 651.667 107.621 615.162 101.525C579.255 95.4817 542.398 90.0632 505.472 93.5018C487.824 95.5131 470.363 98.3408 453.191 101.968C435.343 105.355 414.122 110.617 395.535 108.559C377.511 106.553 362.087 97.8001 343.641 96.6539C326.074 95.5598 308.507 99.9363 292.274 104.469C273.126 109.679 254.504 116.009 233.599 115.072C213.397 114.16 193.651 109.288 174.784 104.052C138.841 93.9186 103.952 80.9195 65.0931 78.5229C44.3636 77.2725 24.4071 80.9195 3.8884 82.0918C-14.1708 83.1598 -54.6812 78.6792 -44.2813 57.9692C-42.0327 53.4624 -50.6056 50.2843 -54.8217 53.4364H-54.7866Z" fill="#336EC2"/>
</g>
<path opacity="0.15" d="M1175.91 115.568C1160.07 84.6463 1124.12 79.2279 1085.19 83.3959C1084.16 83.5027 1083.12 83.3104 1082.27 82.8591C1081.43 82.4077 1080.85 81.7322 1080.66 80.9732C1078.79 74.1743 1075.72 67.5877 1071.53 61.3834C1051.61 31.0347 1011.41 8.68352 967.598 0.842365C959.283 -0.726439 950.472 0.152336 943.011 3.29447C935.551 6.4366 930.021 11.5981 927.58 17.6969C922.45 31.6339 934.115 42.3666 950.312 47.2641C959.974 50.2338 1002.73 65.4993 999.15 75.1901C995.566 84.8808 944.304 84.9329 919.253 83.1615C866.551 79.4363 828.606 77.9514 794.033 85.7665C773.128 90.5598 722.78 100.928 686.696 95.4833C622.294 85.7665 550.795 72.8195 522.125 74.3304C493.455 75.8413 465.383 81.6505 437.099 86.3136C410.573 90.664 388.157 89.4917 361.595 86.3136C331.625 82.7707 304.29 85.4018 274.812 90.195C245.334 94.9883 222.11 95.5614 193.405 87.7724C166.773 80.5564 141.405 70.6573 113.087 67.4792C81.1493 63.8842 50.1956 69.5111 18.223 68.2867C7.92856 67.896 -5.66858 66.4111 -13.3982 60.8624C-16.6658 58.5178 -23.0954 51.9531 -20.8116 48.0977C-7.0037 25.0171 -47.0222 6.88604 -66.8381 28.1431C-82.6136 44.9977 -81.138 68.8077 -65.749 85.4539C-47.5492 105.408 -18.036 113.771 12.742 115.75C43.52 117.73 74.4386 110.254 104.584 114.734C134.73 119.215 161.151 131.068 190.102 137.476C222.25 144.588 253.345 142.686 285.739 137.476C299.512 135.288 313.249 132.527 327.373 132.266C344.414 131.824 360.787 135.262 377.581 136.903C411.275 140.212 443.88 134.767 476.556 128.958C497.264 125.16 518.471 123.054 539.798 122.68C540.079 123.123 540.36 123.592 540.712 124.034C550.268 136.122 568.819 137.737 584.56 132.553C596.084 128.776 609.47 128.489 622.611 128.802H623.138C630.165 129.635 637.192 130.469 644.219 131.25C645.205 131.371 646.095 131.762 646.713 132.345C648.954 134.353 651.683 136.032 654.759 137.294C657.902 138.904 661.514 139.939 665.299 140.316C696.57 143.892 726.577 152.02 753.593 164.23C754.373 164.599 754.966 165.148 755.279 165.793C757.106 169.44 759.983 172.747 763.712 175.484C764.109 175.762 764.426 176.097 764.643 176.468C764.86 176.84 764.971 177.241 764.971 177.646C764.971 178.051 764.86 178.452 764.643 178.824C764.426 179.196 764.109 179.531 763.712 179.808C758.115 183.915 754.481 189.266 753.365 195.046C752.249 200.826 753.711 206.717 757.528 211.824C768.068 225.136 787.814 226.543 805.241 221.098C814.657 218.128 824.214 215.471 833.841 213.048C834.525 212.874 835.26 212.842 835.967 212.957C836.673 213.072 837.324 213.329 837.846 213.7C845.64 219.124 854.342 223.782 863.74 227.559C925.402 252.124 997.849 223.964 1055.54 205.077C1085.81 195.462 1115.28 184.519 1143.8 172.306C1171.63 159.958 1188.14 139.456 1175.91 115.568ZM1113.3 125.936H1112.92C1113.58 121.351 1115.69 126.171 1113.3 125.936ZM1048.65 149.564C1049.15 146.334 1048.97 147.558 1049.46 144.354C1063.83 140.446 1079.64 135.601 1094.89 133.725C1088.99 136.122 1083.02 138.492 1077.04 140.785C1068.96 143.893 1060.85 146.915 1052.69 149.85C1052.04 150.063 1051.33 150.149 1050.62 150.099C1049.92 150.049 1049.24 149.864 1048.65 149.564V149.564ZM1112.56 135.366C1111.62 135.861 1111.55 134.298 1111.76 132.553C1114.57 132.449 1117.48 132.787 1112.56 135.366Z" fill="#336EC2"/>
<g opacity="0.15">
<path opacity="0.15" d="M962.222 67.2466C962.502 67.2466 962.77 67.1643 962.967 67.0177C963.165 66.8712 963.276 66.6724 963.276 66.4651C963.276 66.2578 963.165 66.0591 962.967 65.9125C962.77 65.7659 962.502 65.6836 962.222 65.6836C961.942 65.6836 961.674 65.7659 961.477 65.9125C961.279 66.0591 961.168 66.2578 961.168 66.4651C961.168 66.6724 961.279 66.8712 961.477 67.0177C961.674 67.1643 961.942 67.2466 962.222 67.2466Z" fill="#336EC2"/>
</g>
<g opacity="0.35">
<path opacity="0.35" d="M122.501 40.7277C123.053 40.6766 123.562 40.4776 123.93 40.1682C124.299 39.8588 124.502 39.4602 124.502 39.0474C124.502 38.6347 124.299 38.2361 123.93 37.9267C123.562 37.6173 123.053 37.4183 122.501 37.3672C121.949 37.4183 121.44 37.6173 121.072 37.9267C120.703 38.2361 120.5 38.6347 120.5 39.0474C120.5 39.4602 120.703 39.8588 121.072 40.1682C121.44 40.4776 121.949 40.6766 122.501 40.7277Z" fill="#336EC2"/>
</g>
<g opacity="0.35">
<path opacity="0.35" d="M90.3881 47.7323C90.649 47.7323 90.8992 47.6554 91.0837 47.5186C91.2682 47.3818 91.3718 47.1963 91.3718 47.0028C91.3718 46.8094 91.2682 46.6239 91.0837 46.4871C90.8992 46.3503 90.649 46.2734 90.3881 46.2734C90.1272 46.2734 89.8769 46.3503 89.6924 46.4871C89.5079 46.6239 89.4043 46.8094 89.4043 47.0028C89.4043 47.1963 89.5079 47.3818 89.6924 47.5186C89.8769 47.6554 90.1272 47.7323 90.3881 47.7323Z" fill="#336EC2"/>
</g>
<g opacity="0.35">
<path opacity="0.35" d="M147.625 50.8042C148.035 50.8042 148.428 50.6834 148.718 50.4684C149.008 50.2535 149.171 49.9619 149.171 49.6579C149.171 49.3539 149.008 49.0624 148.718 48.8474C148.428 48.6325 148.035 48.5117 147.625 48.5117C147.215 48.5117 146.822 48.6325 146.532 48.8474C146.242 49.0624 146.079 49.3539 146.079 49.6579C146.079 49.9619 146.242 50.2535 146.532 50.4684C146.822 50.6834 147.215 50.8042 147.625 50.8042Z" fill="#336EC2"/>
</g>
<g opacity="0.15">
<path opacity="0.15" d="M367.425 72.6895L367.917 72.5593L368.62 72.3509C368.761 72.2904 368.878 72.2029 368.959 72.0975C369.039 71.9921 369.08 71.8727 369.077 71.7517C369.074 71.6351 369.03 71.5211 368.95 71.4207C368.87 71.3203 368.756 71.2369 368.62 71.1786L367.917 70.9702L367.425 70.84C367.196 70.7877 366.952 70.7877 366.723 70.84C366.509 70.8914 366.316 70.9808 366.161 71.1005L365.95 71.2828C365.843 71.427 365.783 71.5875 365.774 71.7517C365.738 71.8806 365.738 72.0136 365.774 72.1425C365.835 72.2537 365.931 72.3521 366.055 72.429C366.211 72.5487 366.404 72.6381 366.617 72.6895H367.425Z" fill="#336EC2"/>
</g>
<g opacity="0.35">
<path opacity="0.35" d="M433.867 70.3974C433.988 70.3744 434.095 70.3223 434.172 70.2492C434.248 70.1761 434.29 70.0862 434.29 69.9936C434.29 69.9011 434.248 69.8112 434.172 69.7381C434.095 69.6649 433.988 69.6128 433.867 69.5898C433.746 69.6128 433.639 69.6649 433.562 69.7381C433.486 69.8112 433.444 69.9011 433.444 69.9936C433.444 70.0862 433.486 70.1761 433.562 70.2492C433.639 70.3223 433.746 70.3744 433.867 70.3974Z" fill="#336EC2"/>
</g>
<g opacity="0.35">
<path opacity="0.35" d="M491.103 27.7787C491.763 27.7226 492.372 27.4886 492.814 27.1211C493.256 26.7536 493.5 26.2783 493.5 25.7858C493.5 25.2933 493.256 24.8181 492.814 24.4506C492.372 24.0831 491.763 23.849 491.103 23.793C490.443 23.849 489.834 24.0831 489.392 24.4506C488.949 24.8181 488.705 25.2933 488.705 25.7858C488.705 26.2783 488.949 26.7536 489.392 27.1211C489.834 27.4886 490.443 27.7226 491.103 27.7787Z" fill="#336EC2"/>
</g>
<g opacity="0.15">
<path opacity="0.15" d="M452.944 39.1621C453.265 39.1236 453.557 39.0015 453.768 38.8178C453.979 38.634 454.095 38.4005 454.095 38.1592C454.095 37.9178 453.979 37.6844 453.768 37.5006C453.557 37.3168 453.265 37.1948 452.944 37.1562C452.622 37.1948 452.33 37.3168 452.119 37.5006C451.908 37.6844 451.792 37.9178 451.792 38.1592C451.792 38.4005 451.908 38.634 452.119 38.8178C452.33 39.0015 452.622 39.1236 452.944 39.1621Z" fill="#336EC2"/>
</g>
<g opacity="0.15">
<path opacity="0.15" d="M524.479 44.6596C524.836 44.6189 525.161 44.4849 525.396 44.2818C525.631 44.0788 525.76 43.82 525.76 43.5525C525.76 43.2849 525.631 43.0262 525.396 42.8231C525.161 42.62 524.836 42.486 524.479 42.4453C524.123 42.486 523.797 42.62 523.562 42.8231C523.327 43.0262 523.198 43.2849 523.198 43.5525C523.198 43.82 523.327 44.0788 523.562 44.2818C523.797 44.4849 524.123 44.6189 524.479 44.6596Z" fill="#336EC2"/>
</g>
<g opacity="0.35">
<path opacity="0.35" d="M818.558 21.3665V22.2262L818.979 21.132C818.729 21.4764 818.596 21.861 818.593 22.2522C818.596 22.6351 818.729 23.0113 818.979 23.3463C819.243 23.6696 819.614 23.9374 820.057 24.1244C820.499 24.3113 820.999 24.4111 821.509 24.4144C822.02 24.4163 822.522 24.3186 822.966 24.1311C823.41 23.9437 823.78 23.673 824.039 23.3463C824.315 23.0182 824.461 22.639 824.46 22.2522C824.462 21.8571 824.316 21.4693 824.039 21.132L824.425 22.2262V21.3665C824.453 21.0769 824.368 20.7875 824.179 20.5329C824.045 20.2791 823.841 20.0486 823.581 19.8559C823.322 19.6631 823.011 19.5123 822.668 19.4127C822.325 19.2731 821.935 19.2098 821.544 19.2304H820.806C820.321 19.334 819.875 19.5215 819.506 19.7774L819.085 20.1942C818.808 20.5223 818.662 20.9015 818.663 21.2883L818.558 21.3665Z" fill="#336EC2"/>
</g>
<g opacity="0.15">
<path opacity="0.15" d="M845.295 15.0115C845.57 15.0773 845.865 15.0773 846.139 15.0115C846.403 14.937 846.643 14.8219 846.842 14.6737C847.042 14.5256 847.198 14.3477 847.298 14.1519C847.387 13.9487 847.387 13.7299 847.298 13.5267V13.1099C847.202 12.8337 847.008 12.5818 846.736 12.3805L846.279 12.0158C845.94 11.8632 845.551 11.7821 845.155 11.7813C844.876 11.7448 844.591 11.7448 844.312 11.7813C844.051 11.86 843.812 11.9749 843.609 12.12C843.412 12.2646 843.267 12.4438 843.187 12.641C843.052 12.8341 842.979 13.0484 842.977 13.2662V13.709C843.094 13.9706 843.286 14.2104 843.539 14.4124L843.995 14.6729C844.331 14.8056 844.704 14.8771 845.085 14.8813L845.295 15.0115Z" fill="#336EC2"/>
</g>
<g opacity="0.35">
<path opacity="0.35" d="M871.539 26.5813C871.79 26.5474 872.017 26.4494 872.18 26.3042C872.344 26.159 872.433 25.9758 872.433 25.7867C872.433 25.5976 872.344 25.4145 872.18 25.2693C872.017 25.1241 871.79 25.026 871.539 24.9922C871.288 25.026 871.061 25.1241 870.897 25.2693C870.734 25.4145 870.645 25.5976 870.645 25.7867C870.645 25.9758 870.734 26.159 870.897 26.3042C871.061 26.4494 871.288 26.5474 871.539 26.5813Z" fill="#336EC2"/>
</g>
<g opacity="0.35">
<path opacity="0.35" d="M690.28 64.6666C690.587 64.6666 690.882 64.576 691.099 64.4148C691.317 64.2536 691.439 64.0349 691.439 63.8069C691.439 63.5789 691.317 63.3603 691.099 63.1991C690.882 63.0378 690.587 62.9473 690.28 62.9473C689.972 62.9473 689.677 63.0378 689.46 63.1991C689.242 63.3603 689.12 63.5789 689.12 63.8069C689.12 64.0349 689.242 64.2536 689.46 64.4148C689.677 64.576 689.972 64.6666 690.28 64.6666Z" fill="#336EC2"/>
</g>
<g opacity="0.15">
<path opacity="0.15" d="M704.581 47.0288H705.635C705.797 47.0557 705.965 47.0557 706.127 47.0288C706.289 47.0002 706.435 46.9367 706.548 46.8464C706.79 46.6658 706.928 46.4233 706.935 46.1691V45.9086C706.9 45.7535 706.787 45.614 706.619 45.5179L706.373 45.3616C706.168 45.2787 705.939 45.234 705.705 45.2313H704.651C704.489 45.2068 704.322 45.2068 704.159 45.2313C704.018 45.2764 703.888 45.338 703.773 45.4137C703.658 45.5016 703.573 45.6088 703.527 45.7263C703.491 45.8376 703.491 45.9536 703.527 46.0649V46.2994C703.597 46.4513 703.705 46.5926 703.843 46.7162L704.089 46.8464C704.284 46.9254 704.5 46.9699 704.721 46.9767L704.581 47.0288Z" fill="#336EC2"/>
</g>
</svg>
