<svg width="1920" height="105" viewBox="0 0 1920 105" fill="none" xmlns="http://www.w3.org/2000/svg">
<path d="M185.523 56.9126C125.58 59.072 66.4153 67.8985 10.0105 83.0963C-18.6904 90.8682 -51.9462 107.476 -45.2077 129.357C-38.0324 153.182 5.89258 155.773 38.7115 153.182C105.285 148.556 173.481 146.567 237.996 159.566C329.59 178.07 414.882 225.904 508.909 216.328C565.063 210.638 617.349 184.547 673.253 190.283C706.696 193.707 736.957 208.418 770.649 210.268C797.728 211.748 824.183 204.763 850.326 199.165C947.161 178.547 1049.35 175.925 1147.88 191.532C1225.31 203.884 1307.3 227.2 1380.61 204.948C1408 196.621 1452.3 191.07 1467.96 209.944C1490.17 237.053 1454.86 289.837 1504.83 289.837C1554.81 289.837 1505.96 208.233 1557.37 208.233C1608.78 208.233 1544.89 384.811 1618.64 378.52C1678.1 373.477 1603.29 208.973 1667.87 208.973C1732.44 208.973 1667.37 290.624 1714.48 290.624C1761.58 290.624 1715.04 185.287 1782.23 183.807C1926.24 180.707 1927.49 150.36 1921.25 138.934C1917.44 131.948 1907.71 127.923 1898.47 124.778C1838.14 104.469 1768.7 99.0102 1713.91 71.2998C1685.77 57.0976 1662.94 37.6217 1634.24 23.9746C1559.86 -11.4151 1462.34 -1.05262 1377.68 17.7757C1293.01 36.6039 1207.47 63.019 1119.62 55.7098C1068.89 51.5463 1020.97 36.1876 970.496 30.4512C818.63 13.1495 671.007 83.6052 517.332 79.9506C447.451 78.2852 380.066 61.4461 311.059 53.0266C242.052 44.6071 81.9502 57.9766 10.0105 83.0963" fill="white"/>
<g opacity="0.3">
<path opacity="0.3" d="M-42.7765 94.7488C-81.8349 124.078 -43.5877 159.514 -1.53447 172.051C27.8529 180.794 59.1744 179.453 89.9344 176.677C132.112 172.56 170.547 170.478 212.226 178.389C276.99 190.602 336.077 215.074 400.28 228.49C430.291 234.781 462.673 239.407 493.87 237.372C525.066 235.336 555.452 225.899 585.339 217.618C617.97 208.366 649.666 200.687 683.983 209.152C715.99 217.109 743.506 227.981 778.259 226.362C851.759 222.985 920.142 197.772 994.328 197.772C1131.59 197.772 1258.63 252.314 1396.77 225.02C1408.42 221.999 1420.5 219.966 1432.77 218.96C1449.92 218.636 1445.99 226.223 1445.56 236.632C1444.56 256.524 1446.49 277.619 1463.9 293.949C1469.54 298.96 1476.7 302.907 1484.8 305.467C1492.9 308.027 1501.7 309.126 1510.48 308.675C1519.26 308.223 1527.77 306.234 1535.32 302.87C1542.86 299.506 1549.22 294.863 1553.87 289.323C1564.79 275.445 1560.49 255.599 1560.74 240.332C1560.74 237.326 1561.55 212.576 1546.39 222.522C1546.94 226.67 1547.8 230.793 1548.94 234.874C1553.56 267.95 1547.63 301.397 1553.62 334.52C1558.61 362.277 1576.46 402.616 1624.63 398.499C1677.79 393.873 1678.6 346.779 1675.54 316.756C1673.54 296.956 1670.05 277.249 1668.61 257.403C1667.59 248.892 1667.59 240.331 1668.61 231.82C1668.61 230.849 1670.49 224.465 1670.42 224.372C1662.62 216.369 1664.18 228.212 1663.06 231.543C1654.76 261.798 1659.25 321.798 1717.97 319.717C1785.6 317.311 1769.13 255.737 1774.93 224.049C1782.17 184.634 1866.71 200.918 1903.77 186.67C1914.5 182.786 1923.68 176.91 1930.42 169.613C1937.17 162.317 1941.25 153.849 1942.27 145.035C1944.39 123.107 1922.8 108.858 1899.97 97.8483C1866.65 81.7031 1828.78 74.949 1792.96 62.9211C1756.01 50.1418 1723.59 31.1311 1698.31 7.40778C1678.28 -10.8654 1643.16 15.2259 1663.37 33.314C1703.55 69.2126 1753.47 90.6315 1811.99 106.036C1828.09 110.246 1894.04 125.05 1895.73 142.166C1897.35 158.45 1859.79 160.069 1846.19 161.087C1809.25 163.909 1765.07 164.511 1741.99 189.862C1729.51 203.462 1727.76 220.348 1727.58 236.4C1727.58 244.45 1728.57 252.545 1728.26 260.595C1727.95 267.395 1721.59 295.198 1709.54 277.11C1700.37 263.509 1712.54 240.101 1708.55 224.974C1704.8 210.633 1693.51 193.609 1672.17 189.769C1632.11 182.599 1622.26 220.533 1621.94 241.119C1621.38 274.658 1634.42 308.521 1630.93 341.968C1630.18 349.601 1628.37 368.8 1611.21 359.455C1606.47 356.91 1604.97 349.324 1603.35 345.576C1598.23 329.596 1595.92 313.191 1596.49 296.771C1595.74 270.772 1600.73 242.09 1591.99 216.647C1584.01 193.516 1550.13 181.303 1526.04 202.537C1513.57 213.316 1515 227.056 1514.94 240.24C1514.94 248.243 1521.68 274.519 1506.83 274.658C1487.24 274.658 1491.67 243.108 1491.92 233.486C1492.29 218.22 1490.85 202.306 1473.2 191.851C1438.82 171.681 1382.98 194.812 1345.23 198.281C1278.22 204.11 1211.77 190.972 1146.94 180.147C1083.18 169.414 1017.73 159.792 952.15 165.898C920.81 169.47 889.802 174.492 859.308 180.933C827.612 186.947 789.927 196.292 756.921 192.637C724.913 189.075 697.522 173.531 664.765 171.496C633.569 169.553 602.372 177.325 573.546 185.374C539.542 194.626 506.473 205.868 469.349 204.203C433.473 202.583 398.408 193.933 364.902 184.634C301.074 166.639 239.117 143.554 170.11 139.298C133.298 137.078 97.8583 143.554 61.4205 145.636C29.3503 147.533 -42.5894 139.576 -24.1209 102.798C-20.1277 94.795 -35.3517 89.1512 -42.8389 94.7488H-42.7765Z" fill="#336EC2"/>
</g>
<path opacity="0.15" d="M2142.74 205.084C2114.6 150.172 2050.77 140.55 1981.64 147.952C1979.81 148.141 1977.95 147.8 1976.45 146.998C1974.95 146.197 1973.93 144.997 1973.59 143.649C1970.27 131.576 1964.81 119.879 1957.37 108.861C1921.99 54.9669 1850.61 15.2748 1772.81 1.35023C1758.04 -1.43571 1742.4 0.124849 1729.15 5.70476C1715.9 11.2847 1706.08 20.4506 1701.74 31.2812C1692.63 56.0309 1713.35 75.0904 1742.11 83.7875C1759.27 89.0613 1835.2 116.17 1828.84 133.379C1822.48 150.589 1731.44 150.681 1686.96 147.535C1593.37 140.92 1525.98 138.283 1464.59 152.161C1427.46 160.673 1338.05 179.085 1273.97 169.417C1159.61 152.161 1032.64 129.17 981.723 131.853C930.81 134.536 880.958 144.852 830.731 153.133C783.624 160.859 743.817 158.777 696.648 153.133C643.426 146.841 594.884 151.514 542.536 160.026C490.188 168.538 448.945 169.556 397.97 155.724C350.676 142.909 305.628 125.33 255.339 119.686C198.623 113.302 143.654 123.295 86.8762 121.12C68.5949 120.426 44.4486 117.789 30.7221 107.936C24.9195 103.772 13.5015 92.1145 17.5571 85.2679C42.0777 44.2805 -28.9885 12.0828 -64.1784 49.8319C-92.193 79.7628 -89.5725 122.045 -62.2442 151.606C-29.9244 187.042 22.4861 201.892 77.1428 205.408C131.8 208.924 186.706 195.647 240.239 203.604C293.773 211.561 340.693 232.61 392.105 243.99C449.195 256.619 504.413 253.242 561.94 243.99C586.398 240.104 610.794 235.2 635.876 234.738C666.137 233.951 695.213 240.058 725.037 242.972C784.872 248.847 842.773 239.179 900.799 228.862C937.574 222.117 975.234 218.378 1013.11 217.713C1013.61 218.5 1014.11 219.333 1014.73 220.119C1031.7 241.584 1064.64 244.452 1092.6 235.246C1113.06 228.539 1136.83 228.03 1160.17 228.585H1161.1C1173.58 230.065 1186.06 231.546 1198.54 232.933C1200.29 233.148 1201.87 233.841 1202.97 234.876C1206.95 238.443 1211.8 241.424 1217.26 243.666C1222.84 246.525 1229.25 248.363 1235.98 249.032C1291.51 255.383 1344.8 269.816 1392.77 291.5C1394.16 292.154 1395.21 293.13 1395.77 294.276C1399.01 300.752 1404.12 306.625 1410.74 311.485C1411.45 311.978 1412.01 312.573 1412.39 313.233C1412.78 313.893 1412.98 314.605 1412.98 315.324C1412.98 316.044 1412.78 316.755 1412.39 317.416C1412.01 318.076 1411.45 318.671 1410.74 319.164C1400.8 326.458 1394.35 335.96 1392.37 346.224C1390.38 356.487 1392.98 366.95 1399.76 376.019C1418.48 399.658 1453.54 402.156 1484.49 392.488C1501.21 387.214 1518.18 382.496 1535.28 378.193C1536.49 377.883 1537.8 377.826 1539.05 378.03C1540.31 378.234 1541.46 378.691 1542.39 379.35C1556.23 388.982 1571.69 397.254 1588.38 403.961C1697.88 447.585 1826.53 397.577 1928.98 364.037C1982.74 346.963 2035.07 327.53 2085.71 305.841C2135.13 283.913 2164.45 247.506 2142.74 205.084ZM2031.56 223.496H2030.87C2032.05 215.354 2035.8 223.912 2031.56 223.496ZM1916.75 265.455C1917.63 259.719 1917.31 261.893 1918.19 256.203C1943.71 249.264 1971.78 240.659 1998.86 237.328C1988.38 241.584 1977.77 245.794 1967.17 249.865C1952.82 255.385 1938.4 260.752 1923.93 265.964C1922.77 266.342 1921.51 266.494 1920.25 266.405C1918.99 266.316 1917.79 265.989 1916.75 265.455ZM2030.25 240.243C2028.56 241.122 2028.44 238.346 2028.81 235.246C2033.8 235.061 2038.98 235.663 2030.25 240.243Z" fill="#336EC2"/>
<g opacity="0.35">
<path opacity="0.35" d="M272.058 72.1786C273.039 72.0879 273.942 71.7346 274.596 71.1851C275.251 70.6356 275.612 69.9278 275.612 69.1948C275.612 68.4618 275.251 67.754 274.596 67.2045C273.942 66.655 273.039 66.3017 272.058 66.2109C271.077 66.3017 270.175 66.655 269.52 67.2045C268.866 67.754 268.505 68.4618 268.505 69.1948C268.505 69.9278 268.866 70.6356 269.52 71.1851C270.175 71.7346 271.077 72.0879 272.058 72.1786Z" fill="#336EC2"/>
</g>
<g opacity="0.35">
<path opacity="0.35" d="M215.029 84.6219C215.493 84.6219 215.937 84.4854 216.265 84.2425C216.592 83.9996 216.776 83.6701 216.776 83.3266C216.776 82.983 216.592 82.6535 216.265 82.4106C215.937 82.1677 215.493 82.0313 215.029 82.0312C214.566 82.0313 214.122 82.1677 213.794 82.4106C213.466 82.6535 213.282 82.983 213.282 83.3266C213.282 83.6701 213.466 83.9996 213.794 84.2425C214.122 84.4854 214.566 84.6219 215.029 84.6219Z" fill="#336EC2"/>
</g>
<g opacity="0.35">
<path opacity="0.35" d="M316.674 90.0788C317.402 90.0788 318.1 89.8643 318.615 89.4826C319.13 89.1009 319.419 88.5831 319.419 88.0433C319.419 87.5035 319.13 86.9857 318.615 86.604C318.1 86.2223 317.402 86.0078 316.674 86.0078C315.946 86.0078 315.248 86.2223 314.733 86.604C314.218 86.9857 313.929 87.5035 313.929 88.0433C313.929 88.5831 314.218 89.1009 314.733 89.4826C315.248 89.8643 315.946 90.0788 316.674 90.0788Z" fill="#336EC2"/>
</g>
<g opacity="0.35">
<path opacity="0.35" d="M926.632 49.1834C927.804 49.0839 928.885 48.6683 929.67 48.0156C930.456 47.363 930.889 46.519 930.889 45.6444C930.889 44.7699 930.456 43.9259 929.67 43.2733C928.885 42.6206 927.804 42.205 926.632 42.1055C925.46 42.205 924.378 42.6206 923.593 43.2733C922.808 43.9259 922.374 44.7699 922.374 45.6444C922.374 46.519 922.808 47.363 923.593 48.0156C924.378 48.6683 925.46 49.0839 926.632 49.1834Z" fill="#336EC2"/>
</g>
<g opacity="0.15">
<path opacity="0.15" d="M858.87 69.402C859.441 69.3335 859.96 69.1168 860.335 68.7904C860.709 68.4641 860.915 68.0495 860.915 67.6209C860.915 67.1923 860.709 66.7777 860.335 66.4514C859.96 66.125 859.441 65.9083 858.87 65.8398C858.3 65.9083 857.78 66.125 857.406 66.4514C857.031 66.7777 856.825 67.1923 856.825 67.6209C856.825 68.0495 857.031 68.4641 857.406 68.7904C857.78 69.1168 858.3 69.3335 858.87 69.402Z" fill="#336EC2"/>
</g>
<g opacity="0.15">
<path opacity="0.15" d="M985.904 79.1607C986.537 79.0885 987.115 78.8505 987.532 78.4899C987.949 78.1292 988.179 77.6698 988.179 77.1946C988.179 76.7195 987.949 76.26 987.532 75.8994C987.115 75.5387 986.537 75.3008 985.904 75.2285C985.271 75.3008 984.693 75.5387 984.276 75.8994C983.858 76.26 983.629 76.7195 983.629 77.1946C983.629 77.6698 983.858 78.1292 984.276 78.4899C984.693 78.8505 985.271 79.0885 985.904 79.1607Z" fill="#336EC2"/>
</g>
<g opacity="0.35">
<path opacity="0.35" d="M1508.14 37.7982V39.3248L1508.89 37.3819C1508.44 37.9935 1508.21 38.6764 1508.2 39.3711C1508.21 40.0511 1508.44 40.7191 1508.89 41.314C1509.35 41.8881 1510.01 42.3637 1510.8 42.6957C1511.59 43.0277 1512.47 43.205 1513.38 43.2108C1514.29 43.2141 1515.18 43.0406 1515.97 42.7077C1516.75 42.3749 1517.41 41.8943 1517.87 41.314C1518.36 40.7314 1518.62 40.058 1518.62 39.3711C1518.62 38.6694 1518.36 37.9808 1517.87 37.3819L1518.56 39.3248V37.7982C1518.61 37.2839 1518.45 36.7699 1518.12 36.3178C1517.88 35.8672 1517.52 35.4579 1517.06 35.1156C1516.6 34.7733 1516.04 34.5054 1515.44 34.3286C1514.83 34.0807 1514.13 33.9683 1513.44 34.0048H1512.13C1511.27 34.1888 1510.48 34.5218 1509.82 34.9763L1509.07 35.7165C1508.58 36.2991 1508.32 36.9725 1508.32 37.6594L1508.14 37.7982Z" fill="#336EC2"/>
</g>
<g opacity="0.15">
<path opacity="0.15" d="M1555.62 26.5116C1556.11 26.6283 1556.63 26.6283 1557.12 26.5116C1557.59 26.3792 1558.01 26.1748 1558.37 25.9117C1558.72 25.6486 1559 25.3327 1559.18 24.985C1559.33 24.6241 1559.33 24.2356 1559.18 23.8747V23.1345C1559.01 22.6442 1558.66 22.1968 1558.18 21.8392L1557.37 21.1916C1556.76 20.9206 1556.07 20.7767 1555.37 20.7752C1554.88 20.7103 1554.37 20.7103 1553.87 20.7752C1553.41 20.9149 1552.99 21.119 1552.62 21.3766C1552.27 21.6335 1552.02 21.9517 1551.88 22.3018C1551.64 22.6448 1551.51 23.0253 1551.5 23.4121V24.1985C1551.71 24.663 1552.05 25.0889 1552.5 25.4476L1553.31 25.9102C1553.91 26.1459 1554.57 26.2728 1555.25 26.2803L1555.62 26.5116Z" fill="#336EC2"/>
</g>
<g opacity="0.35">
<path opacity="0.35" d="M1602.22 47.0583C1602.67 46.9982 1603.07 46.824 1603.36 46.5662C1603.65 46.3083 1603.81 45.9831 1603.81 45.6473C1603.81 45.3114 1603.65 44.9862 1603.36 44.7284C1603.07 44.4706 1602.67 44.2964 1602.22 44.2363C1601.78 44.2964 1601.38 44.4706 1601.08 44.7284C1600.79 44.9862 1600.64 45.3114 1600.64 45.6473C1600.64 45.9831 1600.79 46.3083 1601.08 46.5662C1601.38 46.824 1601.78 46.9982 1602.22 47.0583Z" fill="#336EC2"/>
</g>
<g opacity="0.15">
<path opacity="0.15" d="M1305.73 83.3673H1307.61C1307.89 83.4151 1308.19 83.4151 1308.48 83.3673C1308.77 83.3165 1309.03 83.2038 1309.23 83.0435C1309.66 82.7228 1309.9 82.2921 1309.92 81.8407V81.3781C1309.85 81.1026 1309.65 80.8549 1309.35 80.6842L1308.92 80.4066C1308.55 80.2594 1308.15 80.18 1307.73 80.1753H1305.86C1305.57 80.1317 1305.27 80.1317 1304.99 80.1753C1304.74 80.2554 1304.5 80.3647 1304.3 80.4991C1304.1 80.6552 1303.95 80.8457 1303.86 81.0543C1303.8 81.2519 1303.8 81.458 1303.86 81.6557V82.072C1303.99 82.3419 1304.18 82.5927 1304.42 82.8122L1304.86 83.0435C1305.21 83.1836 1305.59 83.2628 1305.98 83.2748L1305.73 83.3673Z" fill="#336EC2"/>
</g>
</svg>
