<svg width="45" height="43" viewBox="0 0 45 43" fill="none" xmlns="http://www.w3.org/2000/svg">
<g clip-path="url(#clip0)">
<path d="M16.9318 8.36973L24.5878 14.4742C24.6538 14.5314 24.7342 14.5698 24.8205 14.5855C24.9068 14.6011 24.9959 14.5934 25.0785 14.5631L34.0566 11.5753C34.1474 11.5422 34.2458 11.5363 34.3396 11.5585C34.4333 11.5806 34.5183 11.6297 34.5838 11.6997C34.6494 11.7697 34.6926 11.8575 34.7081 11.9522C34.7237 12.0468 34.7108 12.144 34.6711 12.2318L30.9494 20.275C30.9132 20.3554 30.8993 20.4437 30.9093 20.5309C30.9192 20.6181 30.9526 20.7008 31.0059 20.7704L36.8318 29.3649C36.8905 29.4413 36.9251 29.5335 36.9311 29.6298C36.9371 29.7261 36.9143 29.8222 36.8655 29.906C36.8168 29.9898 36.7443 30.0576 36.6573 30.1008C36.5702 30.144 36.4723 30.1607 36.3761 30.1488L26.7961 29.1351C26.703 29.1235 26.6083 29.1386 26.5233 29.1788C26.4382 29.219 26.3664 29.2825 26.3162 29.3618L20.5968 37.6177C20.5454 37.6989 20.4713 37.7634 20.3837 37.8034C20.296 37.8433 20.1987 37.8569 20.1037 37.8424C20.0088 37.828 19.9204 37.7861 19.8494 37.722C19.7785 37.6579 19.7282 37.5744 19.7047 37.4818L17.3541 28.6262C17.3339 28.5469 17.294 28.4739 17.238 28.4141C17.1821 28.3542 17.1119 28.3093 17.0338 28.2835L7.7544 24.9315C7.66524 24.9022 7.58657 24.848 7.52772 24.7754C7.46888 24.7028 7.43234 24.6147 7.42242 24.5217C7.41251 24.4288 7.42964 24.3347 7.47179 24.2508C7.51394 24.1668 7.57934 24.0965 7.66023 24.0481L15.4131 18.5963C15.4869 18.5524 15.548 18.4901 15.5902 18.4156C15.6325 18.3411 15.6544 18.2571 15.6539 18.1718L16.1157 8.74533C16.1153 8.65115 16.1422 8.55866 16.1933 8.47897C16.2443 8.39929 16.3173 8.3358 16.4035 8.29614C16.4897 8.25648 16.5854 8.24232 16.6791 8.25537C16.7728 8.26843 16.8606 8.30813 16.9318 8.36973Z" fill="url(#paint0_linear)"/>
<g style="mix-blend-mode:soft-light">
<path d="M34.0566 11.5756L33.919 11.6216C33.6863 11.6265 33.4362 11.6922 33.2179 11.7664L27.6543 13.6578C26.8174 13.9423 25.9473 14.2308 25.0705 14.1379C23.547 13.8325 22.5613 12.8677 21.4267 11.8783C21.1405 11.629 20.8452 11.345 20.5163 11.1512C20.4208 11.0949 20.3275 11.0481 20.2358 11.0037L18.6661 9.75152C18.2111 9.33315 17.6959 8.888 17.3161 8.67522L16.9318 8.36999C16.8606 8.3084 16.7728 8.26869 16.6791 8.25564C16.5854 8.24259 16.4897 8.25674 16.4035 8.29641C16.3173 8.33607 16.2443 8.39956 16.1932 8.47924C16.1422 8.55892 16.1152 8.65141 16.1157 8.7456L15.6541 18.1724C15.6546 18.2577 15.6326 18.3418 15.5904 18.4162C15.5481 18.4907 15.4871 18.553 15.4133 18.597L7.66038 24.0488C7.57935 24.097 7.5138 24.1673 7.47154 24.2513C7.42928 24.3353 7.41209 24.4294 7.42201 24.5224C7.43193 24.6155 7.46855 24.7036 7.5275 24.7762C7.58646 24.8488 7.66527 24.903 7.75456 24.9321L17.034 28.2841C17.1121 28.31 17.1823 28.3549 17.2382 28.4147C17.2941 28.4746 17.334 28.5475 17.3543 28.6268L19.7047 37.4821C19.7226 37.552 19.7558 37.617 19.8019 37.6725C19.848 37.7281 19.9059 37.7727 19.9715 37.8033C20.0371 37.8339 20.1088 37.8497 20.1815 37.8495C20.2542 37.8494 20.326 37.8334 20.3919 37.8025C20.4766 37.762 20.5478 37.6982 20.5972 37.6187L22.3884 35.034C22.4564 34.9462 22.525 34.8595 22.5952 34.7734C22.9228 34.3721 23.2053 33.922 23.4811 33.4845C23.5457 33.3816 23.8473 32.9709 24.049 32.6367L26.0861 29.6961C26.1549 29.6524 26.2268 29.6114 26.3017 29.5729C26.7856 29.3267 27.3218 29.2503 27.8681 29.2483L36.3761 30.1491C36.469 30.1613 36.5636 30.1466 36.6486 30.1067C36.715 30.075 36.7735 30.0291 36.82 29.9722C36.8664 29.9154 36.8996 29.849 36.9172 29.778C36.9347 29.707 36.9361 29.6331 36.9214 29.5617C36.9066 29.4903 36.876 29.4231 36.8318 29.3651L34.2306 25.5273C33.592 24.5517 32.9537 23.5762 32.3158 22.6006C31.9291 22.0092 31.5333 21.3955 31.4172 20.6985C31.2463 19.6605 31.7196 18.6335 32.1829 17.6821L34.4278 13.0627C34.55 12.8114 34.6688 12.5159 34.6613 12.2489L34.6685 12.2324C34.7079 12.1449 34.7207 12.0479 34.7052 11.9536C34.6898 11.8593 34.6468 11.7718 34.5817 11.7019C34.5165 11.632 34.432 11.5827 34.3387 11.5603C34.2454 11.5378 34.1473 11.5431 34.0566 11.5756ZM18.1537 28.4139C17.9963 28.0218 17.7633 27.684 17.3075 27.5202L13.6877 26.2129L11.5343 25.4351C10.9797 25.2348 10.2382 25.0101 9.93124 24.4444C9.76254 24.1337 9.7717 23.9077 9.9485 23.5989C10.1734 23.2054 10.5332 23.0164 10.8812 22.7715L13.3622 21.0258L15.3835 19.6045C15.7174 19.3703 16.0313 19.0917 16.2406 18.7386C16.495 18.3112 16.4831 17.8753 16.5066 17.3956C16.5615 16.2733 16.6164 15.1514 16.6714 14.0298C16.6965 13.5139 16.6252 12.9862 16.7461 12.4781C16.865 11.9799 17.2914 11.4469 17.8619 11.589C18.3298 11.7041 18.6906 12.0621 19.0241 12.4067C20.2611 13.687 21.4711 14.9964 22.5801 16.3893C23.6169 17.6913 24.8685 19.1928 25.2448 20.8513C25.6297 22.545 24.9625 24.2871 24.3099 25.9073C23.9075 27.0148 23.423 28.1001 22.981 29.1924C22.5428 30.2752 22.1611 31.4024 21.6038 32.4302C21.3054 32.9783 20.8295 33.565 20.1114 33.3135C19.8186 33.2115 19.5975 32.9636 19.4613 32.6869C19.2193 32.195 19.1146 31.5917 18.9579 31.0658L18.4279 29.29C18.3389 28.9972 18.2654 28.6918 18.1537 28.4139Z" fill="#414042"/>
</g>
<path d="M17.1127 8.13838C17.1229 8.14444 17.1328 8.15104 17.1423 8.15745C17.882 8.62509 18.5737 9.16339 19.2078 9.76477C19.8272 10.362 20.5645 10.8194 21.2607 11.3211C21.9568 11.8228 22.6413 12.3992 23.3251 12.9366C23.5851 13.1404 23.845 13.3445 24.105 13.549C24.2518 13.6664 24.4007 13.8078 24.5692 13.8938C24.8351 14.0297 25.1548 14.0437 25.4451 13.9867C25.6077 13.9513 25.7681 13.9058 25.9251 13.8504C27.3132 13.3928 28.7155 12.9845 30.1137 12.5561C30.9542 12.3026 31.7917 12.0401 32.6261 11.7686C33.0429 11.6305 33.4606 11.4965 33.8756 11.3548L33.9543 11.328L33.974 11.3214L34.0059 11.3118L34.046 11.3C34.0531 11.2967 34.0561 11.2953 34.0683 11.2941L34.1053 11.2874C34.1299 11.2835 34.1547 11.2799 34.1797 11.2776C34.2234 11.2751 34.2673 11.2754 34.311 11.2784C34.4818 11.2969 34.641 11.3717 34.7633 11.4909C34.8865 11.6095 34.9652 11.7665 34.9864 11.9361C34.9929 11.9787 34.9946 12.0219 34.9915 12.0649C34.9901 12.1076 34.9845 12.1501 34.9748 12.1917C34.9572 12.2637 34.9321 12.3336 34.8999 12.4004L34.3677 13.5991L33.8471 14.8032L32.8082 17.2125C32.6266 17.5797 32.4801 17.9778 32.3324 18.3588C32.1919 18.7211 31.9718 19.0562 31.828 19.4223C31.7577 19.5924 31.7077 19.7699 31.6791 19.9514C31.6243 20.3495 31.7251 20.7561 31.896 21.1187C32.1556 21.6683 32.5504 22.1667 32.8917 22.666C33.2485 23.1881 33.6039 23.7109 33.9581 24.2346L34.4895 25.0204C34.6526 25.2623 34.8743 25.5113 34.9989 25.775L36.4568 27.9394L37.1866 29.0215L37.2821 29.1655C37.3149 29.2224 37.343 29.2819 37.3661 29.3434C37.3835 29.3963 37.397 29.4504 37.4065 29.5053C37.4397 29.7206 37.3995 29.9412 37.2921 30.1321C37.1847 30.3229 37.0165 30.4729 36.8141 30.5583C36.7121 30.601 36.6036 30.626 36.4934 30.632C36.4404 30.6344 36.3873 30.6332 36.3346 30.6283C36.3054 30.6262 36.2795 30.6226 36.2526 30.6218L31.026 30.0685L28.4146 29.7858C27.9912 29.7397 27.4755 29.592 27.0631 29.7005C26.7785 29.7751 26.5225 29.9328 26.328 30.1531C26.0709 30.4483 25.8615 30.8186 25.6341 31.1419L24.904 32.1712C24.4165 32.8569 23.9284 33.5422 23.4398 34.2269L21.9182 36.3689L21.1596 37.4421L20.9713 37.712L20.8686 37.856C20.785 37.9716 20.6735 38.0645 20.5445 38.126C20.4155 38.1875 20.2731 38.2157 20.1307 38.2078C19.9882 38.2 19.8503 38.1564 19.7298 38.0811C19.6094 38.0058 19.5102 37.9013 19.4417 37.7773C19.4186 37.7368 19.3995 37.6942 19.3847 37.6499L19.3637 37.5843C19.3571 37.5702 19.3561 37.5576 19.3526 37.5443L19.2701 37.2286L19.1047 36.5974L18.7742 35.3344L18.1088 32.8073L17.4406 30.2838C17.3456 29.9243 17.2708 29.5525 17.1462 29.2037C17.0885 29.0419 17.0292 28.8777 16.9294 28.737C16.803 28.5593 16.6422 28.5 16.4461 28.4288L11.52 26.6393L9.05587 25.7428L7.82446 25.2945L7.67074 25.2386L7.61857 25.218L7.58084 25.2019L7.56206 25.194L7.52786 25.1767C7.50442 25.1638 7.48101 25.15 7.45796 25.136C7.30484 25.0349 7.19236 24.8835 7.1399 24.7081C7.08636 24.5364 7.09282 24.3513 7.15821 24.1829C7.22361 24.0145 7.34411 23.8726 7.50021 23.7801L7.48034 23.7931L8.00603 23.4258L9.33325 22.4993L11.0888 21.2737L12.9013 20.0103L14.3942 18.9671C14.5695 18.8445 14.7432 18.7185 14.9084 18.5821C15.027 18.4845 15.1614 18.4269 15.233 18.2867C15.5486 17.6699 15.4392 16.8742 15.4656 16.1986C15.4973 15.3828 15.5337 14.5674 15.5745 13.7522C15.6558 12.1376 15.7552 10.5244 15.8727 8.91237C15.8894 8.68101 15.8913 8.4919 16.0512 8.32409C16.3667 7.99681 16.7385 7.9017 17.1127 8.13838ZM16.7632 8.65454C16.6627 8.67327 16.5702 8.7222 16.4981 8.79471C16.263 9.01977 16.3334 9.40635 16.3199 9.70044L16.2878 10.3987L16.1621 13.1633L16.0361 15.9281C16.0192 16.2876 16.0479 16.6554 16.0319 17.0158C16.0066 17.5757 16.1854 18.3349 15.6387 18.7397C14.9835 19.2252 14.3295 19.7083 13.6641 20.1797L11.4412 21.7541L9.30531 23.2662C9.106 23.4056 8.90593 23.5454 8.70929 23.6885C8.54243 23.8125 8.34617 23.9053 8.23076 24.0851C8.18369 24.1559 8.15313 24.2362 8.14132 24.3201C8.12952 24.4039 8.13679 24.4892 8.16257 24.5697C8.26755 24.8644 8.63904 24.9155 8.89737 25.0025L9.90948 25.3441L11.9829 26.0415L16.1303 27.4367C16.4565 27.5476 16.7903 27.6591 17.0798 27.8476C17.4689 28.1013 17.5753 28.3912 17.6771 28.8077C17.7969 29.2999 17.9452 29.7867 18.0792 30.2753C18.2133 30.7639 18.3473 31.2534 18.4813 31.7429C18.6002 32.1771 18.6649 32.7061 18.8567 33.1122C19.0627 33.8633 19.2686 34.6144 19.4744 35.3656C19.5695 35.7128 19.6638 36.8649 20.0743 36.9822C20.2246 37.0251 20.3798 36.9392 20.5103 36.8513C21.0914 36.4601 21.3828 35.822 21.7714 35.2467L22.7703 33.7719C23.748 32.3172 24.7286 30.8656 25.712 29.4172L25.8963 29.1456L25.9446 29.0748C25.9752 29.0307 26.0095 28.9892 26.0471 28.9508C26.1227 28.8739 26.2104 28.81 26.3069 28.7616C26.4035 28.7134 26.5075 28.6817 26.6145 28.6679C26.6726 28.6601 26.7313 28.6578 26.7897 28.6611L26.84 28.6649L26.8881 28.6702L27.2149 28.7041L28.5222 28.8379L31.1349 29.1069L34.8881 29.5052C35.2288 29.5415 35.6456 29.5735 35.7869 29.1666C35.9631 28.6604 35.243 27.8954 34.9781 27.5066C34.7132 27.1178 34.4435 26.7218 34.1759 26.3294C33.1977 24.8915 32.2175 23.4523 31.2539 22.0029L30.8913 21.4604L30.7098 21.1892L30.6193 21.0537C30.621 21.0574 30.5973 21.0216 30.6212 21.0578L30.5974 21.0238C30.5817 21.0022 30.568 20.9789 30.5535 20.954C30.5265 20.9076 30.5036 20.859 30.4848 20.8087C30.4119 20.6041 30.4119 20.3804 30.4848 20.1749L30.5009 20.1307L30.5089 20.1119L30.534 20.0549L30.5693 19.9807L30.6393 19.8305L30.9227 19.2392C31.3033 18.4514 31.6886 17.6662 32.0787 16.8836L33.2434 14.5311L33.8243 13.3541C33.9135 13.1731 34.013 12.9913 34.0895 12.8045C34.1497 12.6575 34.2308 12.5084 34.2272 12.3454C34.2269 12.2779 34.2122 12.2114 34.184 12.1503C34.1558 12.0891 34.1148 12.0347 34.0637 11.9906C33.9361 11.8867 33.8096 11.8962 33.67 11.9504C33.4805 12.0264 33.2751 12.0728 33.0787 12.1343C32.669 12.2623 32.2636 12.404 31.8584 12.5461C31.3695 12.7169 30.8626 12.9501 30.3586 13.0543C29.9658 13.1358 29.575 13.3064 29.194 13.4352L27.9856 13.8432L25.5683 14.6591C25.3132 14.7452 25.0528 14.8325 24.7849 14.8364C24.6729 14.8386 24.5613 14.8232 24.4544 14.7908C24.1051 14.6844 23.7992 14.3856 23.516 14.157L22.803 13.58C20.9465 12.0752 19.1289 10.5204 17.2889 8.98662C17.1684 8.88612 17.0583 8.75172 16.918 8.67779C16.8708 8.6536 16.8169 8.64526 16.7644 8.65401L16.7632 8.65454Z" fill="url(#paint1_linear)"/>
<g style="mix-blend-mode:soft-light">
<path d="M17.6874 14.8513C17.8054 14.2075 18.0869 13.6565 18.7754 14.1179C18.9444 14.2313 19.0735 14.3942 19.1923 14.5588C19.8829 15.5165 20.1795 16.4331 20.7292 17.4605C21.2789 18.4878 21.943 19.9506 22.111 21.1244C22.2685 22.2307 22.0274 23.2023 21.1895 23.9542C20.4398 24.625 19.3101 24.9262 18.3371 25.0655C17.3137 25.2122 16.2799 25.269 15.2476 25.2353C14.38 25.2073 13.4227 25.175 12.5855 24.9349C12.2493 24.8386 11.925 24.6729 11.6944 24.4118C11.3976 24.0734 11.2969 23.6342 11.6151 23.273C11.751 23.1183 11.927 23.004 12.1011 22.8923L13.6329 21.9072C14.051 21.6387 14.428 21.3199 14.8542 21.0742C15.7147 20.5772 16.5946 19.9887 17.0645 19.0868C17.5589 18.1394 17.561 17.0463 17.5945 16.009C17.6013 15.7782 17.606 15.2933 17.6874 14.8513Z" fill="#D1D3D4"/>
</g>
<path d="M13.4483 21.9884C13.5054 21.9614 13.5691 21.9349 13.6298 21.9515C13.77 21.9893 13.7568 22.1932 13.6948 22.3247C13.4199 22.907 12.8294 23.2656 12.2714 23.5907C11.8762 23.8226 11.4322 24.0604 10.9847 23.9692C10.9129 23.9602 10.8467 23.926 10.7982 23.8728C10.7415 23.7982 10.7534 23.6881 10.8019 23.6073C10.8559 23.5294 10.9253 23.4633 11.0059 23.4132C11.7732 22.8624 12.591 22.3853 13.4483 21.9884Z" fill="#FFFFF3"/>
</g>
<defs>
<linearGradient id="paint0_linear" x1="9.56893" y1="18.466" x2="37.3612" y2="28.5629" gradientUnits="userSpaceOnUse">
<stop stop-color="#FFDF2A"/>
<stop offset="1" stop-color="#FAC116"/>
</linearGradient>
<linearGradient id="paint1_linear" x1="6156.14" y1="2960.92" x2="26703.4" y2="10960.2" gradientUnits="userSpaceOnUse">
<stop stop-color="#66540D"/>
<stop offset="1" stop-color="#3F3408"/>
</linearGradient>
<clipPath id="clip0">
<rect width="33.0137" height="31.363" fill="white" transform="translate(0.839844 14.1387) rotate(-25.2869)"/>
</clipPath>
</defs>
</svg>
