<svg width="119" height="49" viewBox="0 0 119 49" fill="none" xmlns="http://www.w3.org/2000/svg">
<path d="M10.681 17.9954C5.68095 20.1954 3.88095 23.4654 6.46095 25.9254C7.29948 26.5768 8.32009 26.9508 9.38095 26.9954C12.961 27.4254 16.591 26.8454 20.181 27.1254C23.771 27.4054 27.621 28.8554 29.291 31.9954C30.221 33.7454 30.551 35.9954 32.291 36.9954C36.291 39.1654 39.291 31.5854 43.771 31.3054C45.911 31.1654 47.771 32.7354 49.771 33.4854C56.931 36.1254 61.541 28.4854 67.591 31.4854C69.671 32.4854 72.451 36.3554 74.771 36.3554C77.321 36.3554 78.531 33.0154 80.181 32.5254C83.291 31.5954 85.541 35.5254 86.291 38.6554C87.041 41.7854 86.821 46.7754 90.291 46.7754C93.761 46.7754 93.0509 35.4354 97.641 33.7754C99.9809 32.9154 102.641 33.0154 104.941 32.1354C107.241 31.2554 109.381 28.7054 108.411 26.4054C107.531 24.3054 104.851 23.8454 102.691 23.1254C96.221 20.9954 92.441 14.5254 88.291 9.09543C84.141 3.66543 77.751 -1.54457 71.221 0.425432C66.161 1.99543 62.981 7.36543 57.881 8.77543C50.611 10.7754 43.311 3.77543 35.881 5.17543C33.616 5.73775 31.4669 6.69215 29.531 7.99543C23.4186 11.6416 17.1274 14.9791 10.681 17.9954Z" fill="white"/>
<g opacity="0.35">
<path opacity="0.35" d="M36.2909 8.26514C36.2405 8.34997 36.2129 8.44645 36.2109 8.54514C36.2142 8.64048 36.2417 8.73342 36.2909 8.81514V8.86514C36.328 8.93518 36.3833 8.99391 36.4509 9.03514C36.4891 9.0745 36.5376 9.10224 36.5909 9.11514C36.6651 9.15379 36.7473 9.17435 36.8309 9.17514H37.0009L37.1509 9.10514C37.234 9.09249 37.311 9.054 37.3709 8.99514C37.4103 8.95697 37.438 8.90843 37.4509 8.85514C37.4896 8.78099 37.5102 8.69875 37.5109 8.61514V8.44514L37.4409 8.29514C37.4155 8.21049 37.3628 8.13664 37.2909 8.08514C37.2462 8.03667 37.1862 8.00492 37.1209 7.99514C37.0388 7.97558 36.9531 7.97558 36.8709 7.99514H36.7109H36.5609C36.4612 8.04464 36.3804 8.12542 36.3309 8.22514L36.2909 8.26514Z" fill="#336EC2"/>
</g>
<g opacity="0.35">
<path opacity="0.35" d="M34.0502 11.3654V11.2754V11.1854V11.1054V11.0154C34.0242 10.9694 33.9862 10.9314 33.9402 10.9054C33.8946 10.8791 33.8428 10.8652 33.7902 10.8652C33.7375 10.8652 33.6858 10.8791 33.6402 10.9054C33.5942 10.9314 33.5562 10.9694 33.5302 11.0154C33.5259 11.0453 33.5259 11.0756 33.5302 11.1054V11.1854C33.5255 11.2219 33.5255 11.2589 33.5302 11.2954V11.3854C33.5212 11.4249 33.5212 11.4659 33.5302 11.5054C33.5378 11.5448 33.559 11.5802 33.5902 11.6054C33.6175 11.641 33.6564 11.6658 33.7002 11.6754C33.7395 11.6856 33.7808 11.6856 33.8202 11.6754H33.9102C33.9624 11.6551 34.01 11.6245 34.0502 11.5854V11.5254C34.0637 11.473 34.0637 11.4179 34.0502 11.3654Z" fill="#336EC2"/>
</g>
<g opacity="0.15">
<path opacity="0.15" d="M39.7606 11.4956C39.847 11.4813 39.9255 11.4367 39.9822 11.3699C40.0388 11.303 40.0699 11.2182 40.0699 11.1306C40.0699 11.043 40.0388 10.9582 39.9822 10.8914C39.9255 10.8245 39.847 10.78 39.7606 10.7656C39.6741 10.78 39.5956 10.8245 39.5389 10.8914C39.4823 10.9582 39.4512 11.043 39.4512 11.1306C39.4512 11.2182 39.4823 11.303 39.5389 11.3699C39.5956 11.4367 39.6741 11.4813 39.7606 11.4956Z" fill="#336EC2"/>
</g>
<g opacity="0.35">
<path opacity="0.35" d="M74.291 4.26496C74.3604 4.27871 74.4317 4.27871 74.501 4.26496C74.5664 4.2439 74.625 4.20596 74.671 4.15496C74.7254 4.10588 74.7666 4.04402 74.791 3.97496C74.8102 3.90628 74.8102 3.83365 74.791 3.76496V3.61496C74.7685 3.52313 74.7199 3.43978 74.651 3.37496L74.541 3.29496C74.4719 3.22856 74.3851 3.18343 74.291 3.16496C74.2176 3.15976 74.1443 3.17721 74.081 3.21496C74.0132 3.23687 73.9515 3.27459 73.9011 3.32501C73.8507 3.37543 73.8129 3.43711 73.791 3.50496C73.7702 3.57341 73.7702 3.64652 73.791 3.71496V3.85496C73.8152 3.94903 73.8635 4.03518 73.931 4.10496L74.041 4.18496C74.1276 4.23125 74.2231 4.25852 74.321 4.26496H74.291Z" fill="#336EC2"/>
</g>
<g opacity="0.15">
<path opacity="0.15" d="M70.3505 7.60539C70.4495 7.58998 70.5397 7.53968 70.6049 7.46358C70.6701 7.38748 70.7059 7.29058 70.7059 7.19039C70.7059 7.0902 70.6701 6.99331 70.6049 6.9172C70.5397 6.8411 70.4495 6.7908 70.3505 6.77539C70.2515 6.7908 70.1613 6.8411 70.0961 6.9172C70.0309 6.99331 69.9951 7.0902 69.9951 7.19039C69.9951 7.29058 70.0309 7.38748 70.0961 7.46358C70.1613 7.53968 70.2515 7.58998 70.3505 7.60539Z" fill="#336EC2"/>
</g>
<g opacity="0.35">
<path opacity="0.35" d="M79.8005 7.47609V7.38609C79.8005 7.38609 79.8005 7.32609 79.8005 7.29609L79.7405 7.39609V7.33609V7.28609C79.7505 7.25351 79.7505 7.21867 79.7405 7.18609C79.7458 7.17519 79.7485 7.16322 79.7485 7.15109C79.7485 7.13897 79.7458 7.127 79.7405 7.11609H79.6805H79.5905H79.5205L79.4905 6.99609V7.04609V7.10609C79.4861 7.13928 79.4861 7.17291 79.4905 7.20609C79.4861 7.22923 79.4861 7.25296 79.4905 7.27609C79.5034 7.30489 79.5203 7.33181 79.5405 7.35609L79.4805 7.25609C79.4852 7.28591 79.4852 7.31628 79.4805 7.34609V7.43609V7.48609H79.6405V7.42609L79.8005 7.47609Z" fill="#336EC2"/>
</g>
<g opacity="0.15">
<path opacity="0.15" d="M92.8305 21.4052C92.9127 21.4052 92.9916 21.3725 93.0497 21.3144C93.1078 21.2562 93.1405 21.1774 93.1405 21.0952C93.1405 21.0129 93.1078 20.9341 93.0497 20.876C92.9916 20.8178 92.9127 20.7852 92.8305 20.7852C92.7483 20.7852 92.6694 20.8178 92.6113 20.876C92.5532 20.9341 92.5205 21.0129 92.5205 21.0952C92.5205 21.1774 92.5532 21.2562 92.6113 21.3144C92.6694 21.3725 92.7483 21.4052 92.8305 21.4052Z" fill="#336EC2"/>
</g>
<g opacity="0.35">
<path opacity="0.35" d="M90.741 26.8746C90.8604 26.8746 90.9748 26.8272 91.0592 26.7428C91.1436 26.6584 91.191 26.544 91.191 26.4246C91.191 26.3053 91.1436 26.1908 91.0592 26.1064C90.9748 26.022 90.8604 25.9746 90.741 25.9746C90.6217 25.9746 90.5072 26.022 90.4228 26.1064C90.3384 26.1908 90.291 26.3053 90.291 26.4246C90.291 26.544 90.3384 26.6584 90.4228 26.7428C90.5072 26.8272 90.6217 26.8746 90.741 26.8746Z" fill="#336EC2"/>
</g>
<g opacity="0.35">
<path opacity="0.35" d="M87.2906 23.8351C87.341 23.8351 87.3893 23.8151 87.4249 23.7794C87.4606 23.7438 87.4806 23.6955 87.4806 23.6451C87.4806 23.5947 87.4606 23.5464 87.4249 23.5107C87.3893 23.4751 87.341 23.4551 87.2906 23.4551C87.2402 23.4551 87.1919 23.4751 87.1562 23.5107C87.1206 23.5464 87.1006 23.5947 87.1006 23.6451C87.1006 23.6955 87.1206 23.7438 87.1562 23.7794C87.1919 23.8151 87.2402 23.8351 87.2906 23.8351Z" fill="#336EC2"/>
</g>
<g opacity="0.15">
<path opacity="0.15" d="M47.8707 23.7747C47.9662 23.7747 48.0578 23.7368 48.1253 23.6692C48.1928 23.6017 48.2307 23.5102 48.2307 23.4147C48.2307 23.3192 48.1928 23.2276 48.1253 23.1601C48.0578 23.0926 47.9662 23.0547 47.8707 23.0547C47.7753 23.0547 47.6837 23.0926 47.6162 23.1601C47.5487 23.2276 47.5107 23.3192 47.5107 23.4147C47.5107 23.5102 47.5487 23.6017 47.6162 23.6692C47.6837 23.7368 47.7753 23.7747 47.8707 23.7747Z" fill="#336EC2"/>
</g>
<g opacity="0.15">
<path opacity="0.15" d="M40.451 21.8352C40.5149 21.8229 40.5726 21.7887 40.6141 21.7386C40.6556 21.6884 40.6783 21.6253 40.6783 21.5602C40.6783 21.495 40.6556 21.432 40.6141 21.3818C40.5726 21.3316 40.5149 21.2974 40.451 21.2852C40.387 21.2974 40.3293 21.3316 40.2878 21.3818C40.2463 21.432 40.2236 21.495 40.2236 21.5602C40.2236 21.6253 40.2463 21.6884 40.2878 21.7386C40.3293 21.7887 40.387 21.8229 40.451 21.8352Z" fill="#336EC2"/>
</g>
<g opacity="0.35">
<path opacity="0.35" d="M32.3402 22.4362C32.3879 22.4362 32.4337 22.4172 32.4674 22.3835C32.5012 22.3497 32.5202 22.3039 32.5202 22.2562C32.5202 22.2084 32.5012 22.1626 32.4674 22.1289C32.4337 22.0951 32.3879 22.0762 32.3402 22.0762C32.2924 22.0762 32.2466 22.0951 32.2129 22.1289C32.1791 22.1626 32.1602 22.2084 32.1602 22.2562C32.1602 22.3039 32.1791 22.3497 32.2129 22.3835C32.2466 22.4172 32.2924 22.4362 32.3402 22.4362Z" fill="#336EC2"/>
</g>
<g opacity="0.35">
<path opacity="0.35" d="M45.7806 20.3249C45.8841 20.3249 45.9833 20.2838 46.0564 20.2107C46.1295 20.1376 46.1706 20.0384 46.1706 19.9349C46.1706 19.8315 46.1295 19.7323 46.0564 19.6592C45.9833 19.586 45.8841 19.5449 45.7806 19.5449C45.6772 19.5449 45.578 19.586 45.5049 19.6592C45.4317 19.7323 45.3906 19.8315 45.3906 19.9349C45.3906 20.0384 45.4317 20.1376 45.5049 20.2107C45.578 20.2838 45.6772 20.3249 45.7806 20.3249Z" fill="#336EC2"/>
</g>
<g opacity="0.15">
<path opacity="0.15" d="M69.6506 22.3655C69.7407 22.3655 69.8272 22.3297 69.891 22.266C69.9547 22.2022 69.9905 22.1157 69.9905 22.0255C69.9905 21.9354 69.9547 21.8489 69.891 21.7851C69.8272 21.7214 69.7407 21.6855 69.6506 21.6855C69.5604 21.6855 69.4739 21.7214 69.4101 21.7851C69.3464 21.8489 69.3105 21.9354 69.3105 22.0255C69.3105 22.1157 69.3464 22.2022 69.4101 22.266C69.4739 22.3297 69.5604 22.3655 69.6506 22.3655Z" fill="#336EC2"/>
</g>
<g opacity="0.15">
<path opacity="0.15" d="M58.9905 14.4048C59.0594 14.4048 59.1256 14.3774 59.1743 14.3286C59.2231 14.2799 59.2505 14.2137 59.2505 14.1448C59.2505 14.0758 59.2231 14.0097 59.1743 13.9609C59.1256 13.9122 59.0594 13.8848 58.9905 13.8848C58.9215 13.8848 58.8554 13.9122 58.8066 13.9609C58.7579 14.0097 58.7305 14.0758 58.7305 14.1448C58.7305 14.2137 58.7579 14.2799 58.8066 14.3286C58.8554 14.3774 58.9215 14.4048 58.9905 14.4048Z" fill="#336EC2"/>
</g>
<g opacity="0.3">
<path opacity="0.3" d="M3.85024 17.0462C1.08024 20.2062 1.97024 25.1862 5.05024 27.9362C10.4702 32.7662 18.3902 28.5462 24.1902 31.7262C28.3902 34.0362 29.8602 40.0462 35.5502 39.6162C38.0602 39.4262 39.4502 37.7562 41.4202 36.5162C45.0202 34.2362 48.2602 37.2862 52.1202 37.3962C55.0302 37.4862 57.6102 36.3262 60.2602 35.3062C64.4502 33.6762 66.7402 34.4462 70.5402 36.6062C72.6102 37.7862 74.8202 38.8962 77.2802 38.6062C78.3355 38.4702 79.3544 38.1306 80.2802 37.6062C82.2802 36.5062 81.9902 36.6762 83.0302 38.9862C84.8402 42.9862 86.8102 49.8462 92.8802 48.1762C98.9502 46.5062 96.6002 39.1762 101.3 36.5962C106 34.0162 111.85 32.6662 112.17 26.1462C112.4 21.5162 108.64 14.9262 103.28 16.4962C102.932 16.599 102.615 16.7884 102.36 17.0467C102.104 17.3049 101.919 17.6237 101.82 17.9732C101.721 18.3227 101.712 18.6915 101.795 19.0453C101.877 19.3991 102.047 19.7262 102.29 19.9962C104.06 21.9962 107.64 23.8062 105.92 27.1462C104.83 29.3562 101.29 30.0562 99.2902 30.9962C97.3429 31.7678 95.6227 33.0201 94.2902 34.6362C92.7502 36.6862 93.2902 39.6362 92.0102 41.4762C90.1102 44.2462 89.0102 39.0562 88.5102 37.7962C88.0266 36.4141 87.3857 35.0921 86.6002 33.8562C85.4802 32.2562 84.1502 30.9962 82.0602 30.9962C78.9902 30.9962 77.5402 33.6662 74.3802 32.5262C71.7802 31.5962 69.8302 29.5262 67.0402 28.8762C61.2902 27.5062 56.4302 32.9062 50.8902 31.6962C48.1402 31.0962 45.8902 29.5362 42.9702 29.8662C40.0502 30.1962 38.8302 32.6762 36.2902 33.6362C33.4602 34.6362 31.9702 31.3462 30.3502 29.6362C28.6044 27.6919 26.3273 26.3014 23.8002 25.6362C19.2902 24.4962 3.68024 27.0462 6.29024 18.4862C6.36738 18.1738 6.34125 17.8447 6.21576 17.5483C6.09027 17.2519 5.87217 17.0041 5.5941 16.8419C5.31603 16.6798 4.99294 16.6121 4.67318 16.6489C4.35341 16.6858 4.05417 16.8252 3.82024 17.0462H3.85024Z" fill="#336EC2"/>
</g>
<path opacity="0.15" d="M118.291 20.1853C118.021 13.1853 113.151 8.43532 107.291 5.33532C98.4606 0.705323 89.4806 9.73532 97.0006 17.0753C97.5206 17.5853 97.5106 11.8953 97.9306 12.4453C98.4706 13.1553 96.1406 8.05532 96.6906 18.4453C96.8406 21.3853 102.781 22.9753 99.1606 24.0153C96.9606 24.6353 94.0606 24.7853 93.2906 28.0153C92.6106 30.8953 89.0106 30.6153 85.5706 27.2453C82.5706 24.3553 78.9506 24.0453 75.2006 24.0753C71.9706 24.0753 70.3806 25.4453 68.6406 24.5353C65.8306 23.0653 63.1106 21.0653 59.9206 21.2153C57.0306 21.3653 55.4606 22.7953 53.2706 24.6153C52.8606 24.9653 50.6206 27.2753 48.1806 26.4753C47.0006 26.0853 45.0606 24.4753 43.8206 24.0353C42.3656 23.5035 40.838 23.1967 39.2906 23.1253C37.6619 23.1362 36.0429 23.3752 34.4806 23.8353C34.2606 23.8953 33.4206 24.2053 32.7406 24.4853C32.3122 24.6597 31.8468 24.7236 31.3872 24.6712C30.9277 24.6188 30.4887 24.4517 30.1106 24.1853C29.3203 23.4203 28.5914 22.5945 27.9306 21.7153C26.0906 19.5553 25.0106 18.9353 21.6106 18.9353C19.7506 18.9353 15.9006 20.3253 13.6106 18.9353C11.9506 17.9353 18.1206 15.1453 16.3906 14.1453C14.9906 13.3353 4.95056 12.8853 3.58056 13.9353C-3.21944 19.1653 0.580556 28.4653 7.36056 31.6753C10.8806 33.3353 14.5406 32.2453 17.9906 33.3253C20.6506 34.1553 22.5606 37.0553 25.0706 38.3253C28.3927 39.9888 32.218 40.3457 35.7906 39.3253C37.1506 38.9853 38.0206 38.4453 39.1606 38.6153C40.9606 38.8853 42.7706 40.5653 44.6406 40.9953C48.0064 41.6897 51.5014 41.3909 54.7006 40.1353C56.2327 39.4255 57.8016 38.7979 59.4006 38.2553L59.8006 38.1853C60.215 38.1122 60.6419 38.1717 61.0206 38.3553C61.3406 38.5153 61.6606 38.6853 62.0206 38.8753C64.0872 39.9741 66.3505 40.6538 68.6806 40.8753C69.29 40.8871 69.8984 40.8198 70.4906 40.6753C70.8975 40.5912 71.3209 40.6436 71.6951 40.8244C72.0693 41.0052 72.3735 41.3042 72.5606 41.6753C73.0664 42.8186 73.8372 43.8249 74.8093 44.6109C75.7814 45.3969 76.9268 45.94 78.1506 46.1953C80.7806 46.6353 83.3306 47.0653 85.8506 47.1953H86.1006C89.8843 48.0644 93.8573 47.4488 97.2006 45.4753L97.3306 45.4053C99.2457 44.6352 101.089 43.6983 102.841 42.6053L103.071 42.4853C105.078 41.715 106.996 40.7292 108.791 39.5453C111.996 37.2286 114.407 33.9765 115.691 30.2353C115.871 29.7253 116.031 29.2353 116.171 28.6953C117.599 26.089 118.33 23.1574 118.291 20.1853Z" fill="#336EC2"/>
</svg>
