<svg width="195" height="54" viewBox="0 0 195 54" fill="none" xmlns="http://www.w3.org/2000/svg">
<path d="M186.797 24.9975C185.732 24.569 184.575 24.4205 183.436 24.5661C171.833 24.629 164.562 12.5495 155.008 5.9075C150.617 2.90708 145.581 0.982389 140.308 0.289127C135.035 -0.404135 129.673 0.153502 124.656 1.91692C115.452 5.25139 107.579 12.7023 97.8005 13.2325C87.2039 13.8617 78.0903 6.28498 68.1049 2.68987C62.0123 0.478493 55.4783 -0.239636 49.0508 0.595721C31.9741 2.04275 29.2777 7.55226 20.8202 10.3834C12.3627 13.2146 5.01074 15.4525 5.01074 21.2676C5.01074 25.0694 9.81021 27.1816 13.5132 28.0264C19.7237 29.4375 26.1859 27.9275 32.5493 27.7658C38.9126 27.604 46.1478 29.3836 49.2036 34.956C51.9 39.9442 51.4955 47.7725 56.9421 49.4173C60.2676 50.4239 63.7548 48.0512 65.6872 45.1661C67.6196 42.281 68.5992 38.8746 70.5496 35.9536C71.8888 33.9763 74.4862 32.1698 76.5085 33.455C77.9555 34.3538 78.3869 36.5199 79.9778 37.14C82.764 38.2365 84.8941 33.6528 87.887 33.7247C89.8643 33.7696 91.1945 35.8188 93.073 36.421C96.0569 37.3917 99.0678 34.4706 102.205 34.7672C107.822 35.2975 109.017 45.0313 114.662 45.247C119.946 45.4537 121.789 37.0861 126.993 36.1244C133.59 34.911 136.745 46.1727 143.458 46.1817C146.658 46.1817 151.386 40.115 153.956 38.2096C162.512 31.8462 172.031 36.2143 182.295 33.3112C184.254 32.754 186.285 31.9631 187.49 30.3183C188.694 28.6735 188.577 25.9772 186.797 24.9975Z" fill="white"/>
<path d="M186.797 24.9975C185.732 24.569 184.575 24.4205 183.436 24.5661C171.833 24.629 164.562 12.5495 155.008 5.9075C150.617 2.90708 145.581 0.982389 140.308 0.289127C135.035 -0.404135 129.673 0.153502 124.656 1.91692C115.452 5.25139 107.579 12.7023 97.8005 13.2325C87.2039 13.8617 78.0903 6.28498 68.1049 2.68987C62.0123 0.478493 55.4783 -0.239636 49.0508 0.595721C31.9741 2.04275 29.2777 7.55226 20.8202 10.3834C12.3627 13.2146 5.01074 15.4525 5.01074 21.2676C5.01074 25.0694 9.81021 27.1816 13.5132 28.0264C19.7237 29.4375 26.1859 27.9275 32.5493 27.7658C38.9126 27.604 46.1478 29.3836 49.2036 34.956C51.9 39.9442 51.4955 47.7725 56.9421 49.4173C60.2676 50.4239 63.7548 48.0512 65.6872 45.1661C67.6196 42.281 68.5992 38.8746 70.5496 35.9536C71.8888 33.9763 74.4862 32.1698 76.5085 33.455C77.9555 34.3538 78.3869 36.5199 79.9778 37.14C82.764 38.2365 84.8941 33.6528 87.887 33.7247C89.8643 33.7696 91.1945 35.8188 93.073 36.421C96.0569 37.3917 99.0678 34.4706 102.205 34.7672C107.822 35.2975 109.017 45.0313 114.662 45.247C119.946 45.4537 121.789 37.0861 126.993 36.1244C133.59 34.911 136.745 46.1727 143.458 46.1817C146.658 46.1817 151.386 40.115 153.956 38.2096C162.512 31.8462 172.031 36.2143 182.295 33.3112C184.254 32.754 186.285 31.9631 187.49 30.3183C188.694 28.6735 188.577 25.9772 186.797 24.9975Z" fill="white"/>
<g opacity="0.3">
<path opacity="0.3" d="M5.78477 12.2444C0.832508 20.6659 4.33774 28.7549 13.7749 31.1637C23.5356 33.6263 35.3456 28.4673 44.3333 33.9409C51.3438 38.2101 49.5283 49.6605 58.8126 51.5929C62.983 52.4916 67.1173 50.4155 69.8406 47.3417C71.0776 45.8825 72.0894 44.2466 72.8426 42.4883C73.283 41.5176 73.4897 40.3132 73.984 39.4055C73.9001 38.3509 74.3495 37.7847 75.3322 37.7068C76.0961 37.0956 76.7253 37.2304 77.2376 38.1292C78.8823 38.7134 79.8081 39.4863 81.7315 39.1538C83.4661 38.8482 84.994 37.3562 86.6747 37.1405C88.661 36.8889 90.5934 38.4797 92.5797 38.6685C94.8806 38.8931 96.9747 38.0932 99.1857 37.6438C103.41 36.7451 103.859 39.1718 105.684 42.2276C106.446 43.5931 107.502 44.772 108.776 45.6789C110.268 46.6574 111.97 47.2713 113.744 47.4711C115.517 47.671 117.313 47.4511 118.986 46.8294C120.761 46.1768 122.317 45.0404 123.48 43.5488C124.325 42.4793 124.837 40.3582 125.933 39.6032C129.268 37.3113 134.876 45.4452 137.86 46.7934C139.582 47.5249 141.432 47.9086 143.303 47.9225C145.174 47.9364 147.029 47.5802 148.762 46.8743C150.265 46.2869 151.65 45.4345 152.852 44.3577C154.865 42.5062 155.737 39.4414 158.047 37.9404C160.357 36.4395 163.826 36.6013 166.54 36.4665C170.507 36.2627 174.47 36.071 178.431 35.8912C183.087 35.6755 188.974 35.4059 190.924 30.2829C192.38 26.472 190.304 23.0926 186.87 21.2951C184.938 20.3334 182.772 20.0548 180.795 19.2459C177.038 17.709 175.474 14.752 174.018 11.1569C172.93 8.46055 168.499 8.51447 168.625 11.8939C168.689 13.6731 169.115 15.4206 169.875 17.0305C170.635 18.6404 171.714 20.0791 173.047 21.2591C174.297 22.4814 175.736 23.4949 177.307 24.2611C179.168 25.1598 181.882 25.2227 183.599 26.3282C186.861 28.4853 182.448 29.7076 180.184 29.9233C177.379 30.175 174.521 30.211 171.699 30.3368C167.205 30.5435 162.352 30.2739 158.02 31.5771C154.362 32.6826 152.708 34.8846 150.623 37.8685C147.738 42.0029 142.803 43.8993 138.363 40.5649C135.335 38.3179 133.492 34.9655 129.627 33.887C128.182 33.4545 126.641 33.462 125.201 33.9086C123.76 34.3552 122.485 35.2206 121.538 36.3945C119.3 39.0909 118.321 42.9017 113.827 41.94C109.737 41.0412 109.459 35.9092 106.439 33.5724C103.841 31.5681 100.884 31.8467 97.8735 32.5658C94.8626 33.2848 93.4335 33.4645 90.5934 32.422C89.1079 31.7375 87.4459 31.5333 85.8389 31.8377C84.5356 32.1164 82.6033 33.6353 81.345 33.6353C79.7272 33.6353 78.7745 31.6131 77.2466 31.0288C74.1907 29.8694 71.0989 31.8647 69.571 34.4622C67.5667 37.8775 67.1713 42.668 63.3335 44.7712C57.8779 47.7551 56.2242 40.6997 54.7322 37.1585C51.3258 29.0695 44.0188 25.789 35.5792 25.2946C30.1866 24.9711 24.704 26.0227 19.2664 25.6362C16.615 25.4474 13.2266 24.9711 11.0696 23.2454C8.15754 20.9086 9.0743 16.954 9.86522 13.8622C10.002 13.3398 9.94288 12.7854 9.69897 12.3035C9.45507 11.8217 9.04325 11.4458 8.54123 11.2468C8.03922 11.0478 7.48171 11.0393 6.97391 11.2231C6.46611 11.4069 6.04312 11.7702 5.78477 12.2444Z" fill="#336EC2"/>
</g>
<path opacity="0.15" d="M188.631 18.1037C188.059 17.725 187.439 17.4229 186.789 17.205C184.991 12.9897 182.007 9.55636 178.502 6.50051C176.786 4.58979 174.748 2.99565 172.48 1.79092L172.184 1.59319V1.64712C171.626 1.3685 171.06 1.09886 170.467 0.856192C163.879 -1.84014 158.621 5.2602 164.274 9.63725C165.928 10.9225 166.386 15.8029 168.301 17.5375C168.741 18.6969 171.572 20.0631 170.683 22.1482C169.128 25.6714 164.095 24.8895 160.661 25.1591C156.32 25.4647 153.902 26.741 150.981 29.9227C150.415 30.5338 147.997 33.9402 145.463 34.093C141.742 34.2368 137.868 20.9888 126.103 27.5409C123.596 28.943 116.72 39.8991 113.448 36.6185C103.364 26.5343 98.5557 25.3029 90.5117 27.9813C84.6607 29.9406 77.8749 22.5886 71.7452 28.2869C67.7277 31.9809 66.1998 37.9397 61.634 36.5916C56.5649 35.1086 55.6751 26.7679 50.0038 23.1818C41.8339 18.0139 32.4956 20.9259 23.5078 22.283C20.2363 22.7774 15.8503 22.7504 13.3786 20.1979C10.907 17.6454 12.6057 12.8459 13.9718 9.77206C15.6076 6.11404 9.73857 3.72329 6.52095 6.79711C-0.121016 13.1694 -2.26011 22.0763 2.79102 30.1653C8.66903 39.6115 19.3914 39.8182 29.278 37.9757C33.1967 37.2387 37.367 35.8905 41.3935 36.5287C45.42 37.1668 46.5255 40.2676 48.4939 43.2785C53.6618 51.1967 61.8856 55.9962 71.215 51.6101C74.7382 49.9384 78.7916 46.7298 80.5083 43.1347C81.3531 41.3821 80.715 41.9483 82.8451 41.5978C84.9752 41.2472 87.0694 40.9417 89.1995 40.7799C92.9294 40.4923 97.0458 40.2945 100.587 41.7416C104.649 43.4043 107.022 47.4218 111.372 48.7341C115.183 49.7336 119.233 49.1877 122.643 47.2151C124.683 46.1186 128.341 42.0202 130.606 42.0382C132.098 42.0382 134.965 45.0491 136.232 45.9479C136.844 46.3793 137.464 46.7747 138.102 47.1432C138.649 48.8615 139.817 50.3143 141.377 51.2183C142.938 52.1223 144.779 52.4126 146.541 52.0326C149.079 51.5304 151.437 50.3607 153.372 48.6442C157.318 47.2691 160.616 44.8154 164.292 42.6853C164.769 43.9291 165.646 44.979 166.785 45.669C167.924 46.3591 169.261 46.6501 170.584 46.4961C177.118 46.1006 184.065 44.5907 188.82 39.7463C190.535 37.9945 191.827 35.8731 192.595 33.5447C192.685 33.3829 192.784 33.2302 192.873 33.0594C195.723 27.5409 193.637 21.3753 188.631 18.1037Z" fill="#336EC2"/>
</svg>
