<svg width="68" height="66" viewBox="0 0 68 66" fill="none" xmlns="http://www.w3.org/2000/svg">
<path d="M59.4106 41.1404L59.2032 40.5891C59.1583 40.4722 59.0688 40.378 58.9545 40.3271C58.8401 40.2762 58.7102 40.2728 58.5933 40.3176L55.3448 41.5618C55.2866 41.5844 55.2245 41.5953 55.1621 41.5938C55.0996 41.5922 55.0381 41.5784 54.9811 41.5529L54.0102 41.1184C53.9246 41.0805 53.8522 41.0181 53.8022 40.939C53.7522 40.8599 53.7268 40.7677 53.7292 40.6741C53.7317 40.5806 53.7619 40.4898 53.816 40.4135C53.8701 40.3371 53.9457 40.2785 54.0331 40.2452L56.5187 39.2949C56.5767 39.2728 56.6298 39.2396 56.6749 39.1971C56.7201 39.1545 56.7564 39.1035 56.7818 39.0469C56.8072 38.9903 56.8213 38.9293 56.8231 38.8673C56.8249 38.8053 56.8145 38.7436 56.7925 38.6856L56.5828 38.1337C56.5608 38.0757 56.5276 38.0226 56.485 37.9775C56.4425 37.9323 56.3915 37.896 56.3349 37.8706C56.2783 37.8452 56.2173 37.8311 56.1553 37.8293C56.0933 37.8274 56.0316 37.8378 55.9736 37.8599L51.1777 39.698C51.1194 39.7202 51.0574 39.7306 50.9951 39.7287C50.9328 39.7268 50.8715 39.7126 50.8147 39.6868L49.8713 39.2676C49.7857 39.2298 49.7133 39.1673 49.6633 39.0882C49.6133 39.0091 49.5879 38.9169 49.5904 38.8233C49.5928 38.7298 49.623 38.6391 49.6771 38.5627C49.7312 38.4863 49.8068 38.4278 49.8943 38.3944L53.7915 36.9119C53.9083 36.8669 54.0025 36.7775 54.0535 36.6631C54.1044 36.5487 54.1078 36.4188 54.063 36.3019L53.8533 35.75C53.8084 35.6332 53.7189 35.5389 53.6045 35.488C53.4902 35.4371 53.3603 35.4337 53.2434 35.4785L47.0317 37.855C46.9149 37.9003 46.7849 37.8973 46.6703 37.8468L45.6796 37.4041C45.594 37.3662 45.5216 37.3038 45.4716 37.2247C45.4216 37.1456 45.3962 37.0534 45.3987 36.9598C45.4011 36.8663 45.4313 36.7755 45.4854 36.6992C45.5395 36.6228 45.6151 36.5642 45.7025 36.5309L46.3265 36.2928C46.4434 36.2479 46.5376 36.1584 46.5885 36.0441C46.6394 35.9297 46.6429 35.7998 46.5981 35.6829L46.3884 35.131C46.3435 35.0141 46.254 34.9199 46.1396 34.869C46.0253 34.8181 45.8954 34.8146 45.7785 34.8595L42.8455 35.9808C42.7872 36.0029 42.7252 36.0134 42.6629 36.0115C42.6006 36.0096 42.5393 35.9953 42.4825 35.9696L41.8292 35.6782C41.7445 35.6397 41.6732 35.5772 41.6239 35.4983C41.5747 35.4194 41.5499 35.3278 41.5525 35.2349C41.5551 35.142 41.5851 35.0519 41.6387 34.976C41.6923 34.9 41.7671 34.8415 41.8537 34.8079L43.9066 34.0205C44.0234 33.9755 44.1176 33.8861 44.1686 33.7717C44.2195 33.6573 44.2229 33.5274 44.1781 33.4105L43.9684 32.8586C43.9464 32.8006 43.9132 32.7476 43.8706 32.7024C43.8281 32.6573 43.7771 32.621 43.7205 32.5955C43.6639 32.5701 43.6029 32.5561 43.5409 32.5542C43.4789 32.5524 43.4171 32.5628 43.3591 32.5848L38.9944 34.2571C38.8776 34.3024 38.7476 34.2994 38.6331 34.2489L37.9408 33.9389C37.8544 33.8999 37.7818 33.8358 37.7323 33.7549C37.6828 33.674 37.6588 33.5802 37.6635 33.4855C37.6748 33.2743 37.6701 33.0626 37.6492 32.8522C37.6001 32.3864 37.4696 31.9329 37.2635 31.5123C37.2145 31.4126 37.2022 31.2988 37.2288 31.191C37.2553 31.0831 37.3191 30.9881 37.4088 30.9225L38.2477 30.3138C38.2978 30.2772 38.3546 30.2507 38.4149 30.2361C38.4752 30.2214 38.5378 30.2187 38.5992 30.2283L43.214 30.9726C43.2753 30.9823 43.3379 30.9799 43.3982 30.9655C43.4585 30.951 43.5154 30.9248 43.5656 30.8884C43.6158 30.852 43.6583 30.806 43.6908 30.7531C43.7232 30.7003 43.7449 30.6415 43.7547 30.5803L43.8474 30.0024C43.8574 29.941 43.8553 29.8782 43.841 29.8177C43.8268 29.7571 43.8007 29.7 43.7643 29.6496C43.7279 29.5991 43.6819 29.5564 43.629 29.5237C43.576 29.4911 43.5171 29.4693 43.4557 29.4595L41.2911 29.1162C41.1992 29.1013 41.1137 29.0595 41.0454 28.9961C40.9772 28.9328 40.9292 28.8507 40.9075 28.7601C40.8858 28.6695 40.8913 28.5746 40.9234 28.4872C40.9555 28.3997 41.0127 28.3238 41.0879 28.2688L41.6571 27.8454C41.7585 27.7723 41.8846 27.7423 42.008 27.7621L45.1123 28.2556C45.1736 28.2654 45.2362 28.263 45.2965 28.2485C45.3568 28.2341 45.4137 28.2079 45.4639 28.1715C45.5141 28.135 45.5567 28.0891 45.5891 28.0362C45.6215 27.9833 45.6432 27.9246 45.653 27.8633L45.7509 27.2845C45.7606 27.2232 45.7582 27.1606 45.7438 27.1003C45.7293 27.04 45.7031 26.9831 45.6667 26.9329C45.6303 26.8827 45.5843 26.8402 45.5314 26.8077C45.4786 26.7753 45.4198 26.7536 45.3586 26.7438L44.7077 26.6399C44.6149 26.6258 44.5285 26.5844 44.4593 26.5209C44.3902 26.4575 44.3415 26.3748 44.3196 26.2836C44.2976 26.1924 44.3033 26.0966 44.3359 26.0087C44.3686 25.9207 44.4267 25.8444 44.5029 25.7896L45.3811 25.1553C45.4824 25.0823 45.6086 25.0523 45.7319 25.0721L52.2847 26.119C52.3471 26.1303 52.4111 26.1289 52.473 26.115C52.5348 26.101 52.5932 26.0748 52.6447 26.0378C52.6962 26.0008 52.7397 25.9538 52.7726 25.8996C52.8055 25.8454 52.8272 25.7852 52.8364 25.7224L52.9291 25.1446C52.9388 25.0833 52.9364 25.0207 52.922 24.9604C52.9075 24.9001 52.8814 24.8432 52.8449 24.793C52.8085 24.7428 52.7625 24.7003 52.7097 24.6678C52.6568 24.6354 52.598 24.6137 52.5368 24.6039L48.4083 23.9457C48.3159 23.9311 48.2299 23.8894 48.1612 23.8258C48.0925 23.7622 48.0442 23.6797 48.0225 23.5886C48.0008 23.4976 48.0067 23.4022 48.0393 23.3145C48.0719 23.2267 48.1299 23.1507 48.2058 23.096L49.044 22.4895C49.0938 22.4526 49.1506 22.4262 49.2109 22.4119C49.2712 22.3976 49.3338 22.3957 49.3949 22.4063L54.466 23.2132C54.5273 23.2229 54.5898 23.2205 54.6502 23.2061C54.7105 23.1916 54.7674 23.1654 54.8176 23.129C54.8678 23.0926 54.9103 23.0466 54.9428 22.9937C54.9752 22.9409 54.9969 22.8821 55.0066 22.8209L55.1 22.2407C55.1097 22.1795 55.1073 22.1169 55.0929 22.0566C55.0784 21.9962 55.0522 21.9393 55.0158 21.8891C54.9794 21.8389 54.9334 21.7964 54.8805 21.764C54.8277 21.7315 54.7689 21.7098 54.7077 21.7001L52.0803 21.2825C51.9879 21.2679 51.9019 21.2262 51.8332 21.1626C51.7645 21.099 51.7162 21.0165 51.6945 20.9255C51.6728 20.8344 51.6787 20.739 51.7113 20.6513C51.7439 20.5636 51.8019 20.4875 51.8778 20.4328L52.7384 19.8082C52.7883 19.7701 52.8452 19.7423 52.9059 19.7265C52.9666 19.7106 53.0298 19.707 53.0919 19.7159L56.5274 20.263C56.65 20.2829 56.7756 20.2537 56.8769 20.1817C56.9781 20.1096 57.0469 20.0006 57.0683 19.8781L57.1587 19.2996C57.1685 19.2384 57.1661 19.1758 57.1516 19.1155C57.1372 19.0551 57.111 18.9983 57.0746 18.9481C57.0381 18.8978 56.9922 18.8553 56.9393 18.8229C56.8864 18.7904 56.8277 18.7687 56.7664 18.759L55.777 18.6018C55.6846 18.5872 55.5986 18.5455 55.5299 18.4819C55.4612 18.4184 55.4129 18.3358 55.3912 18.2448C55.3695 18.1538 55.3754 18.0583 55.408 17.9706C55.4406 17.8829 55.4986 17.8068 55.5745 17.7521L55.6986 17.6625C55.7489 17.626 55.7914 17.58 55.8239 17.527C55.8564 17.4741 55.8781 17.4152 55.8877 17.3539C55.8974 17.2925 55.8949 17.2298 55.8803 17.1695C55.8658 17.1091 55.8394 17.0522 55.8028 17.002L55.449 16.524C55.3752 16.4232 55.2646 16.3558 55.1412 16.3363C55.0178 16.3169 54.8918 16.3472 54.7907 16.4204L54.6666 16.51C54.5907 16.5648 54.5003 16.5958 54.4069 16.5991C54.3134 16.6024 54.221 16.5779 54.1415 16.5287C54.062 16.4794 53.9988 16.4077 53.9601 16.3226C53.9214 16.2374 53.9088 16.1427 53.924 16.0504L54.0812 15.061C54.091 14.9997 54.0885 14.9372 54.0741 14.8768C54.0596 14.8165 54.0335 14.7596 53.997 14.7094C53.9606 14.6592 53.9146 14.6167 53.8618 14.5842C53.8089 14.5518 53.7501 14.5301 53.6889 14.5204L53.1087 14.427C53.0475 14.4173 52.9849 14.4197 52.9246 14.4341C52.8643 14.4486 52.8074 14.4748 52.7572 14.5112C52.707 14.5476 52.6644 14.5936 52.632 14.6465C52.5995 14.6993 52.5778 14.7581 52.5681 14.8193L52.0362 18.2616C52.0265 18.3231 52.0047 18.3821 51.9722 18.4351C51.9396 18.4881 51.8968 18.5342 51.8464 18.5707L50.9858 19.1953C50.9099 19.25 50.8195 19.281 50.7261 19.2843C50.6326 19.2876 50.5402 19.2631 50.4607 19.2139C50.3812 19.1647 50.318 19.0929 50.2793 19.0078C50.2406 18.9226 50.228 18.8279 50.2432 18.7356L50.6608 16.1083C50.6706 16.047 50.6682 15.9844 50.6537 15.9241C50.6393 15.8638 50.6131 15.8069 50.5766 15.7567C50.5402 15.7065 50.4942 15.664 50.4414 15.6315C50.3885 15.5991 50.3298 15.5774 50.2685 15.5676L49.6884 15.4743C49.6259 15.4632 49.5618 15.4649 49.5 15.4791C49.4382 15.4934 49.3798 15.5199 49.3285 15.5572C49.2772 15.5945 49.2339 15.6417 49.2012 15.6961C49.1685 15.7505 49.1471 15.8109 49.1383 15.8737L48.3307 20.9471C48.3107 21.0704 48.2427 21.1807 48.1416 21.2539L47.3138 21.8584C47.2379 21.9132 47.1475 21.9442 47.0541 21.9475C46.9606 21.9508 46.8682 21.9263 46.7887 21.8771C46.7092 21.8279 46.646 21.7561 46.6073 21.671C46.5686 21.5858 46.556 21.4911 46.5712 21.3988L47.2175 17.2866C47.228 17.2246 47.2261 17.1612 47.2119 17.1C47.1976 17.0389 47.1713 16.9811 47.1345 16.9302C47.0976 16.8793 47.051 16.8363 46.9973 16.8037C46.9437 16.771 46.884 16.7494 46.8219 16.7401L46.2411 16.649C46.1798 16.6392 46.1173 16.6417 46.0569 16.6561C45.9966 16.6706 45.9397 16.6967 45.8895 16.7332C45.8393 16.7696 45.7968 16.8156 45.7644 16.8684C45.7319 16.9213 45.7102 16.9801 45.7005 17.0413L44.6578 23.6051C44.6378 23.7284 44.5698 23.8387 44.4686 23.9119L43.5898 24.5485C43.514 24.6032 43.4236 24.6342 43.3301 24.6375C43.2366 24.6408 43.1443 24.6163 43.0647 24.5671C42.9852 24.5179 42.9221 24.4461 42.8834 24.361C42.8446 24.2758 42.8321 24.1811 42.8473 24.0888L42.9509 23.4305C42.9704 23.3072 42.9403 23.1812 42.8672 23.0801C42.7941 22.9789 42.684 22.9108 42.5608 22.8905L41.9807 22.7972C41.9194 22.7874 41.8568 22.7899 41.7965 22.8043C41.7362 22.8188 41.6793 22.8449 41.6291 22.8814C41.5789 22.9178 41.5364 22.9638 41.5039 23.0166C41.4715 23.0695 41.4498 23.1283 41.44 23.1895L40.951 26.2952C40.9299 26.4188 40.862 26.5295 40.7612 26.6042L40.1732 27.0247C40.0973 27.0795 40.0069 27.1104 39.9135 27.1138C39.82 27.1171 39.7276 27.0926 39.6481 27.0434C39.5686 26.9941 39.5054 26.9224 39.4667 26.8372C39.428 26.7521 39.4155 26.6574 39.4306 26.5651L39.7759 24.3937C39.7856 24.3324 39.7832 24.2698 39.7688 24.2095C39.7543 24.1492 39.7281 24.0923 39.6917 24.0421C39.6553 23.9919 39.6093 23.9494 39.5564 23.9169C39.5036 23.8845 39.4448 23.8628 39.3836 23.853L38.8051 23.7626C38.7438 23.7528 38.6812 23.7553 38.6209 23.7697C38.5606 23.7842 38.5037 23.8103 38.4535 23.8468C38.4033 23.8832 38.3607 23.9292 38.3283 23.982C38.2959 24.0349 38.2742 24.0937 38.2644 24.1549L37.5298 28.7701C37.5201 28.8316 37.4984 28.8906 37.4658 28.9436C37.4332 28.9966 37.3905 29.0427 37.3401 29.0792L36.3023 29.8321C36.2263 29.887 36.1357 29.9181 36.042 29.9213C35.9483 29.9245 35.8557 29.8997 35.7761 29.8502C35.3197 29.5543 34.808 29.3542 34.2719 29.2621C34.1713 29.2442 34.0792 29.1943 34.0094 29.1197C33.9396 29.0451 33.8959 28.9498 33.8848 28.8483L33.7392 27.4424C33.7252 27.318 33.7612 27.1931 33.8392 27.0952L36.7844 23.4657C36.8633 23.369 36.9007 23.2452 36.8886 23.121C36.8764 22.9969 36.8157 22.8826 36.7196 22.8031L36.2653 22.4265C36.1681 22.3477 36.0435 22.3108 35.919 22.3238C35.7946 22.3368 35.6804 22.3986 35.6015 22.4958L34.2152 24.2027C34.1569 24.2753 34.0784 24.329 33.9897 24.3572C33.9009 24.3853 33.8058 24.3866 33.7163 24.3608C33.6268 24.335 33.5469 24.2833 33.4867 24.2123C33.4265 24.1413 33.3886 24.054 33.3778 23.9615L33.3028 23.2493C33.2888 23.1249 33.3248 23 33.4028 22.9021L35.3836 20.462C35.4624 20.3648 35.4993 20.2402 35.4863 20.1158C35.4733 19.9913 35.4114 19.8771 35.3143 19.7982L34.86 19.4215C34.7627 19.3428 34.6382 19.3059 34.5137 19.3188C34.3893 19.3318 34.275 19.3937 34.1961 19.4908L33.7766 20.009C33.7184 20.0824 33.6397 20.1368 33.5505 20.1654C33.4613 20.194 33.3657 20.1954 33.2757 20.1695C33.1857 20.1435 33.1054 20.0914 33.0451 20.0198C32.9848 19.9482 32.9471 19.8602 32.9369 19.7671L32.825 18.6879C32.811 18.5635 32.847 18.4386 32.925 18.3407L37.1149 13.1798C37.1937 13.0826 37.2306 12.958 37.2176 12.8336C37.2046 12.7091 37.1428 12.5949 37.0456 12.516L36.5913 12.1394C36.494 12.0606 36.3695 12.0237 36.245 12.0367C36.1206 12.0497 36.0063 12.1115 35.9274 12.2087L33.3043 15.4541C33.2459 15.5267 33.1674 15.5805 33.0787 15.6086C32.9899 15.6367 32.8948 15.638 32.8053 15.6122C32.7158 15.5864 32.6359 15.5348 32.5757 15.4637C32.5155 15.3927 32.4776 15.3054 32.4669 15.2129L32.3561 14.198C32.3421 14.0736 32.3781 13.9487 32.4562 13.8508L35.6901 9.867C35.7295 9.81882 35.759 9.76334 35.7769 9.70373C35.7947 9.64412 35.8006 9.58157 35.7943 9.51967C35.7879 9.45777 35.7693 9.39774 35.7397 9.34303C35.71 9.28833 35.6699 9.24001 35.6215 9.20088L35.1672 8.82426C35.0699 8.7455 34.9454 8.70857 34.8209 8.72156C34.6964 8.73455 34.5822 8.79641 34.5033 8.89355L32.827 10.9593C32.7686 11.0319 32.6902 11.0856 32.6014 11.1137C32.5126 11.1419 32.4175 11.1431 32.328 11.1174C32.2385 11.0916 32.1586 11.0399 32.0984 10.9689C32.0382 10.8978 32.0003 10.8106 31.9896 10.7181L31.877 9.65836C31.863 9.53395 31.899 9.40906 31.977 9.31115L34.1816 6.58902C34.2205 6.5407 34.2496 6.48518 34.2671 6.42562C34.2846 6.36607 34.2902 6.30365 34.2835 6.24193C34.2769 6.18021 34.2581 6.12041 34.2284 6.06595C34.1986 6.01148 34.1584 5.96342 34.11 5.92451L33.658 5.54854C33.6098 5.50916 33.5543 5.47969 33.4947 5.46182C33.4351 5.44395 33.3725 5.43803 33.3106 5.44441C33.2487 5.45079 33.1887 5.46934 33.134 5.49899C33.0793 5.52864 33.031 5.5688 32.9918 5.61718L32.3508 6.40084C32.2926 6.47424 32.2139 6.52869 32.1247 6.55726C32.0356 6.58584 31.9399 6.58726 31.8499 6.56134C31.7599 6.53541 31.6796 6.48332 31.6193 6.41168C31.559 6.34004 31.5213 6.25209 31.5111 6.159L31.4965 6.00488C31.4832 5.88063 31.4212 5.76671 31.3241 5.68806C31.227 5.60942 31.1027 5.57247 30.9784 5.5853L30.3934 5.64536C30.3316 5.65185 30.2717 5.67048 30.2171 5.70016C30.1625 5.72985 30.1143 5.77001 30.0753 5.81836C30.0362 5.8667 30.0071 5.92227 29.9896 5.98188C29.9721 6.0415 29.9665 6.10398 29.9732 6.16576L29.9884 6.31761C29.9979 6.41032 29.9797 6.50375 29.9362 6.58616C29.8927 6.66857 29.8257 6.73626 29.7438 6.78072C29.6619 6.82517 29.5687 6.84441 29.4759 6.836C29.3831 6.82759 29.2948 6.79191 29.2223 6.73346L28.4545 6.09698C28.3572 6.01823 28.2327 5.98129 28.1082 5.99428C27.9838 6.00728 27.8695 6.06914 27.7906 6.16628L27.414 6.62059C27.3353 6.71785 27.2983 6.84239 27.3113 6.96686C27.3243 7.09133 27.3862 7.20555 27.4833 7.28445L30.1847 9.47568C30.2328 9.51507 30.2727 9.56358 30.302 9.61842C30.3314 9.67326 30.3496 9.73335 30.3556 9.79525L30.4666 10.852C30.4746 10.9424 30.4564 11.0331 30.4142 11.1134C30.372 11.1937 30.3075 11.2601 30.2286 11.3048C30.1496 11.3494 30.0595 11.3704 29.9689 11.3652C29.8784 11.36 29.7913 11.3288 29.7179 11.2754L27.6522 9.59904C27.604 9.55966 27.5486 9.53018 27.489 9.51231C27.4293 9.49444 27.3668 9.48853 27.3049 9.49491C27.243 9.50128 27.183 9.51983 27.1283 9.54948C27.0735 9.57913 27.0252 9.6193 26.9861 9.66768L26.6095 10.122C26.5307 10.2193 26.4938 10.3438 26.5068 10.4683C26.5198 10.5927 26.5816 10.707 26.6788 10.7859L30.6625 14.0198C30.7595 14.0987 30.8212 14.2128 30.8341 14.3371L30.9409 15.3657C30.9504 15.4584 30.9322 15.5518 30.8887 15.6342C30.8452 15.7166 30.7783 15.7843 30.6964 15.8288C30.6145 15.8733 30.5212 15.8925 30.4284 15.8841C30.3356 15.8757 30.2474 15.84 30.1748 15.7815L26.9371 13.1655C26.8417 13.0856 26.7187 13.0466 26.5947 13.0569C26.4707 13.0672 26.3558 13.126 26.2749 13.2205L25.8983 13.6749C25.8195 13.7721 25.7826 13.8967 25.7956 14.0211C25.8086 14.1456 25.8704 14.2598 25.9676 14.3387L31.1285 18.5286C31.1784 18.5672 31.2201 18.6153 31.2512 18.6703C31.2822 18.7252 31.3019 18.7858 31.3091 18.8485L31.421 19.9277C31.4307 20.0207 31.4126 20.1146 31.369 20.1974C31.3253 20.2801 31.2581 20.348 31.1758 20.3925C31.0934 20.437 30.9998 20.456 30.9066 20.4472C30.8135 20.4384 30.7251 20.4021 30.6526 20.3429L30.1344 19.9233C30.0372 19.8446 29.9126 19.8076 29.7882 19.8206C29.6637 19.8336 29.5495 19.8955 29.4706 19.9926L29.094 20.4469C29.0152 20.5442 28.9783 20.6687 28.9913 20.7932C29.0043 20.9177 29.0661 21.0319 29.1633 21.1108L31.6056 23.0922C31.6549 23.1306 31.6961 23.1784 31.7269 23.2328C31.7576 23.2872 31.7772 23.3472 31.7846 23.4092L31.8574 24.1208C31.8669 24.2135 31.8487 24.3069 31.8052 24.3893C31.7617 24.4717 31.6947 24.5394 31.6128 24.5839C31.5309 24.6283 31.4377 24.6476 31.3449 24.6392C31.2521 24.6307 31.1638 24.5951 31.0913 24.5366L29.3843 23.1504C29.2871 23.0716 29.1626 23.0347 29.0381 23.0477C28.9136 23.0607 28.7994 23.1226 28.7205 23.2197L28.3439 23.674C28.3045 23.7222 28.275 23.7777 28.2571 23.8373C28.2393 23.8969 28.2334 23.9594 28.2397 24.0213C28.2461 24.0832 28.2647 24.1433 28.2943 24.198C28.324 24.2527 28.3641 24.301 28.4125 24.3401L32.042 27.2853C32.0905 27.3242 32.1308 27.3724 32.1606 27.4269C32.1905 27.4815 32.2092 27.5414 32.2159 27.6032L32.3614 29.0092C32.3714 29.1105 32.3484 29.2123 32.2958 29.2994C32.2433 29.3866 32.164 29.4544 32.0697 29.4929C31.5731 29.6923 31.1201 29.9868 30.7362 30.3597C30.6691 30.4256 30.5838 30.47 30.4913 30.4871C30.3988 30.5043 30.3033 30.4934 30.217 30.4559L28.9926 29.9115C28.9359 29.8862 28.8847 29.8498 28.8421 29.8047C28.7994 29.7595 28.7661 29.7063 28.744 29.6483L27.0828 25.2793C27.0383 25.1622 26.9491 25.0676 26.8348 25.0163C26.7206 24.9649 26.5906 24.9611 26.4735 25.0055L25.9216 25.2152C25.8045 25.2597 25.7098 25.3489 25.6585 25.4631C25.6071 25.5774 25.6033 25.7074 25.6478 25.8245L26.4352 27.8773C26.4691 27.9648 26.4762 28.0603 26.4556 28.1518C26.435 28.2434 26.3876 28.3267 26.3195 28.3911C26.2513 28.4556 26.1656 28.4983 26.0731 28.5139C25.9806 28.5294 25.8855 28.517 25.8001 28.4784L25.1467 28.1869C25.0331 28.1344 24.944 28.0401 24.8981 27.9237L23.7775 24.9884C23.7326 24.8716 23.6431 24.7773 23.5287 24.7264C23.4144 24.6755 23.2844 24.6721 23.1676 24.7169L22.6156 24.9266C22.4988 24.9715 22.4046 25.061 22.3536 25.1753C22.3027 25.2897 22.2993 25.4196 22.3441 25.5365L22.5854 26.1663C22.6184 26.2534 22.6249 26.3482 22.6041 26.439C22.5833 26.5297 22.5362 26.6123 22.4686 26.6763C22.4011 26.7403 22.3161 26.783 22.2244 26.7989C22.1327 26.8148 22.0384 26.8033 21.9532 26.7658L20.9615 26.3179C20.8471 26.2673 20.7575 26.1735 20.7123 26.0569L18.339 19.851C18.2941 19.7342 18.2046 19.6399 18.0902 19.589C17.9759 19.5381 17.846 19.5347 17.7291 19.5795L17.1771 19.7892C17.0603 19.8341 16.9661 19.9236 16.9152 20.0379C16.8642 20.1523 16.8608 20.2822 16.9056 20.3991L18.3992 24.2921C18.433 24.3793 18.44 24.4746 18.4195 24.5659C18.399 24.6571 18.3519 24.7403 18.2841 24.8047C18.2163 24.8692 18.1309 24.912 18.0388 24.9279C17.9466 24.9437 17.8518 24.9319 17.7663 24.8938L16.8236 24.4723C16.7669 24.447 16.7157 24.4106 16.6731 24.3655C16.6304 24.3203 16.5971 24.2671 16.575 24.209L14.7369 19.4132C14.692 19.2963 14.6025 19.2021 14.4881 19.1512C14.3738 19.1003 14.2439 19.0968 14.127 19.1416L13.5757 19.349C13.4589 19.394 13.3646 19.4834 13.3137 19.5978C13.2628 19.7122 13.2594 19.8421 13.3042 19.959L14.2545 22.4446C14.2875 22.5316 14.294 22.6265 14.2732 22.7172C14.2524 22.8079 14.2053 22.8905 14.1378 22.9545C14.0702 23.0186 13.9852 23.0612 13.8935 23.0772C13.8018 23.0931 13.7075 23.0815 13.6223 23.044L12.6484 22.6111C12.5348 22.5586 12.4457 22.4643 12.3998 22.3478L11.1579 19.0999C11.113 18.9831 11.0235 18.8888 10.9091 18.8379C10.7947 18.787 10.6648 18.7836 10.5479 18.8284L9.99669 19.0358C9.9385 19.058 9.88527 19.0914 9.84006 19.1342C9.79486 19.1771 9.75856 19.2284 9.73327 19.2853C9.70797 19.3422 9.69417 19.4035 9.69267 19.4658C9.69117 19.528 9.70199 19.5899 9.72451 19.648L10.08 20.5811C10.1137 20.6683 10.1208 20.7636 10.1003 20.8549C10.0798 20.9461 10.0327 21.0292 9.96488 21.0937C9.89709 21.1581 9.8117 21.201 9.71952 21.2169C9.62734 21.2327 9.53253 21.2208 9.44711 21.1828L9.31425 21.115C9.2001 21.0646 9.07065 21.0614 8.95416 21.1061C8.83767 21.1509 8.74361 21.2399 8.69253 21.3537L8.45034 21.8959C8.39918 22.0102 8.39552 22.1402 8.44017 22.2572C8.48481 22.3742 8.5741 22.4687 8.68841 22.5199L8.83003 22.5828C8.91533 22.621 8.98737 22.6837 9.03705 22.7628C9.08673 22.842 9.1118 22.9341 9.1091 23.0275C9.1064 23.121 9.07605 23.2115 9.02188 23.2876C8.96771 23.3638 8.89217 23.4222 8.80481 23.4554L7.87109 23.8131C7.81278 23.8351 7.75939 23.8684 7.71399 23.911C7.66859 23.9537 7.63209 24.0049 7.60658 24.0618C7.58107 24.1186 7.56706 24.18 7.56535 24.2422C7.56364 24.3045 7.57428 24.3665 7.59664 24.4247L7.80631 24.9766C7.85124 25.0934 7.94071 25.1877 8.05508 25.2386C8.16945 25.2895 8.29935 25.2929 8.41624 25.2481L11.6648 24.0039C11.7817 23.9595 11.9114 23.9633 12.0255 24.0144L12.9994 24.4473C13.0849 24.4852 13.1573 24.5476 13.2074 24.6267C13.2574 24.7058 13.2828 24.798 13.2803 24.8916C13.2778 24.9851 13.2476 25.0759 13.1935 25.1522C13.1394 25.2286 13.0639 25.2872 12.9764 25.3205L10.4908 26.2708C10.4326 26.293 10.3794 26.3265 10.3342 26.3693C10.289 26.4121 10.2527 26.4634 10.2274 26.5203C10.2021 26.5772 10.1883 26.6386 10.1868 26.7008C10.1853 26.7631 10.1961 26.825 10.2186 26.883L10.4283 27.435C10.4732 27.5518 10.5627 27.646 10.6771 27.6969C10.7914 27.7479 10.9213 27.7513 11.0382 27.7065L15.8335 25.8706C15.9502 25.8253 16.0802 25.8283 16.1948 25.8789L17.1399 26.301C17.2251 26.3392 17.2972 26.4018 17.3469 26.481C17.3965 26.5601 17.4216 26.6523 17.4189 26.7457C17.4162 26.8391 17.3859 26.9296 17.3317 27.0058C17.2775 27.0819 17.202 27.1403 17.1146 27.1735L13.2249 28.6558C13.108 28.7007 13.0138 28.7902 12.9629 28.9046C12.912 29.0189 12.9086 29.1488 12.9534 29.2657L13.1608 29.817C13.2057 29.9338 13.2952 30.0281 13.4095 30.079C13.5239 30.1299 13.6538 30.1333 13.7707 30.0885L19.9772 27.713C20.0941 27.6686 20.2238 27.6724 20.3379 27.7235L21.3293 28.1639C21.4149 28.2017 21.4873 28.2642 21.5373 28.3433C21.5873 28.4224 21.6127 28.5146 21.6102 28.6081C21.6078 28.7017 21.5776 28.7924 21.5235 28.8688C21.4694 28.9452 21.3938 29.0037 21.3063 29.0371L20.6823 29.2751C20.5655 29.3201 20.4713 29.4095 20.4204 29.5239C20.3694 29.6383 20.366 29.7682 20.4108 29.8851L20.6182 30.4363C20.6632 30.5532 20.7526 30.6474 20.867 30.6983C20.9814 30.7492 21.1113 30.7527 21.2282 30.7079L24.1634 29.5872C24.2803 29.5428 24.41 29.5466 24.5241 29.5977L25.1775 29.8891C25.263 29.927 25.3354 29.9895 25.3854 30.0686C25.4355 30.1477 25.4609 30.2398 25.4584 30.3334C25.4559 30.427 25.4257 30.5177 25.3716 30.594C25.3175 30.6704 25.2419 30.729 25.1545 30.7623L23.1023 31.5475C22.9855 31.5924 22.8912 31.6819 22.8403 31.7963C22.7894 31.9106 22.786 32.0405 22.8308 32.1574L23.0382 32.7087C23.0604 32.7669 23.0938 32.8201 23.1366 32.8653C23.1795 32.9105 23.2308 32.9468 23.2877 32.9721C23.3446 32.9974 23.4059 33.0112 23.4682 33.0127C23.5304 33.0142 23.5924 33.0034 23.6504 32.9809L28.0151 31.3086C28.132 31.2642 28.2617 31.268 28.3758 31.3191L29.3604 31.7575C29.4625 31.8031 29.545 31.8835 29.5934 31.9843C29.6417 32.0851 29.6528 32.1997 29.6246 32.3079C29.5056 32.7702 29.4698 33.2501 29.5187 33.7249C29.5365 33.9081 29.5663 34.0899 29.6077 34.2691C29.6301 34.36 29.6251 34.4554 29.5932 34.5434C29.5613 34.6313 29.504 34.7078 29.4286 34.7631L28.7515 35.2538C28.7017 35.2907 28.6449 35.3171 28.5846 35.3314C28.5243 35.3457 28.4617 35.3476 28.4006 35.3371L23.4132 34.5297L23.3282 34.5175L23.1622 35.5633C23.1428 35.6861 23.1726 35.8117 23.2452 35.9127C23.3178 36.0136 23.4273 36.0819 23.55 36.1026L25.7214 36.4479C25.8138 36.4625 25.8998 36.5042 25.9685 36.5678C26.0372 36.6313 26.0855 36.7139 26.1072 36.8049C26.1289 36.8959 26.123 36.9914 26.0904 37.0791C26.0578 37.1668 25.9998 37.2429 25.9239 37.2976L25.344 37.7155C25.2939 37.7521 25.2371 37.7785 25.1767 37.7932C25.1164 37.8079 25.0538 37.8105 24.9925 37.801L21.5074 37.2469L21.4257 37.2234L21.2597 38.2692C21.2499 38.3305 21.2523 38.3931 21.2668 38.4534C21.2812 38.5137 21.3074 38.5706 21.3438 38.6208C21.3803 38.671 21.4262 38.7135 21.4791 38.746C21.532 38.7784 21.5907 38.8001 21.652 38.8098L22.3096 38.9157C22.4016 38.9306 22.487 38.9724 22.5553 39.0358C22.6235 39.0991 22.6715 39.1812 22.6933 39.2718C22.715 39.3624 22.7094 39.4573 22.6773 39.5447C22.6452 39.6322 22.588 39.7081 22.5128 39.7631L21.634 40.3997C21.5839 40.4363 21.5271 40.4627 21.4667 40.4774C21.4064 40.4921 21.3438 40.4947 21.2825 40.4852L14.3386 39.3797L14.2569 39.3562L14.0902 40.4043C14.0805 40.4655 14.0829 40.5281 14.0973 40.5884C14.1118 40.6488 14.138 40.7056 14.1744 40.7558C14.2108 40.806 14.2568 40.8486 14.3097 40.881C14.3625 40.9135 14.4213 40.9352 14.4825 40.9449L18.5996 41.5999C18.6916 41.6148 18.777 41.6566 18.8453 41.7199C18.9135 41.7833 18.9615 41.8654 18.9833 41.956C19.005 42.0466 18.9994 42.1415 18.9673 42.2289C18.9352 42.3164 18.878 42.3923 18.8028 42.4473L17.9669 43.0544C17.9168 43.0911 17.8599 43.1175 17.7996 43.1322C17.7393 43.1469 17.6767 43.1495 17.6154 43.14L12.1612 42.2719L12.0795 42.2484L11.9135 43.2942C11.9038 43.3554 11.9062 43.418 11.9206 43.4783C11.9351 43.5387 11.9613 43.5955 11.9977 43.6458C12.0341 43.696 12.0801 43.7385 12.133 43.7709C12.1858 43.8034 12.2446 43.8251 12.3058 43.8348L14.9302 44.254C15.0222 44.2689 15.1076 44.3107 15.1759 44.3741C15.2442 44.4374 15.2922 44.5196 15.3139 44.6101C15.3356 44.7007 15.33 44.7956 15.2979 44.8831C15.2658 44.9705 15.2086 45.0465 15.1334 45.1015L14.2721 45.7283C14.1708 45.8013 14.0446 45.8313 13.9213 45.8115L10.1029 45.2032L10.0234 45.1804L9.8551 46.2255C9.84536 46.2868 9.84778 46.3494 9.86223 46.4097C9.87668 46.47 9.90286 46.5269 9.93929 46.5771C9.97573 46.6273 10.0217 46.6698 10.0746 46.7023C10.1274 46.7347 10.1862 46.7564 10.2474 46.7662L11.2391 46.924C11.331 46.9389 11.4165 46.9807 11.4847 47.044C11.553 47.1074 11.601 47.1895 11.6227 47.2801C11.6444 47.3706 11.6389 47.4656 11.6068 47.553C11.5747 47.6405 11.5175 47.7164 11.4423 47.7714L11.3175 47.8633C11.2166 47.9367 11.1488 48.047 11.1289 48.1703C11.1091 48.2935 11.1388 48.4196 11.2117 48.5209L11.5655 48.9989C11.6018 49.0492 11.6477 49.0919 11.7005 49.1245C11.7534 49.1572 11.8121 49.179 11.8734 49.1889C11.9347 49.1988 11.9973 49.1965 12.0577 49.1822C12.1181 49.1679 12.1751 49.1418 12.2254 49.1054L12.3496 49.0158C12.4254 48.961 12.5158 48.93 12.6093 48.9267C12.7027 48.9234 12.7951 48.9479 12.8746 48.9971C12.9542 49.0464 13.0173 49.1181 13.056 49.2033C13.0947 49.2884 13.1073 49.3831 13.0921 49.4754L12.9349 50.4648C12.9252 50.5261 12.9276 50.5886 12.942 50.649C12.9565 50.7093 12.9827 50.7662 13.0191 50.8164C13.0555 50.8666 13.1015 50.9091 13.1544 50.9416C13.2072 50.974 13.266 50.9957 13.3272 51.0054L13.9074 51.0988C13.9686 51.1086 14.0312 51.1061 14.0915 51.0917C14.1519 51.0772 14.2087 51.0511 14.2589 51.0146C14.3091 50.9782 14.3517 50.9322 14.3841 50.8794C14.4166 50.8265 14.4383 50.7677 14.448 50.7065L14.9951 47.271C15.0144 47.1479 15.0816 47.0374 15.182 46.9636L16.0456 46.3374C16.1214 46.2827 16.2118 46.2517 16.3053 46.2483C16.3988 46.245 16.4911 46.2695 16.5707 46.3188C16.6502 46.368 16.7133 46.4397 16.752 46.5249C16.7907 46.61 16.8033 46.7047 16.7881 46.797L16.3705 49.4244C16.3608 49.4856 16.3632 49.5482 16.3776 49.6085C16.3921 49.6689 16.4183 49.7257 16.4547 49.776C16.4911 49.8262 16.5371 49.8687 16.59 49.9011C16.6428 49.9336 16.7016 49.9553 16.7628 49.965L17.3414 50.0555C17.4026 50.0652 17.4652 50.0628 17.5255 50.0483C17.5859 50.0339 17.6427 50.0077 17.6929 49.9713C17.7431 49.9348 17.7857 49.8889 17.8181 49.836C17.8506 49.7831 17.8723 49.7244 17.882 49.6631L18.6889 44.592C18.71 44.4683 18.778 44.3576 18.8787 44.2829L19.7147 43.6758C19.7905 43.6202 19.8813 43.5886 19.9752 43.5848C20.0692 43.5811 20.1621 43.6056 20.2422 43.655C20.3222 43.7045 20.3856 43.7767 20.4243 43.8624C20.463 43.9481 20.4753 44.0434 20.4595 44.1361L19.796 48.2827C19.7766 48.4056 19.8064 48.5311 19.879 48.6321C19.9516 48.733 20.0611 48.8013 20.1838 48.822L20.7616 48.9147C20.8229 48.9245 20.8855 48.9221 20.9458 48.9076C21.0061 48.8932 21.063 48.867 21.1132 48.8306C21.1634 48.7941 21.2059 48.7482 21.2384 48.6953C21.2708 48.6424 21.2925 48.5837 21.3023 48.5224L22.354 41.9612C22.3741 41.838 22.4421 41.7277 22.5432 41.6544L23.4197 41.0172C23.4956 40.9616 23.5863 40.93 23.6803 40.9263C23.7743 40.9226 23.8672 40.947 23.9472 40.9964C24.0272 41.0459 24.0907 41.1181 24.1294 41.2038C24.1681 41.2895 24.1803 41.3848 24.1645 41.4775L24.058 42.1374C24.0388 42.2598 24.0684 42.3849 24.1405 42.4857C24.2126 42.5864 24.3215 42.6548 24.4435 42.6761L25.0243 42.7672C25.0856 42.7769 25.1482 42.7745 25.2085 42.7601C25.2688 42.7456 25.3257 42.7194 25.3759 42.683C25.4261 42.6466 25.4687 42.6006 25.5011 42.5477C25.5335 42.4949 25.5552 42.4361 25.565 42.3749L26.0585 39.2705C26.0785 39.1473 26.1465 39.037 26.2477 38.9637L26.826 38.5429C26.9018 38.4882 26.9922 38.4572 27.0857 38.4538C27.1792 38.4505 27.2715 38.475 27.3511 38.5243C27.4306 38.5735 27.4937 38.6452 27.5324 38.7304C27.5711 38.8155 27.5837 38.9103 27.5685 39.0026L27.2232 41.174C27.2135 41.2352 27.2159 41.2978 27.2304 41.3581C27.2448 41.4184 27.271 41.4753 27.3074 41.5255C27.3439 41.5757 27.3898 41.6183 27.4427 41.6507C27.4956 41.6831 27.5543 41.7048 27.6156 41.7146L28.1957 41.808C28.257 41.8177 28.3196 41.8153 28.3799 41.8008C28.4402 41.7864 28.4971 41.7602 28.5473 41.7238C28.5975 41.6873 28.64 41.6414 28.6725 41.5885C28.7049 41.5356 28.7266 41.4769 28.7364 41.4156L29.4716 36.7982C29.4916 36.6749 29.5596 36.5646 29.6607 36.4914L30.1149 36.1602C30.2053 36.0954 30.3155 36.0646 30.4264 36.0731C30.5372 36.0817 30.6414 36.129 30.7208 36.2069C31.3029 36.7775 32.042 37.1615 32.8435 37.3098C32.9413 37.3303 33.03 37.3812 33.097 37.4552C33.164 37.5293 33.2057 37.6227 33.2164 37.7219L33.2583 38.1223C33.2715 38.2475 33.2354 38.3728 33.1577 38.4718L30.2125 42.1013C30.1337 42.1986 30.0968 42.3231 30.1098 42.4476C30.1228 42.572 30.1847 42.6863 30.2818 42.7652L30.7361 43.1418C30.8334 43.2205 30.9579 43.2575 31.0824 43.2445C31.2068 43.2315 31.3211 43.1696 31.4 43.0725L32.7839 41.3649C32.8421 41.2915 32.9208 41.2371 33.01 41.2085C33.0991 41.1799 33.1948 41.1785 33.2848 41.2044C33.3748 41.2304 33.4551 41.2824 33.5154 41.3541C33.5757 41.4257 33.6134 41.5137 33.6236 41.6068L33.6986 42.319C33.7126 42.4434 33.6766 42.5683 33.5986 42.6662L31.6194 45.1092C31.5407 45.2064 31.5038 45.331 31.5167 45.4554C31.5297 45.5799 31.5916 45.6941 31.6887 45.773L32.1431 46.1497C32.2403 46.2284 32.3649 46.2653 32.4893 46.2523C32.6138 46.2394 32.728 46.1775 32.8069 46.0804L33.2265 45.5622C33.2847 45.4888 33.3633 45.4344 33.4525 45.4058C33.5417 45.3772 33.6374 45.3758 33.7274 45.4017C33.8174 45.4277 33.8976 45.4797 33.958 45.5514C34.0183 45.623 34.0559 45.711 34.0662 45.8041L34.1787 46.881C34.1927 47.0054 34.1567 47.1303 34.0787 47.2282L29.8888 52.3891C29.81 52.4863 29.7731 52.6109 29.7861 52.7353C29.7991 52.8598 29.8609 52.974 29.9581 53.0529L30.4124 53.4296C30.5097 53.5083 30.6342 53.5453 30.7587 53.5323C30.8831 53.5193 30.9974 53.4574 31.0763 53.3603L33.702 50.1229C33.7602 50.0495 33.8389 49.9951 33.9281 49.9665C34.0172 49.9379 34.1129 49.9365 34.2029 49.9624C34.2929 49.9884 34.3732 50.0404 34.4335 50.1121C34.4938 50.1837 34.5315 50.2717 34.5417 50.3648L34.6485 51.3933C34.6625 51.5177 34.6265 51.6426 34.5485 51.7405L31.3145 55.7243C31.2357 55.8216 31.1988 55.9461 31.2118 56.0706C31.2248 56.195 31.2866 56.3093 31.3838 56.3882L31.8381 56.7648C31.9354 56.8435 32.0599 56.8805 32.1844 56.8675C32.3088 56.8545 32.4231 56.7926 32.502 56.6955L34.1783 54.6298C34.2366 54.5572 34.3151 54.5034 34.4039 54.4753C34.4927 54.4472 34.5878 54.4459 34.6773 54.4717C34.7668 54.4975 34.8466 54.5491 34.9069 54.6202C34.9671 54.6912 35.0049 54.7785 35.0157 54.871L35.126 55.93C35.14 56.0544 35.104 56.1793 35.026 56.2772L32.8348 58.9786C32.7954 59.0268 32.7659 59.0823 32.748 59.1419C32.7302 59.2015 32.7243 59.2641 32.7306 59.326C32.737 59.3879 32.7556 59.4479 32.7852 59.5026C32.8149 59.5573 32.855 59.6056 32.9034 59.6448L33.3577 60.0214C33.455 60.1001 33.5795 60.1371 33.704 60.1241C33.8285 60.1111 33.9427 60.0492 34.0216 59.9521L34.6539 59.1733C34.7122 59.1007 34.7907 59.0469 34.8795 59.0188C34.9682 58.9907 35.0634 58.9894 35.1528 59.0152C35.2423 59.041 35.3222 59.0926 35.3824 59.1637C35.4426 59.2347 35.4805 59.322 35.4913 59.4145L35.5088 59.567C35.5221 59.6912 35.5841 59.8051 35.6812 59.8838C35.7783 59.9624 35.9026 59.9994 36.0269 59.9865L36.6119 59.9265C36.7362 59.9132 36.8501 59.8512 36.9287 59.7541C37.0074 59.657 37.0443 59.5327 37.0315 59.4084L37.0163 59.2565C37.0068 59.1638 37.025 59.0704 37.0685 58.988C37.112 58.9055 37.1789 58.8379 37.2608 58.7934C37.3427 58.7489 37.4359 58.7297 37.5288 58.7381C37.6216 58.7465 37.7098 58.7822 37.7824 58.8407L38.5619 59.4707C38.6591 59.5494 38.7837 59.5864 38.9081 59.5734C39.0326 59.5604 39.1468 59.4985 39.2257 59.4014L39.6023 58.9471C39.6811 58.8498 39.718 58.7253 39.705 58.6008C39.692 58.4763 39.6302 58.3621 39.533 58.2832L36.8316 56.092C36.7347 56.0131 36.673 55.899 36.6601 55.7747L36.5475 54.715C36.5377 54.6219 36.5558 54.5281 36.5995 54.4453C36.6431 54.3625 36.7104 54.2946 36.7927 54.2501C36.875 54.2057 36.9687 54.1866 37.0618 54.1955C37.155 54.2043 37.2434 54.2406 37.3159 54.2998L39.3823 55.9738C39.4795 56.0526 39.6041 56.0895 39.7285 56.0765C39.853 56.0636 39.9672 56.0017 40.0461 55.9046L40.4221 55.4525C40.4615 55.4043 40.491 55.3488 40.5088 55.2892C40.5267 55.2296 40.5326 55.1671 40.5262 55.1052C40.5199 55.0433 40.5013 54.9832 40.4717 54.9285C40.442 54.8738 40.4018 54.8255 40.3535 54.7864L36.369 51.5547C36.3204 51.5154 36.2801 51.4669 36.2504 51.4119C36.2206 51.3569 36.2021 51.2966 36.1958 51.2344L36.0851 50.2195C36.0754 50.1265 36.0935 50.0326 36.1371 49.9498C36.1808 49.8671 36.248 49.7992 36.3303 49.7547C36.4127 49.7102 36.5063 49.6912 36.5995 49.7C36.6926 49.7088 36.7811 49.7451 36.8535 49.8043L40.0909 52.4301C40.1881 52.5088 40.3127 52.5458 40.4371 52.5328C40.5616 52.5198 40.6758 52.4579 40.7547 52.3608L41.1314 51.9064C41.2101 51.8092 41.247 51.6847 41.234 51.5602C41.2211 51.4357 41.1592 51.3215 41.0621 51.2426L35.9034 47.0534C35.855 47.0144 35.8146 46.9663 35.7848 46.9117C35.755 46.8572 35.7362 46.7972 35.7296 46.7354L35.5879 45.6403C35.5784 45.5476 35.5966 45.4541 35.6401 45.3717C35.6836 45.2893 35.7506 45.2216 35.8325 45.1772C35.9144 45.1327 36.0076 45.1135 36.1004 45.1219C36.1932 45.1303 36.2815 45.166 36.354 45.2244L36.8738 45.6469C36.9221 45.6859 36.9776 45.7149 37.0372 45.7324C37.0967 45.7499 37.1592 45.7555 37.2209 45.7489C37.2826 45.7422 37.3424 45.7235 37.3969 45.6937C37.4513 45.6639 37.4994 45.6237 37.5383 45.5754L37.9143 45.1233C37.9537 45.0751 37.9831 45.0196 38.001 44.96C38.0189 44.9004 38.0248 44.8379 38.0184 44.776C38.012 44.7141 37.9935 44.654 37.9638 44.5993C37.9342 44.5446 37.894 44.4963 37.8456 44.4572L35.4026 42.478C35.3057 42.3991 35.244 42.285 35.2311 42.1607L35.156 41.4485C35.1463 41.3555 35.1644 41.2616 35.208 41.1788C35.2517 41.0961 35.3189 41.0282 35.4012 40.9837C35.4836 40.9392 35.5772 40.9202 35.6704 40.929C35.7635 40.9378 35.852 40.9741 35.9244 41.0333L37.632 42.4173C37.7293 42.496 37.8538 42.5329 37.9783 42.52C38.1027 42.507 38.217 42.4451 38.2959 42.348L38.6725 41.8936C38.7512 41.7964 38.7882 41.6718 38.7752 41.5474C38.7622 41.4229 38.7003 41.3087 38.6032 41.2298L34.9659 38.2775C34.869 38.1986 34.8073 38.0845 34.7943 37.9602L34.7549 37.5851C34.7448 37.4818 34.7689 37.378 34.8236 37.2899C34.8784 37.2017 34.9606 37.134 35.0577 37.0972C35.8226 36.8008 36.4808 36.2815 36.9469 35.6064C37.0096 35.5161 37.1018 35.4505 37.2077 35.4209C37.3136 35.3912 37.4265 35.3995 37.5269 35.4442L38.0127 35.6603C38.0694 35.6857 38.1206 35.722 38.1632 35.7672C38.2059 35.8124 38.2392 35.8655 38.2613 35.9236L39.9336 40.2883C39.9785 40.4052 40.068 40.4994 40.1824 40.5503C40.2967 40.6012 40.4266 40.6047 40.5435 40.5598L41.0954 40.3502C41.2123 40.3052 41.3065 40.2158 41.3574 40.1014C41.4083 39.987 41.4118 39.8571 41.367 39.7402L40.5818 37.6881C40.5488 37.601 40.5423 37.5062 40.5631 37.4154C40.5839 37.3247 40.631 37.2421 40.6985 37.1781C40.7661 37.1141 40.8511 37.0714 40.9428 37.0555C41.0345 37.0396 41.1288 37.0511 41.214 37.0886L41.8674 37.3801C41.9817 37.4306 42.0713 37.5245 42.1166 37.6411L43.2373 40.5763C43.2822 40.6932 43.3717 40.7874 43.486 40.8383C43.6004 40.8892 43.7303 40.8927 43.8472 40.8478L44.3984 40.6404C44.5155 40.596 44.6102 40.5068 44.6615 40.3925C44.7129 40.2783 44.7167 40.1483 44.6722 40.0312L44.4342 39.4072C44.4012 39.3201 44.3947 39.2253 44.4155 39.1345C44.4363 39.0438 44.4834 38.9612 44.5509 38.8972C44.6185 38.8332 44.7034 38.7905 44.7951 38.7746C44.8869 38.7587 44.9812 38.7702 45.0664 38.8077L46.0578 39.2481C46.1714 39.3006 46.2605 39.3949 46.3063 39.5114L48.6686 45.7215C48.7131 45.8386 48.8023 45.9332 48.9165 45.9846C49.0308 46.0359 49.1608 46.0398 49.2779 45.9953L49.8298 45.7856C49.9466 45.7407 50.0409 45.6512 50.0918 45.5368C50.1427 45.4225 50.1461 45.2926 50.1013 45.1757L48.6015 41.2784C48.5678 41.1912 48.5608 41.0959 48.5812 41.0047C48.6017 40.9134 48.6489 40.8303 48.7167 40.7658C48.7844 40.7014 48.8698 40.6585 48.962 40.6427C49.0542 40.6268 49.149 40.6387 49.2344 40.6767L50.1772 41.0982C50.2915 41.1488 50.3812 41.2427 50.4264 41.3592L52.2639 46.1574C52.3088 46.2742 52.3983 46.3685 52.5126 46.4194C52.627 46.4703 52.7569 46.4737 52.8738 46.4289L53.4257 46.2192C53.5426 46.1743 53.6368 46.0848 53.6877 45.9705C53.7386 45.8561 53.7421 45.7262 53.6973 45.6093L52.7469 43.1237C52.7132 43.0365 52.7061 42.9412 52.7266 42.8499C52.7471 42.7587 52.7942 42.6755 52.862 42.6111C52.9298 42.5466 53.0152 42.5038 53.1074 42.4879C53.1996 42.4721 53.2944 42.4839 53.3798 42.522L54.353 42.9572C54.4097 42.9825 54.4609 43.0189 54.5035 43.064C54.5462 43.1092 54.5795 43.1624 54.6016 43.2205L55.8435 46.4683C55.8885 46.5852 55.9779 46.6794 56.0923 46.7303C56.2067 46.7813 56.3366 46.7847 56.4535 46.7399L57.0054 46.5302C57.1222 46.4853 57.2165 46.3958 57.2674 46.2814C57.3183 46.1671 57.3217 46.0372 57.2769 45.9203L56.9198 44.9843C56.8869 44.8972 56.8804 44.8024 56.9011 44.7117C56.9219 44.6209 56.969 44.5383 57.0366 44.4743C57.1041 44.4103 57.1891 44.3676 57.2808 44.3517C57.3725 44.3358 57.4669 44.3473 57.552 44.3849L57.6914 44.4471C57.7482 44.4725 57.8094 44.4864 57.8716 44.488C57.9337 44.4897 57.9956 44.479 58.0536 44.4567C58.1117 44.4343 58.1647 44.4008 58.2098 44.3579C58.2548 44.315 58.2909 44.2637 58.3161 44.2068L58.5563 43.6714C58.5816 43.6146 58.5955 43.5534 58.5972 43.4912C58.5988 43.4291 58.5882 43.3672 58.5658 43.3092C58.5435 43.2511 58.5099 43.1981 58.4671 43.153C58.4242 43.108 58.3728 43.0719 58.3159 43.0467L58.1766 42.9845C58.0917 42.9463 58.02 42.8839 57.9704 42.8051C57.9208 42.7263 57.8957 42.6346 57.8981 42.5416C57.9004 42.4485 57.9303 42.3583 57.9838 42.2821C58.0373 42.206 58.1121 42.1473 58.1989 42.1135L59.1355 41.7542C59.1942 41.7323 59.2479 41.699 59.2935 41.6562C59.3392 41.6134 59.3759 41.5619 59.4015 41.5048C59.4271 41.4477 59.4411 41.3861 59.4426 41.3235C59.4442 41.2609 59.4333 41.1987 59.4106 41.1404ZM31.9877 35.3749C31.9443 35.3494 31.9045 35.3181 31.8695 35.2819C29.6293 32.8205 32.3036 29.5086 35.1809 31.2C35.224 31.2248 35.2631 31.2559 35.2968 31.2924C37.5506 33.7577 34.8624 37.0754 31.9877 35.3749Z" fill="white"/>
</svg>
