<svg width="53" height="56" viewBox="0 0 53 56" fill="none" xmlns="http://www.w3.org/2000/svg">
<path d="M52.4106 36.1404L52.2032 35.5891C52.1583 35.4722 52.0688 35.378 51.9545 35.3271C51.8401 35.2762 51.7102 35.2728 51.5933 35.3176L48.3448 36.5618C48.2866 36.5844 48.2245 36.5953 48.1621 36.5938C48.0996 36.5922 48.0381 36.5784 47.9811 36.5529L47.0102 36.1184C46.9246 36.0805 46.8522 36.0181 46.8022 35.939C46.7522 35.8599 46.7268 35.7677 46.7292 35.6741C46.7317 35.5806 46.7619 35.4898 46.816 35.4135C46.8701 35.3371 46.9457 35.2785 47.0331 35.2452L49.5187 34.2949C49.5767 34.2728 49.6298 34.2396 49.6749 34.1971C49.7201 34.1545 49.7564 34.1035 49.7818 34.0469C49.8072 33.9903 49.8213 33.9293 49.8231 33.8673C49.8249 33.8053 49.8145 33.7436 49.7925 33.6856L49.5828 33.1337C49.5608 33.0757 49.5276 33.0226 49.485 32.9775C49.4425 32.9323 49.3915 32.896 49.3349 32.8706C49.2783 32.8452 49.2173 32.8311 49.1553 32.8293C49.0933 32.8274 49.0316 32.8378 48.9736 32.8599L44.1777 34.698C44.1194 34.7202 44.0574 34.7306 43.9951 34.7287C43.9328 34.7268 43.8715 34.7126 43.8147 34.6868L42.8713 34.2676C42.7857 34.2298 42.7133 34.1673 42.6633 34.0882C42.6133 34.0091 42.5879 33.9169 42.5904 33.8233C42.5928 33.7298 42.623 33.6391 42.6771 33.5627C42.7312 33.4863 42.8068 33.4278 42.8943 33.3944L46.7915 31.9119C46.9083 31.8669 47.0025 31.7775 47.0535 31.6631C47.1044 31.5487 47.1078 31.4188 47.063 31.3019L46.8533 30.75C46.8084 30.6332 46.7189 30.5389 46.6045 30.488C46.4902 30.4371 46.3603 30.4337 46.2434 30.4785L40.0317 32.855C39.9149 32.9003 39.7849 32.8973 39.6703 32.8468L38.6796 32.4041C38.594 32.3662 38.5216 32.3038 38.4716 32.2247C38.4216 32.1456 38.3962 32.0534 38.3987 31.9598C38.4011 31.8663 38.4313 31.7755 38.4854 31.6992C38.5395 31.6228 38.6151 31.5642 38.7025 31.5309L39.3265 31.2928C39.4434 31.2479 39.5376 31.1584 39.5885 31.0441C39.6394 30.9297 39.6429 30.7998 39.5981 30.6829L39.3884 30.131C39.3435 30.0141 39.254 29.9199 39.1396 29.869C39.0253 29.8181 38.8954 29.8146 38.7785 29.8595L35.8455 30.9808C35.7872 31.0029 35.7252 31.0134 35.6629 31.0115C35.6006 31.0096 35.5393 30.9953 35.4825 30.9696L34.8292 30.6782C34.7445 30.6397 34.6732 30.5772 34.6239 30.4983C34.5747 30.4194 34.5499 30.3278 34.5525 30.2349C34.5551 30.142 34.5851 30.0519 34.6387 29.976C34.6923 29.9 34.7671 29.8415 34.8537 29.8079L36.9066 29.0205C37.0234 28.9755 37.1176 28.8861 37.1686 28.7717C37.2195 28.6573 37.2229 28.5274 37.1781 28.4105L36.9684 27.8586C36.9464 27.8006 36.9132 27.7476 36.8706 27.7024C36.8281 27.6573 36.7771 27.621 36.7205 27.5955C36.6639 27.5701 36.6029 27.5561 36.5409 27.5542C36.4789 27.5524 36.4171 27.5628 36.3591 27.5848L31.9944 29.2571C31.8776 29.3024 31.7476 29.2994 31.6331 29.2489L30.9408 28.9389C30.8544 28.8999 30.7818 28.8358 30.7323 28.7549C30.6828 28.674 30.6588 28.5802 30.6635 28.4855C30.6748 28.2743 30.6701 28.0626 30.6492 27.8522C30.6001 27.3864 30.4696 26.9329 30.2635 26.5123C30.2145 26.4126 30.2022 26.2988 30.2288 26.191C30.2553 26.0831 30.3191 25.9881 30.4088 25.9225L31.2477 25.3138C31.2978 25.2772 31.3546 25.2507 31.4149 25.2361C31.4752 25.2214 31.5378 25.2187 31.5992 25.2283L36.214 25.9726C36.2753 25.9823 36.3379 25.9799 36.3982 25.9655C36.4585 25.951 36.5154 25.9248 36.5656 25.8884C36.6158 25.852 36.6583 25.806 36.6908 25.7531C36.7232 25.7003 36.7449 25.6415 36.7547 25.5803L36.8474 25.0024C36.8574 24.941 36.8553 24.8782 36.841 24.8177C36.8268 24.7571 36.8007 24.7 36.7643 24.6496C36.7279 24.5991 36.6819 24.5564 36.629 24.5237C36.576 24.4911 36.5171 24.4693 36.4557 24.4595L34.2911 24.1162C34.1992 24.1013 34.1137 24.0595 34.0454 23.9961C33.9772 23.9328 33.9292 23.8507 33.9075 23.7601C33.8858 23.6695 33.8913 23.5746 33.9234 23.4872C33.9555 23.3997 34.0127 23.3238 34.0879 23.2688L34.6571 22.8454C34.7585 22.7723 34.8846 22.7423 35.008 22.7621L38.1123 23.2556C38.1736 23.2654 38.2362 23.263 38.2965 23.2485C38.3568 23.2341 38.4137 23.2079 38.4639 23.1715C38.5141 23.135 38.5567 23.0891 38.5891 23.0362C38.6215 22.9833 38.6432 22.9246 38.653 22.8633L38.7509 22.2845C38.7606 22.2232 38.7582 22.1606 38.7438 22.1003C38.7293 22.04 38.7031 21.9831 38.6667 21.9329C38.6303 21.8827 38.5843 21.8402 38.5314 21.8077C38.4786 21.7753 38.4198 21.7536 38.3586 21.7438L37.7077 21.6399C37.6149 21.6258 37.5285 21.5844 37.4593 21.5209C37.3902 21.4575 37.3415 21.3748 37.3196 21.2836C37.2976 21.1924 37.3033 21.0966 37.3359 21.0087C37.3686 20.9207 37.4267 20.8444 37.5029 20.7896L38.3811 20.1553C38.4824 20.0823 38.6086 20.0523 38.7319 20.0721L45.2847 21.119C45.3471 21.1303 45.4111 21.1289 45.473 21.115C45.5348 21.101 45.5932 21.0748 45.6447 21.0378C45.6962 21.0008 45.7397 20.9538 45.7726 20.8996C45.8055 20.8454 45.8272 20.7852 45.8364 20.7224L45.9291 20.1446C45.9388 20.0833 45.9364 20.0207 45.922 19.9604C45.9075 19.9001 45.8814 19.8432 45.8449 19.793C45.8085 19.7428 45.7625 19.7003 45.7097 19.6678C45.6568 19.6354 45.598 19.6137 45.5368 19.6039L41.4083 18.9457C41.3159 18.9311 41.2299 18.8894 41.1612 18.8258C41.0925 18.7622 41.0442 18.6797 41.0225 18.5886C41.0008 18.4976 41.0067 18.4022 41.0393 18.3145C41.0719 18.2267 41.1299 18.1507 41.2058 18.096L42.044 17.4895C42.0938 17.4526 42.1506 17.4262 42.2109 17.4119C42.2712 17.3976 42.3338 17.3957 42.3949 17.4063L47.466 18.2132C47.5273 18.2229 47.5898 18.2205 47.6502 18.2061C47.7105 18.1916 47.7674 18.1654 47.8176 18.129C47.8678 18.0926 47.9103 18.0466 47.9428 17.9937C47.9752 17.9409 47.9969 17.8821 48.0066 17.8209L48.1 17.2407C48.1097 17.1795 48.1073 17.1169 48.0929 17.0566C48.0784 16.9962 48.0522 16.9393 48.0158 16.8891C47.9794 16.8389 47.9334 16.7964 47.8805 16.764C47.8277 16.7315 47.7689 16.7098 47.7077 16.7001L45.0803 16.2825C44.9879 16.2679 44.9019 16.2262 44.8332 16.1626C44.7645 16.099 44.7162 16.0165 44.6945 15.9255C44.6728 15.8344 44.6787 15.739 44.7113 15.6513C44.7439 15.5636 44.8019 15.4875 44.8778 15.4328L45.7384 14.8082C45.7883 14.7701 45.8452 14.7423 45.9059 14.7265C45.9666 14.7106 46.0298 14.707 46.0919 14.7159L49.5274 15.263C49.65 15.2829 49.7756 15.2537 49.8769 15.1817C49.9781 15.1096 50.0469 15.0006 50.0683 14.8781L50.1587 14.2996C50.1685 14.2384 50.1661 14.1758 50.1516 14.1155C50.1372 14.0551 50.111 13.9983 50.0746 13.9481C50.0381 13.8978 49.9922 13.8553 49.9393 13.8229C49.8864 13.7904 49.8277 13.7687 49.7664 13.759L48.777 13.6018C48.6846 13.5872 48.5986 13.5455 48.5299 13.4819C48.4612 13.4184 48.4129 13.3358 48.3912 13.2448C48.3695 13.1538 48.3754 13.0583 48.408 12.9706C48.4406 12.8829 48.4986 12.8068 48.5745 12.7521L48.6986 12.6625C48.7489 12.626 48.7914 12.58 48.8239 12.527C48.8564 12.4741 48.8781 12.4152 48.8877 12.3539C48.8974 12.2925 48.8949 12.2298 48.8803 12.1695C48.8658 12.1091 48.8394 12.0522 48.8028 12.002L48.449 11.524C48.3752 11.4232 48.2646 11.3558 48.1412 11.3363C48.0178 11.3169 47.8918 11.3472 47.7907 11.4204L47.6666 11.51C47.5907 11.5648 47.5003 11.5958 47.4069 11.5991C47.3134 11.6024 47.221 11.5779 47.1415 11.5287C47.062 11.4794 46.9988 11.4077 46.9601 11.3226C46.9214 11.2374 46.9088 11.1427 46.924 11.0504L47.0812 10.061C47.091 9.99974 47.0885 9.93716 47.0741 9.87684C47.0596 9.81651 47.0335 9.75962 46.997 9.70942C46.9606 9.65922 46.9146 9.61668 46.8618 9.58425C46.8089 9.55181 46.7501 9.5301 46.6889 9.52036L46.1087 9.42699C46.0475 9.41726 45.9849 9.41968 45.9246 9.43412C45.8643 9.44857 45.8074 9.47476 45.7572 9.51119C45.707 9.54762 45.6644 9.59358 45.632 9.64645C45.5995 9.69932 45.5778 9.75807 45.5681 9.81933L45.0362 13.2616C45.0265 13.3231 45.0047 13.3821 44.9722 13.4351C44.9396 13.4881 44.8968 13.5342 44.8464 13.5707L43.9858 14.1953C43.9099 14.25 43.8195 14.281 43.7261 14.2843C43.6326 14.2876 43.5402 14.2631 43.4607 14.2139C43.3812 14.1647 43.318 14.0929 43.2793 14.0078C43.2406 13.9226 43.228 13.8279 43.2432 13.7356L43.6608 11.1083C43.6706 11.047 43.6682 10.9844 43.6537 10.9241C43.6393 10.8638 43.6131 10.8069 43.5766 10.7567C43.5402 10.7065 43.4942 10.664 43.4414 10.6315C43.3885 10.5991 43.3298 10.5774 43.2685 10.5676L42.6884 10.4743C42.6259 10.4632 42.5618 10.4649 42.5 10.4791C42.4382 10.4934 42.3798 10.5199 42.3285 10.5572C42.2772 10.5945 42.2339 10.6417 42.2012 10.6961C42.1685 10.7505 42.1471 10.8109 42.1383 10.8737L41.3307 15.9471C41.3107 16.0704 41.2427 16.1807 41.1416 16.2539L40.3138 16.8584C40.2379 16.9132 40.1475 16.9442 40.0541 16.9475C39.9606 16.9508 39.8682 16.9263 39.7887 16.8771C39.7092 16.8279 39.646 16.7561 39.6073 16.671C39.5686 16.5858 39.556 16.4911 39.5712 16.3988L40.2175 12.2866C40.228 12.2246 40.2261 12.1612 40.2119 12.1C40.1976 12.0389 40.1713 11.9811 40.1345 11.9302C40.0976 11.8793 40.051 11.8363 39.9973 11.8037C39.9437 11.771 39.884 11.7494 39.8219 11.7401L39.2411 11.649C39.1798 11.6392 39.1173 11.6417 39.0569 11.6561C38.9966 11.6706 38.9397 11.6967 38.8895 11.7332C38.8393 11.7696 38.7968 11.8156 38.7644 11.8684C38.7319 11.9213 38.7102 11.9801 38.7005 12.0413L37.6578 18.6051C37.6378 18.7284 37.5698 18.8387 37.4686 18.9119L36.5898 19.5485C36.514 19.6032 36.4236 19.6342 36.3301 19.6375C36.2366 19.6408 36.1443 19.6163 36.0647 19.5671C35.9852 19.5179 35.9221 19.4461 35.8834 19.361C35.8446 19.2758 35.8321 19.1811 35.8473 19.0888L35.9509 18.4305C35.9704 18.3072 35.9403 18.1812 35.8672 18.0801C35.7941 17.9789 35.684 17.9108 35.5608 17.8905L34.9807 17.7972C34.9194 17.7874 34.8568 17.7899 34.7965 17.8043C34.7362 17.8188 34.6793 17.8449 34.6291 17.8814C34.5789 17.9178 34.5364 17.9638 34.5039 18.0166C34.4715 18.0695 34.4498 18.1283 34.44 18.1895L33.951 21.2952C33.9299 21.4188 33.862 21.5295 33.7612 21.6042L33.1732 22.0247C33.0973 22.0795 33.0069 22.1104 32.9135 22.1138C32.82 22.1171 32.7276 22.0926 32.6481 22.0434C32.5686 21.9941 32.5054 21.9224 32.4667 21.8372C32.428 21.7521 32.4155 21.6574 32.4306 21.5651L32.7759 19.3937C32.7856 19.3324 32.7832 19.2698 32.7688 19.2095C32.7543 19.1492 32.7281 19.0923 32.6917 19.0421C32.6553 18.9919 32.6093 18.9494 32.5564 18.9169C32.5036 18.8845 32.4448 18.8628 32.3836 18.853L31.8051 18.7626C31.7438 18.7528 31.6812 18.7553 31.6209 18.7697C31.5606 18.7842 31.5037 18.8103 31.4535 18.8468C31.4033 18.8832 31.3607 18.9292 31.3283 18.982C31.2959 19.0349 31.2742 19.0937 31.2644 19.1549L30.5298 23.7701C30.5201 23.8316 30.4984 23.8906 30.4658 23.9436C30.4332 23.9966 30.3905 24.0427 30.3401 24.0792L29.3023 24.8321C29.2263 24.887 29.1357 24.9181 29.042 24.9213C28.9483 24.9245 28.8557 24.8997 28.7761 24.8502C28.3197 24.5543 27.808 24.3542 27.2719 24.2621C27.1713 24.2442 27.0792 24.1943 27.0094 24.1197C26.9396 24.0451 26.8959 23.9498 26.8848 23.8483L26.7392 22.4424C26.7252 22.318 26.7612 22.1931 26.8392 22.0952L29.7844 18.4657C29.8633 18.369 29.9007 18.2452 29.8886 18.121C29.8764 17.9969 29.8157 17.8826 29.7196 17.8031L29.2653 17.4265C29.1681 17.3477 29.0435 17.3108 28.919 17.3238C28.7946 17.3368 28.6804 17.3986 28.6015 17.4958L27.2152 19.2027C27.1569 19.2753 27.0784 19.329 26.9897 19.3572C26.9009 19.3853 26.8058 19.3866 26.7163 19.3608C26.6268 19.335 26.5469 19.2833 26.4867 19.2123C26.4265 19.1413 26.3886 19.054 26.3778 18.9615L26.3028 18.2493C26.2888 18.1249 26.3248 18 26.4028 17.9021L28.3836 15.462C28.4624 15.3648 28.4993 15.2402 28.4863 15.1158C28.4733 14.9913 28.4114 14.8771 28.3143 14.7982L27.86 14.4215C27.7627 14.3428 27.6382 14.3059 27.5137 14.3188C27.3893 14.3318 27.275 14.3937 27.1961 14.4908L26.7766 15.009C26.7184 15.0824 26.6397 15.1368 26.5505 15.1654C26.4613 15.194 26.3657 15.1954 26.2757 15.1695C26.1857 15.1435 26.1054 15.0914 26.0451 15.0198C25.9848 14.9482 25.9471 14.8602 25.9369 14.7671L25.825 13.6879C25.811 13.5635 25.847 13.4386 25.925 13.3407L30.1149 8.17984C30.1937 8.08258 30.2306 7.95805 30.2176 7.83358C30.2046 7.70911 30.1428 7.59488 30.0456 7.51599L29.5913 7.13937C29.494 7.06061 29.3695 7.02368 29.245 7.03667C29.1206 7.04966 29.0063 7.11152 28.9274 7.20866L26.3043 10.4541C26.2459 10.5267 26.1674 10.5805 26.0787 10.6086C25.9899 10.6367 25.8948 10.638 25.8053 10.6122C25.7158 10.5864 25.6359 10.5348 25.5757 10.4637C25.5155 10.3927 25.4776 10.3054 25.4669 10.2129L25.3561 9.19798C25.3421 9.07356 25.3781 8.94868 25.4562 8.85077L28.6901 4.867C28.7295 4.81882 28.759 4.76334 28.7769 4.70373C28.7947 4.64412 28.8006 4.58157 28.7943 4.51967C28.7879 4.45777 28.7693 4.39774 28.7397 4.34303C28.71 4.28833 28.6699 4.24001 28.6215 4.20088L28.1672 3.82426C28.0699 3.7455 27.9454 3.70857 27.8209 3.72156C27.6964 3.73455 27.5822 3.79641 27.5033 3.89355L25.827 5.95927C25.7686 6.03188 25.6902 6.08562 25.6014 6.11375C25.5126 6.14187 25.4175 6.14313 25.328 6.11735C25.2385 6.09158 25.1586 6.03992 25.0984 5.96888C25.0382 5.89784 25.0003 5.81058 24.9896 5.71808L24.877 4.65836C24.863 4.53395 24.899 4.40906 24.977 4.31115L27.1816 1.58902C27.2205 1.5407 27.2496 1.48518 27.2671 1.42562C27.2846 1.36607 27.2902 1.30365 27.2835 1.24193C27.2769 1.18021 27.2581 1.12041 27.2284 1.06595C27.1986 1.01148 27.1584 0.96342 27.11 0.924508L26.658 0.548542C26.6098 0.50916 26.5543 0.479687 26.4947 0.461817C26.4351 0.443946 26.3725 0.438031 26.3106 0.444409C26.2487 0.450788 26.1887 0.469335 26.134 0.498986C26.0793 0.528636 26.031 0.568805 25.9918 0.617184L25.3508 1.40084C25.2926 1.47424 25.2139 1.52869 25.1247 1.55726C25.0356 1.58584 24.9399 1.58726 24.8499 1.56134C24.7599 1.53541 24.6796 1.48332 24.6193 1.41168C24.559 1.34004 24.5213 1.25209 24.5111 1.159L24.4965 1.00488C24.4832 0.880625 24.4212 0.766705 24.3241 0.688064C24.227 0.609423 24.1027 0.572471 23.9784 0.5853L23.3934 0.645358C23.3316 0.651852 23.2717 0.670476 23.2171 0.700162C23.1625 0.729848 23.1143 0.770013 23.0753 0.818356C23.0362 0.866698 23.0071 0.922268 22.9896 0.981882C22.9721 1.0415 22.9665 1.10398 22.9732 1.16576L22.9884 1.31761C22.9979 1.41032 22.9797 1.50375 22.9362 1.58616C22.8927 1.66857 22.8257 1.73626 22.7438 1.78072C22.6619 1.82517 22.5687 1.84441 22.4759 1.836C22.3831 1.82759 22.2948 1.79191 22.2223 1.73346L21.4545 1.09698C21.3572 1.01823 21.2327 0.981291 21.1082 0.994284C20.9838 1.00728 20.8695 1.06914 20.7906 1.16628L20.414 1.62059C20.3353 1.71785 20.2983 1.84239 20.3113 1.96686C20.3243 2.09133 20.3862 2.20555 20.4833 2.28445L23.1847 4.47568C23.2328 4.51507 23.2727 4.56358 23.302 4.61842C23.3314 4.67326 23.3496 4.73335 23.3556 4.79525L23.4666 5.85203C23.4746 5.94238 23.4564 6.03313 23.4142 6.11341C23.372 6.1937 23.3075 6.26014 23.2286 6.30479C23.1496 6.34943 23.0595 6.37041 22.9689 6.36519C22.8784 6.35998 22.7913 6.3288 22.7179 6.27539L20.6522 4.59904C20.604 4.55966 20.5486 4.53018 20.489 4.51231C20.4293 4.49444 20.3668 4.48853 20.3049 4.49491C20.243 4.50128 20.183 4.51983 20.1283 4.54948C20.0735 4.57913 20.0252 4.6193 19.9861 4.66768L19.6095 5.122C19.5307 5.21926 19.4938 5.3438 19.5068 5.46826C19.5198 5.59273 19.5816 5.70696 19.6788 5.78586L23.6625 9.01983C23.7595 9.09874 23.8212 9.21283 23.8341 9.33713L23.9409 10.3657C23.9504 10.4584 23.9322 10.5518 23.8887 10.6342C23.8452 10.7166 23.7783 10.7843 23.6964 10.8288C23.6145 10.8733 23.5212 10.8925 23.4284 10.8841C23.3356 10.8757 23.2474 10.84 23.1748 10.7815L19.9371 8.16551C19.8417 8.08562 19.7187 8.04658 19.5947 8.05688C19.4707 8.06719 19.3558 8.126 19.2749 8.22054L18.8983 8.67486C18.8195 8.77212 18.7826 8.89665 18.7956 9.02112C18.8086 9.14559 18.8704 9.25982 18.9676 9.33871L24.1285 13.5286C24.1784 13.5672 24.2201 13.6153 24.2512 13.6703C24.2822 13.7252 24.3019 13.7858 24.3091 13.8485L24.421 14.9277C24.4307 15.0207 24.4126 15.1146 24.369 15.1974C24.3253 15.2801 24.2581 15.348 24.1758 15.3925C24.0934 15.437 23.9998 15.456 23.9066 15.4472C23.8135 15.4384 23.7251 15.4021 23.6526 15.3429L23.1344 14.9233C23.0372 14.8446 22.9126 14.8076 22.7882 14.8206C22.6637 14.8336 22.5495 14.8955 22.4706 14.9926L22.094 15.4469C22.0152 15.5442 21.9783 15.6687 21.9913 15.7932C22.0043 15.9177 22.0661 16.0319 22.1633 16.1108L24.6056 18.0922C24.6549 18.1306 24.6961 18.1784 24.7269 18.2328C24.7576 18.2872 24.7772 18.3472 24.7846 18.4092L24.8574 19.1208C24.8669 19.2135 24.8487 19.3069 24.8052 19.3893C24.7617 19.4717 24.6947 19.5394 24.6128 19.5839C24.5309 19.6283 24.4377 19.6476 24.3449 19.6392C24.2521 19.6307 24.1638 19.5951 24.0913 19.5366L22.3843 18.1504C22.2871 18.0716 22.1626 18.0347 22.0381 18.0477C21.9136 18.0607 21.7994 18.1226 21.7205 18.2197L21.3439 18.674C21.3045 18.7222 21.275 18.7777 21.2571 18.8373C21.2393 18.8969 21.2334 18.9594 21.2397 19.0213C21.2461 19.0832 21.2647 19.1433 21.2943 19.198C21.324 19.2527 21.3641 19.301 21.4125 19.3401L25.042 22.2853C25.0905 22.3242 25.1308 22.3724 25.1606 22.4269C25.1905 22.4815 25.2092 22.5414 25.2159 22.6032L25.3614 24.0092C25.3714 24.1105 25.3484 24.2123 25.2958 24.2994C25.2433 24.3866 25.164 24.4544 25.0697 24.4929C24.5731 24.6923 24.1201 24.9868 23.7362 25.3597C23.6691 25.4256 23.5838 25.47 23.4913 25.4871C23.3988 25.5043 23.3033 25.4934 23.217 25.4559L21.9926 24.9115C21.9359 24.8862 21.8847 24.8498 21.8421 24.8047C21.7994 24.7595 21.7661 24.7063 21.744 24.6483L20.0828 20.2793C20.0383 20.1622 19.9491 20.0676 19.8348 20.0163C19.7206 19.9649 19.5906 19.9611 19.4735 20.0055L18.9216 20.2152C18.8045 20.2597 18.7098 20.3489 18.6585 20.4631C18.6071 20.5774 18.6033 20.7074 18.6478 20.8245L19.4352 22.8773C19.4691 22.9648 19.4762 23.0603 19.4556 23.1518C19.435 23.2434 19.3876 23.3267 19.3195 23.3911C19.2513 23.4556 19.1656 23.4983 19.0731 23.5139C18.9806 23.5294 18.8855 23.517 18.8001 23.4784L18.1467 23.1869C18.0331 23.1344 17.944 23.0401 17.8981 22.9237L16.7775 19.9884C16.7326 19.8716 16.6431 19.7773 16.5287 19.7264C16.4144 19.6755 16.2844 19.6721 16.1676 19.7169L15.6156 19.9266C15.4988 19.9715 15.4046 20.061 15.3536 20.1753C15.3027 20.2897 15.2993 20.4196 15.3441 20.5365L15.5854 21.1663C15.6184 21.2534 15.6249 21.3482 15.6041 21.439C15.5833 21.5297 15.5362 21.6123 15.4686 21.6763C15.4011 21.7403 15.3161 21.783 15.2244 21.7989C15.1327 21.8148 15.0384 21.8033 14.9532 21.7658L13.9615 21.3179C13.8471 21.2673 13.7575 21.1735 13.7123 21.0569L11.339 14.851C11.2941 14.7342 11.2046 14.6399 11.0902 14.589C10.9759 14.5381 10.846 14.5347 10.7291 14.5795L10.1771 14.7892C10.0603 14.8341 9.96607 14.9236 9.91515 15.0379C9.86424 15.1523 9.86081 15.2822 9.90562 15.3991L11.3992 19.2921C11.433 19.3793 11.44 19.4746 11.4195 19.5659C11.399 19.6571 11.3519 19.7403 11.2841 19.8047C11.2163 19.8692 11.1309 19.912 11.0388 19.9279C10.9466 19.9437 10.8518 19.9319 10.7663 19.8938L9.82359 19.4723C9.76687 19.447 9.71572 19.4106 9.67307 19.3655C9.63042 19.3203 9.5971 19.2671 9.57502 19.209L7.73689 14.4132C7.69196 14.2963 7.60249 14.2021 7.48812 14.1512C7.37376 14.1003 7.24386 14.0968 7.12696 14.1416L6.5757 14.349C6.45885 14.394 6.36462 14.4834 6.3137 14.5978C6.26279 14.7122 6.25936 14.8421 6.30417 14.959L7.25451 17.4446C7.28747 17.5316 7.29397 17.6265 7.27319 17.7172C7.25242 17.8079 7.2053 17.8905 7.13776 17.9545C7.07021 18.0186 6.98525 18.0612 6.89354 18.0772C6.80183 18.0931 6.70746 18.0815 6.62229 18.044L5.64841 17.6111C5.53476 17.5586 5.44573 17.4643 5.39984 17.3478L4.15788 14.0999C4.11295 13.9831 4.02348 13.8888 3.90911 13.8379C3.79474 13.787 3.66484 13.7836 3.54795 13.8284L2.99669 14.0358C2.9385 14.058 2.88527 14.0914 2.84006 14.1342C2.79486 14.1771 2.75856 14.2284 2.73327 14.2853C2.70797 14.3422 2.69417 14.4035 2.69267 14.4658C2.69117 14.528 2.70199 14.5899 2.72451 14.648L3.07999 15.5811C3.11371 15.6683 3.12078 15.7636 3.10028 15.8549C3.07979 15.9461 3.03267 16.0292 2.96488 16.0937C2.89709 16.1581 2.8117 16.201 2.71952 16.2169C2.62734 16.2327 2.53253 16.2208 2.44711 16.1828L2.31425 16.115C2.2001 16.0646 2.07065 16.0614 1.95416 16.1061C1.83767 16.1509 1.74361 16.2399 1.69253 16.3537L1.45034 16.8959C1.39918 17.0102 1.39552 17.1402 1.44017 17.2572C1.48481 17.3742 1.5741 17.4687 1.68841 17.5199L1.83003 17.5828C1.91533 17.621 1.98737 17.6837 2.03705 17.7628C2.08673 17.842 2.1118 17.9341 2.1091 18.0275C2.1064 18.121 2.07605 18.2115 2.02188 18.2876C1.96771 18.3638 1.89217 18.4222 1.80481 18.4554L0.871086 18.8131C0.812776 18.8351 0.759385 18.8684 0.713989 18.911C0.668593 18.9537 0.632088 19.0049 0.606578 19.0618C0.581068 19.1186 0.567056 19.18 0.56535 19.2422C0.563644 19.3045 0.574277 19.3665 0.596637 19.4247L0.806311 19.9766C0.851237 20.0934 0.940713 20.1877 1.05508 20.2386C1.16945 20.2895 1.29935 20.2929 1.41624 20.2481L4.66479 19.0039C4.78167 18.9595 4.91138 18.9633 5.02549 19.0144L5.99937 19.4473C6.08494 19.4852 6.15733 19.5476 6.20735 19.6267C6.25737 19.7058 6.28276 19.798 6.2803 19.8916C6.27785 19.9851 6.24765 20.0759 6.19354 20.1522C6.13943 20.2286 6.06386 20.2872 5.97641 20.3205L3.49082 21.2708C3.43263 21.293 3.3794 21.3265 3.3342 21.3693C3.28899 21.4121 3.25269 21.4634 3.2274 21.5203C3.2021 21.5772 3.1883 21.6386 3.1868 21.7008C3.1853 21.7631 3.19612 21.825 3.21864 21.883L3.42831 22.435C3.47324 22.5518 3.56271 22.646 3.67708 22.6969C3.79145 22.7479 3.92135 22.7513 4.03824 22.7065L8.83346 20.8706C8.95024 20.8253 9.08023 20.8283 9.19482 20.8789L10.1399 21.301C10.2251 21.3392 10.2972 21.4018 10.3469 21.481C10.3965 21.5601 10.4216 21.6523 10.4189 21.7457C10.4162 21.8391 10.3859 21.9296 10.3317 22.0058C10.2775 22.0819 10.202 22.1403 10.1146 22.1735L6.22489 23.6558C6.10804 23.7007 6.01381 23.7902 5.9629 23.9046C5.91198 24.0189 5.90856 24.1488 5.95337 24.2657L6.16077 24.817C6.2057 24.9338 6.29517 25.0281 6.40954 25.079C6.5239 25.1299 6.6538 25.1333 6.7707 25.0885L12.9772 22.713C13.0941 22.6686 13.2238 22.6724 13.3379 22.7235L14.3293 23.1639C14.4149 23.2017 14.4873 23.2642 14.5373 23.3433C14.5873 23.4224 14.6127 23.5146 14.6102 23.6081C14.6078 23.7017 14.5776 23.7924 14.5235 23.8688C14.4694 23.9452 14.3938 24.0037 14.3063 24.0371L13.6823 24.2751C13.5655 24.3201 13.4713 24.4095 13.4204 24.5239C13.3694 24.6383 13.366 24.7682 13.4108 24.8851L13.6182 25.4363C13.6632 25.5532 13.7526 25.6474 13.867 25.6983C13.9814 25.7492 14.1113 25.7527 14.2282 25.7079L17.1634 24.5872C17.2803 24.5428 17.41 24.5466 17.5241 24.5977L18.1775 24.8891C18.263 24.927 18.3354 24.9895 18.3854 25.0686C18.4355 25.1477 18.4609 25.2398 18.4584 25.3334C18.4559 25.427 18.4257 25.5177 18.3716 25.594C18.3175 25.6704 18.2419 25.729 18.1545 25.7623L16.1023 26.5475C15.9855 26.5924 15.8912 26.6819 15.8403 26.7963C15.7894 26.9106 15.786 27.0405 15.8308 27.1574L16.0382 27.7087C16.0604 27.7669 16.0938 27.8201 16.1366 27.8653C16.1795 27.9105 16.2308 27.9468 16.2877 27.9721C16.3446 27.9974 16.4059 28.0112 16.4682 28.0127C16.5304 28.0142 16.5924 28.0034 16.6504 27.9809L21.0151 26.3086C21.132 26.2642 21.2617 26.268 21.3758 26.3191L22.3604 26.7575C22.4625 26.8031 22.545 26.8835 22.5934 26.9843C22.6417 27.0851 22.6528 27.1997 22.6246 27.3079C22.5056 27.7702 22.4698 28.2501 22.5187 28.7249C22.5365 28.9081 22.5663 29.0899 22.6077 29.2691C22.6301 29.36 22.6251 29.4554 22.5932 29.5434C22.5613 29.6313 22.504 29.7078 22.4286 29.7631L21.7515 30.2538C21.7017 30.2907 21.6449 30.3171 21.5846 30.3314C21.5243 30.3457 21.4617 30.3476 21.4006 30.3371L16.4132 29.5297L16.3282 29.5175L16.1622 30.5633C16.1428 30.6861 16.1726 30.8117 16.2452 30.9127C16.3178 31.0136 16.4273 31.0819 16.55 31.1026L18.7214 31.4479C18.8138 31.4625 18.8998 31.5042 18.9685 31.5678C19.0372 31.6313 19.0855 31.7139 19.1072 31.8049C19.1289 31.8959 19.123 31.9914 19.0904 32.0791C19.0578 32.1668 18.9998 32.2429 18.9239 32.2976L18.344 32.7155C18.2939 32.7521 18.2371 32.7785 18.1767 32.7932C18.1164 32.8079 18.0538 32.8105 17.9925 32.801L14.5074 32.2469L14.4257 32.2234L14.2597 33.2692C14.2499 33.3305 14.2523 33.3931 14.2668 33.4534C14.2812 33.5137 14.3074 33.5706 14.3438 33.6208C14.3803 33.671 14.4262 33.7135 14.4791 33.746C14.532 33.7784 14.5907 33.8001 14.652 33.8098L15.3096 33.9157C15.4016 33.9306 15.487 33.9724 15.5553 34.0358C15.6235 34.0991 15.6715 34.1812 15.6933 34.2718C15.715 34.3624 15.7094 34.4573 15.6773 34.5447C15.6452 34.6322 15.588 34.7081 15.5128 34.7631L14.634 35.3997C14.5839 35.4363 14.5271 35.4627 14.4667 35.4774C14.4064 35.4921 14.3438 35.4947 14.2825 35.4852L7.33861 34.3797L7.25691 34.3562L7.0902 35.4043C7.08046 35.4655 7.08288 35.5281 7.09733 35.5884C7.11177 35.6488 7.13796 35.7056 7.17439 35.7558C7.21082 35.806 7.25678 35.8486 7.30966 35.881C7.36253 35.9135 7.42127 35.9352 7.48253 35.9449L11.5996 36.5999C11.6916 36.6148 11.777 36.6566 11.8453 36.7199C11.9135 36.7833 11.9615 36.8654 11.9833 36.956C12.005 37.0466 11.9994 37.1415 11.9673 37.2289C11.9352 37.3164 11.878 37.3923 11.8028 37.4473L10.9669 38.0544C10.9168 38.0911 10.8599 38.1175 10.7996 38.1322C10.7393 38.1469 10.6767 38.1495 10.6154 38.14L5.16125 37.2719L5.07955 37.2484L4.91349 38.2942C4.90375 38.3554 4.90617 38.418 4.92062 38.4783C4.93507 38.5387 4.96125 38.5955 4.99768 38.6458C5.03411 38.696 5.08008 38.7385 5.13295 38.7709C5.18582 38.8034 5.24456 38.8251 5.30582 38.8348L7.93024 39.254C8.02217 39.2689 8.10764 39.3107 8.17589 39.3741C8.24415 39.4374 8.29216 39.5196 8.31387 39.6101C8.33559 39.7007 8.33005 39.7956 8.29794 39.8831C8.26584 39.9705 8.20861 40.0465 8.13344 40.1015L7.27214 40.7283C7.1708 40.8013 7.04465 40.8313 6.92129 40.8115L3.10286 40.2032L3.02343 40.1804L2.8551 41.2255C2.84536 41.2868 2.84778 41.3494 2.86223 41.4097C2.87668 41.47 2.90286 41.5269 2.93929 41.5771C2.97573 41.6273 3.02169 41.6698 3.07456 41.7023C3.12743 41.7347 3.18617 41.7564 3.24743 41.7662L4.23909 41.924C4.33102 41.9389 4.41648 41.9807 4.48474 42.044C4.553 42.1074 4.601 42.1895 4.62272 42.2801C4.64444 42.3706 4.63889 42.4656 4.60679 42.553C4.57469 42.6405 4.51746 42.7164 4.44229 42.7714L4.31753 42.8633C4.21657 42.9367 4.14877 43.047 4.12893 43.1703C4.10909 43.2935 4.13884 43.4196 4.21167 43.5209L4.56553 43.9989C4.60184 44.0492 4.64772 44.0919 4.70055 44.1245C4.75337 44.1572 4.81211 44.179 4.8734 44.1889C4.93469 44.1988 4.99734 44.1965 5.05774 44.1822C5.11815 44.1679 5.17513 44.1418 5.22544 44.1054L5.34955 44.0158C5.42539 43.961 5.51578 43.93 5.60925 43.9267C5.70273 43.9234 5.79509 43.9479 5.87462 43.9971C5.95415 44.0464 6.01728 44.1181 6.05599 44.2033C6.0947 44.2884 6.10726 44.3831 6.09208 44.4754L5.9349 45.4648C5.92516 45.5261 5.92758 45.5886 5.94203 45.649C5.95648 45.7093 5.98266 45.7662 6.01909 45.8164C6.05553 45.8666 6.10149 45.9091 6.15436 45.9416C6.20723 45.974 6.26597 45.9957 6.32723 46.0054L6.90737 46.0988C6.96863 46.1086 7.03121 46.1061 7.09153 46.0917C7.15186 46.0772 7.20874 46.0511 7.25895 46.0146C7.30915 45.9782 7.35168 45.9322 7.38412 45.8794C7.41656 45.8265 7.43827 45.7677 7.448 45.7065L7.99515 42.271C8.01444 42.1479 8.0816 42.0374 8.18201 41.9636L9.04559 41.3374C9.12143 41.2827 9.21181 41.2517 9.30529 41.2483C9.39877 41.245 9.49113 41.2695 9.57066 41.3188C9.65019 41.368 9.71331 41.4397 9.75203 41.5249C9.79074 41.61 9.8033 41.7047 9.78812 41.797L9.37051 44.4244C9.36077 44.4856 9.36319 44.5482 9.37764 44.6085C9.39209 44.6689 9.41827 44.7257 9.4547 44.776C9.49114 44.8262 9.5371 44.8687 9.58997 44.9011C9.64284 44.9336 9.70158 44.9553 9.76284 44.965L10.3414 45.0555C10.4026 45.0652 10.4652 45.0628 10.5255 45.0483C10.5859 45.0339 10.6427 45.0077 10.6929 44.9713C10.7431 44.9348 10.7857 44.8889 10.8181 44.836C10.8506 44.7831 10.8723 44.7244 10.882 44.6631L11.6889 39.592C11.71 39.4683 11.778 39.3576 11.8787 39.2829L12.7147 38.6758C12.7905 38.6202 12.8813 38.5886 12.9752 38.5848C13.0692 38.5811 13.1621 38.6056 13.2422 38.655C13.3222 38.7045 13.3856 38.7767 13.4243 38.8624C13.463 38.9481 13.4753 39.0434 13.4595 39.1361L12.796 43.2827C12.7766 43.4056 12.8064 43.5311 12.879 43.6321C12.9516 43.733 13.0611 43.8013 13.1838 43.822L13.7616 43.9147C13.8229 43.9245 13.8855 43.9221 13.9458 43.9076C14.0061 43.8932 14.063 43.867 14.1132 43.8306C14.1634 43.7941 14.2059 43.7482 14.2384 43.6953C14.2708 43.6424 14.2925 43.5837 14.3023 43.5224L15.354 36.9612C15.3741 36.838 15.4421 36.7277 15.5432 36.6544L16.4197 36.0172C16.4956 35.9616 16.5863 35.93 16.6803 35.9263C16.7743 35.9226 16.8672 35.947 16.9472 35.9964C17.0272 36.0459 17.0907 36.1181 17.1294 36.2038C17.1681 36.2895 17.1803 36.3848 17.1645 36.4775L17.058 37.1374C17.0388 37.2598 17.0684 37.3849 17.1405 37.4857C17.2126 37.5864 17.3215 37.6548 17.4435 37.6761L18.0243 37.7672C18.0856 37.7769 18.1482 37.7745 18.2085 37.7601C18.2688 37.7456 18.3257 37.7194 18.3759 37.683C18.4261 37.6466 18.4687 37.6006 18.5011 37.5477C18.5335 37.4949 18.5552 37.4361 18.565 37.3749L19.0585 34.2705C19.0785 34.1473 19.1465 34.037 19.2477 33.9637L19.826 33.5429C19.9018 33.4882 19.9922 33.4572 20.0857 33.4538C20.1792 33.4505 20.2715 33.475 20.3511 33.5243C20.4306 33.5735 20.4937 33.6452 20.5324 33.7304C20.5711 33.8155 20.5837 33.9103 20.5685 34.0026L20.2232 36.174C20.2135 36.2352 20.2159 36.2978 20.2304 36.3581C20.2448 36.4184 20.271 36.4753 20.3074 36.5255C20.3439 36.5757 20.3898 36.6183 20.4427 36.6507C20.4956 36.6831 20.5543 36.7048 20.6156 36.7146L21.1957 36.808C21.257 36.8177 21.3196 36.8153 21.3799 36.8008C21.4402 36.7864 21.4971 36.7602 21.5473 36.7238C21.5975 36.6873 21.64 36.6414 21.6725 36.5885C21.7049 36.5356 21.7266 36.4769 21.7364 36.4156L22.4716 31.7982C22.4916 31.6749 22.5596 31.5646 22.6607 31.4914L23.1149 31.1602C23.2053 31.0954 23.3155 31.0646 23.4264 31.0731C23.5372 31.0817 23.6414 31.129 23.7208 31.2069C24.3029 31.7775 25.042 32.1615 25.8435 32.3098C25.9413 32.3303 26.03 32.3812 26.097 32.4552C26.164 32.5293 26.2057 32.6227 26.2164 32.7219L26.2583 33.1223C26.2715 33.2475 26.2354 33.3728 26.1577 33.4718L23.2125 37.1013C23.1337 37.1986 23.0968 37.3231 23.1098 37.4476C23.1228 37.572 23.1847 37.6863 23.2818 37.7652L23.7361 38.1418C23.8334 38.2205 23.9579 38.2575 24.0824 38.2445C24.2068 38.2315 24.3211 38.1696 24.4 38.0725L25.7839 36.3649C25.8421 36.2915 25.9208 36.2371 26.01 36.2085C26.0991 36.1799 26.1948 36.1785 26.2848 36.2044C26.3748 36.2304 26.4551 36.2824 26.5154 36.3541C26.5757 36.4257 26.6134 36.5137 26.6236 36.6068L26.6986 37.319C26.7126 37.4434 26.6766 37.5683 26.5986 37.6662L24.6194 40.1092C24.5407 40.2064 24.5038 40.331 24.5167 40.4554C24.5297 40.5799 24.5916 40.6941 24.6887 40.773L25.1431 41.1497C25.2403 41.2284 25.3649 41.2653 25.4893 41.2523C25.6138 41.2394 25.728 41.1775 25.8069 41.0804L26.2265 40.5622C26.2847 40.4888 26.3633 40.4344 26.4525 40.4058C26.5417 40.3772 26.6374 40.3758 26.7274 40.4017C26.8174 40.4277 26.8976 40.4797 26.958 40.5514C27.0183 40.623 27.0559 40.711 27.0662 40.8041L27.1787 41.881C27.1927 42.0054 27.1567 42.1303 27.0787 42.2282L22.8888 47.3891C22.81 47.4863 22.7731 47.6109 22.7861 47.7353C22.7991 47.8598 22.8609 47.974 22.9581 48.0529L23.4124 48.4296C23.5097 48.5083 23.6342 48.5453 23.7587 48.5323C23.8831 48.5193 23.9974 48.4574 24.0763 48.3603L26.702 45.1229C26.7602 45.0495 26.8389 44.9951 26.9281 44.9665C27.0172 44.9379 27.1129 44.9365 27.2029 44.9624C27.2929 44.9884 27.3732 45.0404 27.4335 45.1121C27.4938 45.1837 27.5315 45.2717 27.5417 45.3648L27.6485 46.3933C27.6625 46.5177 27.6265 46.6426 27.5485 46.7405L24.3145 50.7243C24.2357 50.8216 24.1988 50.9461 24.2118 51.0706C24.2248 51.195 24.2866 51.3093 24.3838 51.3882L24.8381 51.7648C24.9354 51.8435 25.0599 51.8805 25.1844 51.8675C25.3088 51.8545 25.4231 51.7926 25.502 51.6955L27.1783 49.6298C27.2366 49.5572 27.3151 49.5034 27.4039 49.4753C27.4927 49.4472 27.5878 49.4459 27.6773 49.4717C27.7668 49.4975 27.8466 49.5491 27.9069 49.6202C27.9671 49.6912 28.0049 49.7785 28.0157 49.871L28.126 50.93C28.14 51.0544 28.104 51.1793 28.026 51.2772L25.8348 53.9786C25.7954 54.0268 25.7659 54.0823 25.748 54.1419C25.7302 54.2015 25.7243 54.2641 25.7306 54.326C25.737 54.3879 25.7556 54.4479 25.7852 54.5026C25.8149 54.5573 25.855 54.6056 25.9034 54.6448L26.3577 55.0214C26.455 55.1001 26.5795 55.1371 26.704 55.1241C26.8285 55.1111 26.9427 55.0492 27.0216 54.9521L27.6539 54.1733C27.7122 54.1007 27.7907 54.0469 27.8795 54.0188C27.9682 53.9907 28.0634 53.9894 28.1528 54.0152C28.2423 54.041 28.3222 54.0926 28.3824 54.1637C28.4426 54.2347 28.4805 54.322 28.4913 54.4145L28.5088 54.567C28.5221 54.6912 28.5841 54.8051 28.6812 54.8838C28.7783 54.9624 28.9026 54.9994 29.0269 54.9865L29.6119 54.9265C29.7362 54.9132 29.8501 54.8512 29.9287 54.7541C30.0074 54.657 30.0443 54.5327 30.0315 54.4084L30.0163 54.2565C30.0068 54.1638 30.025 54.0704 30.0685 53.988C30.112 53.9055 30.1789 53.8379 30.2608 53.7934C30.3427 53.7489 30.4359 53.7297 30.5288 53.7381C30.6216 53.7465 30.7098 53.7822 30.7824 53.8407L31.5619 54.4707C31.6591 54.5494 31.7837 54.5864 31.9081 54.5734C32.0326 54.5604 32.1468 54.4985 32.2257 54.4014L32.6023 53.9471C32.6811 53.8498 32.718 53.7253 32.705 53.6008C32.692 53.4763 32.6302 53.3621 32.533 53.2832L29.8316 51.092C29.7347 51.0131 29.673 50.899 29.6601 50.7747L29.5475 49.715C29.5377 49.6219 29.5558 49.5281 29.5995 49.4453C29.6431 49.3625 29.7104 49.2946 29.7927 49.2501C29.875 49.2057 29.9687 49.1866 30.0618 49.1955C30.155 49.2043 30.2434 49.2406 30.3159 49.2998L32.3823 50.9738C32.4795 51.0526 32.6041 51.0895 32.7285 51.0765C32.853 51.0636 32.9672 51.0017 33.0461 50.9046L33.4221 50.4525C33.4615 50.4043 33.491 50.3488 33.5088 50.2892C33.5267 50.2296 33.5326 50.1671 33.5262 50.1052C33.5199 50.0433 33.5013 49.9832 33.4717 49.9285C33.442 49.8738 33.4018 49.8255 33.3535 49.7864L29.369 46.5547C29.3204 46.5154 29.2801 46.4669 29.2504 46.4119C29.2206 46.3569 29.2021 46.2966 29.1958 46.2344L29.0851 45.2195C29.0754 45.1265 29.0935 45.0326 29.1371 44.9498C29.1808 44.8671 29.248 44.7992 29.3303 44.7547C29.4127 44.7102 29.5063 44.6912 29.5995 44.7C29.6926 44.7088 29.7811 44.7451 29.8535 44.8043L33.0909 47.4301C33.1881 47.5088 33.3127 47.5458 33.4371 47.5328C33.5616 47.5198 33.6758 47.4579 33.7547 47.3608L34.1314 46.9064C34.2101 46.8092 34.247 46.6847 34.234 46.5602C34.2211 46.4357 34.1592 46.3215 34.0621 46.2426L28.9034 42.0534C28.855 42.0144 28.8146 41.9663 28.7848 41.9117C28.755 41.8572 28.7362 41.7972 28.7296 41.7354L28.5879 40.6403C28.5784 40.5476 28.5966 40.4541 28.6401 40.3717C28.6836 40.2893 28.7506 40.2216 28.8325 40.1772C28.9144 40.1327 29.0076 40.1135 29.1004 40.1219C29.1932 40.1303 29.2815 40.166 29.354 40.2244L29.8738 40.6469C29.9221 40.6859 29.9776 40.7149 30.0372 40.7324C30.0967 40.7499 30.1592 40.7555 30.2209 40.7489C30.2826 40.7422 30.3424 40.7235 30.3969 40.6937C30.4513 40.6639 30.4994 40.6237 30.5383 40.5754L30.9143 40.1233C30.9537 40.0751 30.9831 40.0196 31.001 39.96C31.0189 39.9004 31.0248 39.8379 31.0184 39.776C31.012 39.7141 30.9935 39.654 30.9638 39.5993C30.9342 39.5446 30.894 39.4963 30.8456 39.4572L28.4026 37.478C28.3057 37.3991 28.244 37.285 28.2311 37.1607L28.156 36.4485C28.1463 36.3555 28.1644 36.2616 28.208 36.1788C28.2517 36.0961 28.3189 36.0282 28.4012 35.9837C28.4836 35.9392 28.5772 35.9202 28.6704 35.929C28.7635 35.9378 28.852 35.9741 28.9244 36.0333L30.632 37.4173C30.7293 37.496 30.8538 37.5329 30.9783 37.52C31.1027 37.507 31.217 37.4451 31.2959 37.348L31.6725 36.8936C31.7512 36.7964 31.7882 36.6718 31.7752 36.5474C31.7622 36.4229 31.7003 36.3087 31.6032 36.2298L27.9659 33.2775C27.869 33.1986 27.8073 33.0845 27.7943 32.9602L27.7549 32.5851C27.7448 32.4818 27.7689 32.378 27.8236 32.2899C27.8784 32.2017 27.9606 32.134 28.0577 32.0972C28.8226 31.8008 29.4808 31.2815 29.9469 30.6064C30.0096 30.5161 30.1018 30.4505 30.2077 30.4209C30.3136 30.3912 30.4265 30.3995 30.5269 30.4442L31.0127 30.6603C31.0694 30.6857 31.1206 30.722 31.1632 30.7672C31.2059 30.8124 31.2392 30.8655 31.2613 30.9236L32.9336 35.2883C32.9785 35.4052 33.068 35.4994 33.1824 35.5503C33.2967 35.6012 33.4266 35.6047 33.5435 35.5598L34.0954 35.3502C34.2123 35.3052 34.3065 35.2158 34.3574 35.1014C34.4083 34.987 34.4118 34.8571 34.367 34.7402L33.5818 32.6881C33.5488 32.601 33.5423 32.5062 33.5631 32.4154C33.5839 32.3247 33.631 32.2421 33.6985 32.1781C33.7661 32.1141 33.8511 32.0714 33.9428 32.0555C34.0345 32.0396 34.1288 32.0511 34.214 32.0886L34.8674 32.3801C34.9817 32.4306 35.0713 32.5245 35.1166 32.6411L36.2373 35.5763C36.2822 35.6932 36.3717 35.7874 36.486 35.8383C36.6004 35.8892 36.7303 35.8927 36.8472 35.8478L37.3984 35.6404C37.5155 35.596 37.6102 35.5068 37.6615 35.3925C37.7129 35.2783 37.7167 35.1483 37.6722 35.0312L37.4342 34.4072C37.4012 34.3201 37.3947 34.2253 37.4155 34.1345C37.4363 34.0438 37.4834 33.9612 37.5509 33.8972C37.6185 33.8332 37.7034 33.7905 37.7951 33.7746C37.8869 33.7587 37.9812 33.7702 38.0664 33.8077L39.0578 34.2481C39.1714 34.3006 39.2605 34.3949 39.3063 34.5114L41.6686 40.7215C41.7131 40.8386 41.8023 40.9332 41.9165 40.9846C42.0308 41.0359 42.1608 41.0398 42.2779 40.9953L42.8298 40.7856C42.9466 40.7407 43.0409 40.6512 43.0918 40.5368C43.1427 40.4225 43.1461 40.2926 43.1013 40.1757L41.6015 36.2784C41.5678 36.1912 41.5608 36.0959 41.5812 36.0047C41.6017 35.9134 41.6489 35.8303 41.7167 35.7658C41.7844 35.7014 41.8698 35.6585 41.962 35.6427C42.0542 35.6268 42.149 35.6387 42.2344 35.6767L43.1772 36.0982C43.2915 36.1488 43.3812 36.2427 43.4264 36.3592L45.2639 41.1574C45.3088 41.2742 45.3983 41.3685 45.5126 41.4194C45.627 41.4703 45.7569 41.4737 45.8738 41.4289L46.4257 41.2192C46.5426 41.1743 46.6368 41.0848 46.6877 40.9705C46.7386 40.8561 46.7421 40.7262 46.6973 40.6093L45.7469 38.1237C45.7132 38.0365 45.7061 37.9412 45.7266 37.8499C45.7471 37.7587 45.7942 37.6755 45.862 37.6111C45.9298 37.5466 46.0152 37.5038 46.1074 37.4879C46.1996 37.4721 46.2944 37.4839 46.3798 37.522L47.353 37.9572C47.4097 37.9825 47.4609 38.0189 47.5035 38.064C47.5462 38.1092 47.5795 38.1624 47.6016 38.2205L48.8435 41.4683C48.8885 41.5852 48.9779 41.6794 49.0923 41.7303C49.2067 41.7813 49.3366 41.7847 49.4535 41.7399L50.0054 41.5302C50.1222 41.4853 50.2165 41.3958 50.2674 41.2814C50.3183 41.1671 50.3217 41.0372 50.2769 40.9203L49.9198 39.9843C49.8869 39.8972 49.8804 39.8024 49.9011 39.7117C49.9219 39.6209 49.969 39.5383 50.0366 39.4743C50.1041 39.4103 50.1891 39.3676 50.2808 39.3517C50.3725 39.3358 50.4669 39.3473 50.552 39.3849L50.6914 39.4471C50.7482 39.4725 50.8094 39.4864 50.8716 39.488C50.9337 39.4897 50.9956 39.479 51.0536 39.4567C51.1117 39.4343 51.1647 39.4008 51.2098 39.3579C51.2548 39.315 51.2909 39.2637 51.3161 39.2068L51.5563 38.6714C51.5816 38.6146 51.5955 38.5534 51.5972 38.4912C51.5988 38.4291 51.5882 38.3672 51.5658 38.3092C51.5435 38.2511 51.5099 38.1981 51.4671 38.153C51.4242 38.108 51.3728 38.0719 51.3159 38.0467L51.1766 37.9845C51.0917 37.9463 51.02 37.8839 50.9704 37.8051C50.9208 37.7263 50.8957 37.6346 50.8981 37.5416C50.9004 37.4485 50.9303 37.3583 50.9838 37.2821C51.0373 37.206 51.1121 37.1473 51.1989 37.1135L52.1355 36.7542C52.1942 36.7323 52.2479 36.699 52.2935 36.6562C52.3392 36.6134 52.3759 36.5619 52.4015 36.5048C52.4271 36.4477 52.4411 36.3861 52.4426 36.3235C52.4442 36.2609 52.4333 36.1987 52.4106 36.1404ZM24.9877 30.3749C24.9443 30.3494 24.9045 30.3181 24.8695 30.2819C22.6293 27.8205 25.3036 24.5086 28.1809 26.2C28.224 26.2248 28.2631 26.2559 28.2968 26.2924C30.5506 28.7577 27.8624 32.0754 24.9877 30.3749Z" fill="white"/>
</svg>
