<svg width="26" height="27" viewBox="0 0 26 27" fill="none" xmlns="http://www.w3.org/2000/svg">
<path d="M25.441 5.93406C25.5006 5.8193 25.5268 5.69015 25.5168 5.56123C25.5068 5.43232 25.4609 5.30879 25.3842 5.20462C25.3076 5.10045 25.2034 5.01981 25.0833 4.97181C24.9633 4.92382 24.8322 4.91039 24.7049 4.93305L16.7108 6.34643C16.6007 6.3669 16.4873 6.36015 16.3804 6.32676C16.2735 6.29338 16.1764 6.23437 16.0976 6.15489L10.3995 0.366209C10.3087 0.27425 10.1939 0.209505 10.0682 0.179274C9.94254 0.149043 9.8109 0.154529 9.68816 0.195114C9.56543 0.235698 9.45647 0.309768 9.37358 0.408968C9.29069 0.508168 9.23716 0.628554 9.21903 0.75655L8.09509 8.80101C8.07998 8.91248 8.03772 9.01852 7.97204 9.10983C7.90636 9.20115 7.81926 9.27493 7.71839 9.32471L0.456105 12.9512C0.340388 13.0089 0.243132 13.0979 0.175344 13.208C0.107557 13.3181 0.0719443 13.445 0.0725375 13.5743C0.0731307 13.7036 0.109906 13.8301 0.178701 13.9396C0.247496 14.0491 0.345564 14.1371 0.461806 14.1938L7.76076 17.7492C7.86212 17.798 7.94995 17.871 8.01652 17.9617C8.08309 18.0523 8.12637 18.158 8.14256 18.2693L9.35022 26.2977C9.3694 26.4255 9.424 26.5455 9.50782 26.6439C9.59165 26.7424 9.70136 26.8154 9.82454 26.8547C9.94772 26.8941 10.0794 26.8981 10.2048 26.8665C10.3302 26.8348 10.4442 26.7687 10.5339 26.6756L16.1698 20.8327C16.2475 20.7513 16.3441 20.6902 16.451 20.6548C16.5579 20.6195 16.6719 20.6109 16.7829 20.63L24.791 21.9613C24.9185 21.9826 25.0495 21.9677 25.169 21.9184C25.2885 21.869 25.3919 21.7873 25.4673 21.6822C25.5428 21.5772 25.5873 21.4532 25.596 21.3242C25.6046 21.1952 25.5769 21.0663 25.5161 20.9522L21.6996 13.7865C21.6462 13.6875 21.618 13.5768 21.6174 13.4644C21.6168 13.3519 21.6438 13.2409 21.6961 13.1413L25.441 5.93406ZM19.2768 13.3335L21.9378 18.3322C21.9798 18.4117 21.9988 18.5014 21.9927 18.5912C21.9865 18.681 21.9554 18.7673 21.9028 18.8403C21.8502 18.9133 21.7783 18.9702 21.6952 19.0046C21.612 19.039 21.5209 19.0494 21.4321 19.0348L15.8476 18.1079C15.7705 18.0948 15.6913 18.1008 15.617 18.1253C15.5427 18.1499 15.4756 18.1923 15.4215 18.2488L11.4901 22.321C11.4275 22.3856 11.3483 22.4315 11.2612 22.4534C11.174 22.4754 11.0825 22.4727 10.9968 22.4455C10.9112 22.4183 10.8348 22.3678 10.7763 22.2996C10.7178 22.2314 10.6794 22.1483 10.6656 22.0595L9.82245 16.461C9.81031 16.3833 9.77946 16.3098 9.73256 16.2467C9.68566 16.1837 9.62411 16.133 9.55323 16.099L4.46668 13.6183C4.38569 13.5785 4.31749 13.5167 4.26981 13.4401C4.22212 13.3634 4.19686 13.275 4.19689 13.1847C4.19692 13.0944 4.22224 13.006 4.26997 12.9294C4.3177 12.8528 4.38594 12.7911 4.46695 12.7512L9.52573 10.2211C9.59581 10.186 9.65632 10.1344 9.70207 10.0708C9.74782 10.0071 9.77743 9.93335 9.78837 9.85574L10.5784 4.24776C10.5911 4.15869 10.6284 4.07493 10.6861 4.00591C10.7438 3.9369 10.8197 3.88536 10.9051 3.85712C10.9905 3.82887 11.0821 3.82504 11.1696 3.84605C11.2571 3.86706 11.3369 3.91207 11.4002 3.97603L15.3679 8.01078C15.4227 8.06672 15.4902 8.10844 15.5647 8.13234C15.6393 8.15625 15.7185 8.1616 15.7955 8.14794L21.3698 7.1621C21.4586 7.14633 21.55 7.15574 21.6338 7.18926C21.7175 7.22278 21.7902 7.27907 21.8436 7.35177C21.897 7.42446 21.929 7.51065 21.9359 7.60059C21.9429 7.69052 21.9245 7.7806 21.8829 7.86063L19.2753 12.8842C19.2391 12.9536 19.2203 13.0308 19.2205 13.1091C19.2208 13.1874 19.2401 13.2644 19.2768 13.3335Z" fill="white"/>
</svg>
