<svg width="42" height="46" viewBox="0 0 42 46" fill="none" xmlns="http://www.w3.org/2000/svg">
<path d="M24.2246 44.885L24.5565 44.5339C24.6266 44.4587 24.6639 44.3589 24.6603 44.2562C24.6567 44.1536 24.6126 44.0565 24.5375 43.9865L22.4521 42.0381C22.4145 42.0034 22.3842 41.9615 22.3629 41.9149C22.3416 41.8683 22.3297 41.818 22.328 41.7668L22.2993 40.8946C22.2965 40.8178 22.3165 40.742 22.3569 40.6767C22.3972 40.6113 22.4561 40.5595 22.526 40.5277C22.5958 40.4958 22.6736 40.4855 22.7494 40.4979C22.8251 40.5104 22.8955 40.5451 22.9515 40.5976L24.5459 42.0889C24.583 42.1238 24.6266 42.1509 24.6742 42.1689C24.7218 42.1869 24.7725 42.1954 24.8233 42.1938C24.8742 42.1922 24.9242 42.1806 24.9706 42.1597C25.017 42.1387 25.0588 42.1089 25.0936 42.0718L25.4253 41.7188C25.4601 41.6817 25.4873 41.6381 25.5053 41.5905C25.5233 41.5429 25.5317 41.4922 25.5301 41.4413C25.5286 41.3905 25.517 41.3404 25.496 41.2941C25.4751 41.2477 25.4452 41.2059 25.4081 41.171L22.3285 38.2951C22.2912 38.2602 22.2612 38.2181 22.2403 38.1715C22.2193 38.1249 22.2077 38.0746 22.2063 38.0235L22.1763 37.177C22.1734 37.1003 22.1935 37.0245 22.2338 36.9592C22.2742 36.8938 22.333 36.842 22.4029 36.8101C22.4728 36.7783 22.5505 36.768 22.6263 36.7804C22.7021 36.7929 22.7724 36.8276 22.8285 36.8801L25.3228 39.221C25.3979 39.2911 25.4978 39.3284 25.6004 39.3248C25.7031 39.3212 25.8001 39.2771 25.8702 39.202L26.2018 38.849C26.2718 38.7738 26.3092 38.674 26.3056 38.5713C26.302 38.4687 26.2579 38.3717 26.1828 38.3016L22.1972 34.5751C22.1218 34.5053 22.0773 34.4084 22.0733 34.3057L22.0436 33.416C22.0408 33.3392 22.0608 33.2634 22.1012 33.1981C22.1415 33.1327 22.2004 33.0809 22.2703 33.0491C22.3401 33.0172 22.4179 33.0069 22.4937 33.0193C22.5694 33.0318 22.6398 33.0665 22.6958 33.119L23.0957 33.4936C23.1708 33.5636 23.2707 33.6009 23.3733 33.5973C23.476 33.5938 23.573 33.5496 23.6431 33.4745L23.9747 33.1215C24.0447 33.0463 24.0821 32.9465 24.0785 32.8438C24.0749 32.7412 24.0308 32.6442 23.9557 32.5741L22.0744 30.8143C22.0371 30.7793 22.0071 30.7373 21.9861 30.6907C21.9651 30.644 21.9536 30.5937 21.9521 30.5426L21.9322 29.956C21.9301 29.8798 21.9506 29.8047 21.9911 29.74C22.0315 29.6754 22.0902 29.6241 22.1596 29.5927C22.2291 29.5612 22.3063 29.5509 22.3816 29.5631C22.4568 29.5753 22.5268 29.6095 22.5828 29.6613L23.9015 30.8921C23.9766 30.9621 24.0765 30.9994 24.1791 30.9958C24.2817 30.9923 24.3788 30.9481 24.4489 30.873L24.7805 30.52C24.8153 30.4829 24.8425 30.4393 24.8605 30.3917C24.8785 30.3441 24.887 30.2934 24.8854 30.2426C24.8838 30.1917 24.8722 30.1417 24.8513 30.0953C24.8303 30.0489 24.8005 30.0071 24.7634 29.9723L21.961 27.3547C21.8857 27.2849 21.8411 27.1879 21.8372 27.0853L21.8169 26.4633C21.8147 26.3856 21.8358 26.309 21.8777 26.2434C21.9195 26.1779 21.9801 26.1264 22.0516 26.0958C22.2114 26.0283 22.3658 25.9487 22.5135 25.8577C22.8393 25.654 23.1269 25.3947 23.3629 25.0915C23.4188 25.0195 23.4983 24.9696 23.5874 24.9504C23.6765 24.9312 23.7695 24.944 23.8501 24.9866L24.6006 25.3864C24.6456 25.4102 24.6855 25.4426 24.718 25.4818C24.7505 25.521 24.775 25.5662 24.79 25.6149L25.9001 29.2857C25.915 29.3343 25.9392 29.3796 25.9716 29.4189C26.0039 29.4582 26.0437 29.4907 26.0886 29.5146C26.1335 29.5386 26.1827 29.5534 26.2334 29.5583C26.284 29.5632 26.3351 29.5581 26.3838 29.5433L26.8433 29.4039C26.8922 29.3893 26.9377 29.3651 26.9772 29.3329C27.0167 29.3006 27.0495 29.2608 27.0736 29.2158C27.0977 29.1709 27.1127 29.1216 27.1177 29.0708C27.1228 29.02 27.1177 28.9687 27.1028 28.9199L26.5778 27.2002C26.5558 27.1271 26.5559 27.049 26.578 26.9759C26.6002 26.9028 26.6435 26.8379 26.7025 26.7893C26.7615 26.7408 26.8335 26.7107 26.9095 26.7029C26.9855 26.6952 27.0621 26.7101 27.1297 26.7457L27.6466 27.0133C27.7369 27.0618 27.8043 27.144 27.8341 27.2421L28.5862 29.7088C28.601 29.7575 28.6253 29.8028 28.6576 29.8421C28.69 29.8814 28.7297 29.9139 28.7746 29.9378C28.8195 29.9618 28.8687 29.9766 28.9194 29.9815C28.97 29.9864 29.0212 29.9813 29.0698 29.9665L29.5319 29.8306C29.5806 29.8158 29.6258 29.7915 29.6651 29.7591C29.7044 29.7268 29.737 29.687 29.7609 29.6421C29.7848 29.5972 29.7997 29.548 29.8046 29.4974C29.8095 29.4467 29.8044 29.3956 29.7895 29.3469L29.6322 28.8296C29.6092 28.7561 29.6087 28.6774 29.6307 28.6036C29.6526 28.5299 29.696 28.4643 29.7554 28.4153C29.8148 28.3663 29.8874 28.336 29.9641 28.3285C30.0407 28.3209 30.1178 28.3364 30.1856 28.3729L30.9691 28.7925C31.0594 28.8409 31.1268 28.9232 31.1566 29.0213L32.7403 34.2299C32.7543 34.28 32.7784 34.3267 32.8109 34.3673C32.8434 34.4079 32.8838 34.4415 32.9296 34.4662C32.9753 34.4909 33.0256 34.506 33.0774 34.5109C33.1292 34.5157 33.1814 34.51 33.231 34.4942L33.6905 34.3548C33.7392 34.34 33.7844 34.3157 33.8237 34.2834C33.863 34.251 33.8955 34.2113 33.9195 34.1664C33.9434 34.1214 33.9582 34.0723 33.9632 34.0216C33.9681 33.971 33.963 33.9198 33.9481 33.8712L32.9494 30.59C32.9269 30.5166 32.9268 30.4382 32.949 30.3647C32.9711 30.2912 33.0147 30.2259 33.074 30.1772C33.1333 30.1284 33.2058 30.0984 33.2822 30.091C33.3586 30.0835 33.4355 30.0989 33.5032 30.1352L34.2517 30.5353C34.2969 30.5588 34.3367 30.5912 34.369 30.6305C34.4012 30.6698 34.4251 30.7153 34.4393 30.7641L35.6673 34.7939C35.6821 34.8426 35.7064 34.8878 35.7387 34.9271C35.7711 34.9664 35.8108 34.999 35.8557 35.0229C35.9007 35.0468 35.9498 35.0617 36.0005 35.0666C36.0511 35.0715 36.1023 35.0664 36.1509 35.0515L36.6123 34.9118C36.661 34.897 36.7063 34.8727 36.7456 34.8404C36.7849 34.808 36.8174 34.7683 36.8413 34.7233C36.8653 34.6784 36.8801 34.6292 36.885 34.5786C36.8899 34.5279 36.8848 34.4768 36.87 34.4281L36.2334 32.3405C36.2109 32.2671 36.2108 32.1887 36.233 32.1151C36.2552 32.0416 36.2987 31.9764 36.358 31.9277C36.4173 31.8789 36.4898 31.8489 36.5662 31.8414C36.6426 31.834 36.7196 31.8494 36.7872 31.8857L37.5572 32.2958C37.6032 32.3189 37.6441 32.3509 37.6777 32.3899C37.7112 32.429 37.7366 32.4743 37.7524 32.5233L38.5839 35.2534C38.6133 35.3511 38.68 35.4331 38.7695 35.4819C38.8591 35.5307 38.9642 35.5422 39.0622 35.514L39.5213 35.3727C39.57 35.3579 39.6153 35.3336 39.6546 35.3013C39.6939 35.2689 39.7264 35.2292 39.7503 35.1842C39.7742 35.1393 39.7891 35.0901 39.794 35.0395C39.7989 34.9888 39.7938 34.9377 39.779 34.889L39.5392 34.1029C39.5167 34.0295 39.5166 33.9511 39.5387 33.8776C39.5609 33.8041 39.6045 33.7388 39.6638 33.6901C39.7231 33.6413 39.7956 33.6113 39.872 33.6039C39.9484 33.5964 40.0253 33.6118 40.093 33.6481L40.2037 33.7074C40.2486 33.7314 40.2979 33.7462 40.3486 33.7511C40.3994 33.756 40.4506 33.7509 40.4993 33.7359C40.548 33.721 40.5933 33.6966 40.6326 33.6642C40.6719 33.6317 40.7044 33.5918 40.7283 33.5468L40.9535 33.114C41.0013 33.0234 41.0113 32.9176 40.9813 32.8196C40.9512 32.7217 40.8836 32.6396 40.7933 32.5913L40.6826 32.532C40.6149 32.4958 40.5596 32.4403 40.5235 32.3725C40.4875 32.3048 40.4723 32.2279 40.4801 32.1515C40.4878 32.0752 40.518 32.0028 40.5669 31.9437C40.6157 31.8845 40.6811 31.8412 40.7546 31.8192L41.5407 31.5795C41.5894 31.5646 41.6347 31.5403 41.674 31.508C41.7132 31.4757 41.7458 31.4359 41.7697 31.391C41.7936 31.3461 41.8085 31.2969 41.8134 31.2462C41.8183 31.1956 41.8132 31.1445 41.7984 31.0958L41.6587 30.6344C41.6438 30.5857 41.6195 30.5404 41.5872 30.5011C41.5549 30.4619 41.5151 30.4293 41.4702 30.4054C41.4253 30.3815 41.3761 30.3666 41.3254 30.3617C41.2748 30.3568 41.2237 30.3619 41.175 30.3767L38.4453 31.222C38.3964 31.2369 38.3451 31.2421 38.2943 31.2371C38.2435 31.2322 38.1941 31.2172 38.1491 31.1931L37.3791 30.783C37.3115 30.7467 37.2561 30.6912 37.2201 30.6235C37.184 30.5557 37.1689 30.4788 37.1766 30.4025C37.1843 30.3261 37.2145 30.2538 37.2634 30.1946C37.3123 30.1355 37.3776 30.0921 37.4512 30.0702L39.5388 29.4336C39.5875 29.4188 39.6327 29.3945 39.672 29.3621C39.7113 29.3298 39.7439 29.29 39.7678 29.2451C39.7917 29.2002 39.8066 29.151 39.8115 29.1004C39.8164 29.0497 39.8113 28.9986 39.7964 28.9499L39.6567 28.4885C39.6424 28.4385 39.6182 28.3918 39.5855 28.3514C39.5527 28.3109 39.5122 28.2774 39.4662 28.253C39.4203 28.2285 39.3699 28.2136 39.318 28.209C39.2662 28.2045 39.2139 28.2104 39.1644 28.2265L35.1328 29.4548C35.0347 29.4844 34.9289 29.4739 34.8385 29.4257L34.0951 29.0325C34.0275 28.9962 33.9721 28.9407 33.9361 28.873C33.9 28.8053 33.8849 28.7283 33.8926 28.652C33.9003 28.5756 33.9305 28.5033 33.9794 28.4441C34.0283 28.385 34.0936 28.3417 34.1671 28.3197L37.432 27.3179C37.4815 27.3034 37.5275 27.2792 37.5675 27.2467C37.6075 27.2142 37.6406 27.1741 37.6649 27.1286C37.6892 27.0832 37.7042 27.0333 37.709 26.982C37.7138 26.9307 37.7083 26.8789 37.6928 26.8298L37.5512 26.3687C37.5363 26.32 37.5121 26.2747 37.4797 26.2355C37.4474 26.1962 37.4076 26.1636 37.3627 26.1397C37.3178 26.1158 37.2686 26.1009 37.218 26.096C37.1673 26.0911 37.1162 26.0962 37.0675 26.1111L31.8522 27.7018C31.7541 27.7313 31.6484 27.7208 31.558 27.6726L30.7726 27.2533C30.705 27.2171 30.6497 27.1616 30.6136 27.0938C30.5775 27.0261 30.5624 26.9492 30.5701 26.8728C30.5778 26.7965 30.6081 26.7241 30.6569 26.665C30.7058 26.6058 30.7711 26.5625 30.8447 26.5405L31.3674 26.3803C31.4653 26.3503 31.5474 26.2829 31.5957 26.1926C31.6441 26.1023 31.6547 25.9966 31.6253 25.8985L31.4856 25.4371C31.4708 25.3884 31.4465 25.3432 31.4142 25.3039C31.3818 25.2646 31.3421 25.232 31.2972 25.2081C31.2522 25.1842 31.2031 25.1693 31.1524 25.1644C31.1018 25.1595 31.0506 25.1646 31.002 25.1795L28.5359 25.9353C28.4372 25.9642 28.3311 25.9539 28.2398 25.9065L27.7183 25.624C27.6507 25.5877 27.5953 25.5322 27.5593 25.4645C27.5232 25.3967 27.5081 25.3198 27.5158 25.2435C27.5235 25.1671 27.5537 25.0948 27.6026 25.0356C27.6515 24.9764 27.7168 24.9331 27.7903 24.9111L29.5157 24.3852C29.5644 24.3703 29.6097 24.346 29.649 24.3137C29.6883 24.2814 29.7208 24.2416 29.7447 24.1967C29.7686 24.1518 29.7835 24.1026 29.7884 24.0519C29.7933 24.0013 29.7882 23.9502 29.7734 23.9015L29.6321 23.4423C29.6172 23.3937 29.593 23.3484 29.5606 23.3091C29.5283 23.2698 29.4885 23.2373 29.4436 23.2133C29.3987 23.1894 29.3495 23.1746 29.2989 23.1697C29.2482 23.1647 29.1971 23.1698 29.1484 23.1847L25.4809 24.3021C25.4321 24.3171 25.3808 24.3222 25.3299 24.3173C25.2791 24.3123 25.2298 24.2974 25.1847 24.2733L24.2564 23.7787C24.1886 23.7424 24.1332 23.6867 24.0971 23.6187C24.061 23.5508 24.046 23.4736 24.054 23.3971C24.1081 22.9542 24.0717 22.5048 23.9469 22.0764C23.9239 21.9958 23.9276 21.9099 23.9575 21.8317C23.9875 21.7534 24.042 21.6869 24.1129 21.6422L25.0973 21.0294C25.184 20.9744 25.2891 20.956 25.3893 20.9784L29.1246 21.8455C29.2242 21.8689 29.3291 21.852 29.4162 21.7984C29.5034 21.7448 29.5659 21.659 29.59 21.5595L29.7044 21.0891C29.7275 20.9891 29.7099 20.884 29.6556 20.7968C29.6013 20.7097 29.5146 20.6477 29.4146 20.6245L27.6575 20.2158C27.583 20.1989 27.5152 20.1604 27.4625 20.105C27.4099 20.0496 27.3747 19.98 27.3616 19.9047C27.3484 19.8294 27.3578 19.752 27.3885 19.682C27.4193 19.6121 27.47 19.5528 27.5344 19.5116L28.0326 19.2002C28.1193 19.1452 28.2243 19.1268 28.3246 19.1492L30.8361 19.7327C30.9361 19.7558 31.0412 19.7383 31.1283 19.6839C31.2155 19.6296 31.2775 19.5429 31.3007 19.4429L31.4151 18.9725C31.4382 18.8725 31.4207 18.7673 31.3664 18.6802C31.3121 18.5931 31.2254 18.5311 31.1254 18.5078L30.5925 18.3847C30.5174 18.3682 30.449 18.3297 30.3958 18.2742C30.3427 18.2187 30.3073 18.1487 30.294 18.073C30.2808 17.9973 30.2904 17.9194 30.3215 17.8492C30.3526 17.7789 30.404 17.7196 30.4689 17.6786L31.2246 17.2081C31.3113 17.153 31.4163 17.1347 31.5166 17.157L36.8287 18.3915C36.9287 18.4146 37.0338 18.3971 37.1209 18.3428C37.208 18.2884 37.27 18.2018 37.2933 18.1018L37.4077 17.6313C37.4308 17.5313 37.4133 17.4262 37.359 17.3391C37.3046 17.2519 37.218 17.1899 37.118 17.1667L33.7816 16.399C33.7071 16.3821 33.6392 16.3435 33.5866 16.2881C33.5339 16.2328 33.4988 16.1631 33.4857 16.0878C33.4725 16.0126 33.4819 15.9351 33.5126 15.8652C33.5434 15.7952 33.5941 15.7359 33.6584 15.6947L34.3671 15.2482C34.4538 15.1932 34.5588 15.1748 34.6591 15.1971L38.7595 16.1499C38.8092 16.1616 38.8607 16.1634 38.9111 16.1551C38.9615 16.1469 39.0097 16.1288 39.0531 16.1018C39.0964 16.0748 39.134 16.0396 39.1637 15.9981C39.1934 15.9565 39.2146 15.9095 39.226 15.8598L39.3405 15.3894C39.3636 15.2893 39.346 15.1842 39.2917 15.0971C39.2374 15.01 39.1507 14.948 39.0507 14.9247L36.9247 14.4311C36.8502 14.4142 36.7824 14.3757 36.7297 14.3203C36.677 14.2649 36.6419 14.1952 36.6288 14.12C36.6156 14.0447 36.625 13.9673 36.6557 13.8973C36.6865 13.8274 36.7372 13.7681 36.8015 13.7269L37.5425 13.2629C37.6293 13.2079 37.7343 13.1895 37.8346 13.2118L40.6345 13.859C40.6841 13.8704 40.7355 13.8718 40.7857 13.8633C40.8359 13.8548 40.884 13.8365 40.9271 13.8094C40.9702 13.7823 41.0076 13.747 41.0371 13.7055C41.0665 13.6639 41.0875 13.617 41.0988 13.5673L41.2136 13.0988C41.2253 13.0491 41.2271 12.9976 41.2188 12.9472C41.2106 12.8968 41.1924 12.8486 41.1655 12.8052C41.1385 12.7619 41.1033 12.7243 41.0617 12.6946C41.0202 12.6649 40.9732 12.6437 40.9235 12.6323L40.1151 12.4412C40.0401 12.4247 39.9716 12.3863 39.9185 12.3308C39.8654 12.2753 39.8299 12.2052 39.8167 12.1296C39.8034 12.0539 39.813 11.976 39.8442 11.9057C39.8753 11.8355 39.9266 11.7761 39.9916 11.7351L40.1 11.6689C40.1869 11.6144 40.2486 11.5278 40.2717 11.4279C40.2947 11.328 40.2773 11.223 40.2232 11.136L39.9686 10.7262C39.9416 10.6829 39.9063 10.6455 39.8648 10.6159C39.8233 10.5863 39.7763 10.5652 39.7266 10.5538C39.6769 10.5424 39.6255 10.5409 39.5752 10.5494C39.525 10.5579 39.4769 10.5762 39.4337 10.6034L39.3272 10.6692C39.2623 10.7095 39.1868 10.7297 39.1104 10.7272C39.034 10.7248 38.96 10.6997 38.8978 10.6553C38.8356 10.6109 38.7879 10.5491 38.7607 10.4776C38.7335 10.4061 38.7281 10.3282 38.7451 10.2537L38.9385 9.4587C38.9616 9.35867 38.9441 9.25355 38.8897 9.16643C38.8354 9.07931 38.7487 9.01732 38.6487 8.99405L38.1783 8.87964C38.0783 8.85653 37.9732 8.87407 37.886 8.92839C37.7989 8.98272 37.7369 9.0694 37.7137 9.1694L37.0689 11.9493C37.0572 11.9989 37.0357 12.0458 37.0058 12.0871C36.9759 12.1284 36.9382 12.1635 36.8947 12.1902L36.1552 12.6519C36.0915 12.6903 36.018 12.7095 35.9437 12.7072C35.8693 12.705 35.7971 12.6814 35.7358 12.6392C35.6745 12.597 35.6266 12.5381 35.5979 12.4694C35.5692 12.4008 35.5609 12.3253 35.5739 12.252L36.0675 10.126C36.0792 10.0764 36.081 10.0248 36.0728 9.97447C36.0645 9.92409 36.0464 9.87583 36.0194 9.83248C35.9925 9.78912 35.9572 9.75152 35.9157 9.72184C35.8742 9.69215 35.8272 9.67096 35.7774 9.65949L35.307 9.54508C35.207 9.52197 35.1018 9.53951 35.0147 9.59383C34.9276 9.64816 34.8656 9.73484 34.8424 9.83484L33.8896 13.9352C33.8663 14.0351 33.8043 14.1216 33.7173 14.1758L32.9972 14.6243C32.9322 14.6647 32.8568 14.6848 32.7804 14.6824C32.704 14.6799 32.63 14.6549 32.5678 14.6105C32.5055 14.5661 32.4578 14.5042 32.4307 14.4328C32.4035 14.3613 32.3981 14.2834 32.4151 14.2089L33.1804 10.8808C33.205 10.7817 33.1895 10.677 33.1374 10.5892C33.0852 10.5015 33.0005 10.4379 32.9017 10.4122L32.4313 10.2978C32.3313 10.2747 32.2261 10.2923 32.139 10.3466C32.0519 10.4009 31.9899 10.4876 31.9666 10.5876L30.7322 15.8997C30.7217 15.9504 30.7012 15.9985 30.6718 16.0411C30.6424 16.0837 30.6048 16.1201 30.5612 16.1479L29.8056 16.6184C29.7405 16.659 29.6647 16.6794 29.588 16.677C29.5113 16.6745 29.437 16.6494 29.3746 16.6047C29.3122 16.5599 29.2645 16.4977 29.2376 16.4258C29.2106 16.354 29.2056 16.2757 29.2231 16.201L29.3463 15.6681C29.3694 15.568 29.3519 15.4629 29.2975 15.3758C29.2432 15.2887 29.1565 15.2267 29.0565 15.2034L28.5861 15.089C28.4861 15.0659 28.381 15.0834 28.2938 15.1378C28.2067 15.1921 28.1447 15.2788 28.1215 15.3788L27.5383 17.8922C27.5277 17.9423 27.5073 17.9899 27.4782 18.0321C27.4492 18.0744 27.412 18.1104 27.3689 18.1381L26.8703 18.4476C26.8053 18.4879 26.7299 18.5081 26.6535 18.5056C26.5771 18.5032 26.5031 18.4782 26.4409 18.4337C26.3786 18.3893 26.331 18.3275 26.3038 18.256C26.2766 18.1846 26.2712 18.1067 26.2882 18.0321L26.6969 16.275C26.72 16.175 26.7024 16.0699 26.6481 15.9828C26.5938 15.8956 26.5071 15.8336 26.4071 15.8104L25.9367 15.696C25.887 15.6842 25.8355 15.6825 25.7851 15.6907C25.7347 15.699 25.6865 15.7171 25.6431 15.744C25.5997 15.771 25.5621 15.8063 25.5325 15.8478C25.5028 15.8893 25.4816 15.9363 25.4701 15.9861L24.603 19.7214C24.5917 19.7711 24.5707 19.8182 24.5412 19.8598C24.5117 19.9014 24.4743 19.9368 24.431 19.9639L23.4466 20.5766C23.3755 20.6204 23.2921 20.64 23.209 20.6326C23.1258 20.6252 23.0473 20.5911 22.985 20.5354C22.6594 20.2409 22.2794 20.0127 21.8664 19.8637C21.7937 19.8379 21.7303 19.7909 21.6844 19.7289C21.6385 19.6668 21.6122 19.5925 21.6088 19.5153L21.5701 18.4167C21.5684 18.3658 21.5768 18.315 21.5948 18.2673C21.6128 18.2196 21.64 18.1759 21.6749 18.1388L24.2995 15.3431C24.3698 15.2682 24.4076 15.1684 24.4044 15.0657C24.4011 14.9629 24.3573 14.8657 24.2824 14.7953L23.9293 14.4637C23.8544 14.3933 23.7546 14.3556 23.6519 14.3588C23.5492 14.362 23.452 14.4059 23.3816 14.4808L22.1508 15.7995C22.0985 15.856 22.0306 15.8956 21.9557 15.9132C21.8808 15.9309 21.8024 15.9259 21.7303 15.8989C21.6583 15.8718 21.5959 15.8239 21.5512 15.7613C21.5065 15.6986 21.4815 15.6241 21.4793 15.5472L21.4593 14.9606C21.4572 14.8579 21.4947 14.7584 21.5641 14.6827L23.3258 12.801C23.3958 12.7259 23.4331 12.626 23.4296 12.5234C23.426 12.4208 23.3818 12.3237 23.3068 12.2536L22.9537 11.922C22.8786 11.852 22.7787 11.8147 22.6761 11.8182C22.5734 11.8218 22.4764 11.866 22.4063 11.941L22.0286 12.3454C21.9762 12.401 21.9086 12.4399 21.8343 12.4572C21.7599 12.4745 21.6821 12.4694 21.6105 12.4426C21.539 12.4159 21.477 12.3685 21.4323 12.3066C21.3876 12.2447 21.3622 12.171 21.3593 12.0947L21.333 11.2024C21.3292 11.0998 21.3662 11 21.4359 10.9247L25.1592 6.94361C25.2292 6.86847 25.2666 6.76861 25.263 6.66597C25.2594 6.56333 25.2152 6.4663 25.1402 6.39621L24.7871 6.06458C24.712 5.99456 24.6121 5.95723 24.5095 5.9608C24.4069 5.96437 24.3098 6.00854 24.2397 6.08361L21.9058 8.58457C21.8536 8.6408 21.7859 8.68027 21.7112 8.69796C21.6366 8.71566 21.5583 8.71078 21.4864 8.68396C21.4145 8.65714 21.3522 8.60958 21.3074 8.54731C21.2625 8.48503 21.2372 8.41085 21.2346 8.33416L21.2065 7.48742C21.2048 7.43647 21.2132 7.38569 21.2312 7.338C21.2492 7.2903 21.2764 7.24662 21.3113 7.20946L24.1872 4.12985C24.2572 4.05472 24.2945 3.95486 24.2909 3.85222C24.2874 3.74957 24.2432 3.65255 24.1681 3.58246L23.817 3.25049C23.7419 3.18047 23.642 3.14315 23.5394 3.14671C23.4367 3.15028 23.3397 3.19445 23.2696 3.26952L21.7783 4.8639C21.7259 4.9195 21.6583 4.95839 21.5839 4.97568C21.5096 4.99298 21.4317 4.98792 21.3602 4.96113C21.2887 4.93434 21.2267 4.88702 21.182 4.82511C21.1373 4.7632 21.1119 4.68946 21.1089 4.61316L21.0781 3.73936C21.0759 3.63668 21.1135 3.53712 21.1829 3.4614L23.1315 1.37793C23.2015 1.30279 23.2389 1.20293 23.2353 1.10029C23.2317 0.997649 23.1876 0.900622 23.1125 0.830529L22.7614 0.498564C22.7241 0.463626 22.6803 0.4364 22.6325 0.418455C22.5846 0.400509 22.5337 0.392197 22.4827 0.393996C22.4316 0.395796 22.3815 0.407672 22.335 0.428941C22.2886 0.45021 22.2468 0.480453 22.2121 0.517929L21.6518 1.11551C21.5996 1.17174 21.5318 1.21121 21.4572 1.2289C21.3825 1.2466 21.3043 1.24173 21.2324 1.2149C21.1605 1.18808 21.0982 1.14052 21.0533 1.07825C21.0085 1.01597 20.9832 0.94179 20.9805 0.865102L20.9828 0.742769C20.9789 0.640471 20.9347 0.543858 20.8598 0.474033C20.785 0.404207 20.6855 0.366843 20.5832 0.370101L20.0963 0.386418C19.9936 0.38979 19.8965 0.43381 19.8262 0.508799C19.756 0.583788 19.7184 0.683606 19.7217 0.786301L19.7262 0.913358C19.7287 0.989991 19.7084 1.06564 19.6679 1.13073C19.6274 1.19583 19.5685 1.24743 19.4986 1.27903C19.4288 1.31062 19.3511 1.32078 19.2755 1.30821C19.1998 1.29564 19.1296 1.26092 19.0737 1.20844L18.4742 0.648482C18.4371 0.613374 18.3933 0.585962 18.3456 0.567826C18.2978 0.54969 18.2469 0.541189 18.1958 0.542811C18.1447 0.544434 18.0944 0.556148 18.0479 0.57728C18.0013 0.598412 17.9594 0.628543 17.9246 0.665939L17.5929 1.01897C17.5229 1.09411 17.4856 1.19397 17.4892 1.29661C17.4927 1.39925 17.5369 1.49628 17.612 1.56637L19.6974 3.51469C19.7721 3.58494 19.816 3.68195 19.8193 3.78447L19.8502 4.65826C19.853 4.73499 19.833 4.81083 19.7926 4.87616C19.7522 4.94148 19.6934 4.99334 19.6235 5.02516C19.5536 5.05698 19.4759 5.06733 19.4001 5.05488C19.3244 5.04243 19.254 5.00776 19.198 4.95525L17.6036 3.46391C17.5663 3.42898 17.5225 3.40175 17.4747 3.3838C17.4269 3.36586 17.376 3.35755 17.3249 3.35935C17.2739 3.36115 17.2237 3.37302 17.1772 3.39429C17.1308 3.41556 17.089 3.4458 17.0543 3.48328L16.7226 3.83631C16.6526 3.91145 16.6153 4.01131 16.6189 4.11395C16.6224 4.21659 16.6666 4.31362 16.7417 4.38371L19.8194 7.25993C19.8947 7.32978 19.9393 7.42669 19.9432 7.52937L19.9717 8.37803C19.9741 8.45466 19.9539 8.53031 19.9133 8.5954C19.8728 8.66049 19.8139 8.7121 19.744 8.74369C19.6742 8.77529 19.5965 8.78544 19.5209 8.77288C19.4452 8.76031 19.375 8.72559 19.3191 8.67311L16.8277 6.33752C16.7526 6.2675 16.6527 6.23017 16.5501 6.23374C16.4474 6.23731 16.3504 6.28148 16.2803 6.35655L15.9483 6.70767C15.8783 6.78281 15.841 6.88267 15.8446 6.98531C15.8481 7.08795 15.8923 7.18498 15.9674 7.25507L19.9504 10.978C20.0252 11.0483 20.069 11.1453 20.0723 11.2478L20.104 12.1372C20.1068 12.2139 20.0868 12.2898 20.0464 12.3551C20.0061 12.4204 19.9472 12.4723 19.8773 12.5041C19.8075 12.5359 19.7297 12.5463 19.6539 12.5338C19.5782 12.5214 19.5078 12.4867 19.4518 12.4342L19.0519 12.0596C18.9768 11.9896 18.8769 11.9523 18.7743 11.9558C18.6716 11.9594 18.5746 12.0036 18.5045 12.0786L18.1725 12.4298C18.1025 12.5049 18.0652 12.6048 18.0688 12.7074C18.0723 12.81 18.1165 12.9071 18.1916 12.9772L20.0732 14.7389C20.1479 14.8091 20.1918 14.9061 20.1951 15.0086L20.2151 15.5952C20.2179 15.6719 20.1979 15.7478 20.1575 15.8131C20.1172 15.8784 20.0583 15.9303 19.9884 15.9621C19.9186 15.9939 19.8408 16.0043 19.765 15.9918C19.6893 15.9794 19.6189 15.9447 19.5629 15.8922L18.2461 14.6611C18.171 14.5911 18.0711 14.5538 17.9685 14.5573C17.8658 14.5609 17.7688 14.6051 17.6987 14.6801L17.3668 15.0313C17.3318 15.0685 17.3046 15.1123 17.2866 15.1602C17.2687 15.208 17.2604 15.2589 17.2622 15.3099C17.264 15.361 17.2759 15.4112 17.2971 15.4576C17.3184 15.5041 17.3486 15.5459 17.3861 15.5806L20.1884 18.1981C20.2632 18.2684 20.307 18.3654 20.3104 18.4679L20.341 19.3516C20.344 19.4432 20.3145 19.533 20.2575 19.6049C20.2006 19.6768 20.12 19.7262 20.0301 19.7443C19.6464 19.8227 19.2796 19.9688 18.947 20.1756C18.8184 20.2546 18.695 20.3419 18.5777 20.4369C18.5188 20.4861 18.4466 20.5166 18.3703 20.5247C18.294 20.5328 18.217 20.5181 18.149 20.4824L17.5438 20.1594C17.4987 20.136 17.4588 20.1036 17.4266 20.0643C17.3943 20.0249 17.3704 19.9795 17.3563 19.9306L16.1587 15.9624L16.1371 15.8954L15.3062 16.1489C15.2087 16.1788 15.1268 16.2459 15.0784 16.3358C15.0301 16.4256 15.0191 16.5309 15.0479 16.6288L15.5739 18.3542C15.5964 18.4276 15.5965 18.506 15.5743 18.5795C15.5522 18.653 15.5086 18.7183 15.4493 18.767C15.39 18.8157 15.3175 18.8458 15.2411 18.8532C15.1647 18.8607 15.0878 18.8453 15.0201 18.809L14.5035 18.5315C14.4584 18.5078 14.4185 18.4754 14.386 18.4362C14.3535 18.397 14.329 18.3517 14.314 18.3031L13.4698 15.5339L13.4577 15.4652L12.6268 15.7187C12.5781 15.7335 12.5329 15.7578 12.4936 15.7901C12.4543 15.8225 12.4217 15.8622 12.3978 15.9071C12.3739 15.9521 12.359 16.0012 12.3541 16.0519C12.3492 16.1025 12.3543 16.1537 12.3692 16.2023L12.5275 16.7254C12.5496 16.7985 12.5495 16.8766 12.5273 16.9497C12.5051 17.0228 12.4618 17.0877 12.4028 17.1363C12.3439 17.1849 12.2718 17.2149 12.1958 17.2227C12.1198 17.2304 12.0432 17.2155 11.9756 17.1799L11.1903 16.7606C11.1453 16.7368 11.1053 16.7044 11.0728 16.6652C11.0403 16.626 11.0159 16.5808 11.0009 16.5321L9.3198 11.014L9.30779 10.9453L8.47495 11.1991C8.42627 11.214 8.381 11.2383 8.34171 11.2706C8.30241 11.3029 8.26988 11.3427 8.24595 11.3876C8.22203 11.4325 8.20718 11.4817 8.20227 11.5324C8.19736 11.583 8.20246 11.6341 8.21731 11.6828L9.21435 14.9544C9.2364 15.0276 9.23632 15.1056 9.21414 15.1787C9.19195 15.2518 9.14865 15.3168 9.08967 15.3653C9.03069 15.4139 8.95867 15.444 8.88266 15.4517C8.80665 15.4595 8.73005 15.4446 8.66247 15.4089L7.91425 15.0107C7.86921 14.9869 7.82929 14.9545 7.79679 14.9153C7.76429 14.8761 7.73982 14.8309 7.72481 14.7822L6.40424 10.448L6.39222 10.3793L5.5613 10.6328C5.51262 10.6477 5.46735 10.672 5.42805 10.7043C5.38876 10.7366 5.35622 10.7764 5.3323 10.8213C5.30837 10.8662 5.29353 10.9154 5.28862 10.9661C5.2837 11.0167 5.28881 11.0678 5.30366 11.1165L5.93797 13.2026C5.96001 13.2757 5.95994 13.3538 5.93776 13.4269C5.91557 13.5 5.87227 13.5649 5.81329 13.6135C5.75431 13.6621 5.68229 13.6921 5.60628 13.6999C5.53027 13.7076 5.45366 13.6927 5.38609 13.6571L4.6142 13.2473C4.5239 13.1988 4.45646 13.1165 4.42667 13.0185L3.50255 9.98391L3.49087 9.91711L2.65961 10.1687C2.61094 10.1836 2.56566 10.2078 2.52637 10.2402C2.48708 10.2725 2.45454 10.3123 2.43061 10.3572C2.40669 10.4021 2.39185 10.4513 2.38693 10.5019C2.38202 10.5526 2.38712 10.6037 2.40197 10.6524L2.64207 11.4404C2.66412 11.5136 2.66404 11.5916 2.64186 11.6647C2.61967 11.7378 2.57637 11.8028 2.51739 11.8513C2.45841 11.8999 2.38639 11.93 2.31038 11.9377C2.23437 11.9455 2.15776 11.9306 2.09019 11.8949L1.9776 11.8359C1.88718 11.7879 1.78142 11.7775 1.68342 11.8072C1.58541 11.8369 1.50314 11.9041 1.45457 11.9943L1.22932 12.4271C1.20524 12.4719 1.19024 12.5211 1.18518 12.5718C1.18012 12.6225 1.1851 12.6737 1.19984 12.7224C1.21458 12.7712 1.23878 12.8165 1.27107 12.8559C1.30336 12.8953 1.3431 12.928 1.38801 12.952L1.4987 13.0113C1.56634 13.0476 1.62169 13.1031 1.65774 13.1708C1.69379 13.2385 1.70892 13.3155 1.70121 13.3918C1.6935 13.4682 1.66329 13.5405 1.61441 13.5997C1.56554 13.6588 1.5002 13.7021 1.42668 13.7241L0.640557 13.9639C0.591879 13.9787 0.546603 14.003 0.50731 14.0353C0.468017 14.0677 0.435482 14.1074 0.411555 14.1524C0.387632 14.1973 0.37279 14.2465 0.367874 14.2971C0.362961 14.3478 0.368069 14.3989 0.382914 14.4476L0.522617 14.9089C0.537454 14.9576 0.561739 15.0029 0.594077 15.0422C0.626415 15.0815 0.666177 15.114 0.711089 15.1379C0.756002 15.1619 0.805189 15.1767 0.855839 15.1816C0.906493 15.1865 0.957616 15.1814 1.00629 15.1666L3.73644 14.3351C3.83417 14.305 3.93981 14.3148 4.03034 14.3623L4.80256 14.7741C4.8702 14.8103 4.92555 14.8658 4.96161 14.9336C4.99766 15.0013 5.01279 15.0782 5.00508 15.1546C4.99736 15.2309 4.96715 15.3032 4.91828 15.3624C4.8694 15.4216 4.80406 15.4649 4.73054 15.4869L2.6429 16.1234C2.59422 16.1383 2.54895 16.1625 2.50965 16.1949C2.47036 16.2272 2.43783 16.267 2.4139 16.3119C2.38998 16.3568 2.37513 16.406 2.37022 16.4566C2.3653 16.5073 2.37041 16.5584 2.38526 16.6071L2.52653 17.0662C2.54137 17.1149 2.56566 17.1602 2.59799 17.1995C2.63033 17.2388 2.6701 17.2713 2.71501 17.2952C2.75992 17.3192 2.80911 17.334 2.85976 17.3389C2.91041 17.3438 2.96154 17.3387 3.01021 17.3239L7.03997 16.0959C7.13871 16.067 7.24481 16.0773 7.33611 16.1247L8.08433 16.523C8.1526 16.5589 8.20858 16.6144 8.24509 16.6824C8.28161 16.7504 8.29701 16.8277 8.2893 16.9045C8.2816 16.9813 8.25116 17.054 8.20188 17.1133C8.15259 17.1727 8.0867 17.216 8.01265 17.2377L4.71624 18.2391C4.61869 18.2689 4.53684 18.3361 4.48848 18.4259C4.44012 18.5158 4.42914 18.621 4.45793 18.7189L4.5973 19.1784C4.61214 19.2271 4.63642 19.2724 4.66876 19.3116C4.7011 19.3509 4.74086 19.3835 4.78578 19.4074C4.83069 19.4313 4.87988 19.4462 4.93053 19.4511C4.98118 19.456 5.0323 19.4509 5.08098 19.436L10.2976 17.853C10.3957 17.8234 10.5015 17.8339 10.5918 17.8821L11.3768 18.2995C11.4451 18.3355 11.5011 18.391 11.5376 18.459C11.5741 18.5269 11.5895 18.6042 11.5818 18.681C11.5741 18.7578 11.5437 18.8305 11.4944 18.8899C11.4451 18.9492 11.3792 18.9925 11.3052 19.0142L10.7802 19.1729C10.683 19.2027 10.6014 19.2695 10.5531 19.3589C10.5047 19.4483 10.4934 19.5532 10.5216 19.6509L10.6632 20.1119C10.678 20.1606 10.7023 20.2059 10.7346 20.2452C10.767 20.2844 10.8067 20.317 10.8517 20.3409C10.8966 20.3648 10.9458 20.3797 10.9964 20.3846C11.0471 20.3895 11.0982 20.3844 11.1469 20.3696L13.6136 19.6175C13.7117 19.588 13.8175 19.5985 13.9078 19.6467L14.426 19.9219C14.4937 19.9582 14.549 20.0137 14.5851 20.0814C14.6211 20.1491 14.6363 20.2261 14.6286 20.3024C14.6208 20.3788 14.5906 20.4511 14.5418 20.5103C14.4929 20.5694 14.4275 20.6127 14.354 20.6347L12.6286 21.1607C12.5799 21.1756 12.5347 21.1998 12.4954 21.2322C12.4561 21.2645 12.4235 21.3043 12.3996 21.3492C12.3757 21.3941 12.3608 21.4433 12.3559 21.4939C12.351 21.5446 12.3561 21.5957 12.371 21.6444L12.5107 22.1058C12.5255 22.1544 12.5498 22.1997 12.5821 22.239C12.6145 22.2783 12.6542 22.3108 12.6991 22.3348C12.7441 22.3587 12.7932 22.3735 12.8439 22.3785C12.8945 22.3834 12.9457 22.3783 12.9943 22.3634L16.6638 21.2457C16.7619 21.2161 16.8676 21.2266 16.958 21.2748L17.3655 21.4907C17.4458 21.5341 17.5081 21.6043 17.5417 21.6891C17.5752 21.7739 17.5778 21.8678 17.5489 21.9543C17.3374 22.5887 17.3199 23.2718 17.4987 23.9162C17.5187 23.9956 17.513 24.0794 17.4825 24.1554C17.452 24.2314 17.3982 24.2958 17.3288 24.3393L17.0486 24.5142C16.961 24.5689 16.8556 24.5873 16.7547 24.5656L13.0194 23.6985C12.9193 23.6754 12.8142 23.6929 12.7271 23.7472C12.64 23.8016 12.578 23.8882 12.5547 23.9882L12.4403 24.4587C12.4172 24.5587 12.4347 24.6638 12.4891 24.7509C12.5434 24.8381 12.6301 24.9001 12.7301 24.9233L14.4868 25.33C14.5619 25.3466 14.6303 25.385 14.6834 25.4405C14.7366 25.496 14.772 25.566 14.7852 25.6417C14.7985 25.7174 14.7889 25.7953 14.7578 25.8656C14.7266 25.9358 14.6753 25.9952 14.6103 26.0362L14.1121 26.3476C14.0254 26.4026 13.9203 26.421 13.8201 26.3986L11.307 25.8173C11.207 25.7942 11.1019 25.8118 11.0147 25.8661C10.9276 25.9204 10.8656 26.0071 10.8424 26.1071L10.728 26.5775C10.7048 26.6776 10.7224 26.7827 10.7767 26.8698C10.831 26.9569 10.9177 27.0189 11.0177 27.0422L11.5506 27.1653C11.6257 27.1818 11.6941 27.2203 11.7473 27.2758C11.8004 27.3313 11.8358 27.4013 11.8491 27.477C11.8623 27.5527 11.8527 27.6306 11.8216 27.7008C11.7904 27.7711 11.7391 27.8305 11.6742 27.8715L10.9204 28.3416C10.8337 28.3966 10.7287 28.415 10.6284 28.3927L5.31634 27.1582C5.21631 27.1351 5.11119 27.1526 5.02408 27.2069C4.93696 27.2612 4.87496 27.3479 4.8517 27.4479L4.73729 27.9183C4.71418 28.0184 4.73171 28.1235 4.78604 28.2106C4.84036 28.2977 4.92704 28.3597 5.02704 28.383L8.35834 29.1555C8.43338 29.172 8.50182 29.2105 8.55495 29.266C8.60809 29.3215 8.64353 29.3915 8.65676 29.4672C8.67 29.5429 8.66044 29.6208 8.62929 29.691C8.59815 29.7613 8.54683 29.8207 8.48185 29.8617L7.76174 30.3102C7.67502 30.3652 7.56999 30.3836 7.46974 30.3613L3.36934 29.4085C3.26931 29.3854 3.16419 29.403 3.07707 29.4573C2.98995 29.5116 2.92796 29.5983 2.90469 29.6983L2.79028 30.1687C2.76717 30.2688 2.78471 30.3739 2.83903 30.461C2.89336 30.5481 2.98004 30.6101 3.08004 30.6334L5.20603 31.127C5.28054 31.1439 5.34838 31.1824 5.40104 31.2378C5.4537 31.2931 5.48881 31.3628 5.50197 31.4381C5.51514 31.5133 5.50576 31.5908 5.47502 31.6608C5.44427 31.7307 5.39354 31.79 5.3292 31.8312L4.58785 32.2933C4.50114 32.3483 4.39611 32.3667 4.29585 32.3443L1.51599 31.6996C1.4663 31.6878 1.41479 31.6861 1.36441 31.6943C1.31403 31.7026 1.26578 31.7207 1.22242 31.7476C1.17906 31.7746 1.14147 31.8099 1.11178 31.8514C1.08209 31.8929 1.06091 31.9399 1.04944 31.9897L0.935027 32.4601C0.911915 32.5601 0.929448 32.6652 0.983774 32.7524C1.0381 32.8395 1.12478 32.9015 1.22478 32.9247L2.02641 33.111C2.10092 33.1279 2.16877 33.1665 2.22143 33.2218C2.27409 33.2772 2.30921 33.3469 2.32237 33.4222C2.33553 33.4974 2.32615 33.5749 2.29541 33.6448C2.26467 33.7148 2.21393 33.7741 2.14958 33.8153L2.04342 33.883C1.95657 33.9375 1.89485 34.0241 1.87177 34.124C1.84869 34.2239 1.86613 34.3289 1.92027 34.4159L2.17487 34.8258C2.22935 34.9126 2.31601 34.9743 2.4159 34.9974C2.51578 35.0205 2.62074 35.003 2.7078 34.9489L2.8143 34.8831C2.87926 34.8428 2.9547 34.8226 3.03111 34.825C3.10752 34.8275 3.1815 34.8525 3.24373 34.8969C3.30596 34.9413 3.35365 35.0032 3.38082 35.0746C3.40798 35.1461 3.4134 35.224 3.39639 35.2986L3.212 36.0999C3.18889 36.1999 3.20642 36.305 3.26075 36.3921C3.31507 36.4792 3.40175 36.5412 3.50175 36.5645L3.97218 36.6789C4.07221 36.702 4.17733 36.6845 4.26445 36.6302C4.35156 36.5758 4.41356 36.4892 4.43682 36.3892L5.08159 33.6093C5.10493 33.5095 5.16689 33.4229 5.2539 33.3687L5.99491 32.9047C6.06002 32.8641 6.13574 32.8437 6.21246 32.8461C6.28918 32.8486 6.36345 32.8737 6.42584 32.9185C6.48824 32.9632 6.53594 33.0254 6.56292 33.0973C6.58988 33.1691 6.5949 33.2474 6.57733 33.3221L6.08564 35.4478C6.06253 35.5478 6.08006 35.6529 6.13439 35.74C6.18872 35.8272 6.2754 35.8892 6.3754 35.9124L6.84392 36.0272C6.89361 36.0389 6.94512 36.0407 6.9955 36.0324C7.04588 36.0242 7.09413 36.0061 7.13749 35.9791C7.18084 35.9521 7.21845 35.9169 7.24813 35.8753C7.27782 35.8338 7.299 35.7868 7.31047 35.7371L8.26129 31.637C8.27277 31.587 8.29405 31.5399 8.3239 31.4982C8.35375 31.4565 8.39157 31.4211 8.43518 31.3942L9.14384 30.9477C9.20895 30.907 9.28467 30.8866 9.36139 30.8891C9.43811 30.8915 9.51238 30.9167 9.57477 30.9614C9.63716 31.0061 9.68487 31.0683 9.71184 31.1402C9.73881 31.2121 9.74383 31.2903 9.72626 31.3651L8.95372 34.6964C8.93061 34.7964 8.94814 34.9015 9.00247 34.9886C9.05679 35.0757 9.14347 35.1377 9.24347 35.161L9.7139 35.2754C9.81393 35.2985 9.91905 35.281 10.0062 35.2267C10.0933 35.1723 10.1553 35.0857 10.1785 34.9857L11.4134 29.6755C11.4247 29.6257 11.4457 29.5787 11.4752 29.5371C11.5047 29.4954 11.5421 29.4601 11.5853 29.433L12.342 28.9348C12.407 28.8945 12.4824 28.8743 12.5588 28.8767C12.6352 28.8792 12.7092 28.9042 12.7714 28.9486C12.8337 28.9931 12.8814 29.0549 12.9085 29.1264C12.9357 29.1978 12.9411 29.2757 12.9241 29.3503L12.7994 29.8854C12.788 29.9351 12.7865 29.9865 12.795 30.0367C12.8036 30.0869 12.8219 30.1349 12.849 30.178C12.8761 30.2212 12.9114 30.2585 12.9529 30.288C12.9944 30.3175 13.0414 30.3384 13.091 30.3497L13.5596 30.4645C13.6092 30.4762 13.6608 30.478 13.7111 30.4697C13.7615 30.4615 13.8098 30.4434 13.8531 30.4164C13.8965 30.3895 13.9341 30.3542 13.9638 30.3127C13.9935 30.2711 14.0146 30.2242 14.0261 30.1744L14.6074 27.6613C14.6307 27.5615 14.6927 27.475 14.7797 27.4207L15.2779 27.1094C15.3431 27.0687 15.4188 27.0483 15.4955 27.0508C15.5722 27.0532 15.6465 27.0784 15.7089 27.1231C15.7713 27.1678 15.819 27.2301 15.8459 27.3019C15.8729 27.3738 15.8779 27.4521 15.8604 27.5268L15.4536 29.2835C15.4305 29.3836 15.4481 29.4887 15.5024 29.5758C15.5567 29.6629 15.6434 29.7249 15.7434 29.7482L16.2138 29.8626C16.3139 29.8857 16.419 29.8682 16.5061 29.8138C16.5932 29.7595 16.6552 29.6728 16.6785 29.5728L17.548 25.8292C17.5714 25.7294 17.6334 25.6429 17.7204 25.5886L17.9828 25.4247C18.0553 25.3801 18.1405 25.3606 18.2252 25.3693C18.3099 25.3779 18.3894 25.4142 18.4514 25.4726C18.9449 25.9301 19.5646 26.2288 20.2299 26.3298C20.3191 26.3436 20.4006 26.388 20.4605 26.4554C20.5204 26.5229 20.5549 26.6091 20.5581 26.6992L20.5734 27.1352C20.575 27.1861 20.5666 27.2369 20.5487 27.2846C20.5307 27.3323 20.5035 27.376 20.4686 27.4131L17.851 30.2155C17.781 30.2906 17.7437 30.3905 17.7472 30.4931C17.7508 30.5958 17.795 30.6928 17.87 30.7629L18.2231 31.0945C18.2982 31.1645 18.3981 31.2019 18.5007 31.1983C18.6034 31.1947 18.7004 31.1505 18.7705 31.0755L20.0016 29.7587C20.0539 29.7031 20.1215 29.6642 20.1959 29.6469C20.2703 29.6296 20.3481 29.6347 20.4196 29.6615C20.4911 29.6883 20.5531 29.7356 20.5978 29.7975C20.6425 29.8594 20.668 29.9331 20.6709 30.0094L20.6909 30.596C20.6947 30.6985 20.6577 30.7984 20.588 30.8736L18.8263 32.7553C18.7563 32.8304 18.7189 32.9303 18.7225 33.0329C18.7261 33.1355 18.7702 33.2326 18.8453 33.3027L19.1964 33.6346C19.2713 33.705 19.3711 33.7427 19.4738 33.7395C19.5766 33.7363 19.6738 33.6924 19.7442 33.6175L20.1187 33.2176C20.1711 33.162 20.2387 33.1231 20.3131 33.1058C20.3875 33.0885 20.4653 33.0936 20.5368 33.1204C20.6083 33.1472 20.6703 33.1945 20.715 33.2564C20.7597 33.3183 20.7851 33.3921 20.7881 33.4684L20.8197 34.3578C20.8218 34.4605 20.7843 34.56 20.7149 34.6357L16.9846 38.6102C16.9142 38.6851 16.8765 38.7849 16.8797 38.8876C16.8829 38.9904 16.9268 39.0876 17.0017 39.158L17.3547 39.4896C17.4298 39.5596 17.5297 39.5969 17.6323 39.5934C17.735 39.5898 17.832 39.5456 17.9021 39.4706L20.2369 36.9635C20.2891 36.9073 20.3569 36.8678 20.4315 36.8501C20.5062 36.8324 20.5844 36.8373 20.6563 36.8641C20.7282 36.891 20.7906 36.9385 20.8354 37.0008C20.8802 37.0631 20.9055 37.1373 20.9082 37.2139L20.9363 38.0607C20.9401 38.1632 20.9031 38.263 20.8334 38.3383L17.9556 41.4182C17.8856 41.4934 17.8483 41.5932 17.8518 41.6959C17.8554 41.7985 17.8996 41.8956 17.9746 41.9656L18.3277 42.2973C18.4028 42.3673 18.5027 42.4046 18.6053 42.4011C18.7079 42.3975 18.805 42.3533 18.8751 42.2783L20.3664 40.6839C20.4186 40.6276 20.4863 40.5882 20.561 40.5705C20.6357 40.5528 20.7139 40.5577 20.7858 40.5845C20.8577 40.6113 20.92 40.6589 20.9648 40.7211C21.0097 40.7834 21.035 40.8576 21.0376 40.9343L21.0666 41.8084C21.0683 41.8594 21.0599 41.9101 21.0419 41.9578C21.0239 42.0055 20.9967 42.0492 20.9618 42.0864L19.0131 44.1698C18.9431 44.245 18.9058 44.3448 18.9094 44.4475C18.9129 44.5501 18.9571 44.6472 19.0322 44.7172L19.3852 45.0489C19.4603 45.1189 19.5602 45.1562 19.6628 45.1526C19.7655 45.1491 19.8625 45.1049 19.9326 45.0298L20.4945 44.43C20.5468 44.3744 20.6144 44.3355 20.6888 44.3182C20.7632 44.3009 20.841 44.306 20.9125 44.3328C20.984 44.3596 21.046 44.4069 21.0907 44.4688C21.1354 44.5307 21.1609 44.6045 21.1638 44.6808L21.168 44.8059C21.1697 44.8569 21.1814 44.907 21.2026 44.9535C21.2237 44.9999 21.2538 45.0417 21.2911 45.0765C21.3285 45.1112 21.3723 45.1383 21.4201 45.1561C21.4679 45.1739 21.5188 45.1821 21.5698 45.1802L22.0509 45.1648C22.1019 45.1631 22.1521 45.1514 22.1985 45.1302C22.2449 45.1091 22.2867 45.079 22.3215 45.0417C22.3563 45.0043 22.3833 44.9605 22.4011 44.9127C22.4189 44.8649 22.4271 44.814 22.4252 44.763L22.421 44.6379C22.4186 44.5616 22.4388 44.4862 22.4791 44.4214C22.5194 44.3565 22.578 44.305 22.6475 44.2733C22.717 44.2416 22.7943 44.2311 22.8697 44.2432C22.9451 44.2553 23.0152 44.2894 23.0713 44.3412L23.673 44.9028C23.7102 44.9381 23.7541 44.9658 23.8021 44.9841C23.8501 45.0023 23.9012 45.0109 23.9525 45.0092C24.0038 45.0076 24.0543 44.9957 24.101 44.9744C24.1477 44.9531 24.1897 44.9227 24.2246 44.885ZM18.6179 22.5895C18.6211 22.5483 18.6299 22.5077 18.644 22.4689C19.6538 19.932 23.0575 20.7135 22.8446 23.4434C22.8418 23.4841 22.8329 23.5241 22.8181 23.5621C21.8103 26.1105 18.3973 25.3207 18.6179 22.5895Z" fill="white"/>
</svg>
