<svg width="41" height="41" viewBox="0 0 41 41" fill="none" xmlns="http://www.w3.org/2000/svg">
<path d="M34.6672 13.0366C34.7398 12.8967 34.7718 12.7393 34.7596 12.5821C34.7474 12.425 34.6914 12.2744 34.598 12.1475C34.5046 12.0205 34.3776 11.9222 34.2312 11.8637C34.0849 11.8052 33.9251 11.7888 33.7699 11.8164L24.0258 13.5392C23.8916 13.5642 23.7534 13.556 23.6231 13.5153C23.4928 13.4746 23.3745 13.4026 23.2783 13.3058L16.3329 6.24985C16.2221 6.13776 16.0823 6.05884 15.9291 6.02199C15.7759 5.98514 15.6154 5.99183 15.4658 6.0413C15.3162 6.09077 15.1834 6.18105 15.0824 6.30197C14.9813 6.42288 14.9161 6.56963 14.894 6.72564L13.524 16.5312C13.5056 16.667 13.4541 16.7963 13.374 16.9076C13.2939 17.0189 13.1878 17.1088 13.0648 17.1695L4.2127 21.5899C4.07165 21.6603 3.95311 21.7687 3.87048 21.9029C3.78785 22.0371 3.74444 22.1918 3.74517 22.3494C3.74589 22.507 3.79071 22.6612 3.87457 22.7947C3.95843 22.9281 4.07796 23.0355 4.21965 23.1045L13.1165 27.4383C13.24 27.4978 13.3471 27.5867 13.4282 27.6972C13.5094 27.8078 13.5621 27.9365 13.5818 28.0722L15.0539 37.8581C15.0773 38.014 15.1438 38.1602 15.246 38.2802C15.3482 38.4002 15.4819 38.4892 15.632 38.5372C15.7822 38.5851 15.9427 38.59 16.0956 38.5514C16.2484 38.5129 16.3873 38.4323 16.4967 38.3188L23.3664 31.1968C23.4611 31.0975 23.5789 31.0231 23.7092 30.98C23.8395 30.9369 23.9784 30.9265 24.1137 30.9497L33.8749 32.5725C34.0303 32.5984 34.19 32.5802 34.3357 32.5201C34.4814 32.46 34.6073 32.3603 34.6993 32.2323C34.7913 32.1043 34.8456 31.9531 34.8561 31.7959C34.8666 31.6386 34.8328 31.4815 34.7587 31.3425L30.1067 22.6081C30.0417 22.4873 30.0073 22.3525 30.0065 22.2154C30.0058 22.0783 30.0387 21.9431 30.1024 21.8216L34.6672 13.0366ZM27.1535 22.0559L30.397 28.1489C30.4483 28.2458 30.4715 28.3552 30.464 28.4646C30.4564 28.574 30.4185 28.6792 30.3544 28.7682C30.2904 28.8572 30.2027 28.9266 30.1013 28.9685C30 29.0104 29.8889 29.0231 29.7807 29.0053L22.9737 27.8755C22.8796 27.8595 22.7831 27.8668 22.6926 27.8967C22.602 27.9266 22.5202 27.9783 22.4543 28.0472L17.6622 33.0109C17.586 33.0896 17.4893 33.1455 17.3831 33.1723C17.2769 33.1991 17.1654 33.1958 17.061 33.1626C16.9566 33.1295 16.8635 33.0679 16.7921 32.9848C16.7208 32.9017 16.6741 32.8003 16.6572 32.6921L15.6295 25.868C15.6147 25.7734 15.5771 25.6837 15.5199 25.6069C15.4628 25.53 15.3877 25.4682 15.3013 25.4268L9.10125 22.4031C9.00254 22.3545 8.91941 22.2792 8.86128 22.1858C8.80316 22.0924 8.77237 21.9846 8.77241 21.8745C8.77244 21.7645 8.8033 21.6567 8.86148 21.5633C8.91966 21.4699 9.00284 21.3947 9.10159 21.3462L15.2678 18.2622C15.3532 18.2194 15.427 18.1565 15.4828 18.0789C15.5385 18.0013 15.5746 17.9114 15.5879 17.8168L16.551 10.9811C16.5664 10.8726 16.6119 10.7705 16.6822 10.6863C16.7526 10.6022 16.845 10.5394 16.9491 10.505C17.0532 10.4705 17.1649 10.4659 17.2715 10.4915C17.3782 10.5171 17.4755 10.572 17.5527 10.6499L22.389 15.5679C22.4557 15.6361 22.538 15.687 22.6289 15.7161C22.7197 15.7452 22.8163 15.7518 22.9102 15.7351L29.7047 14.5335C29.813 14.5142 29.9244 14.5257 30.0265 14.5666C30.1286 14.6074 30.2172 14.676 30.2823 14.7647C30.3474 14.8533 30.3864 14.9583 30.3948 15.0679C30.4033 15.1776 30.3809 15.2874 30.3302 15.3849L27.1518 21.5083C27.1076 21.5929 27.0846 21.6869 27.0849 21.7823C27.0853 21.8778 27.1088 21.9717 27.1535 22.0559Z" fill="white"/>
</svg>
