<svg width="51" height="52" viewBox="0 0 51 52" fill="none" xmlns="http://www.w3.org/2000/svg">
<path d="M28.6367 48.0041L28.9687 47.653C29.0387 47.5779 29.076 47.478 29.0724 47.3754C29.0689 47.2727 29.0247 47.1757 28.9496 47.1056L26.8642 45.1573C26.8266 45.1225 26.7963 45.0806 26.775 45.034C26.7537 44.9875 26.7418 44.9371 26.7401 44.8859L26.7114 44.0137C26.7086 43.937 26.7286 43.8611 26.769 43.7958C26.8094 43.7305 26.8682 43.6786 26.9381 43.6468C27.008 43.615 27.0857 43.6046 27.1615 43.6171C27.2372 43.6295 27.3076 43.6642 27.3636 43.7167L28.958 45.2081C28.9951 45.2429 29.0387 45.2701 29.0863 45.2881C29.1339 45.3061 29.1846 45.3145 29.2354 45.3129C29.2863 45.3113 29.3363 45.2998 29.3827 45.2788C29.4291 45.2579 29.4709 45.228 29.5057 45.1909L29.8374 44.8379C29.8722 44.8008 29.8994 44.7572 29.9174 44.7096C29.9354 44.662 29.9438 44.6113 29.9423 44.5605C29.9407 44.5096 29.9291 44.4596 29.9081 44.4132C29.8872 44.3668 29.8573 44.325 29.8203 44.2902L26.7406 41.4143C26.7034 41.3793 26.6733 41.3373 26.6524 41.2907C26.6314 41.244 26.6198 41.1937 26.6184 41.1426L26.5884 40.2962C26.5855 40.2195 26.6056 40.1436 26.6459 40.0783C26.6863 40.013 26.7451 39.9611 26.815 39.9293C26.8849 39.8975 26.9626 39.8871 27.0384 39.8996C27.1142 39.912 27.1845 39.9467 27.2406 39.9992L29.7349 42.3402C29.81 42.4102 29.9099 42.4475 30.0125 42.444C30.1152 42.4404 30.2122 42.3962 30.2823 42.3211L30.6139 41.9681C30.6839 41.893 30.7213 41.7931 30.7177 41.6905C30.7141 41.5878 30.67 41.4908 30.5949 41.4207L26.6093 37.6943C26.5339 37.6244 26.4894 37.5275 26.4854 37.4248L26.4557 36.5351C26.4529 36.4584 26.4729 36.3825 26.5133 36.3172C26.5536 36.2519 26.6125 36.2 26.6824 36.1682C26.7522 36.1364 26.83 36.126 26.9058 36.1385C26.9815 36.1509 27.0519 36.1856 27.1079 36.2381L27.5078 36.6127C27.5829 36.6827 27.6828 36.72 27.7854 36.7165C27.8881 36.7129 27.9851 36.6687 28.0552 36.5937L28.3868 36.2406C28.4568 36.1655 28.4942 36.0656 28.4906 35.963C28.487 35.8603 28.4429 35.7633 28.3678 35.6932L26.4865 33.9334C26.4492 33.8985 26.4192 33.8564 26.3982 33.8098C26.3772 33.7632 26.3657 33.7129 26.3642 33.6618L26.3443 33.0752C26.3422 32.999 26.3627 32.9238 26.4032 32.8592C26.4436 32.7945 26.5023 32.7433 26.5717 32.7118C26.6412 32.6803 26.7184 32.6701 26.7937 32.6823C26.8689 32.6945 26.9389 32.7286 26.9949 32.7804L28.3136 34.0112C28.3887 34.0812 28.4886 34.1185 28.5912 34.115C28.6939 34.1114 28.7909 34.0672 28.861 33.9922L29.1926 33.6391C29.2274 33.602 29.2546 33.5585 29.2726 33.5109C29.2906 33.4633 29.2991 33.4126 29.2975 33.3617C29.2959 33.3109 29.2843 33.2608 29.2634 33.2144C29.2424 33.168 29.2126 33.1262 29.1755 33.0914L26.3731 30.4738C26.2978 30.404 26.2532 30.3071 26.2493 30.2044L26.2291 29.5825C26.2268 29.5047 26.2479 29.4281 26.2898 29.3626C26.3316 29.297 26.3923 29.2456 26.4637 29.2149C26.6235 29.1474 26.7779 29.0678 26.9256 28.9768C27.2514 28.7731 27.539 28.5138 27.775 28.2106C27.831 28.1387 27.9104 28.0887 27.9995 28.0695C28.0886 28.0503 28.1816 28.0632 28.2622 28.1058L29.0127 28.5056C29.0577 28.5293 29.0976 28.5617 29.1301 28.6009C29.1626 28.6401 29.1871 28.6854 29.2021 28.734L30.3122 32.4048C30.3271 32.4535 30.3514 32.4987 30.3837 32.538C30.416 32.5773 30.4558 32.6099 30.5007 32.6338C30.5456 32.6577 30.5948 32.6726 30.6455 32.6775C30.6961 32.6824 30.7472 32.6773 30.7959 32.6624L31.2554 32.5231C31.3043 32.5084 31.3498 32.4843 31.3893 32.452C31.4288 32.4197 31.4616 32.38 31.4857 32.335C31.5098 32.29 31.5248 32.2407 31.5298 32.1899C31.5349 32.1392 31.5298 32.0879 31.5149 32.0391L30.9899 30.3194C30.9679 30.2462 30.968 30.1682 30.9902 30.0951C31.0123 30.022 31.0556 29.957 31.1146 29.9085C31.1736 29.8599 31.2456 29.8298 31.3216 29.8221C31.3976 29.8143 31.4743 29.8292 31.5418 29.8649L32.0587 30.1325C32.149 30.1809 32.2164 30.2632 32.2462 30.3613L32.9983 32.828C33.0131 32.8766 33.0374 32.9219 33.0697 32.9612C33.1021 33.0005 33.1418 33.033 33.1867 33.057C33.2317 33.0809 33.2808 33.0957 33.3315 33.1007C33.3821 33.1056 33.4333 33.1005 33.4819 33.0856L33.944 32.9497C33.9927 32.9349 34.0379 32.9106 34.0772 32.8783C34.1165 32.8459 34.1491 32.8062 34.173 32.7613C34.1969 32.7163 34.2118 32.6672 34.2167 32.6165C34.2216 32.5659 34.2165 32.5147 34.2016 32.4661L34.0443 31.9487C34.0213 31.8753 34.0208 31.7966 34.0428 31.7228C34.0647 31.649 34.1082 31.5834 34.1675 31.5344C34.2269 31.4854 34.2996 31.4552 34.3762 31.4476C34.4528 31.4401 34.5299 31.4555 34.5977 31.492L35.3812 31.9116C35.4715 31.9601 35.5389 32.0423 35.5687 32.1404L37.1524 37.3491C37.1664 37.3991 37.1905 37.4459 37.223 37.4865C37.2555 37.527 37.2959 37.5607 37.3417 37.5853C37.3875 37.61 37.4377 37.6252 37.4895 37.63C37.5413 37.6348 37.5936 37.6291 37.6431 37.6133L38.1026 37.474C38.1513 37.4591 38.1965 37.4349 38.2358 37.4025C38.2751 37.3702 38.3077 37.3304 38.3316 37.2855C38.3555 37.2406 38.3703 37.1914 38.3753 37.1408C38.3802 37.0901 38.3751 37.039 38.3602 36.9903L37.3615 33.7092C37.339 33.6357 37.3389 33.5573 37.3611 33.4838C37.3833 33.4103 37.4268 33.345 37.4861 33.2963C37.5454 33.2476 37.6179 33.2176 37.6943 33.2101C37.7707 33.2026 37.8477 33.218 37.9153 33.2543L38.6639 33.6545C38.709 33.6779 38.7488 33.7103 38.7811 33.7496C38.8133 33.789 38.8372 33.8344 38.8514 33.8833L40.0794 37.913C40.0942 37.9617 40.1185 38.007 40.1508 38.0463C40.1832 38.0856 40.2229 38.1181 40.2679 38.142C40.3128 38.1659 40.362 38.1808 40.4126 38.1857C40.4633 38.1906 40.5144 38.1855 40.5631 38.1707L41.0244 38.031C41.0731 38.0161 41.1184 37.9918 41.1577 37.9595C41.197 37.9272 41.2295 37.8874 41.2534 37.8425C41.2774 37.7976 41.2922 37.7484 41.2971 37.6977C41.302 37.6471 41.2969 37.596 41.2821 37.5473L40.6455 35.4596C40.6231 35.3862 40.6229 35.3078 40.6451 35.2343C40.6673 35.1608 40.7108 35.0955 40.7701 35.0468C40.8295 34.9981 40.9019 34.9681 40.9783 34.9606C41.0548 34.9531 41.1317 34.9685 41.1993 35.0048L41.9693 35.415C42.0153 35.438 42.0563 35.47 42.0898 35.5091C42.1233 35.5481 42.1487 35.5935 42.1645 35.6424L42.996 38.3726C43.0254 38.4702 43.0921 38.5523 43.1816 38.6011C43.2712 38.6498 43.3763 38.6614 43.4743 38.6331L43.9334 38.4919C43.9821 38.477 44.0274 38.4527 44.0667 38.4204C44.106 38.3881 44.1385 38.3483 44.1624 38.3034C44.1864 38.2585 44.2012 38.2093 44.2061 38.1586C44.211 38.108 44.2059 38.0569 44.1911 38.0082L43.9513 37.2221C43.9288 37.1486 43.9287 37.0702 43.9509 36.9967C43.973 36.9232 44.0166 36.8579 44.0759 36.8092C44.1352 36.7605 44.2077 36.7305 44.2841 36.723C44.3605 36.7155 44.4374 36.7309 44.5051 36.7672L44.6158 36.8265C44.6608 36.8505 44.71 36.8654 44.7607 36.8703C44.8115 36.8752 44.8627 36.87 44.9114 36.8551C44.9601 36.8402 45.0054 36.8158 45.0447 36.7833C45.084 36.7509 45.1165 36.711 45.1404 36.666L45.3656 36.2332C45.4134 36.1426 45.4234 36.0367 45.3934 35.9388C45.3634 35.8408 45.2958 35.7587 45.2054 35.7105L45.0947 35.6512C45.027 35.6149 44.9717 35.5594 44.9356 35.4917C44.8996 35.4239 44.8844 35.347 44.8922 35.2707C44.8999 35.1943 44.9301 35.122 44.979 35.0628C45.0278 35.0037 45.0932 34.9603 45.1667 34.9384L45.9528 34.6986C46.0015 34.6838 46.0468 34.6595 46.0861 34.6271C46.1254 34.5948 46.1579 34.555 46.1818 34.5101C46.2057 34.4652 46.2206 34.416 46.2255 34.3654C46.2304 34.3147 46.2253 34.2636 46.2105 34.2149L46.0708 33.7535C46.0559 33.7049 46.0316 33.6596 45.9993 33.6203C45.967 33.581 45.9272 33.5485 45.8823 33.5245C45.8374 33.5006 45.7882 33.4858 45.7375 33.4808C45.6869 33.4759 45.6358 33.481 45.5871 33.4959L42.8574 34.3411C42.8085 34.3561 42.7572 34.3612 42.7064 34.3563C42.6556 34.3513 42.6062 34.3364 42.5612 34.3123L41.7912 33.9021C41.7236 33.8659 41.6682 33.8104 41.6322 33.7426C41.5961 33.6749 41.581 33.598 41.5887 33.5216C41.5964 33.4453 41.6267 33.3729 41.6755 33.3138C41.7244 33.2546 41.7897 33.2113 41.8633 33.1893L43.9509 32.5528C43.9996 32.5379 44.0449 32.5136 44.0841 32.4813C44.1234 32.449 44.156 32.4092 44.1799 32.3643C44.2038 32.3194 44.2187 32.2702 44.2236 32.2195C44.2285 32.1689 44.2234 32.1177 44.2085 32.0691L44.0688 31.6077C44.0545 31.5576 44.0303 31.511 43.9976 31.4705C43.9648 31.43 43.9243 31.3966 43.8783 31.3721C43.8324 31.3477 43.782 31.3327 43.7301 31.3282C43.6783 31.3236 43.626 31.3296 43.5765 31.3457L39.5449 32.574C39.4468 32.6035 39.341 32.593 39.2506 32.5448L38.5072 32.1516C38.4396 32.1154 38.3842 32.0599 38.3482 31.9921C38.3121 31.9244 38.297 31.8475 38.3047 31.7711C38.3124 31.6948 38.3426 31.6224 38.3915 31.5633C38.4404 31.5041 38.5057 31.4608 38.5792 31.4388L41.8441 30.4371C41.8936 30.4226 41.9397 30.3984 41.9797 30.3659C42.0196 30.3334 42.0528 30.2932 42.077 30.2478C42.1013 30.2023 42.1163 30.1524 42.1211 30.1011C42.1259 30.0498 42.1204 29.9981 42.1049 29.9489L41.9633 29.4878C41.9485 29.4392 41.9242 29.3939 41.8918 29.3546C41.8595 29.3153 41.8197 29.2828 41.7748 29.2588C41.7299 29.2349 41.6807 29.2201 41.6301 29.2152C41.5794 29.2102 41.5283 29.2154 41.4796 29.2302L36.2643 30.8209C36.1663 30.8505 36.0605 30.84 35.9701 30.7917L35.1848 30.3725C35.1171 30.3362 35.0618 30.2807 35.0257 30.213C34.9897 30.1452 34.9745 30.0683 34.9822 29.992C34.99 29.9156 35.0202 29.8433 35.069 29.7841C35.1179 29.725 35.1833 29.6816 35.2568 29.6597L35.7795 29.4994C35.8774 29.4695 35.9595 29.402 36.0078 29.3117C36.0562 29.2215 36.0668 29.1157 36.0374 29.0176L35.8977 28.5562C35.8829 28.5076 35.8586 28.4623 35.8263 28.423C35.7939 28.3837 35.7542 28.3512 35.7093 28.3272C35.6644 28.3033 35.6152 28.2885 35.5645 28.2836C35.5139 28.2786 35.4627 28.2838 35.4141 28.2986L32.948 29.0544C32.8493 29.0834 32.7432 29.073 32.6519 29.0256L32.1304 28.7431C32.0628 28.7069 32.0074 28.6513 31.9714 28.5836C31.9353 28.5159 31.9202 28.4389 31.9279 28.3626C31.9356 28.2862 31.9658 28.2139 32.0147 28.1547C32.0636 28.0956 32.1289 28.0523 32.2024 28.0303L33.9278 27.5043C33.9765 27.4895 34.0218 27.4652 34.0611 27.4328C34.1004 27.4005 34.1329 27.3607 34.1568 27.3158C34.1808 27.2709 34.1956 27.2217 34.2005 27.1711C34.2054 27.1204 34.2003 27.0693 34.1855 27.0206L34.0442 26.5615C34.0294 26.5128 34.0051 26.4675 33.9727 26.4282C33.9404 26.3889 33.9006 26.3564 33.8557 26.3325C33.8108 26.3086 33.7616 26.2937 33.711 26.2888C33.6603 26.2839 33.6092 26.289 33.5605 26.3038L29.893 27.4213C29.8442 27.4362 29.7929 27.4413 29.742 27.4364C29.6912 27.4314 29.6419 27.4165 29.5969 27.3924L28.6685 26.8978C28.6007 26.8615 28.5453 26.8058 28.5092 26.7379C28.4732 26.6699 28.4581 26.5928 28.4661 26.5163C28.5202 26.0733 28.4838 25.624 28.359 25.1955C28.336 25.115 28.3397 25.0291 28.3697 24.9508C28.3996 24.8725 28.4541 24.806 28.525 24.7613L29.5094 24.1486C29.5962 24.0935 29.7012 24.0752 29.8014 24.0975L33.5367 24.9646C33.6363 24.988 33.7412 24.9711 33.8283 24.9175C33.9155 24.864 33.978 24.7781 34.0021 24.6787L34.1165 24.2082C34.1396 24.1082 34.1221 24.0031 34.0677 23.916C34.0134 23.8289 33.9267 23.7669 33.8267 23.7436L32.0696 23.335C31.9951 23.3181 31.9273 23.2795 31.8746 23.2241C31.822 23.1688 31.7868 23.0991 31.7737 23.0238C31.7605 22.9486 31.7699 22.8711 31.8006 22.8012C31.8314 22.7312 31.8821 22.6719 31.9465 22.6307L32.4447 22.3194C32.5314 22.2643 32.6364 22.2459 32.7367 22.2683L35.2482 22.8518C35.3482 22.8749 35.4533 22.8574 35.5405 22.8031C35.6276 22.7487 35.6896 22.6621 35.7128 22.5621L35.8272 22.0916C35.8504 21.9916 35.8328 21.8865 35.7785 21.7994C35.7242 21.7122 35.6375 21.6502 35.5375 21.627L35.0046 21.5038C34.9295 21.4873 34.8611 21.4489 34.808 21.3934C34.7548 21.3379 34.7194 21.2678 34.7061 21.1922C34.6929 21.1165 34.7025 21.0386 34.7336 20.9683C34.7648 20.8981 34.8161 20.8387 34.8811 20.7977L35.6367 20.3272C35.7234 20.2722 35.8284 20.2538 35.9287 20.2762L41.2408 21.5107C41.3408 21.5338 41.4459 21.5162 41.533 21.4619C41.6202 21.4076 41.6822 21.3209 41.7054 21.2209L41.8198 20.7505C41.8429 20.6504 41.8254 20.5453 41.7711 20.4582C41.7167 20.3711 41.6301 20.3091 41.5301 20.2858L38.1937 19.5181C38.1192 19.5012 38.0514 19.4626 37.9987 19.4073C37.946 19.3519 37.9109 19.2822 37.8978 19.207C37.8846 19.1317 37.894 19.0542 37.9247 18.9843C37.9555 18.9144 38.0062 18.8551 38.0705 18.8139L38.7792 18.3674C38.8659 18.3123 38.9709 18.2939 39.0712 18.3163L43.1716 19.269C43.2213 19.2807 43.2728 19.2825 43.3232 19.2743C43.3736 19.266 43.4218 19.2479 43.4652 19.2209C43.5085 19.194 43.5461 19.1587 43.5758 19.1172C43.6055 19.0757 43.6267 19.0287 43.6382 18.9789L43.7526 18.5085C43.7757 18.4085 43.7581 18.3033 43.7038 18.2162C43.6495 18.1291 43.5628 18.0671 43.4628 18.0439L41.3368 17.5503C41.2623 17.5333 41.1945 17.4948 41.1418 17.4394C41.0892 17.3841 41.054 17.3144 41.0409 17.2391C41.0277 17.1639 41.0371 17.0864 41.0678 17.0165C41.0986 16.9465 41.1493 16.8872 41.2136 16.846L41.9547 16.382C42.0414 16.327 42.1464 16.3086 42.2467 16.331L45.0466 16.9781C45.0962 16.9895 45.1476 16.991 45.1978 16.9825C45.2481 16.9739 45.2961 16.9556 45.3392 16.9285C45.3823 16.9014 45.4197 16.8661 45.4492 16.8246C45.4786 16.7831 45.4996 16.7361 45.5109 16.6865L45.6257 16.2179C45.6374 16.1683 45.6392 16.1167 45.6309 16.0664C45.6227 16.016 45.6045 15.9677 45.5776 15.9244C45.5506 15.881 45.5154 15.8434 45.4738 15.8137C45.4323 15.784 45.3853 15.7629 45.3356 15.7514L44.5272 15.5604C44.4522 15.5439 44.3837 15.5054 44.3306 15.4499C44.2775 15.3944 44.242 15.3244 44.2288 15.2487C44.2156 15.173 44.2251 15.0951 44.2563 15.0249C44.2874 14.9546 44.3387 14.8952 44.4037 14.8542L44.5121 14.7881C44.599 14.7336 44.6607 14.6469 44.6838 14.547C44.7069 14.4471 44.6894 14.3422 44.6353 14.2551L44.3807 13.8453C44.3537 13.8021 44.3184 13.7646 44.2769 13.735C44.2354 13.7054 44.1884 13.6843 44.1387 13.6729C44.0891 13.6615 44.0376 13.66 43.9873 13.6685C43.9371 13.677 43.889 13.6954 43.8458 13.7225L43.7393 13.7883C43.6744 13.8286 43.5989 13.8488 43.5225 13.8464C43.4461 13.8439 43.3721 13.8189 43.3099 13.7745C43.2477 13.73 43.2 13.6682 43.1728 13.5968C43.1456 13.5253 43.1402 13.4474 43.1572 13.3728L43.3506 12.5778C43.3737 12.4778 43.3562 12.3727 43.3019 12.2856C43.2475 12.1985 43.1608 12.1365 43.0608 12.1132L42.5904 11.9988C42.4904 11.9757 42.3853 11.9932 42.2982 12.0475C42.211 12.1019 42.149 12.1885 42.1258 12.2885L41.481 15.0684C41.4693 15.1181 41.4478 15.1649 41.4179 15.2062C41.388 15.2476 41.3503 15.2826 41.3068 15.3093L40.5674 15.7711C40.5036 15.8094 40.4301 15.8286 40.3558 15.8264C40.2814 15.8241 40.2092 15.8005 40.1479 15.7583C40.0866 15.7161 40.0387 15.6572 40.01 15.5886C39.9813 15.5199 39.973 15.4444 39.986 15.3712L40.4796 13.2452C40.4913 13.1955 40.4931 13.144 40.4849 13.0936C40.4766 13.0432 40.4585 12.995 40.4316 12.9516C40.4046 12.9083 40.3693 12.8707 40.3278 12.841C40.2863 12.8113 40.2393 12.7901 40.1895 12.7786L39.7191 12.6642C39.6191 12.6411 39.514 12.6586 39.4268 12.713C39.3397 12.7673 39.2777 12.854 39.2545 12.954L38.3017 17.0544C38.2784 17.1542 38.2164 17.2407 38.1294 17.295L37.4093 17.7435C37.3444 17.7838 37.2689 17.804 37.1925 17.8015C37.1161 17.7991 37.0421 17.774 36.9799 17.7296C36.9177 17.6852 36.87 17.6234 36.8428 17.5519C36.8156 17.4804 36.8102 17.4025 36.8272 17.328L37.5925 13.9999C37.6171 13.9009 37.6016 13.7961 37.5495 13.7084C37.4973 13.6206 37.4126 13.557 37.3138 13.5314L36.8434 13.417C36.7434 13.3939 36.6383 13.4114 36.5511 13.4657C36.464 13.5201 36.402 13.6067 36.3788 13.7067L35.1443 19.0188C35.1338 19.0695 35.1133 19.1176 35.0839 19.1603C35.0545 19.2029 35.0169 19.2392 34.9733 19.2671L34.2177 19.7375C34.1526 19.7782 34.0769 19.7986 34.0001 19.7961C33.9234 19.7937 33.8491 19.7685 33.7867 19.7238C33.7244 19.6791 33.6766 19.6168 33.6497 19.545C33.6227 19.4731 33.6177 19.3949 33.6353 19.3201L33.7584 18.7872C33.7815 18.6872 33.764 18.582 33.7097 18.4949C33.6553 18.4078 33.5686 18.3458 33.4687 18.3226L32.9982 18.2081C32.8982 18.185 32.7931 18.2026 32.706 18.2569C32.6188 18.3112 32.5568 18.3979 32.5336 18.4979L31.9504 21.0113C31.9398 21.0615 31.9194 21.109 31.8903 21.1513C31.8613 21.1935 31.8241 21.2295 31.781 21.2573L31.2824 21.5667C31.2175 21.6071 31.142 21.6272 31.0656 21.6248C30.9892 21.6223 30.9152 21.5973 30.853 21.5529C30.7908 21.5085 30.7431 21.4466 30.7159 21.3752C30.6887 21.3037 30.6833 21.2258 30.7003 21.1513L31.109 19.3942C31.1321 19.2941 31.1145 19.189 31.0602 19.1019C31.0059 19.0148 30.9192 18.9528 30.8192 18.9295L30.3488 18.8151C30.2991 18.8034 30.2476 18.8016 30.1972 18.8099C30.1468 18.8181 30.0986 18.8362 30.0552 18.8632C30.0119 18.8901 29.9743 18.9254 29.9446 18.9669C29.9149 19.0085 29.8937 19.0555 29.8822 19.1052L29.0151 22.8405C29.0038 22.8903 28.9828 22.9373 28.9533 22.9789C28.9238 23.0205 28.8864 23.0559 28.8432 23.083L27.8587 23.6958C27.7876 23.7396 27.7043 23.7592 27.6211 23.7518C27.5379 23.7443 27.4594 23.7102 27.3971 23.6546C27.0715 23.36 26.6915 23.1318 26.2785 22.9828C26.2058 22.957 26.1424 22.9101 26.0965 22.848C26.0506 22.786 26.0243 22.7116 26.0209 22.6345L25.9822 21.5359C25.9805 21.4849 25.9889 21.4342 26.0069 21.3865C26.0249 21.3388 26.0521 21.2951 26.087 21.2579L28.7116 18.4622C28.7819 18.3873 28.8197 18.2875 28.8165 18.1848C28.8133 18.0821 28.7694 17.9848 28.6945 17.9145L28.3414 17.5829C28.2665 17.5125 28.1667 17.4748 28.064 17.478C27.9613 17.4812 27.8641 17.5251 27.7937 17.6L26.5629 18.9187C26.5106 18.9751 26.4427 19.0147 26.3678 19.0324C26.2929 19.0501 26.2145 19.0451 26.1424 19.018C26.0704 18.991 26.008 18.9431 25.9633 18.8804C25.9186 18.8178 25.8936 18.7433 25.8914 18.6663L25.8714 18.0798C25.8693 17.9771 25.9068 17.8775 25.9762 17.8018L27.7379 15.9202C27.8079 15.845 27.8452 15.7452 27.8417 15.6425C27.8381 15.5399 27.7939 15.4429 27.7189 15.3728L27.3658 15.0412C27.2907 14.9711 27.1908 14.9338 27.0882 14.9374C26.9856 14.9409 26.8885 14.9851 26.8184 15.0602L26.4407 15.4646C26.3884 15.5201 26.3208 15.559 26.2464 15.5763C26.172 15.5936 26.0942 15.5886 26.0227 15.5618C25.9511 15.535 25.8891 15.4877 25.8444 15.4258C25.7997 15.3639 25.7743 15.2901 25.7714 15.2138L25.7451 14.3215C25.7413 14.219 25.7783 14.1192 25.848 14.0439L29.5713 10.0627C29.6413 9.98761 29.6787 9.88775 29.6751 9.78511C29.6715 9.68247 29.6274 9.58544 29.5523 9.51535L29.1993 9.18372C29.1241 9.1137 29.0243 9.07637 28.9216 9.07994C28.819 9.08351 28.7219 9.12768 28.6519 9.20275L26.3179 11.7037C26.2657 11.7599 26.198 11.7994 26.1233 11.8171C26.0487 11.8348 25.9704 11.8299 25.8985 11.8031C25.8266 11.7763 25.7643 11.7287 25.7195 11.6664C25.6747 11.6042 25.6493 11.53 25.6467 11.4533L25.6186 10.6066C25.6169 10.5556 25.6253 10.5048 25.6433 10.4571C25.6613 10.4094 25.6885 10.3658 25.7234 10.3286L28.5993 7.24899C28.6693 7.17386 28.7066 7.074 28.7031 6.97136C28.6995 6.86871 28.6553 6.77169 28.5802 6.7016L28.2291 6.36963C28.154 6.29961 28.0541 6.26229 27.9515 6.26586C27.8488 6.26942 27.7518 6.31359 27.6817 6.38866L26.1904 7.98304C26.138 8.03864 26.0704 8.07753 25.996 8.09482C25.9217 8.11212 25.8438 8.10706 25.7723 8.08027C25.7008 8.05348 25.6388 8.00616 25.5941 7.94425C25.5494 7.88234 25.524 7.8086 25.5211 7.7323L25.4902 6.8585C25.488 6.75582 25.5256 6.65626 25.595 6.58054L27.5436 4.49707C27.6137 4.42193 27.651 4.32207 27.6474 4.21943C27.6438 4.11679 27.5997 4.01976 27.5246 3.94967L27.1735 3.6177C27.1362 3.58277 27.0924 3.55554 27.0446 3.5376C26.9968 3.51965 26.9459 3.51134 26.8948 3.51314C26.8438 3.51494 26.7936 3.52681 26.7471 3.54808C26.7007 3.56935 26.6589 3.59959 26.6242 3.63707L26.0639 4.23465C26.0117 4.29088 25.9439 4.33035 25.8693 4.34804C25.7946 4.36574 25.7164 4.36087 25.6445 4.33405C25.5726 4.30722 25.5103 4.25966 25.4654 4.19739C25.4206 4.13511 25.3953 4.06093 25.3927 3.98424L25.3949 3.86191C25.391 3.75961 25.3468 3.663 25.2719 3.59317C25.1971 3.52335 25.0976 3.48598 24.9953 3.48924L24.5084 3.50556C24.4057 3.50893 24.3086 3.55295 24.2383 3.62794C24.1681 3.70293 24.1305 3.80275 24.1338 3.90544L24.1384 4.0325C24.1408 4.10913 24.1206 4.18478 24.08 4.24987C24.0395 4.31497 23.9806 4.36658 23.9107 4.39817C23.8409 4.42976 23.7632 4.43992 23.6876 4.42735C23.6119 4.41479 23.5417 4.38006 23.4858 4.32758L22.8863 3.76762C22.8492 3.73251 22.8055 3.7051 22.7577 3.68697C22.7099 3.66883 22.659 3.66033 22.6079 3.66195C22.5568 3.66357 22.5065 3.67529 22.46 3.69642C22.4134 3.71755 22.3715 3.74768 22.3367 3.78508L22.0051 4.13811C21.935 4.21325 21.8977 4.31311 21.9013 4.41575C21.9049 4.51839 21.949 4.61542 22.0241 4.68551L24.1095 6.63383C24.1842 6.70408 24.2281 6.80109 24.2314 6.90361L24.2623 7.7774C24.2651 7.85413 24.2451 7.92997 24.2047 7.9953C24.1644 8.06062 24.1055 8.11248 24.0356 8.1443C23.9658 8.17612 23.888 8.18647 23.8122 8.17402C23.7365 8.16157 23.6661 8.1269 23.6101 8.07439L22.0157 6.58305C21.9784 6.54812 21.9346 6.52089 21.8868 6.50294C21.839 6.485 21.7881 6.47669 21.737 6.47849C21.686 6.48029 21.6358 6.49216 21.5893 6.51343C21.5429 6.5347 21.5011 6.56494 21.4664 6.60242L21.1348 6.95545C21.0647 7.03059 21.0274 7.13045 21.031 7.23309C21.0346 7.33573 21.0787 7.43276 21.1538 7.50285L24.2315 10.3791C24.3069 10.4489 24.3514 10.5458 24.3553 10.6485L24.3838 11.4972C24.3863 11.5738 24.366 11.6495 24.3254 11.7145C24.2849 11.7796 24.226 11.8312 24.1561 11.8628C24.0863 11.8944 24.0086 11.9046 23.933 11.892C23.8573 11.8795 23.7871 11.8447 23.7312 11.7922L21.2398 9.45666C21.1647 9.38664 21.0648 9.34931 20.9622 9.35288C20.8595 9.35645 20.7625 9.40062 20.6924 9.47569L20.3604 9.82681C20.2904 9.90195 20.2531 10.0018 20.2567 10.1045C20.2602 10.2071 20.3044 10.3041 20.3795 10.3742L24.3625 14.0972C24.4373 14.1674 24.4811 14.2644 24.4844 14.3669L24.5161 15.2563C24.5189 15.3331 24.4989 15.4089 24.4585 15.4742C24.4182 15.5396 24.3593 15.5914 24.2894 15.6232C24.2196 15.6551 24.1418 15.6654 24.066 15.653C23.9903 15.6405 23.9199 15.6058 23.8639 15.5533L23.464 15.1788C23.3889 15.1087 23.289 15.0714 23.1864 15.075C23.0837 15.0785 22.9867 15.1227 22.9166 15.1978L22.5846 15.5489C22.5146 15.624 22.4773 15.7239 22.4809 15.8265C22.4844 15.9292 22.5286 16.0262 22.6037 16.0963L24.4853 17.858C24.56 17.9283 24.6039 18.0253 24.6072 18.1278L24.6272 18.7144C24.63 18.7911 24.61 18.8669 24.5696 18.9322C24.5293 18.9976 24.4704 19.0494 24.4006 19.0813C24.3307 19.1131 24.2529 19.1234 24.1771 19.111C24.1014 19.0985 24.031 19.0638 23.975 19.0113L22.6582 17.7803C22.5831 17.7102 22.4832 17.6729 22.3806 17.6765C22.2779 17.68 22.1809 17.7242 22.1108 17.7993L21.7789 18.1504C21.7439 18.1877 21.7167 18.2315 21.6988 18.2793C21.6808 18.3271 21.6725 18.378 21.6743 18.4291C21.6761 18.4801 21.688 18.5303 21.7092 18.5768C21.7305 18.6232 21.7608 18.665 21.7982 18.6997L24.6006 21.3173C24.6753 21.3875 24.7191 21.4845 24.7225 21.587L24.7531 22.4707C24.7562 22.5624 24.7266 22.6521 24.6696 22.724C24.6127 22.7959 24.5321 22.8453 24.4422 22.8634C24.0585 22.9419 23.6918 23.0879 23.3591 23.2947C23.2305 23.3737 23.1071 23.461 22.9898 23.556C22.9309 23.6052 22.8587 23.6358 22.7824 23.6439C22.7061 23.652 22.6291 23.6372 22.5611 23.6015L21.9559 23.2786C21.9108 23.2551 21.8709 23.2227 21.8387 23.1834C21.8064 23.1441 21.7825 23.0986 21.7684 23.0498L20.5708 19.0816L20.5492 19.0145L19.7183 19.268C19.6208 19.2979 19.5389 19.3651 19.4906 19.4549C19.4422 19.5447 19.4312 19.65 19.46 19.7479L19.986 21.4733C20.0085 21.5467 20.0086 21.6252 19.9864 21.6987C19.9643 21.7722 19.9207 21.8374 19.8614 21.8862C19.8021 21.9349 19.7296 21.9649 19.6532 21.9724C19.5768 21.9798 19.4999 21.9644 19.4322 21.9281L18.9156 21.6507C18.8705 21.6269 18.8306 21.5945 18.7981 21.5553C18.7656 21.5161 18.7411 21.4709 18.7261 21.4222L17.8819 18.653L17.8698 18.5843L17.0389 18.8378C16.9902 18.8526 16.945 18.8769 16.9057 18.9093C16.8664 18.9416 16.8338 18.9814 16.8099 19.0263C16.786 19.0712 16.7712 19.1204 16.7662 19.171C16.7613 19.2217 16.7664 19.2728 16.7813 19.3215L16.9396 19.8445C16.9617 19.9177 16.9616 19.9957 16.9394 20.0688C16.9172 20.1419 16.8739 20.2069 16.8149 20.2554C16.756 20.304 16.6839 20.334 16.6079 20.3418C16.5319 20.3496 16.4553 20.3347 16.3877 20.299L15.6024 19.8797C15.5574 19.856 15.5175 19.8236 15.485 19.7844C15.4524 19.7452 15.428 19.6999 15.413 19.6513L13.7319 14.1331L13.7199 14.0644L12.8871 14.3183C12.8384 14.3331 12.7931 14.3574 12.7538 14.3897C12.7145 14.4221 12.682 14.4618 12.6581 14.5068C12.6341 14.5517 12.6193 14.6009 12.6144 14.6515C12.6095 14.7022 12.6146 14.7533 12.6294 14.802L13.6265 18.0736C13.6485 18.1467 13.6484 18.2247 13.6262 18.2979C13.6041 18.371 13.5608 18.4359 13.5018 18.4845C13.4428 18.533 13.3708 18.5631 13.2948 18.5708C13.2188 18.5786 13.1422 18.5637 13.0746 18.528L12.3264 18.1298C12.2813 18.1061 12.2414 18.0736 12.2089 18.0344C12.1764 17.9952 12.1519 17.95 12.1369 17.9014L10.8164 13.5672L10.8043 13.4985L9.97341 13.752C9.92473 13.7668 9.87946 13.7911 9.84016 13.8235C9.80087 13.8558 9.76833 13.8956 9.74441 13.9405C9.72048 13.9854 9.70564 14.0346 9.70073 14.0852C9.69581 14.1359 9.70092 14.187 9.71577 14.2357L10.3501 16.3217C10.3721 16.3949 10.372 16.4729 10.3499 16.546C10.3277 16.6192 10.2844 16.6841 10.2254 16.7326C10.1664 16.7812 10.0944 16.8113 10.0184 16.819C9.94238 16.8268 9.86577 16.8119 9.7982 16.7762L9.02631 16.3664C8.93601 16.3179 8.86857 16.2357 8.83878 16.1376L7.91466 13.1031L7.90298 13.0363L7.07172 13.2879C7.02304 13.3027 6.97777 13.327 6.93848 13.3593C6.89919 13.3917 6.86665 13.4314 6.84272 13.4763C6.8188 13.5212 6.80396 13.5704 6.79904 13.6211C6.79413 13.6717 6.79923 13.7229 6.81408 13.7715L7.05418 14.5596C7.07623 14.6327 7.07615 14.7108 7.05397 14.7839C7.03178 14.857 6.98848 14.9219 6.9295 14.9705C6.87052 15.019 6.7985 15.0491 6.72249 15.0569C6.64648 15.0646 6.56987 15.0497 6.5023 15.0141L6.38971 14.9551C6.29929 14.907 6.19353 14.8967 6.09553 14.9263C5.99752 14.956 5.91525 15.0233 5.86668 15.1134L5.64143 15.5462C5.61735 15.5911 5.60235 15.6403 5.59729 15.6909C5.59223 15.7416 5.59721 15.7928 5.61195 15.8416C5.62669 15.8903 5.65089 15.9357 5.68318 15.9751C5.71547 16.0145 5.75521 16.0471 5.80012 16.0711L5.91081 16.1305C5.97845 16.1667 6.0338 16.2222 6.06985 16.2899C6.1059 16.3577 6.12103 16.4346 6.11332 16.511C6.10561 16.5873 6.0754 16.6596 6.02652 16.7188C5.97765 16.778 5.91231 16.8213 5.83879 16.8433L5.05267 17.083C5.00399 17.0979 4.95871 17.1221 4.91942 17.1545C4.88013 17.1868 4.84759 17.2266 4.82366 17.2715C4.79974 17.3164 4.7849 17.3656 4.77998 17.4163C4.77507 17.4669 4.78018 17.518 4.79502 17.5667L4.93473 18.0281C4.94956 18.0768 4.97385 18.122 5.00619 18.1613C5.03852 18.2006 5.07829 18.2332 5.1232 18.2571C5.16811 18.281 5.2173 18.2959 5.26795 18.3008C5.3186 18.3057 5.36973 18.3006 5.4184 18.2857L8.14855 17.4542C8.24628 17.4242 8.35192 17.434 8.44245 17.4815L9.21467 17.8932C9.28231 17.9294 9.33766 17.985 9.37372 18.0527C9.40977 18.1204 9.4249 18.1974 9.41718 18.2737C9.40947 18.35 9.37926 18.4224 9.33039 18.4815C9.28151 18.5407 9.21617 18.584 9.14265 18.606L7.05501 19.2426C7.00633 19.2574 6.96105 19.2817 6.92176 19.314C6.88247 19.3464 6.84994 19.3861 6.82601 19.431C6.80209 19.476 6.78724 19.5251 6.78233 19.5758C6.77741 19.6264 6.78252 19.6776 6.79737 19.7262L6.93864 20.1854C6.95348 20.2341 6.97776 20.2793 7.0101 20.3186C7.04244 20.3579 7.08221 20.3905 7.12712 20.4144C7.17203 20.4383 7.22122 20.4531 7.27187 20.4581C7.32252 20.463 7.37365 20.4579 7.42232 20.443L11.4521 19.215C11.5508 19.1861 11.6569 19.1965 11.7482 19.2439L12.4964 19.6421C12.5647 19.6781 12.6207 19.7336 12.6572 19.8016C12.6937 19.8695 12.7091 19.9468 12.7014 20.0236C12.6937 20.1004 12.6633 20.1731 12.614 20.2325C12.5647 20.2918 12.4988 20.3351 12.4248 20.3568L9.12835 21.3582C9.03079 21.3881 8.94895 21.4552 8.90059 21.5451C8.85223 21.6349 8.84125 21.7402 8.87004 21.8381L9.00941 22.2975C9.02425 22.3462 9.04853 22.3915 9.08087 22.4308C9.11321 22.4701 9.15297 22.5026 9.19788 22.5265C9.2428 22.5505 9.29198 22.5653 9.34264 22.5702C9.39329 22.5751 9.44441 22.57 9.49309 22.5552L14.7097 20.9721C14.8078 20.9426 14.9136 20.953 15.0039 21.0013L15.789 21.4186C15.8572 21.4546 15.9132 21.5101 15.9497 21.5781C15.9862 21.6461 16.0016 21.7234 15.9939 21.8002C15.9862 21.8769 15.9558 21.9497 15.9065 22.009C15.8572 22.0684 15.7913 22.1117 15.7173 22.1334L15.1923 22.292C15.0951 22.3219 15.0136 22.3887 14.9652 22.4781C14.9168 22.5675 14.9055 22.6723 14.9337 22.77L15.0753 23.231C15.0901 23.2797 15.1144 23.325 15.1468 23.3643C15.1791 23.4036 15.2189 23.4361 15.2638 23.46C15.3087 23.484 15.3579 23.4988 15.4085 23.5037C15.4592 23.5086 15.5103 23.5035 15.559 23.4887L18.0257 22.7367C18.1238 22.7071 18.2296 22.7176 18.3199 22.7658L18.8381 23.041C18.9058 23.0773 18.9611 23.1328 18.9972 23.2005C19.0332 23.2683 19.0484 23.3452 19.0407 23.4216C19.0329 23.4979 19.0027 23.5702 18.9539 23.6294C18.905 23.6886 18.8396 23.7319 18.7661 23.7539L17.0407 24.2798C16.992 24.2947 16.9468 24.319 16.9075 24.3513C16.8682 24.3836 16.8356 24.4234 16.8117 24.4683C16.7878 24.5132 16.773 24.5624 16.768 24.6131C16.7631 24.6637 16.7682 24.7149 16.7831 24.7635L16.9228 25.2249C16.9376 25.2736 16.9619 25.3189 16.9942 25.3582C17.0266 25.3974 17.0663 25.43 17.1113 25.4539C17.1562 25.4778 17.2054 25.4927 17.256 25.4976C17.3067 25.5025 17.3578 25.4974 17.4065 25.4826L21.0759 24.3648C21.174 24.3352 21.2798 24.3457 21.3701 24.394L21.7777 24.6099C21.8579 24.6532 21.9202 24.7235 21.9538 24.8083C21.9873 24.893 21.9899 24.987 21.961 25.0734C21.7495 25.7079 21.732 26.3909 21.9108 27.0353C21.9308 27.1148 21.9252 27.1985 21.8946 27.2745C21.8641 27.3505 21.8103 27.4149 21.7409 27.4584L21.4607 27.6333C21.3731 27.688 21.2677 27.7064 21.1668 27.6847L17.4315 26.8176C17.3314 26.7945 17.2263 26.812 17.1392 26.8664C17.0521 26.9207 16.9901 27.0074 16.9668 27.1074L16.8524 27.5778C16.8293 27.6778 16.8468 27.783 16.9012 27.8701C16.9555 27.9572 17.0422 28.0192 17.1422 28.0425L18.8989 28.4492C18.974 28.4657 19.0424 28.5041 19.0955 28.5596C19.1487 28.6151 19.1841 28.6852 19.1973 28.7609C19.2106 28.8365 19.201 28.9145 19.1699 28.9847C19.1387 29.0549 19.0874 29.1143 19.0224 29.1553L18.5242 29.4667C18.4375 29.5217 18.3324 29.5401 18.2322 29.5178L15.7191 28.9365C15.6191 28.9134 15.514 28.9309 15.4269 28.9852C15.3397 29.0396 15.2777 29.1262 15.2545 29.2262L15.1401 29.6967C15.117 29.7967 15.1345 29.9018 15.1888 29.9889C15.2431 30.076 15.3298 30.138 15.4298 30.1613L15.9628 30.2845C16.0378 30.301 16.1062 30.3394 16.1594 30.3949C16.2125 30.4504 16.2479 30.5205 16.2612 30.5961C16.2744 30.6718 16.2648 30.7497 16.2337 30.82C16.2026 30.8902 16.1512 30.9496 16.0863 30.9906L15.3326 31.4607C15.2458 31.5158 15.1408 31.5341 15.0406 31.5118L9.72845 30.2773C9.62842 30.2542 9.5233 30.2717 9.43619 30.3261C9.34907 30.3804 9.28707 30.4671 9.26381 30.5671L9.1494 31.0375C9.12629 31.1375 9.14382 31.2426 9.19815 31.3298C9.25247 31.4169 9.33915 31.4789 9.43915 31.5021L12.7705 32.2747C12.8455 32.2912 12.9139 32.3296 12.9671 32.3851C13.0202 32.4406 13.0556 32.5107 13.0689 32.5864C13.0821 32.662 13.0725 32.74 13.0414 32.8102C13.0103 32.8804 12.9589 32.9398 12.894 32.9808L12.1738 33.4293C12.0871 33.4844 11.9821 33.5028 11.8818 33.4804L7.78145 32.5277C7.68142 32.5046 7.5763 32.5221 7.48918 32.5764C7.40206 32.6308 7.34007 32.7174 7.3168 32.8174L7.20239 33.2879C7.17928 33.3879 7.19682 33.493 7.25114 33.5801C7.30547 33.6672 7.39215 33.7292 7.49215 33.7525L9.61814 34.2461C9.69264 34.263 9.76049 34.3016 9.81315 34.3569C9.86581 34.4123 9.90092 34.482 9.91408 34.5572C9.92725 34.6325 9.91787 34.71 9.88712 34.7799C9.85638 34.8498 9.80565 34.9091 9.74131 34.9503L8.99996 35.4124C8.91325 35.4675 8.80822 35.4858 8.70796 35.4635L5.9281 34.8187C5.87841 34.807 5.8269 34.8052 5.77652 34.8135C5.72614 34.8217 5.67789 34.8398 5.63453 34.8668C5.59117 34.8937 5.55358 34.929 5.52389 34.9705C5.4942 35.0121 5.47302 35.0591 5.46154 35.1088L5.34714 35.5792C5.32402 35.6793 5.34156 35.7844 5.39588 35.8715C5.45021 35.9586 5.53689 36.0206 5.63689 36.0439L6.43852 36.2302C6.51303 36.2471 6.58088 36.2856 6.63354 36.341C6.6862 36.3963 6.72131 36.466 6.73448 36.5413C6.74764 36.6166 6.73826 36.694 6.70752 36.764C6.67678 36.8339 6.62604 36.8932 6.56169 36.9344L6.45553 37.0021C6.36868 37.0566 6.30696 37.1433 6.28388 37.2432C6.2608 37.3431 6.27824 37.448 6.33238 37.5351L6.58698 37.9449C6.64145 38.0317 6.72812 38.0935 6.82801 38.1165C6.92789 38.1396 7.03285 38.1222 7.11991 38.068L7.22641 38.0022C7.29137 37.9619 7.36681 37.9417 7.44322 37.9442C7.51963 37.9466 7.59361 37.9717 7.65584 38.0161C7.71807 38.0605 7.76576 38.1223 7.79293 38.1938C7.82009 38.2653 7.82551 38.3432 7.8085 38.4177L7.62411 39.219C7.60099 39.319 7.61853 39.4241 7.67285 39.5113C7.72718 39.5984 7.81386 39.6604 7.91386 39.6836L8.38429 39.798C8.48432 39.8212 8.58944 39.8036 8.67656 39.7493C8.76367 39.695 8.82567 39.6083 8.84893 39.5083L9.4937 36.7284C9.51704 36.6286 9.579 36.5421 9.66601 36.4878L10.407 36.0239C10.4721 35.9832 10.5478 35.9628 10.6246 35.9653C10.7013 35.9677 10.7756 35.9929 10.838 36.0376C10.9003 36.0823 10.9481 36.1445 10.975 36.2164C11.002 36.2883 11.007 36.3665 10.9894 36.4413L10.4978 38.5669C10.4746 38.667 10.4922 38.7721 10.5465 38.8592C10.6008 38.9463 10.6875 39.0083 10.7875 39.0316L11.256 39.1463C11.3057 39.158 11.3572 39.1598 11.4076 39.1516C11.458 39.1433 11.5062 39.1252 11.5496 39.0982C11.593 39.0713 11.6306 39.036 11.6602 38.9945C11.6899 38.953 11.7111 38.906 11.7226 38.8562L12.6734 34.7562C12.6849 34.7062 12.7062 34.659 12.736 34.6173C12.7659 34.5756 12.8037 34.5403 12.8473 34.5133L13.5559 34.0668C13.6211 34.0262 13.6968 34.0058 13.7735 34.0082C13.8502 34.0106 13.9245 34.0358 13.9869 34.0805C14.0493 34.1252 14.097 34.1875 14.124 34.2593C14.1509 34.3312 14.1559 34.4095 14.1384 34.4842L13.3658 37.8155C13.3427 37.9155 13.3602 38.0206 13.4146 38.1078C13.4689 38.1949 13.5556 38.2569 13.6556 38.2801L14.126 38.3946C14.226 38.4177 14.3312 38.4001 14.4183 38.3458C14.5054 38.2915 14.5674 38.2048 14.5907 38.1048L15.8255 32.7946C15.8368 32.7449 15.8578 32.6978 15.8873 32.6562C15.9168 32.6146 15.9542 32.5792 15.9975 32.5521L16.7541 32.0539C16.8191 32.0136 16.8945 31.9934 16.9709 31.9959C17.0473 31.9984 17.1213 32.0234 17.1835 32.0678C17.2458 32.1122 17.2935 32.174 17.3206 32.2455C17.3478 32.317 17.3532 32.3949 17.3362 32.4694L17.2115 33.0046C17.2001 33.0542 17.1986 33.1056 17.2072 33.1558C17.2157 33.206 17.234 33.2541 17.2611 33.2972C17.2882 33.3403 17.3235 33.3777 17.365 33.4071C17.4066 33.4366 17.4535 33.4576 17.5031 33.4689L17.9717 33.5836C18.0214 33.5954 18.0729 33.5971 18.1232 33.5889C18.1736 33.5806 18.2219 33.5625 18.2652 33.5356C18.3086 33.5086 18.3462 33.4733 18.3759 33.4318C18.4056 33.3903 18.4268 33.3433 18.4382 33.2935L19.0195 30.7805C19.0428 30.6806 19.1048 30.5941 19.1918 30.5399L19.69 30.2285C19.7552 30.1879 19.8309 30.1675 19.9076 30.1699C19.9843 30.1724 20.0586 30.1975 20.121 30.2422C20.1834 30.287 20.2311 30.3492 20.2581 30.4211C20.285 30.4929 20.29 30.5712 20.2725 30.6459L19.8657 32.4027C19.8426 32.5027 19.8602 32.6078 19.9145 32.6949C19.9688 32.7821 20.0555 32.8441 20.1555 32.8673L20.6259 32.9817C20.726 33.0048 20.8311 32.9873 20.9182 32.933C21.0053 32.8786 21.0673 32.792 21.0906 32.692L21.9602 28.9484C21.9835 28.8485 22.0455 28.762 22.1325 28.7078L22.3949 28.5438C22.4674 28.4992 22.5526 28.4797 22.6373 28.4884C22.722 28.497 22.8015 28.5333 22.8635 28.5917C23.357 29.0492 23.9767 29.3479 24.642 29.449C24.7312 29.4627 24.8127 29.5071 24.8726 29.5746C24.9325 29.642 24.9671 29.7282 24.9702 29.8184L24.9855 30.2543C24.9871 30.3053 24.9788 30.3561 24.9608 30.4038C24.9428 30.4515 24.9156 30.4951 24.8807 30.5323L22.2631 33.3346C22.1931 33.4098 22.1558 33.5096 22.1593 33.6123C22.1629 33.7149 22.2071 33.8119 22.2822 33.882L22.6352 34.2136C22.7103 34.2837 22.8102 34.321 22.9128 34.3174C23.0155 34.3139 23.1125 34.2697 23.1826 34.1946L24.4137 32.8778C24.466 32.8223 24.5336 32.7834 24.608 32.7661C24.6824 32.7488 24.7602 32.7538 24.8317 32.7806C24.9032 32.8074 24.9652 32.8547 25.0099 32.9166C25.0547 32.9785 25.0801 33.0523 25.083 33.1286L25.103 33.7152C25.1068 33.8177 25.0698 33.9175 25.0001 33.9928L23.2384 35.8744C23.1684 35.9495 23.131 36.0494 23.1346 36.152C23.1382 36.2547 23.1823 36.3517 23.2574 36.4218L23.6085 36.7538C23.6834 36.8241 23.7832 36.8619 23.886 36.8587C23.9887 36.8554 24.0859 36.8116 24.1563 36.7367L24.5309 36.3368C24.5832 36.2812 24.6508 36.2423 24.7252 36.225C24.7996 36.2077 24.8774 36.2127 24.9489 36.2395C25.0204 36.2663 25.0824 36.3136 25.1271 36.3756C25.1718 36.4375 25.1972 36.5112 25.2002 36.5875L25.2318 37.4769C25.2339 37.5796 25.1964 37.6791 25.127 37.7549L21.3967 41.7294C21.3263 41.8043 21.2886 41.9041 21.2918 42.0068C21.295 42.1095 21.3389 42.2067 21.4138 42.2771L21.7668 42.6087C21.842 42.6787 21.9418 42.7161 22.0445 42.7125C22.1471 42.7089 22.2441 42.6648 22.3142 42.5897L24.649 40.0827C24.7013 40.0264 24.769 39.987 24.8437 39.9693C24.9183 39.9516 24.9966 39.9565 25.0685 39.9833C25.1403 40.0101 25.2027 40.0577 25.2475 40.1199C25.2923 40.1822 25.3177 40.2564 25.3203 40.3331L25.3484 41.1798C25.3522 41.2823 25.3152 41.3822 25.2455 41.4575L22.3677 44.5374C22.2977 44.6125 22.2604 44.7124 22.2639 44.815C22.2675 44.9177 22.3117 45.0147 22.3867 45.0848L22.7398 45.4164C22.8149 45.4864 22.9148 45.5238 23.0174 45.5202C23.12 45.5166 23.2171 45.4725 23.2872 45.3974L24.7785 43.803C24.8307 43.7468 24.8984 43.7073 24.9731 43.6896C25.0478 43.6719 25.126 43.6768 25.1979 43.7036C25.2698 43.7304 25.3321 43.778 25.3769 43.8403C25.4218 43.9025 25.4471 43.9767 25.4497 44.0534L25.4787 44.9275C25.4804 44.9785 25.472 45.0293 25.454 45.077C25.436 45.1247 25.4088 45.1683 25.3739 45.2055L23.4252 47.289C23.3552 47.3641 23.3179 47.464 23.3215 47.5666C23.325 47.6693 23.3692 47.7663 23.4443 47.8364L23.7973 48.168C23.8724 48.238 23.9723 48.2754 24.075 48.2718C24.1776 48.2682 24.2746 48.2241 24.3447 48.149L24.9066 47.5492C24.9589 47.4936 25.0265 47.4547 25.1009 47.4374C25.1753 47.4201 25.2531 47.4251 25.3246 47.4519C25.3961 47.4787 25.4581 47.526 25.5028 47.5879C25.5476 47.6499 25.573 47.7236 25.5759 47.7999L25.5801 47.925C25.5818 47.976 25.5936 48.0262 25.6147 48.0726C25.6358 48.119 25.6659 48.1608 25.7033 48.1956C25.7406 48.2304 25.7844 48.2574 25.8322 48.2752C25.88 48.293 25.9309 48.3012 25.9819 48.2993L26.4631 48.284C26.514 48.2823 26.5642 48.2705 26.6106 48.2494C26.657 48.2282 26.6989 48.1981 26.7336 48.1608C26.7684 48.1235 26.7954 48.0796 26.8132 48.0318C26.831 47.984 26.8392 47.9332 26.8373 47.8822L26.8331 47.757C26.8307 47.6807 26.851 47.6054 26.8913 47.5405C26.9315 47.4756 26.9901 47.4241 27.0596 47.3924C27.1291 47.3607 27.2064 47.3503 27.2818 47.3624C27.3572 47.3745 27.4273 47.4086 27.4834 47.4604L28.0851 48.0219C28.1223 48.0573 28.1662 48.0849 28.2142 48.1032C28.2622 48.1215 28.3133 48.13 28.3646 48.1284C28.4159 48.1267 28.4664 48.1149 28.5131 48.0936C28.5598 48.0722 28.6018 48.0418 28.6367 48.0041ZM23.03 25.7086C23.0332 25.6674 23.042 25.6269 23.0561 25.588C24.0659 23.0512 27.4696 23.8327 27.2567 26.5626C27.2539 26.6032 27.245 26.6433 27.2302 26.6813C26.2224 29.2296 22.8094 28.4399 23.03 25.7086Z" fill="white"/>
</svg>
