<svg width="30" height="28" viewBox="0 0 30 28" fill="none" xmlns="http://www.w3.org/2000/svg">
<path d="M28.9903 12.1364C28.8161 10.8874 29.2849 9.7618 30.0001 8.78544C29.8893 8.68912 29.7793 8.59279 29.668 8.49687C29.4564 8.31497 29.2435 8.13466 29.0302 7.95396C28.984 8.04382 28.9078 8.11467 28.8147 8.15416C28.7216 8.19366 28.6175 8.19929 28.5207 8.17009C28.1113 8.06262 28.1025 7.59096 28.3321 7.36329C28.0499 7.12447 27.7679 6.88566 27.4862 6.64684C27.4402 6.73725 27.3639 6.80862 27.2705 6.84843C27.1771 6.88824 27.0727 6.89395 26.9755 6.86456C26.5637 6.75669 26.5577 6.27946 26.7921 6.05338C26.5657 5.85835 26.3398 5.66186 26.1144 5.4639C26.0649 5.54604 25.9893 5.60929 25.8997 5.64362C25.81 5.67795 25.7115 5.68138 25.6197 5.65336C25.211 5.54629 25.2015 5.07583 25.4299 4.84736L25.4072 4.82706C25.1735 4.61186 24.9391 4.39639 24.7039 4.18066C22.9399 5.282 20.8624 5.19842 18.9532 4.43381C17.8561 5.15543 16.7379 5.94313 15.6089 6.80406C11.291 10.1013 7.44745 13.9753 4.18607 18.3174C4.26261 18.397 4.35191 18.471 4.40772 18.5646C4.53609 18.7775 4.61901 19.0486 4.6828 19.2854C4.81416 19.7875 4.86952 20.3065 4.84705 20.825C4.81595 21.6409 4.61542 22.4883 4.17969 23.1876C4.39656 23.3909 4.61409 23.5944 4.83229 23.7982C4.88712 23.7387 4.9577 23.6959 5.03587 23.6748C5.11404 23.6537 5.1966 23.6551 5.27401 23.6788C5.65154 23.7779 5.68742 24.1871 5.51042 24.4287L5.65792 24.5656C5.86443 24.7567 6.07053 24.9449 6.27664 25.1344C6.33063 25.0706 6.40216 25.0241 6.48238 25.0006C6.56259 24.977 6.64796 24.9774 6.72793 25.0019C7.10984 25.1018 7.14213 25.5193 6.95875 25.7581C7.25721 26.0304 7.55555 26.3017 7.85374 26.5721C7.90539 26.4972 7.97965 26.4406 8.06569 26.4108C8.15174 26.3809 8.24509 26.3793 8.33214 26.4061C8.7308 26.51 8.74874 26.9566 8.54024 27.1914C8.84162 27.4626 9.14288 27.7322 9.444 28.0002C10.7624 26.6437 13.5339 26.7631 15.0651 27.7041C19.3166 22.4478 24.2184 17.7509 29.6533 13.7257C29.2742 13.3229 29.074 12.7371 28.9903 12.1364Z" fill="#17F0FF"/>
<path d="M28.2815 13.4394C28.2852 13.4329 28.2883 13.4261 28.2907 13.4191C28.2939 13.4123 28.2966 13.4052 28.2986 13.398C28.2992 13.3906 28.2992 13.3831 28.2986 13.3757C28.2994 13.3682 28.2994 13.3606 28.2986 13.353C28.2969 13.3455 28.2943 13.3383 28.2907 13.3315C28.2891 13.3254 28.287 13.3194 28.2843 13.3136C27.8857 12.6589 27.6937 11.8996 27.7333 11.1344C27.7725 10.4808 27.9816 9.84861 28.3401 9.3003C28.3426 9.29514 28.3447 9.28982 28.3465 9.28438C28.35 9.27753 28.3528 9.27032 28.3548 9.26289C28.3564 9.25556 28.3572 9.24809 28.3572 9.2406C28.3578 9.23305 28.3578 9.22546 28.3572 9.21791C28.3557 9.21072 28.3535 9.20367 28.3509 9.19681C28.3487 9.18962 28.3458 9.18268 28.3421 9.17612C28.3377 9.16958 28.3328 9.16345 28.3273 9.15781C28.3234 9.15383 28.3214 9.14865 28.3166 9.14507L24.2104 5.75826C24.2072 5.75622 24.2039 5.75449 24.2004 5.75308C24.1941 5.7486 24.1873 5.74486 24.1801 5.74194C24.1729 5.73878 24.1654 5.73638 24.1577 5.73477C24.151 5.73352 24.1442 5.73285 24.1374 5.73278C24.129 5.73264 24.1206 5.7333 24.1123 5.73477C24.1087 5.73477 24.1055 5.73477 24.1019 5.73477C23.3825 5.94454 22.6361 6.04767 21.8866 6.04086C20.9644 6.03179 20.0514 5.85649 19.1916 5.52342C19.1879 5.52323 19.1842 5.52323 19.1805 5.52342C19.172 5.52093 19.1633 5.51946 19.1546 5.51904H19.1358C19.1273 5.52023 19.1189 5.52223 19.1107 5.52501C19.104 5.52731 19.0975 5.53011 19.0912 5.53337C19.0876 5.53536 19.0836 5.53616 19.08 5.53855C14.0308 9.10852 9.46193 13.3115 5.4857 18.0442C5.48287 18.0485 5.48034 18.053 5.47812 18.0577C5.47349 18.0644 5.46962 18.0716 5.46656 18.0792C5.46404 18.0861 5.4623 18.0933 5.46138 18.1007C5.45999 18.108 5.45919 18.1155 5.45898 18.123C5.45953 18.131 5.46087 18.139 5.46297 18.1468C5.46297 18.152 5.46297 18.1568 5.46536 18.162C5.69232 18.7606 5.82506 19.3907 5.85884 20.0299C5.89917 20.7866 5.80012 21.5442 5.56662 22.2652C5.56623 22.2705 5.56623 22.2759 5.56662 22.2812C5.56419 22.2901 5.56312 22.2994 5.56343 22.3086C5.56422 22.3159 5.56583 22.3232 5.56822 22.3301C5.56973 22.3377 5.57187 22.3452 5.5746 22.3524C5.57905 22.3601 5.58426 22.3673 5.59014 22.3739C5.5932 22.3787 5.59653 22.3834 5.60011 22.3878L9.63415 26.1345L9.63774 26.1368L9.64372 26.1412C9.65546 26.1508 9.66903 26.1578 9.68359 26.1619C9.69494 26.1646 9.70664 26.1656 9.71827 26.1647C9.72212 26.1651 9.72599 26.1651 9.72983 26.1647C9.73861 26.1636 9.74719 26.1614 9.75535 26.1579H9.76173C10.527 25.8043 11.3655 25.6373 12.2081 25.6705C13.0507 25.7038 13.8733 25.9365 14.6082 26.3494C14.613 26.3513 14.618 26.3529 14.623 26.3542C14.6273 26.3565 14.6316 26.3587 14.6361 26.3605C14.6401 26.3605 14.6441 26.3605 14.6481 26.3605H14.6577C14.6704 26.3618 14.6832 26.3609 14.6955 26.3577H14.6983C14.7121 26.354 14.7249 26.3477 14.7362 26.339C14.7386 26.339 14.7402 26.3351 14.7426 26.3335C14.7482 26.3289 14.7535 26.324 14.7585 26.3187C18.659 21.451 23.1978 17.1295 28.2528 13.4704C28.258 13.4664 28.2608 13.4613 28.2655 13.4569C28.2713 13.4515 28.2766 13.4456 28.2815 13.4394ZM20.164 19.9929C18.2027 21.9179 16.3566 23.9566 14.6353 26.0982C13.8881 25.6942 13.0578 25.467 12.2087 25.4342C11.3595 25.4013 10.5141 25.5637 9.73781 25.9088L5.8122 22.2652C6.03857 21.5387 6.134 20.7778 6.09405 20.018C6.05977 19.3781 5.93011 18.7469 5.70934 18.1453C9.64934 13.4638 14.1721 9.30395 19.1677 5.76662C19.4264 5.86455 19.69 5.94891 19.9575 6.01936C20.5866 6.1843 21.2338 6.27067 21.8842 6.27649C22.6352 6.28328 23.3833 6.18303 24.1059 5.97876L28.0858 9.2605C27.7388 9.82259 27.5368 10.4618 27.4977 11.1209C27.4571 11.8972 27.6412 12.6688 28.0279 13.3435C25.2467 15.3642 22.6183 17.5867 20.164 19.9929Z" fill="#383630"/>
<path opacity="0.3" d="M9.4292 12.2433L16.7729 25.6639C17.0568 25.3362 17.3475 25.006 17.6452 24.6733L10.3465 11.335C10.034 11.6383 9.72819 11.941 9.4292 12.2433Z" fill="#97FDFF"/>
<path opacity="0.3" d="M11.3052 10.4286L18.5544 23.6749C19.6731 22.4661 20.8798 21.2354 22.1842 19.9971L15.157 7.15479C13.7729 8.23185 12.4908 9.32881 11.3052 10.4286Z" fill="#97FDFF"/>
<g style="mix-blend-mode:multiply">
<path d="M23.0826 7.58982C22.7094 6.69585 22.7238 5.77641 22.9494 4.88762C21.6418 5.16146 20.2597 4.95727 18.9556 4.43506C17.8585 5.15668 16.7403 5.94438 15.6113 6.80531C11.2927 10.1019 7.4483 13.9754 4.18607 18.317C4.26261 18.3966 4.35191 18.4707 4.40772 18.5642C4.53609 18.7772 4.61901 19.0482 4.6828 19.285C4.81416 19.7872 4.86952 20.3061 4.84705 20.8246C4.81595 21.6406 4.61542 22.488 4.17969 23.1873C4.39656 23.3906 4.61409 23.5941 4.83229 23.7979C4.88712 23.7384 4.9577 23.6956 5.03587 23.6744C5.11404 23.6533 5.1966 23.6547 5.27401 23.6785C5.65154 23.7776 5.68742 24.1867 5.51042 24.4283L5.65792 24.5653C5.86443 24.7563 6.07053 24.9446 6.27664 25.134C6.33063 25.0703 6.40216 25.0238 6.48238 25.0002C6.56259 24.9766 6.64797 24.9771 6.72793 25.0015C7.10984 25.1014 7.14213 25.5189 6.95875 25.7578C7.25721 26.03 7.55555 26.3013 7.85374 26.5717C7.90539 26.4968 7.97965 26.4403 8.06569 26.4104C8.15174 26.3806 8.24509 26.3789 8.33214 26.4057C8.7308 26.5096 8.74874 26.9562 8.54024 27.1911L8.65505 27.2937C9.82751 26.1044 12.0712 25.7203 13.5665 26.1745C13.8233 25.6048 14.0937 25.0243 14.3778 24.4331C14.4804 24.2208 14.5846 24.0063 14.6904 23.7895V23.7859C14.7967 23.5697 14.9049 23.3521 15.0149 23.1332C15.2323 22.7009 15.4567 22.2644 15.6882 21.8237C15.7749 21.6589 15.8627 21.4936 15.9517 21.3277L16.0183 21.2027C16.0999 21.0507 16.1827 20.8981 16.2667 20.745C16.297 20.6888 16.3275 20.6326 16.3584 20.5766C16.4381 20.4294 16.5198 20.2816 16.6035 20.1332L16.7064 19.9494C16.7885 19.8023 16.8716 19.6551 16.9556 19.5075L17.0596 19.3252C17.1463 19.1745 17.2334 19.0233 17.3211 18.8715C17.3498 18.8221 17.3793 18.772 17.4084 18.7226C17.7401 18.1543 18.0842 17.5811 18.4406 17.0032C18.7462 16.5083 19.0616 16.0102 19.3866 15.509C20.8551 13.2474 22.4371 11.0615 24.1267 8.95943C23.6578 8.66569 23.315 8.14825 23.0826 7.58982Z" fill="#129396"/>
</g>
<path d="M22.4235 6.60924C21.9375 5.44541 22.1045 4.2374 22.5486 3.11177C22.4171 3.04729 22.2859 2.98162 22.1544 2.91714C21.9032 2.79455 21.6513 2.67395 21.3997 2.55334C21.3778 2.65203 21.3219 2.73993 21.2418 2.80168C21.1617 2.86344 21.0623 2.89515 20.9612 2.89127C20.5382 2.89127 20.4098 2.43712 20.5737 2.1585C20.2404 1.99929 19.9071 1.84008 19.5738 1.68087C19.5525 1.78 19.4968 1.86844 19.4166 1.93062C19.3364 1.9928 19.2368 2.02473 19.1353 2.02078C18.7095 2.02078 18.5828 1.56066 18.7518 1.28284C18.4831 1.15017 18.2152 1.01749 17.9481 0.884814C17.9211 0.976914 17.8641 1.05738 17.7861 1.11341C17.7081 1.16945 17.6136 1.19784 17.5175 1.19408C17.0954 1.19408 16.9666 0.741126 17.1292 0.462507L17.1025 0.448576C16.8235 0.29852 16.5404 0.148464 16.2582 0C14.8302 1.5125 12.8006 1.9571 10.7598 1.70157C9.88279 2.67713 9.00016 3.72195 8.12869 4.8408C4.78831 9.12299 2.05316 13.8432 0 18.8689C0.0944825 18.927 0.19933 18.9759 0.279062 19.052C0.457264 19.2255 0.605964 19.4667 0.728353 19.6796C0.981897 20.1325 1.16638 20.6205 1.27571 21.1277C1.45272 21.9237 1.47504 22.795 1.23027 23.5819L2.01682 24.007C2.05473 23.9351 2.11236 23.8755 2.18295 23.8351C2.25355 23.7947 2.3342 23.7752 2.41548 23.7789C2.80577 23.7789 2.94451 24.1658 2.83448 24.4444C2.89388 24.4763 2.95407 24.5081 3.01188 24.5396C3.26025 24.6721 3.50742 24.8019 3.75498 24.9328C3.79108 24.8575 3.84849 24.7944 3.92013 24.7513C3.99176 24.7082 4.07447 24.6871 4.15803 24.6904C4.5527 24.6904 4.68984 25.0853 4.57343 25.3647C4.93143 25.5523 5.28903 25.7391 5.64623 25.9251C5.6773 25.8396 5.7348 25.7663 5.81042 25.7156C5.88603 25.6649 5.97583 25.6396 6.06682 25.6433C6.47704 25.6433 6.60939 26.0708 6.46548 26.3502C6.82587 26.5359 7.18572 26.7205 7.54505 26.9038C8.47552 25.258 11.1868 24.6717 12.907 25.1923C15.6843 19.0314 19.2328 13.2469 23.4676 7.97726C22.9991 7.6851 22.6567 7.16767 22.4235 6.60924Z" fill="#17F0FF"/>
<path d="M22.0685 8.04924C22.0705 8.04209 22.0717 8.03475 22.0721 8.02734C22.0737 8.01989 22.0745 8.01228 22.0745 8.00466C22.0717 7.98997 22.0679 7.97548 22.0633 7.96127C22.0593 7.95457 22.0547 7.94818 22.0497 7.94217C22.0466 7.93672 22.043 7.93153 22.039 7.92664C21.4871 7.3944 21.1085 6.70853 20.9526 5.9584C20.8241 5.31625 20.8653 4.65177 21.0722 4.03036C21.0728 4.0248 21.0728 4.0192 21.0722 4.01364C21.074 4.00607 21.0751 3.99834 21.0754 3.99056C21.0748 3.98317 21.0736 3.97585 21.0718 3.96866C21.0705 3.96116 21.0684 3.95382 21.0655 3.94677C21.0624 3.94019 21.0586 3.93392 21.0543 3.92807C21.0502 3.92167 21.0455 3.91567 21.0403 3.91015C21.0346 3.90485 21.0283 3.90018 21.0216 3.89622C21.0173 3.89256 21.0128 3.88923 21.008 3.88627L16.1783 1.65016C16.1747 1.64917 16.1711 1.64837 16.1675 1.64777C16.1602 1.64512 16.1525 1.64325 16.1448 1.6422C16.1371 1.6414 16.1294 1.6414 16.1217 1.6422C16.1148 1.64267 16.108 1.64374 16.1013 1.64538C16.0931 1.64739 16.0851 1.65019 16.0774 1.65374C16.0742 1.65476 16.071 1.65595 16.0678 1.65732C15.4252 2.04175 14.7296 2.33007 14.0032 2.51308C13.109 2.73835 12.1815 2.80051 11.2652 2.69657C11.2615 2.69637 11.2577 2.69637 11.254 2.69657C11.2453 2.69638 11.2366 2.69718 11.2281 2.69896C11.2221 2.70026 11.2163 2.70199 11.2106 2.70413C11.2026 2.70731 11.195 2.71132 11.1878 2.71607C11.1819 2.72001 11.1763 2.7244 11.1711 2.72921C11.1683 2.73199 11.1643 2.73359 11.1615 2.73677C7.18338 7.46848 3.83107 12.6912 1.18704 18.2765C1.1853 18.2815 1.18396 18.2865 1.18306 18.2917C1.18036 18.2993 1.17849 18.3071 1.17748 18.3151C1.17666 18.33 1.17801 18.3449 1.18146 18.3593C1.18387 18.3671 1.18721 18.3746 1.19143 18.3816C1.19308 18.3864 1.19508 18.3911 1.19741 18.3955C1.56887 18.9172 1.85732 19.493 2.05254 20.1027C2.28354 20.8246 2.38015 21.5826 2.33758 22.3392C2.33795 22.3444 2.33875 22.3496 2.33997 22.3547C2.34026 22.364 2.3416 22.3732 2.34396 22.3822C2.34677 22.389 2.35024 22.3955 2.35432 22.4017C2.35739 22.4087 2.36127 22.4154 2.36588 22.4216C2.37201 22.4279 2.37883 22.4335 2.38621 22.4383C2.39045 22.4423 2.39498 22.4461 2.39977 22.4495L7.25545 25.051H7.25944L7.26622 25.0533C7.28039 25.0597 7.29573 25.0631 7.31127 25.0633C7.32294 25.0632 7.33452 25.0611 7.34555 25.0573C7.34923 25.0561 7.35283 25.0546 7.35632 25.0529C7.36451 25.0496 7.37227 25.0454 7.37944 25.0402C7.37944 25.0402 7.38342 25.0402 7.38542 25.0366C8.03646 24.5019 8.80539 24.1292 9.62891 23.9491C10.4524 23.7691 11.307 23.7868 12.1223 24.001C12.1273 24.0014 12.1324 24.0014 12.1375 24.001C12.1421 24.0024 12.1469 24.0035 12.1518 24.0041C12.1558 24.0039 12.1599 24.0032 12.1638 24.0022C12.1668 24.0025 12.1699 24.0025 12.1729 24.0022C12.1857 24 12.1979 23.9957 12.2092 23.9894H12.2116C12.224 23.9825 12.2348 23.9732 12.2435 23.962C12.2452 23.9597 12.2468 23.9573 12.2483 23.9548C12.2526 23.949 12.2565 23.9429 12.2598 23.9365C14.7959 18.2386 18.0883 12.9074 22.0485 8.08625C22.0519 8.08108 22.0549 8.07562 22.0573 8.06993C22.0616 8.06334 22.0653 8.05642 22.0685 8.04924ZM15.8809 16.444C14.4729 18.8027 13.2052 21.242 12.0844 23.7494C11.2592 23.548 10.3987 23.5387 9.5692 23.7219C8.73975 23.9052 7.96355 24.2763 7.3005 24.8066L2.57598 22.2763C2.61018 21.5161 2.50909 20.756 2.27738 20.031C2.08181 19.4208 1.79615 18.8432 1.42983 18.3171C4.05132 12.7909 7.3694 7.62177 11.3035 2.93539C11.5785 2.96436 11.8549 2.97911 12.1315 2.97957C12.7821 2.97993 13.4302 2.89971 14.061 2.74075C14.789 2.55696 15.487 2.27056 16.134 1.89017L20.8171 4.05703C20.6242 4.68922 20.591 5.35926 20.7206 6.00736C20.8784 6.76839 21.252 7.46807 21.797 8.02297C19.6207 10.6813 17.6434 13.4959 15.8809 16.444Z" fill="#383630"/>
<path opacity="0.3" d="M5.42188 8.60461L13.7208 23.451C13.9265 23.0227 14.1391 22.5894 14.3586 22.1511L6.16857 7.50049C5.91263 7.86959 5.66373 8.23763 5.42188 8.60461Z" fill="#97FDFF"/>
<path opacity="0.3" d="M8.12683 4.84097C7.72179 5.35974 7.33137 5.87717 6.95557 6.39328L15.0316 20.8417C15.8513 19.2826 16.7646 17.6706 17.7824 16.0212L10.1588 2.38037C9.48028 3.15812 8.80296 3.97832 8.12683 4.84097Z" fill="#97FDFF"/>
<path d="M8.36397 16.1201L8.06338 16.5902C8.04622 16.6232 8.01671 16.6481 7.98125 16.6594C7.96302 16.6618 7.9445 16.6605 7.92678 16.6557C7.90905 16.6508 7.89247 16.6425 7.878 16.6312L5.84284 15.3332C5.82643 15.3248 5.81186 15.3132 5.79995 15.2991C5.78805 15.285 5.77905 15.2688 5.77347 15.2512C5.76906 15.2145 5.77922 15.1775 5.80177 15.1481L6.01067 14.8221C6.03201 14.7865 6.06068 14.7559 6.09479 14.7322C6.13121 14.7102 6.17206 14.6966 6.21439 14.6924L7.30034 14.528L6.63139 14.1013C6.61415 14.0942 6.59891 14.083 6.58697 14.0687C6.57503 14.0544 6.56674 14.0374 6.56282 14.0192C6.5589 14.001 6.55946 13.9821 6.56446 13.9642C6.56946 13.9462 6.57874 13.9298 6.59152 13.9162L6.89251 13.4458C6.9093 13.4134 6.93781 13.3886 6.97224 13.3765C7.00922 13.3721 7.04647 13.3824 7.07589 13.4052L9.11106 14.7031C9.12835 14.7102 9.14367 14.7213 9.15567 14.7356C9.16767 14.7499 9.176 14.7669 9.17992 14.7852C9.18385 14.8034 9.18326 14.8223 9.17821 14.8403C9.17316 14.8582 9.16379 14.8747 9.15092 14.8882L8.85033 15.3575C8.84325 15.3747 8.83209 15.3899 8.8178 15.4018C8.80351 15.4138 8.78653 15.422 8.76833 15.426C8.75012 15.4299 8.73123 15.4293 8.71329 15.4243C8.69535 15.4193 8.6789 15.41 8.66535 15.3973L8.27905 15.1509L7.28559 15.2723L8.32211 15.9334C8.3394 15.9405 8.35472 15.9516 8.36672 15.9659C8.37872 15.9802 8.38705 15.9972 8.39098 16.0155C8.3949 16.0337 8.39431 16.0526 8.38926 16.0706C8.38421 16.0885 8.37484 16.105 8.36197 16.1185L8.36397 16.1201Z" fill="black"/>
<path d="M10.1835 13.2757L9.85859 13.7836C9.85153 13.8009 9.84035 13.8162 9.82603 13.8281C9.81172 13.8401 9.79469 13.8484 9.77642 13.8524C9.75816 13.8563 9.73921 13.8557 9.72122 13.8506C9.70324 13.8456 9.68675 13.8362 9.67321 13.8234L8.13239 12.8407L7.83738 13.3016C7.82086 13.3342 7.79225 13.359 7.75765 13.3708C7.72073 13.3753 7.68352 13.3652 7.65399 13.3426L7.27407 13.1002C7.25677 13.0931 7.24146 13.082 7.22946 13.0677C7.21746 13.0534 7.20913 13.0364 7.2052 13.0181C7.20127 12.9999 7.20186 12.981 7.20692 12.963C7.21197 12.9451 7.22134 12.9286 7.23421 12.9151L8.29345 11.2593C8.3005 11.242 8.31168 11.2268 8.326 11.2148C8.34031 11.2028 8.35734 11.1945 8.37561 11.1906C8.39388 11.1866 8.41282 11.1872 8.43081 11.1923C8.4488 11.1973 8.46528 11.2067 8.47882 11.2195L8.85875 11.4619C8.87604 11.469 8.89136 11.4801 8.90336 11.4944C8.91536 11.5087 8.92369 11.5257 8.92761 11.5439C8.93154 11.5622 8.93095 11.5811 8.9259 11.5991C8.92085 11.617 8.91148 11.6335 8.89861 11.647L8.6036 12.1079L10.1456 13.0914C10.162 13.0998 10.1766 13.1113 10.1885 13.1253C10.2004 13.1393 10.2094 13.1555 10.215 13.173C10.2185 13.2101 10.2072 13.247 10.1835 13.2757Z" fill="black"/>
<path d="M11.2023 11.6855L10.8913 12.1719C10.8743 12.2048 10.8449 12.2295 10.8096 12.2408C10.7914 12.2432 10.7729 12.2419 10.7551 12.2371C10.7374 12.2322 10.7208 12.2239 10.7064 12.2125L8.6732 10.9145C8.65596 10.9074 8.64072 10.8962 8.62878 10.8819C8.61684 10.8676 8.60855 10.8507 8.60463 10.8324C8.60071 10.8142 8.60127 10.7954 8.60627 10.7774C8.61127 10.7595 8.62055 10.743 8.63333 10.7295L9.52832 9.3308C9.53546 9.31359 9.54666 9.29838 9.56099 9.28645C9.57531 9.27453 9.59232 9.26625 9.61055 9.26234C9.62878 9.25842 9.6477 9.25898 9.66566 9.26398C9.68363 9.26897 9.70011 9.27824 9.7137 9.29099L10.0872 9.52981C10.1045 9.53686 10.1199 9.54801 10.1319 9.56231C10.1439 9.57661 10.1522 9.59361 10.1561 9.61185C10.16 9.63008 10.1595 9.649 10.1544 9.66696C10.1493 9.68491 10.14 9.70137 10.1271 9.71489L9.61164 10.5133L9.93814 10.7215L10.2874 10.1758C10.2944 10.1585 10.3056 10.1432 10.3199 10.1313C10.3342 10.1193 10.3513 10.111 10.3695 10.107C10.3878 10.1031 10.4067 10.1037 10.4247 10.1088C10.4427 10.1138 10.4592 10.1232 10.4727 10.136L10.8495 10.3748C10.8659 10.3832 10.8804 10.3947 10.8923 10.4087C10.9042 10.4227 10.9132 10.4389 10.9188 10.4564C10.9233 10.4932 10.9131 10.5302 10.8905 10.5595L10.5413 11.1048L11.16 11.5028C11.1773 11.5098 11.1926 11.5209 11.2047 11.5352C11.2167 11.5495 11.225 11.5664 11.2289 11.5846C11.2329 11.6028 11.2323 11.6217 11.2272 11.6397C11.2222 11.6576 11.2128 11.674 11.1999 11.6875L11.2023 11.6855Z" fill="black"/>
<path d="M12.7276 9.29961L12.0937 10.2907C12.0866 10.308 12.0755 10.3233 12.0612 10.3352C12.0468 10.3472 12.0298 10.3555 12.0115 10.3595C11.9933 10.3634 11.9743 10.3628 11.9563 10.3577C11.9384 10.3527 11.9219 10.3434 11.9083 10.3305L11.5408 10.0961C11.5083 10.0795 11.4835 10.051 11.4718 10.0165C11.4694 9.99826 11.4707 9.97977 11.4755 9.96206C11.4804 9.94436 11.4887 9.9278 11.5001 9.91337L12.0395 9.06836C12.0479 9.05712 12.0535 9.04398 12.0556 9.0301C12.0578 9.01622 12.0565 9.00202 12.0518 8.98876C12.0423 8.96303 12.0241 8.94138 12.0004 8.92746C11.974 8.90756 11.9418 8.89705 11.9087 8.89761C11.8952 8.89972 11.8822 8.90464 11.8707 8.91204C11.8592 8.91944 11.8493 8.92917 11.8417 8.94059L11.4746 9.36887C11.3786 9.48933 11.2501 9.5798 11.1042 9.62958C10.9713 9.67044 10.8173 9.63475 10.6422 9.52251L10.3129 9.31394C10.1351 9.20064 10.0353 9.05602 10.0135 8.88009C9.9917 8.70417 10.0457 8.51484 10.1753 8.31211L10.7375 7.43406C10.7546 7.40122 10.7839 7.37637 10.8192 7.36481C10.8374 7.36257 10.856 7.36396 10.8737 7.36887C10.8914 7.37379 10.908 7.38215 10.9224 7.39346L11.2964 7.63228C11.3137 7.63933 11.329 7.65048 11.341 7.66478C11.353 7.67907 11.3613 7.69608 11.3652 7.71431C11.3692 7.73255 11.3686 7.75147 11.3635 7.76942C11.3585 7.78738 11.3491 7.80384 11.3362 7.81736L10.869 8.54774C10.8607 8.55905 10.8552 8.57213 10.8528 8.58595C10.8505 8.59976 10.8514 8.61394 10.8555 8.62735C10.8649 8.65476 10.8839 8.67791 10.9089 8.69262C10.9334 8.70917 10.9627 8.71689 10.9922 8.71451C11.0065 8.71304 11.0203 8.70847 11.0326 8.70111C11.0449 8.69375 11.0555 8.68379 11.0636 8.67193L11.4251 8.24484C11.5218 8.12442 11.6504 8.03353 11.7963 7.98254C11.9292 7.94088 12.0836 7.97604 12.2595 8.08802L12.5892 8.29858C12.7673 8.41215 12.8668 8.55729 12.8878 8.73402C12.9088 8.91074 12.8554 9.09927 12.7276 9.29961Z" fill="black"/>
<path d="M11.1795 20.0128L10.8546 20.5207C10.8476 20.538 10.8364 20.5533 10.8221 20.5652C10.8077 20.5772 10.7907 20.5855 10.7724 20.5895C10.7542 20.5934 10.7352 20.5928 10.7172 20.5877C10.6993 20.5827 10.6828 20.5733 10.6692 20.5605L9.12921 19.5778L8.8342 20.0391C8.81716 20.0719 8.78777 20.0967 8.75247 20.1079C8.73425 20.1103 8.71572 20.1091 8.69799 20.1042C8.68026 20.0994 8.66368 20.091 8.64922 20.0797L8.2689 19.8373C8.25167 19.8302 8.23643 19.819 8.22448 19.8047C8.21254 19.7904 8.20425 19.7734 8.20033 19.7552C8.19641 19.737 8.19697 19.7181 8.20197 19.7002C8.20697 19.6822 8.21626 19.6658 8.22903 19.6522L9.28827 17.9968C9.29541 17.9796 9.30662 17.9644 9.32094 17.9525C9.33526 17.9405 9.35227 17.9323 9.3705 17.9284C9.38874 17.9244 9.40765 17.925 9.42561 17.93C9.44358 17.935 9.46007 17.9443 9.47365 17.957L9.85357 18.1994C9.87081 18.2065 9.88605 18.2177 9.89799 18.232C9.90994 18.2463 9.91822 18.2633 9.92214 18.2815C9.92607 18.2997 9.9255 18.3186 9.9205 18.3365C9.9155 18.3545 9.90622 18.3709 9.89344 18.3845L9.59843 18.8454L11.1405 19.8289C11.1577 19.836 11.1731 19.8471 11.1851 19.8614C11.1971 19.8757 11.2054 19.8927 11.2093 19.911C11.2132 19.9292 11.2127 19.9481 11.2076 19.9661C11.2026 19.984 11.1932 20.0005 11.1803 20.014L11.1795 20.0128Z" fill="black"/>
<path d="M11.8536 18.9593C11.8466 18.9766 11.8355 18.9919 11.8212 19.0039C11.8069 19.0159 11.7899 19.0242 11.7717 19.0281C11.7534 19.032 11.7345 19.0314 11.7165 19.0264C11.6986 19.0213 11.6821 19.012 11.6686 18.9991L11.2947 18.7603C11.2774 18.7533 11.2621 18.7422 11.2501 18.728C11.2381 18.7137 11.2297 18.6967 11.2258 18.6785C11.2219 18.6603 11.2225 18.6414 11.2275 18.6235C11.2326 18.6055 11.2419 18.5891 11.2548 18.5756L11.4541 18.2652L10.3973 17.5929L10.198 17.9034C10.1909 17.9206 10.1797 17.9359 10.1654 17.9479C10.1511 17.9599 10.1341 17.9682 10.1158 17.9721C10.0975 17.9761 10.0786 17.9755 10.0606 17.9704C10.0426 17.9654 10.0261 17.956 10.0126 17.9432L9.63267 17.7008C9.61544 17.6937 9.6002 17.6825 9.58825 17.6682C9.57631 17.6539 9.56802 17.6369 9.5641 17.6187C9.56018 17.6005 9.56074 17.5816 9.56574 17.5637C9.57074 17.5457 9.58003 17.5293 9.5928 17.5157L10.4475 16.1799C10.4547 16.1627 10.4659 16.1475 10.4802 16.1356C10.4945 16.1236 10.5115 16.1154 10.5298 16.1115C10.548 16.1075 10.5669 16.1081 10.5849 16.1131C10.6028 16.1181 10.6193 16.1274 10.6329 16.1401L11.0128 16.3825C11.0301 16.3896 11.0454 16.4007 11.0574 16.415C11.0694 16.4293 11.0778 16.4463 11.0817 16.4645C11.0856 16.4828 11.085 16.5017 11.08 16.5197C11.0749 16.5376 11.0656 16.5541 11.0527 16.5676L10.8582 16.8717L11.9134 17.5448L12.1084 17.2407C12.1167 17.2243 12.1283 17.2098 12.1423 17.1979C12.1563 17.186 12.1726 17.177 12.1901 17.1714C12.2269 17.167 12.2639 17.1771 12.2933 17.1997L12.6673 17.4385C12.6846 17.4455 12.6999 17.4567 12.7119 17.471C12.7239 17.4853 12.7322 17.5023 12.7361 17.5205C12.7401 17.5387 12.7395 17.5577 12.7344 17.5756C12.7294 17.5936 12.72 17.61 12.7071 17.6236L11.8536 18.9593Z" fill="black"/>
<path d="M13.9888 15.623L13.4993 16.388C13.3324 16.6496 13.156 16.8102 12.9703 16.8696C12.7845 16.929 12.5828 16.8892 12.3651 16.7502L11.3884 16.1273C11.1707 15.9882 11.0494 15.8219 11.0244 15.6282C10.9994 15.4345 11.0706 15.2068 11.2381 14.9452L11.7276 14.1801C11.7449 14.1474 11.7742 14.1226 11.8094 14.1109C11.8463 14.1064 11.8836 14.1167 11.913 14.1395L12.2929 14.3819C12.3102 14.389 12.3255 14.4001 12.3375 14.4144C12.3495 14.4287 12.3579 14.4457 12.3618 14.464C12.3657 14.4822 12.3651 14.5011 12.3601 14.5191C12.355 14.537 12.3457 14.5535 12.3328 14.567L11.9298 15.1971C11.893 15.2456 11.8742 15.3054 11.8767 15.3663C11.881 15.392 11.8911 15.4164 11.9063 15.4376C11.9215 15.4588 11.9414 15.4762 11.9644 15.4885L12.7119 15.9661C12.7322 15.9817 12.7559 15.9923 12.7811 15.9969C12.8063 16.0015 12.8322 15.9999 12.8566 15.9924C12.911 15.9671 12.9559 15.9253 12.985 15.873L13.3881 15.2429C13.3952 15.2257 13.4064 15.2105 13.4207 15.1985C13.435 15.1866 13.4521 15.1783 13.4703 15.1744C13.4885 15.1705 13.5074 15.1711 13.5254 15.1761C13.5434 15.181 13.5598 15.1903 13.5734 15.2031L13.9474 15.4419C13.9802 15.459 14.005 15.4883 14.0163 15.5235C14.0204 15.559 14.0105 15.5946 13.9888 15.623Z" fill="black"/>
<path d="M14.6707 14.5568L14.3598 15.0427C14.3428 15.0757 14.3134 15.1006 14.278 15.112C14.2598 15.1144 14.2412 15.1131 14.2234 15.1083C14.2056 15.1034 14.1889 15.0951 14.1744 15.0837L12.1392 13.7858C12.1063 13.7685 12.0814 13.7391 12.0699 13.7038C12.0654 13.667 12.0757 13.6299 12.0986 13.6007L12.4095 13.1147C12.4265 13.0817 12.4559 13.0568 12.4913 13.0454C12.5282 13.041 12.5654 13.0511 12.5949 13.0737L13.3173 13.533L13.397 13.4076L12.872 12.618C12.8464 12.5866 12.8317 12.5478 12.8301 12.5073C12.8325 12.4669 12.8463 12.428 12.87 12.3951L13.1789 11.9123C13.1857 11.8978 13.1959 11.8853 13.2086 11.8756C13.2213 11.866 13.2362 11.8596 13.2519 11.8569C13.2778 11.8569 13.3029 11.8733 13.3268 11.9091L13.8527 12.6972C13.8872 12.645 13.9319 12.6002 13.9841 12.5656C14.0363 12.5309 14.0949 12.507 14.1565 12.4954C14.2867 12.4763 14.4193 12.5079 14.5268 12.5837L15.4122 13.1485C15.4295 13.1557 15.4447 13.1668 15.4567 13.1811C15.4686 13.1954 15.4769 13.2124 15.4808 13.2306C15.4847 13.2488 15.4842 13.2677 15.4792 13.2857C15.4742 13.3036 15.4649 13.32 15.4521 13.3336L15.1431 13.8164C15.136 13.8336 15.1248 13.8488 15.1105 13.8608C15.0962 13.8727 15.0791 13.881 15.0609 13.8849C15.0427 13.8888 15.0238 13.8882 15.0058 13.8832C14.9878 13.8783 14.9714 13.869 14.9578 13.8562L14.3454 13.4654C14.318 13.4458 14.2844 13.4369 14.2509 13.4403C14.2348 13.4437 14.2196 13.4506 14.2063 13.4605C14.1931 13.4704 14.1822 13.4831 14.1744 13.4976L13.9097 13.9116L14.6273 14.3705C14.6602 14.3876 14.6851 14.4169 14.6966 14.4521C14.6995 14.4704 14.6987 14.489 14.6942 14.507C14.6898 14.525 14.6818 14.5419 14.6707 14.5568Z" fill="black"/>
<path d="M16.7871 11.2489L15.8562 12.7041C15.8392 12.737 15.8098 12.7617 15.7745 12.773C15.7563 12.7754 15.7377 12.7741 15.72 12.7693C15.7023 12.7644 15.6857 12.7561 15.6712 12.7447L13.6361 11.4467C13.6189 11.4396 13.6036 11.4284 13.5917 11.4141C13.5797 11.3998 13.5714 11.3828 13.5675 11.3646C13.5636 11.3464 13.5642 11.3276 13.5692 11.3096C13.5742 11.2917 13.5834 11.2752 13.5962 11.2617L14.5271 9.80687C14.5342 9.78967 14.5454 9.77445 14.5598 9.76253C14.5741 9.7506 14.5911 9.74233 14.6093 9.73841C14.6276 9.7345 14.6465 9.73506 14.6644 9.74005C14.6824 9.74504 14.6989 9.75431 14.7125 9.76707L15.08 10.0015C15.0973 10.0086 15.1126 10.0197 15.1246 10.034C15.1366 10.0483 15.145 10.0653 15.1489 10.0835C15.1528 10.1018 15.1522 10.1207 15.1472 10.1387C15.1421 10.1566 15.1328 10.1731 15.1199 10.1866L14.5662 11.0519L14.8081 11.2063L15.1992 10.5946C15.2064 10.5774 15.2176 10.5621 15.2319 10.5502C15.2462 10.5383 15.2632 10.53 15.2815 10.5261C15.2997 10.5222 15.3186 10.5228 15.3366 10.5277C15.3545 10.5327 15.371 10.542 15.3846 10.5548L15.7207 10.7693C15.738 10.7763 15.7533 10.7874 15.7653 10.8017C15.7773 10.8159 15.7856 10.8329 15.7896 10.8511C15.7935 10.8693 15.7929 10.8882 15.7879 10.9061C15.7828 10.9241 15.7734 10.9405 15.7605 10.954L15.3695 11.5658L15.6394 11.7377L16.1935 10.8724C16.2005 10.8551 16.2116 10.8398 16.2259 10.8278C16.2402 10.8159 16.2572 10.8075 16.2754 10.8036C16.2937 10.7997 16.3126 10.8003 16.3306 10.8053C16.3485 10.8104 16.365 10.8197 16.3785 10.8326L16.746 11.0666C16.7633 11.0737 16.7786 11.0848 16.7906 11.0991C16.8027 11.1134 16.811 11.1304 16.8149 11.1487C16.8188 11.1669 16.8182 11.1858 16.8132 11.2038C16.8081 11.2217 16.7988 11.2382 16.7859 11.2517L16.7871 11.2489Z" fill="black"/>
<path d="M17.7801 9.69983L17.4548 10.2077C17.4465 10.2241 17.4349 10.2386 17.4209 10.2505C17.4069 10.2624 17.3906 10.2714 17.3731 10.277C17.3361 10.2814 17.2989 10.2711 17.2695 10.2483L15.7274 9.26479L15.4328 9.72571C15.4257 9.74291 15.4145 9.75813 15.4002 9.77005C15.3858 9.78198 15.3688 9.79025 15.3506 9.79417C15.3324 9.79808 15.3135 9.79752 15.2955 9.79253C15.2775 9.78754 15.261 9.77826 15.2475 9.76551L14.8675 9.52311C14.8503 9.51599 14.8351 9.5048 14.8231 9.4905C14.8112 9.4762 14.8029 9.45922 14.799 9.44101C14.795 9.42281 14.7956 9.40393 14.8006 9.38599C14.8056 9.36805 14.8149 9.35159 14.8277 9.33803L15.8841 7.68184C15.9014 7.64902 15.9309 7.62429 15.9662 7.61298C15.9845 7.6106 16.003 7.61188 16.0207 7.61673C16.0384 7.62158 16.055 7.62991 16.0695 7.64124L16.4494 7.88364C16.482 7.90013 16.5069 7.9287 16.5188 7.96324C16.5232 8.0001 16.5131 8.03723 16.4905 8.06673L16.1955 8.52764L17.7375 9.51117C17.7701 9.52767 17.795 9.55623 17.8069 9.59078C17.81 9.60981 17.8093 9.62929 17.8047 9.64804C17.8001 9.66679 17.7918 9.68441 17.7801 9.69983Z" fill="black"/>
</svg>
