<svg width="50" height="50" viewBox="0 0 50 50" fill="none" xmlns="http://www.w3.org/2000/svg">
<g opacity="0.5">
<circle cx="25" cy="25" r="25" fill="#071526"/>
<path d="M37 26.5C37.8284 26.5 38.5 25.8284 38.5 25C38.5 24.1716 37.8284 23.5 37 23.5L37 26.5ZM10.9393 23.9393C10.3536 24.5251 10.3536 25.4749 10.9393 26.0607L20.4853 35.6066C21.0711 36.1924 22.0208 36.1924 22.6066 35.6066C23.1924 35.0208 23.1924 34.0711 22.6066 33.4853L14.1213 25L22.6066 16.5147C23.1924 15.9289 23.1924 14.9792 22.6066 14.3934C22.0208 13.8076 21.0711 13.8076 20.4853 14.3934L10.9393 23.9393ZM37 23.5L12 23.5L12 26.5L37 26.5L37 23.5Z" fill="white"/>
</g>
</svg>
