<svg width="21" height="20" viewBox="0 0 21 20" fill="none" xmlns="http://www.w3.org/2000/svg">
<path d="M10.251 0C8.27317 0 6.33977 0.58649 4.69528 1.6853C3.05079 2.78412 1.76906 4.3459 1.01219 6.17316C0.25531 8.00043 0.0572759 10.0111 0.443128 11.9509C0.82898 13.8907 1.78139 15.6725 3.17991 17.0711C4.57844 18.4696 6.36027 19.422 8.30008 19.8078C10.2399 20.1937 12.2506 19.9957 14.0778 19.2388C15.9051 18.4819 17.4669 17.2002 18.5657 15.5557C19.6645 13.9112 20.251 11.9778 20.251 10C20.251 7.34783 19.1974 4.8043 17.322 2.92893C15.4467 1.05357 12.9031 0 10.251 0ZM15.162 6.851L13.521 14.585C13.399 15.133 13.073 15.267 12.621 15.008L10.121 13.166L8.91498 14.327C8.78198 14.461 8.66998 14.573 8.41498 14.573L8.59298 12.029L13.218 7.843C13.418 7.666 13.173 7.566 12.907 7.743L7.18098 11.348L4.71298 10.578C4.17698 10.408 4.16598 10.043 4.82598 9.784L14.468 6.066C14.916 5.904 15.306 6.175 15.161 6.852L15.162 6.851Z" fill="#17F0FF"/>
</svg>
