<svg width="20" height="20" viewBox="0 0 20 20" fill="none" xmlns="http://www.w3.org/2000/svg">
<path d="M7.18911 9.99999C7.18911 9.35932 7.21634 8.71721 7.27009 8.09015H3.63959C3.28029 9.33803 3.28029 10.662 3.63959 11.9098H7.27295C7.21634 11.2835 7.18911 10.6414 7.18911 9.99999Z" fill="#17F0FF"/>
<path d="M8.45132 3.35889C7.51314 3.61564 6.63971 4.06752 5.88814 4.68498C5.13657 5.30244 4.52378 6.07157 4.08984 6.94209H7.40216C7.60711 5.52744 7.95827 4.26042 8.45132 3.35889Z" fill="#17F0FF"/>
<path d="M16.4103 6.93924C15.9762 6.06925 15.3632 5.30071 14.6117 4.68386C13.8601 4.06702 12.9868 3.61577 12.0488 3.35962C12.5419 4.26044 12.893 5.52746 13.098 6.93924H16.4103Z" fill="#17F0FF"/>
<path d="M8.34082 9.99999C8.34082 10.6557 8.3702 11.2957 8.42538 11.9098H12.0752C12.1304 11.2957 12.1598 10.6557 12.1598 9.99999C12.1598 9.34427 12.1304 8.70431 12.0752 8.09015H8.42538C8.3702 8.70431 8.34082 9.34499 8.34082 9.99999Z" fill="#17F0FF"/>
<path d="M11.4616 4.91041C11.0495 3.67348 10.5565 3.1188 10.2504 3.1188C9.94444 3.1188 9.45139 3.67205 9.03933 4.91041C8.82484 5.57234 8.66568 6.25094 8.56348 6.93922H11.9317C11.8314 6.25111 11.6741 5.57251 11.4616 4.91041V4.91041Z" fill="#17F0FF"/>
<path d="M4.08984 13.0608C4.52367 13.9314 5.13642 14.7006 5.88801 15.318C6.63959 15.9355 7.51308 16.3873 8.45132 16.644C7.95827 15.7424 7.60711 14.4754 7.40216 13.0608H4.08984Z" fill="#17F0FF"/>
<path d="M10.25 2.56847e-08C8.27219 2.56847e-08 6.33879 0.58649 4.6943 1.6853C3.04981 2.78412 1.76809 4.3459 1.01121 6.17317C0.254333 8.00043 0.0562995 10.0111 0.442152 11.9509C0.828004 13.8907 1.78041 15.6725 3.17894 17.0711C4.57746 18.4696 6.35929 19.422 8.2991 19.8079C10.2389 20.1937 12.2496 19.9957 14.0768 19.2388C15.9041 18.4819 17.4659 17.2002 18.5647 15.5557C19.6635 13.9112 20.25 11.9778 20.25 10C20.2501 8.68675 19.9915 7.38635 19.489 6.17305C18.9865 4.95976 18.2499 3.85733 17.3213 2.92872C16.3927 2.00012 15.2902 1.26353 14.0769 0.761013C12.8636 0.258499 11.5632 -9.40969e-05 10.25 2.56847e-08V2.56847e-08ZM17.8077 12.7146C17.2488 14.2715 16.2228 15.6177 14.87 16.5695C13.5171 17.5212 11.9034 18.032 10.2493 18.032C8.59519 18.032 6.98144 17.5212 5.62858 16.5695C4.27572 15.6177 3.24975 14.2715 2.69088 12.7146C2.68082 12.6913 2.6722 12.6674 2.66508 12.643C2.06858 10.932 2.06858 9.06947 2.66508 7.35846C2.6722 7.33407 2.68082 7.31014 2.69088 7.2868C3.24975 5.72998 4.27572 4.38371 5.62858 3.43197C6.98144 2.48023 8.59519 1.96946 10.2493 1.96946C11.9034 1.96946 13.5171 2.48023 14.87 3.43197C16.2228 4.38371 17.2488 5.72998 17.8077 7.2868C17.8178 7.31014 17.8264 7.33407 17.8335 7.35846C18.43 9.06947 18.43 10.932 17.8335 12.643C17.8264 12.6674 17.8178 12.6913 17.8077 12.7146V12.7146Z" fill="#17F0FF"/>
<path d="M13.2295 8.09015C13.2832 8.71721 13.3105 9.35932 13.3105 9.99999C13.3105 10.6407 13.2832 11.2835 13.2295 11.9098H16.86C17.2193 10.662 17.2193 9.33803 16.86 8.09015H13.2295Z" fill="#17F0FF"/>
<path d="M12.0488 16.6411C12.9871 16.3845 13.8606 15.9326 14.6121 15.3152C15.3637 14.6977 15.9765 13.9285 16.4103 13.0579H13.098C12.893 14.4761 12.5419 15.7396 12.0488 16.6411Z" fill="#17F0FF"/>
<path d="M9.03933 15.0896C9.45139 16.3265 9.94444 16.8812 10.2504 16.8812C10.5565 16.8812 11.0495 16.3279 11.4616 15.0896C11.6756 14.4276 11.8342 13.749 11.936 13.0608H8.56348C8.66568 13.749 8.82484 14.4276 9.03933 15.0896V15.0896Z" fill="#17F0FF"/>
</svg>
